G04*
G04 #@! TF.GenerationSoftware,Altium Limited,Altium Designer,23.8.1 (32)*
G04*
G04 Layer_Color=8388736*
%FSLAX43Y43*%
%MOMM*%
G71*
G04*
G04 #@! TF.SameCoordinates,9BBBEFC2-DBCC-4367-88D2-B00D1FEB7D6A*
G04*
G04*
G04 #@! TF.FilePolarity,Negative*
G04*
G01*
G75*
%ADD19R,1.000X0.900*%
%ADD32R,3.600X1.700*%
%ADD33R,1.100X1.000*%
%ADD34R,0.900X0.900*%
%ADD35R,1.000X1.100*%
%ADD36R,1.370X0.659*%
%ADD37R,2.100X2.500*%
%ADD38R,0.900X1.000*%
%ADD39R,1.000X0.800*%
%ADD40R,2.081X0.659*%
%ADD41R,1.573X0.608*%
%ADD42R,0.608X1.573*%
%ADD43R,1.000X1.750*%
%ADD44R,0.900X0.900*%
%ADD45C,4.600*%
%ADD46C,1.700*%
G04:AMPARAMS|DCode=47|XSize=1.7mm|YSize=1.7mm|CornerRadius=0.45mm|HoleSize=0mm|Usage=FLASHONLY|Rotation=0.000|XOffset=0mm|YOffset=0mm|HoleType=Round|Shape=RoundedRectangle|*
%AMROUNDEDRECTD47*
21,1,1.700,0.800,0,0,0.0*
21,1,0.800,1.700,0,0,0.0*
1,1,0.900,0.400,-0.400*
1,1,0.900,-0.400,-0.400*
1,1,0.900,-0.400,0.400*
1,1,0.900,0.400,0.400*
%
%ADD47ROUNDEDRECTD47*%
%ADD48C,3.600*%
%ADD49C,1.600*%
%ADD50C,1.624*%
%ADD51C,0.100*%
%ADD52R,1.624X1.624*%
%ADD53C,1.340*%
%ADD54R,1.340X1.340*%
%ADD55C,0.700*%
D19*
X42300Y33250D02*
D03*
Y35550D02*
D03*
X38700Y33250D02*
D03*
Y35550D02*
D03*
X35100Y33250D02*
D03*
Y35550D02*
D03*
D32*
X14700Y59800D02*
D03*
X20300D02*
D03*
D33*
X33800Y45800D02*
D03*
X35600D02*
D03*
X76000Y36350D02*
D03*
Y37700D02*
D03*
Y42050D02*
D03*
Y40700D02*
D03*
X68300Y27900D02*
D03*
X66500D02*
D03*
X29000Y12600D02*
D03*
X27200D02*
D03*
X33800Y49000D02*
D03*
X35600D02*
D03*
Y47400D02*
D03*
X33800D02*
D03*
X25500Y12600D02*
D03*
X23700D02*
D03*
X92700Y55900D02*
D03*
X94500D02*
D03*
X99200Y53300D02*
D03*
X101000D02*
D03*
Y50100D02*
D03*
X99200D02*
D03*
X101000Y51700D02*
D03*
X99200D02*
D03*
X14000Y26200D02*
D03*
X12200D02*
D03*
X87700Y51825D02*
D03*
Y53175D02*
D03*
X89354Y51825D02*
D03*
Y53175D02*
D03*
X92900Y14160D02*
D03*
Y15510D02*
D03*
Y17890D02*
D03*
Y19240D02*
D03*
X48700Y33725D02*
D03*
Y35075D02*
D03*
X47100Y33725D02*
D03*
Y35075D02*
D03*
X48700Y42800D02*
D03*
Y44150D02*
D03*
X47100Y42800D02*
D03*
Y44150D02*
D03*
X45500Y42800D02*
D03*
Y44150D02*
D03*
X43900Y42800D02*
D03*
Y44150D02*
D03*
D34*
X78400Y23425D02*
D03*
Y21825D02*
D03*
X76900Y23425D02*
D03*
Y21825D02*
D03*
D35*
X79375Y30600D02*
D03*
X78025D02*
D03*
X76850Y25125D02*
D03*
Y26925D02*
D03*
X78450Y25125D02*
D03*
Y26925D02*
D03*
X40500Y35300D02*
D03*
Y33500D02*
D03*
X36900Y35300D02*
D03*
Y33500D02*
D03*
X33300Y35300D02*
D03*
Y33500D02*
D03*
X75400Y53350D02*
D03*
Y51550D02*
D03*
X73800D02*
D03*
Y53350D02*
D03*
X77000Y51550D02*
D03*
Y53350D02*
D03*
X67400Y53250D02*
D03*
Y55050D02*
D03*
X80200Y51550D02*
D03*
Y53350D02*
D03*
X65800Y55050D02*
D03*
Y53250D02*
D03*
X78600Y51550D02*
D03*
Y53350D02*
D03*
X64200Y55050D02*
D03*
Y53250D02*
D03*
X81800Y53350D02*
D03*
Y51550D02*
D03*
X62600Y55050D02*
D03*
Y53250D02*
D03*
X59400D02*
D03*
Y55050D02*
D03*
X61000D02*
D03*
Y53250D02*
D03*
X33000Y61900D02*
D03*
Y60100D02*
D03*
X57800Y53250D02*
D03*
Y55050D02*
D03*
X56200Y53250D02*
D03*
Y55050D02*
D03*
X36200Y61900D02*
D03*
Y60100D02*
D03*
X53000Y55050D02*
D03*
Y53250D02*
D03*
X34600Y61900D02*
D03*
Y60100D02*
D03*
X49800Y55050D02*
D03*
Y53250D02*
D03*
X51400Y55050D02*
D03*
Y53250D02*
D03*
X31400Y61900D02*
D03*
Y60100D02*
D03*
X48200Y55050D02*
D03*
Y53250D02*
D03*
X25000Y61900D02*
D03*
Y60100D02*
D03*
X26600Y61900D02*
D03*
Y60100D02*
D03*
X28200Y61900D02*
D03*
Y60100D02*
D03*
X54600Y53250D02*
D03*
Y55050D02*
D03*
X29800Y60100D02*
D03*
Y61900D02*
D03*
X69000Y53250D02*
D03*
Y55050D02*
D03*
X70600Y53250D02*
D03*
Y55050D02*
D03*
X99425Y48500D02*
D03*
X100775D02*
D03*
X18175Y54600D02*
D03*
X16825D02*
D03*
D36*
X77659Y34040D02*
D03*
X79741Y33100D02*
D03*
X77659Y32160D02*
D03*
D37*
X78700Y37200D02*
D03*
Y41200D02*
D03*
D38*
X29050Y16000D02*
D03*
X27150D02*
D03*
X28100Y14000D02*
D03*
X25550Y16000D02*
D03*
X23650D02*
D03*
X24600Y14000D02*
D03*
D39*
X16900Y26600D02*
D03*
Y28000D02*
D03*
D40*
X91238Y51865D02*
D03*
Y53135D02*
D03*
X95962Y54405D02*
D03*
Y53135D02*
D03*
Y51865D02*
D03*
Y50595D02*
D03*
X91238D02*
D03*
Y54405D02*
D03*
D41*
X66620Y37206D02*
D03*
X51380Y43607D02*
D03*
Y34006D02*
D03*
X66620Y37993D02*
D03*
X51380Y42794D02*
D03*
Y34793D02*
D03*
Y36393D02*
D03*
Y37206D02*
D03*
Y37993D02*
D03*
Y38806D02*
D03*
Y39594D02*
D03*
Y40406D02*
D03*
Y41194D02*
D03*
Y42007D02*
D03*
Y44394D02*
D03*
Y45207D02*
D03*
Y45994D02*
D03*
X66620D02*
D03*
Y45207D02*
D03*
Y44394D02*
D03*
Y43607D02*
D03*
Y42794D02*
D03*
Y42007D02*
D03*
Y41194D02*
D03*
Y40406D02*
D03*
Y39594D02*
D03*
Y38806D02*
D03*
Y36393D02*
D03*
Y35606D02*
D03*
Y34793D02*
D03*
X51380Y35606D02*
D03*
X66620Y34006D02*
D03*
D42*
X53006Y47620D02*
D03*
X53793D02*
D03*
X54606D02*
D03*
X55393D02*
D03*
X56206D02*
D03*
X56993D02*
D03*
X57806D02*
D03*
X58594D02*
D03*
X59406D02*
D03*
X60194D02*
D03*
X61007D02*
D03*
X61794D02*
D03*
X62607D02*
D03*
X63394D02*
D03*
X64207D02*
D03*
X64994D02*
D03*
X63394Y32380D02*
D03*
X62607D02*
D03*
X61794D02*
D03*
X61007D02*
D03*
X60194D02*
D03*
X56993D02*
D03*
X56206D02*
D03*
X55393D02*
D03*
X54606D02*
D03*
X53793D02*
D03*
X53006D02*
D03*
X59406D02*
D03*
X57806D02*
D03*
X58594D02*
D03*
X64994D02*
D03*
X64207D02*
D03*
D43*
X92965Y57700D02*
D03*
X94235D02*
D03*
D44*
X13900Y28000D02*
D03*
X12300D02*
D03*
D45*
X12500Y67500D02*
D03*
X105500Y12500D02*
D03*
Y67500D02*
D03*
X12500Y12500D02*
D03*
D46*
X64080Y63270D02*
D03*
X61540D02*
D03*
X59000D02*
D03*
X76780Y60730D02*
D03*
X74240D02*
D03*
X71700D02*
D03*
X69160D02*
D03*
X74240Y63270D02*
D03*
X71700D02*
D03*
X69160D02*
D03*
X66620Y60730D02*
D03*
Y63270D02*
D03*
X53920Y60730D02*
D03*
Y63270D02*
D03*
X51380Y60730D02*
D03*
X48840D02*
D03*
X51380Y63270D02*
D03*
X48840D02*
D03*
X46300Y60730D02*
D03*
Y63270D02*
D03*
X43760Y60730D02*
D03*
Y63270D02*
D03*
X41220Y60730D02*
D03*
Y63270D02*
D03*
X56460Y60730D02*
D03*
X59000D02*
D03*
X61540D02*
D03*
X64080D02*
D03*
X38680D02*
D03*
X76780Y63270D02*
D03*
X79320D02*
D03*
Y60730D02*
D03*
X56460Y63270D02*
D03*
D47*
X38680D02*
D03*
D48*
X12500Y67500D02*
D03*
Y12500D02*
D03*
X105500D02*
D03*
Y67500D02*
D03*
D49*
X25080D02*
D03*
X27620D02*
D03*
X30160D02*
D03*
X32700D02*
D03*
X35240D02*
D03*
X37780D02*
D03*
X40320D02*
D03*
X42860D02*
D03*
X45400D02*
D03*
X47940D02*
D03*
X50480D02*
D03*
X53020D02*
D03*
X55560D02*
D03*
X58100D02*
D03*
X20000D02*
D03*
X22540D02*
D03*
D50*
X48600Y12800D02*
D03*
Y15800D02*
D03*
X45600D02*
D03*
Y12800D02*
D03*
X36600D02*
D03*
X39600D02*
D03*
X42600D02*
D03*
X33600Y15800D02*
D03*
X42600D02*
D03*
X39600D02*
D03*
X36600D02*
D03*
X81300D02*
D03*
X78300D02*
D03*
X81300Y12800D02*
D03*
X70400Y15800D02*
D03*
X67400D02*
D03*
X70400Y12800D02*
D03*
X59500Y15800D02*
D03*
X56500D02*
D03*
X59500Y12800D02*
D03*
X95873Y14160D02*
D03*
Y16700D02*
D03*
Y19240D02*
D03*
D51*
X30600Y16740D02*
D03*
X51600D02*
D03*
X84300D02*
D03*
X75300D02*
D03*
X73400D02*
D03*
X64400D02*
D03*
X62500D02*
D03*
X53500D02*
D03*
D52*
X33600Y12800D02*
D03*
X78300D02*
D03*
X67400D02*
D03*
X56500D02*
D03*
D53*
X19800Y37460D02*
D03*
X22340Y42540D02*
D03*
X19800Y45080D02*
D03*
Y34920D02*
D03*
X22340Y37460D02*
D03*
Y40000D02*
D03*
X19800D02*
D03*
Y42540D02*
D03*
X22340Y45080D02*
D03*
D54*
Y34920D02*
D03*
D55*
X56900Y59100D02*
D03*
X63400Y46100D02*
D03*
X64200Y58000D02*
D03*
X62600D02*
D03*
X61000D02*
D03*
X36200Y64800D02*
D03*
X35000Y63200D02*
D03*
X32000D02*
D03*
X30500D02*
D03*
X33500D02*
D03*
X27400Y40000D02*
D03*
Y34920D02*
D03*
Y41173D02*
D03*
Y45080D02*
D03*
X54888Y46112D02*
D03*
X53988Y46088D02*
D03*
X49200Y48600D02*
D03*
X48729Y47408D02*
D03*
X37200Y49000D02*
D03*
X55800Y46100D02*
D03*
X37200Y45800D02*
D03*
Y47400D02*
D03*
X48100Y49100D02*
D03*
X49800Y52100D02*
D03*
X48200D02*
D03*
X51400D02*
D03*
X81100Y31850D02*
D03*
X76300Y31380D02*
D03*
X68120Y45228D02*
D03*
Y44373D02*
D03*
X76000Y39200D02*
D03*
X77650Y20075D02*
D03*
X69800Y27900D02*
D03*
X65000D02*
D03*
X60119Y30880D02*
D03*
X23650Y17200D02*
D03*
X25550D02*
D03*
X27150D02*
D03*
X68120Y34006D02*
D03*
X32300Y45800D02*
D03*
X45800Y33725D02*
D03*
X52880Y42760D02*
D03*
Y43641D02*
D03*
X68120Y36393D02*
D03*
X38700Y32000D02*
D03*
X32300Y49000D02*
D03*
Y47400D02*
D03*
X40500Y32000D02*
D03*
X36900D02*
D03*
X33300D02*
D03*
X42300D02*
D03*
X35100D02*
D03*
X42400Y42800D02*
D03*
Y44150D02*
D03*
X45800Y35075D02*
D03*
X97700Y51700D02*
D03*
Y53300D02*
D03*
X18175Y53100D02*
D03*
X15400Y26200D02*
D03*
X68120Y37248D02*
D03*
X86200Y51825D02*
D03*
X16825Y53100D02*
D03*
X15400Y28000D02*
D03*
X86200Y53175D02*
D03*
X68120Y38102D02*
D03*
X78855Y45228D02*
D03*
X78000Y44373D02*
D03*
X60973Y30880D02*
D03*
X62682D02*
D03*
X61828D02*
D03*
X81800Y54850D02*
D03*
X80200D02*
D03*
X78600D02*
D03*
X77000D02*
D03*
X75400D02*
D03*
X73800D02*
D03*
M02*
