G04*
G04 #@! TF.GenerationSoftware,Altium Limited,Altium Designer,23.8.1 (32)*
G04*
G04 Layer_Color=32896*
%FSLAX43Y43*%
%MOMM*%
G71*
G04*
G04 #@! TF.SameCoordinates,9BBBEFC2-DBCC-4367-88D2-B00D1FEB7D6A*
G04*
G04*
G04 #@! TF.FilePolarity,Positive*
G04*
G01*
G75*
%ADD14C,0.000*%
%ADD16C,0.152*%
D14*
X52777Y32990D02*
X65223D01*
X51990Y34234D02*
Y45766D01*
X53564Y47010D02*
X64436D01*
X66010Y35022D02*
Y44978D01*
X51990Y34260D02*
X53260Y32990D01*
X52777Y47010D02*
Y48001D01*
X53234D01*
Y47010D02*
Y48001D01*
X52777Y47010D02*
X53234D01*
X53564D02*
Y48001D01*
X54022D01*
Y47010D02*
Y48001D01*
X53564Y47010D02*
X54022D01*
X54377D02*
Y48001D01*
X54834D01*
Y47010D02*
Y48001D01*
X54377Y47010D02*
X54834D01*
X55165D02*
Y48001D01*
X55622D01*
Y47010D02*
Y48001D01*
X55165Y47010D02*
X55622D01*
X55977D02*
Y48001D01*
X56435D01*
Y47010D02*
Y48001D01*
X55977Y47010D02*
X56435D01*
X56765D02*
Y48001D01*
X57222D01*
Y47010D02*
Y48001D01*
X56765Y47010D02*
X57222D01*
X57578D02*
Y48001D01*
X58035D01*
Y47010D02*
Y48001D01*
X57578Y47010D02*
X58035D01*
X58365D02*
Y48001D01*
X58822D01*
Y47010D02*
Y48001D01*
X58365Y47010D02*
X58822D01*
X59178D02*
Y48001D01*
X59635D01*
Y47010D02*
Y48001D01*
X59178Y47010D02*
X59635D01*
X59965D02*
Y48001D01*
X60422D01*
Y47010D02*
Y48001D01*
X59965Y47010D02*
X60422D01*
X60778D02*
Y48001D01*
X61235D01*
Y47010D02*
Y48001D01*
X60778Y47010D02*
X61235D01*
X61565D02*
Y48001D01*
X62023D01*
Y47010D02*
Y48001D01*
X61565Y47010D02*
X62023D01*
X62378D02*
Y48001D01*
X62835D01*
Y47010D02*
Y48001D01*
X62378Y47010D02*
X62835D01*
X63166D02*
Y48001D01*
X63623D01*
Y47010D02*
Y48001D01*
X63166Y47010D02*
X63623D01*
X63978D02*
Y48001D01*
X64436D01*
Y47010D02*
Y48001D01*
X63978Y47010D02*
X64436D01*
X64766D02*
Y48001D01*
X65223D01*
Y47010D02*
Y48001D01*
X64766Y47010D02*
X65223D01*
X66010Y46223D02*
X67001D01*
Y45766D02*
Y46223D01*
X66010Y45766D02*
X67001D01*
X66010D02*
Y46223D01*
Y45436D02*
X67001D01*
Y44978D02*
Y45436D01*
X66010Y44978D02*
X67001D01*
X66010D02*
Y45436D01*
Y44623D02*
X67001D01*
Y44166D02*
Y44623D01*
X66010Y44166D02*
X67001D01*
X66010D02*
Y44623D01*
Y43835D02*
X67001D01*
Y43378D02*
Y43835D01*
X66010Y43378D02*
X67001D01*
X66010D02*
Y43835D01*
Y43023D02*
X67001D01*
Y42565D02*
Y43023D01*
X66010Y42565D02*
X67001D01*
X66010D02*
Y43023D01*
Y42235D02*
X67001D01*
Y41778D02*
Y42235D01*
X66010Y41778D02*
X67001D01*
X66010D02*
Y42235D01*
Y41422D02*
X67001D01*
Y40965D02*
Y41422D01*
X66010Y40965D02*
X67001D01*
X66010D02*
Y41422D01*
Y40635D02*
X67001D01*
Y40178D02*
Y40635D01*
X66010Y40178D02*
X67001D01*
X66010D02*
Y40635D01*
Y39822D02*
X67001D01*
Y39365D02*
Y39822D01*
X66010Y39365D02*
X67001D01*
X66010D02*
Y39822D01*
Y39035D02*
X67001D01*
Y38578D02*
Y39035D01*
X66010Y38578D02*
X67001D01*
X66010D02*
Y39035D01*
Y38222D02*
X67001D01*
Y37765D02*
Y38222D01*
X66010Y37765D02*
X67001D01*
X66010D02*
Y38222D01*
Y37435D02*
X67001D01*
Y36977D02*
Y37435D01*
X66010Y36977D02*
X67001D01*
X66010D02*
Y37435D01*
Y36622D02*
X67001D01*
Y36165D02*
Y36622D01*
X66010Y36165D02*
X67001D01*
X66010D02*
Y36622D01*
Y35834D02*
X67001D01*
Y35377D02*
Y35834D01*
X66010Y35377D02*
X67001D01*
X66010D02*
Y35834D01*
Y35022D02*
X67001D01*
Y34564D02*
Y35022D01*
X66010Y34564D02*
X67001D01*
X66010D02*
Y35022D01*
Y34234D02*
X67001D01*
Y33777D02*
Y34234D01*
X66010Y33777D02*
X67001D01*
X66010D02*
Y34234D01*
X65223Y31999D02*
Y32990D01*
X64766Y31999D02*
X65223D01*
X64766D02*
Y32990D01*
X65223D01*
X64436Y31999D02*
Y32990D01*
X63978Y31999D02*
X64436D01*
X63978D02*
Y32990D01*
X64436D01*
X63623Y31999D02*
Y32990D01*
X63166Y31999D02*
X63623D01*
X63166D02*
Y32990D01*
X63623D01*
X62835Y31999D02*
Y32990D01*
X62378Y31999D02*
X62835D01*
X62378D02*
Y32990D01*
X62835D01*
X62023Y31999D02*
Y32990D01*
X61565Y31999D02*
X62023D01*
X61565D02*
Y32990D01*
X62023D01*
X61235Y31999D02*
Y32990D01*
X60778Y31999D02*
X61235D01*
X60778D02*
Y32990D01*
X61235D01*
X60422Y31999D02*
Y32990D01*
X59965Y31999D02*
X60422D01*
X59965D02*
Y32990D01*
X60422D01*
X59635Y31999D02*
Y32990D01*
X59178Y31999D02*
X59635D01*
X59178D02*
Y32990D01*
X59635D01*
X58822Y31999D02*
Y32990D01*
X58365Y31999D02*
X58822D01*
X58365D02*
Y32990D01*
X58822D01*
X58035Y31999D02*
Y32990D01*
X57578Y31999D02*
X58035D01*
X57578D02*
Y32990D01*
X58035D01*
X57222Y31999D02*
Y32990D01*
X56765Y31999D02*
X57222D01*
X56765D02*
Y32990D01*
X57222D01*
X56435Y31999D02*
Y32990D01*
X55977Y31999D02*
X56435D01*
X55977D02*
Y32990D01*
X56435D01*
X55622Y31999D02*
Y32990D01*
X55165Y31999D02*
X55622D01*
X55165D02*
Y32990D01*
X55622D01*
X54834Y31999D02*
Y32990D01*
X54377Y31999D02*
X54834D01*
X54377D02*
Y32990D01*
X54834D01*
X54022Y31999D02*
Y32990D01*
X53564Y31999D02*
X54022D01*
X53564D02*
Y32990D01*
X54022D01*
X53234Y31999D02*
Y32990D01*
X52777Y31999D02*
X53234D01*
X52777D02*
Y32990D01*
X53234D01*
X50999Y33777D02*
X51990D01*
X50999D02*
Y34234D01*
X51990D01*
Y33777D02*
Y34234D01*
X50999Y34564D02*
X51990D01*
X50999D02*
Y35022D01*
X51990D01*
Y34564D02*
Y35022D01*
X50999Y35377D02*
X51990D01*
X50999D02*
Y35834D01*
X51990D01*
Y35377D02*
Y35834D01*
X50999Y36165D02*
X51990D01*
X50999D02*
Y36622D01*
X51990D01*
Y36165D02*
Y36622D01*
X50999Y36977D02*
X51990D01*
X50999D02*
Y37435D01*
X51990D01*
Y36977D02*
Y37435D01*
X50999Y37765D02*
X51990D01*
X50999D02*
Y38222D01*
X51990D01*
Y37765D02*
Y38222D01*
X50999Y38578D02*
X51990D01*
X50999D02*
Y39035D01*
X51990D01*
Y38578D02*
Y39035D01*
X50999Y39365D02*
X51990D01*
X50999D02*
Y39822D01*
X51990D01*
Y39365D02*
Y39822D01*
X50999Y40178D02*
X51990D01*
X50999D02*
Y40635D01*
X51990D01*
Y40178D02*
Y40635D01*
X50999Y40965D02*
X51990D01*
X50999D02*
Y41422D01*
X51990D01*
Y40965D02*
Y41422D01*
X50999Y41778D02*
X51990D01*
X50999D02*
Y42235D01*
X51990D01*
Y41778D02*
Y42235D01*
X50999Y42565D02*
X51990D01*
X50999D02*
Y43023D01*
X51990D01*
Y42565D02*
Y43023D01*
X50999Y43378D02*
X51990D01*
X50999D02*
Y43835D01*
X51990D01*
Y43378D02*
Y43835D01*
X50999Y44166D02*
X51990D01*
X50999D02*
Y44623D01*
X51990D01*
Y44166D02*
Y44623D01*
X50999Y44978D02*
X51990D01*
X50999D02*
Y45436D01*
X51990D01*
Y44978D02*
Y45436D01*
X50999Y45766D02*
X51990D01*
X50999D02*
Y46223D01*
X51990D01*
Y45766D02*
Y46223D01*
X65223Y32990D02*
X66010D01*
X64436D02*
X64766D01*
X63623D02*
X63978D01*
X62835D02*
X63166D01*
X62023D02*
X62378D01*
X61235D02*
X61565D01*
X60422D02*
X60778D01*
X59635D02*
X59965D01*
X58822D02*
X59178D01*
X58035D02*
X58365D01*
X57222D02*
X57578D01*
X56435D02*
X56765D01*
X55622D02*
X55977D01*
X54834D02*
X55165D01*
X54022D02*
X54377D01*
X53260D02*
X53564D01*
X53234D02*
X53260D01*
X51990D02*
X52777D01*
X51990D02*
Y33777D01*
Y34234D02*
Y34260D01*
Y34564D01*
Y35022D02*
Y35377D01*
Y35834D02*
Y36165D01*
Y36622D02*
Y36977D01*
Y37435D02*
Y37765D01*
Y38222D02*
Y38578D01*
Y39035D02*
Y39365D01*
Y39822D02*
Y40178D01*
Y40635D02*
Y40965D01*
Y41422D02*
Y41778D01*
Y42235D02*
Y42565D01*
Y43023D02*
Y43378D01*
Y43835D02*
Y44166D01*
Y44623D02*
Y44978D01*
Y45436D02*
Y45766D01*
Y46223D02*
Y47010D01*
X52777D01*
X53234D02*
X53564D01*
X54022D02*
X54377D01*
X54834D02*
X55165D01*
X55622D02*
X55977D01*
X56435D02*
X56765D01*
X57222D02*
X57578D01*
X58035D02*
X58365D01*
X58822D02*
X59178D01*
X59635D02*
X59965D01*
X60422D02*
X60778D01*
X61235D02*
X61565D01*
X62023D02*
X62378D01*
X62835D02*
X63166D01*
X63623D02*
X63978D01*
X64436D02*
X64766D01*
X65223D02*
X66010D01*
Y46223D02*
Y47010D01*
Y45436D02*
Y45766D01*
Y44623D02*
Y44978D01*
Y43835D02*
Y44166D01*
Y43023D02*
Y43378D01*
Y42235D02*
Y42565D01*
Y41422D02*
Y41778D01*
Y40635D02*
Y40965D01*
Y39822D02*
Y40178D01*
Y39035D02*
Y39365D01*
Y38222D02*
Y38578D01*
Y37435D02*
Y37765D01*
Y36622D02*
Y36977D01*
Y35834D02*
Y36165D01*
Y35022D02*
Y35377D01*
Y34234D02*
Y34564D01*
Y32990D02*
Y33777D01*
X52777Y32990D02*
X65223D01*
X51990Y34234D02*
Y45766D01*
X53564Y47010D02*
X64436D01*
X66010Y35022D02*
Y44978D01*
X51990Y34260D02*
X53260Y32990D01*
X52777Y47010D02*
Y48001D01*
X53234D01*
Y47010D02*
Y48001D01*
X52777Y47010D02*
X53234D01*
X53564D02*
Y48001D01*
X54022D01*
Y47010D02*
Y48001D01*
X53564Y47010D02*
X54022D01*
X54377D02*
Y48001D01*
X54834D01*
Y47010D02*
Y48001D01*
X54377Y47010D02*
X54834D01*
X55165D02*
Y48001D01*
X55622D01*
Y47010D02*
Y48001D01*
X55165Y47010D02*
X55622D01*
X55977D02*
Y48001D01*
X56435D01*
Y47010D02*
Y48001D01*
X55977Y47010D02*
X56435D01*
X56765D02*
Y48001D01*
X57222D01*
Y47010D02*
Y48001D01*
X56765Y47010D02*
X57222D01*
X57578D02*
Y48001D01*
X58035D01*
Y47010D02*
Y48001D01*
X57578Y47010D02*
X58035D01*
X58365D02*
Y48001D01*
X58822D01*
Y47010D02*
Y48001D01*
X58365Y47010D02*
X58822D01*
X59178D02*
Y48001D01*
X59635D01*
Y47010D02*
Y48001D01*
X59178Y47010D02*
X59635D01*
X59965D02*
Y48001D01*
X60422D01*
Y47010D02*
Y48001D01*
X59965Y47010D02*
X60422D01*
X60778D02*
Y48001D01*
X61235D01*
Y47010D02*
Y48001D01*
X60778Y47010D02*
X61235D01*
X61565D02*
Y48001D01*
X62023D01*
Y47010D02*
Y48001D01*
X61565Y47010D02*
X62023D01*
X62378D02*
Y48001D01*
X62835D01*
Y47010D02*
Y48001D01*
X62378Y47010D02*
X62835D01*
X63166D02*
Y48001D01*
X63623D01*
Y47010D02*
Y48001D01*
X63166Y47010D02*
X63623D01*
X63978D02*
Y48001D01*
X64436D01*
Y47010D02*
Y48001D01*
X63978Y47010D02*
X64436D01*
X64766D02*
Y48001D01*
X65223D01*
Y47010D02*
Y48001D01*
X64766Y47010D02*
X65223D01*
X66010Y46223D02*
X67001D01*
Y45766D02*
Y46223D01*
X66010Y45766D02*
X67001D01*
X66010D02*
Y46223D01*
Y45436D02*
X67001D01*
Y44978D02*
Y45436D01*
X66010Y44978D02*
X67001D01*
X66010D02*
Y45436D01*
Y44623D02*
X67001D01*
Y44166D02*
Y44623D01*
X66010Y44166D02*
X67001D01*
X66010D02*
Y44623D01*
Y43835D02*
X67001D01*
Y43378D02*
Y43835D01*
X66010Y43378D02*
X67001D01*
X66010D02*
Y43835D01*
Y43023D02*
X67001D01*
Y42565D02*
Y43023D01*
X66010Y42565D02*
X67001D01*
X66010D02*
Y43023D01*
Y42235D02*
X67001D01*
Y41778D02*
Y42235D01*
X66010Y41778D02*
X67001D01*
X66010D02*
Y42235D01*
Y41422D02*
X67001D01*
Y40965D02*
Y41422D01*
X66010Y40965D02*
X67001D01*
X66010D02*
Y41422D01*
Y40635D02*
X67001D01*
Y40178D02*
Y40635D01*
X66010Y40178D02*
X67001D01*
X66010D02*
Y40635D01*
Y39822D02*
X67001D01*
Y39365D02*
Y39822D01*
X66010Y39365D02*
X67001D01*
X66010D02*
Y39822D01*
Y39035D02*
X67001D01*
Y38578D02*
Y39035D01*
X66010Y38578D02*
X67001D01*
X66010D02*
Y39035D01*
Y38222D02*
X67001D01*
Y37765D02*
Y38222D01*
X66010Y37765D02*
X67001D01*
X66010D02*
Y38222D01*
Y37435D02*
X67001D01*
Y36977D02*
Y37435D01*
X66010Y36977D02*
X67001D01*
X66010D02*
Y37435D01*
Y36622D02*
X67001D01*
Y36165D02*
Y36622D01*
X66010Y36165D02*
X67001D01*
X66010D02*
Y36622D01*
Y35834D02*
X67001D01*
Y35377D02*
Y35834D01*
X66010Y35377D02*
X67001D01*
X66010D02*
Y35834D01*
Y35022D02*
X67001D01*
Y34564D02*
Y35022D01*
X66010Y34564D02*
X67001D01*
X66010D02*
Y35022D01*
Y34234D02*
X67001D01*
Y33777D02*
Y34234D01*
X66010Y33777D02*
X67001D01*
X66010D02*
Y34234D01*
X65223Y31999D02*
Y32990D01*
X64766Y31999D02*
X65223D01*
X64766D02*
Y32990D01*
X65223D01*
X64436Y31999D02*
Y32990D01*
X63978Y31999D02*
X64436D01*
X63978D02*
Y32990D01*
X64436D01*
X63623Y31999D02*
Y32990D01*
X63166Y31999D02*
X63623D01*
X63166D02*
Y32990D01*
X63623D01*
X62835Y31999D02*
Y32990D01*
X62378Y31999D02*
X62835D01*
X62378D02*
Y32990D01*
X62835D01*
X62023Y31999D02*
Y32990D01*
X61565Y31999D02*
X62023D01*
X61565D02*
Y32990D01*
X62023D01*
X61235Y31999D02*
Y32990D01*
X60778Y31999D02*
X61235D01*
X60778D02*
Y32990D01*
X61235D01*
X60422Y31999D02*
Y32990D01*
X59965Y31999D02*
X60422D01*
X59965D02*
Y32990D01*
X60422D01*
X59635Y31999D02*
Y32990D01*
X59178Y31999D02*
X59635D01*
X59178D02*
Y32990D01*
X59635D01*
X58822Y31999D02*
Y32990D01*
X58365Y31999D02*
X58822D01*
X58365D02*
Y32990D01*
X58822D01*
X58035Y31999D02*
Y32990D01*
X57578Y31999D02*
X58035D01*
X57578D02*
Y32990D01*
X58035D01*
X57222Y31999D02*
Y32990D01*
X56765Y31999D02*
X57222D01*
X56765D02*
Y32990D01*
X57222D01*
X56435Y31999D02*
Y32990D01*
X55977Y31999D02*
X56435D01*
X55977D02*
Y32990D01*
X56435D01*
X55622Y31999D02*
Y32990D01*
X55165Y31999D02*
X55622D01*
X55165D02*
Y32990D01*
X55622D01*
X54834Y31999D02*
Y32990D01*
X54377Y31999D02*
X54834D01*
X54377D02*
Y32990D01*
X54834D01*
X54022Y31999D02*
Y32990D01*
X53564Y31999D02*
X54022D01*
X53564D02*
Y32990D01*
X54022D01*
X53234Y31999D02*
Y32990D01*
X52777Y31999D02*
X53234D01*
X52777D02*
Y32990D01*
X53234D01*
X50999Y33777D02*
X51990D01*
X50999D02*
Y34234D01*
X51990D01*
Y33777D02*
Y34234D01*
X50999Y34564D02*
X51990D01*
X50999D02*
Y35022D01*
X51990D01*
Y34564D02*
Y35022D01*
X50999Y35377D02*
X51990D01*
X50999D02*
Y35834D01*
X51990D01*
Y35377D02*
Y35834D01*
X50999Y36165D02*
X51990D01*
X50999D02*
Y36622D01*
X51990D01*
Y36165D02*
Y36622D01*
X50999Y36977D02*
X51990D01*
X50999D02*
Y37435D01*
X51990D01*
Y36977D02*
Y37435D01*
X50999Y37765D02*
X51990D01*
X50999D02*
Y38222D01*
X51990D01*
Y37765D02*
Y38222D01*
X50999Y38578D02*
X51990D01*
X50999D02*
Y39035D01*
X51990D01*
Y38578D02*
Y39035D01*
X50999Y39365D02*
X51990D01*
X50999D02*
Y39822D01*
X51990D01*
Y39365D02*
Y39822D01*
X50999Y40178D02*
X51990D01*
X50999D02*
Y40635D01*
X51990D01*
Y40178D02*
Y40635D01*
X50999Y40965D02*
X51990D01*
X50999D02*
Y41422D01*
X51990D01*
Y40965D02*
Y41422D01*
X50999Y41778D02*
X51990D01*
X50999D02*
Y42235D01*
X51990D01*
Y41778D02*
Y42235D01*
X50999Y42565D02*
X51990D01*
X50999D02*
Y43023D01*
X51990D01*
Y42565D02*
Y43023D01*
X50999Y43378D02*
X51990D01*
X50999D02*
Y43835D01*
X51990D01*
Y43378D02*
Y43835D01*
X50999Y44166D02*
X51990D01*
X50999D02*
Y44623D01*
X51990D01*
Y44166D02*
Y44623D01*
X50999Y44978D02*
X51990D01*
X50999D02*
Y45436D01*
X51990D01*
Y44978D02*
Y45436D01*
X50999Y45766D02*
X51990D01*
X50999D02*
Y46223D01*
X51990D01*
Y45766D02*
Y46223D01*
X65223Y32990D02*
X66010D01*
X64436D02*
X64766D01*
X63623D02*
X63978D01*
X62835D02*
X63166D01*
X62023D02*
X62378D01*
X61235D02*
X61565D01*
X60422D02*
X60778D01*
X59635D02*
X59965D01*
X58822D02*
X59178D01*
X58035D02*
X58365D01*
X57222D02*
X57578D01*
X56435D02*
X56765D01*
X55622D02*
X55977D01*
X54834D02*
X55165D01*
X54022D02*
X54377D01*
X53260D02*
X53564D01*
X53234D02*
X53260D01*
X51990D02*
X52777D01*
X51990D02*
Y33777D01*
Y34234D02*
Y34260D01*
Y34564D01*
Y35022D02*
Y35377D01*
Y35834D02*
Y36165D01*
Y36622D02*
Y36977D01*
Y37435D02*
Y37765D01*
Y38222D02*
Y38578D01*
Y39035D02*
Y39365D01*
Y39822D02*
Y40178D01*
Y40635D02*
Y40965D01*
Y41422D02*
Y41778D01*
Y42235D02*
Y42565D01*
Y43023D02*
Y43378D01*
Y43835D02*
Y44166D01*
Y44623D02*
Y44978D01*
Y45436D02*
Y45766D01*
Y46223D02*
Y47010D01*
X52777D01*
X53234D02*
X53564D01*
X54022D02*
X54377D01*
X54834D02*
X55165D01*
X55622D02*
X55977D01*
X56435D02*
X56765D01*
X57222D02*
X57578D01*
X58035D02*
X58365D01*
X58822D02*
X59178D01*
X59635D02*
X59965D01*
X60422D02*
X60778D01*
X61235D02*
X61565D01*
X62023D02*
X62378D01*
X62835D02*
X63166D01*
X63623D02*
X63978D01*
X64436D02*
X64766D01*
X65223D02*
X66010D01*
Y46223D02*
Y47010D01*
Y45436D02*
Y45766D01*
Y44623D02*
Y44978D01*
Y43835D02*
Y44166D01*
Y43023D02*
Y43378D01*
Y42235D02*
Y42565D01*
Y41422D02*
Y41778D01*
Y40635D02*
Y40965D01*
Y39822D02*
Y40178D01*
Y39035D02*
Y39365D01*
Y38222D02*
Y38578D01*
Y37435D02*
Y37765D01*
Y36622D02*
Y36977D01*
Y35834D02*
Y36165D01*
Y35022D02*
Y35377D01*
Y34234D02*
Y34564D01*
Y32990D02*
Y33777D01*
D16*
X77989Y34624D02*
X79411D01*
Y31576D02*
Y34624D01*
X77989Y31576D02*
X79411D01*
X77989D02*
Y34624D01*
X79411Y33354D02*
X80021D01*
Y32846D02*
Y33354D01*
X79411Y32846D02*
X80021D01*
X79411D02*
Y33354D01*
X77379Y31906D02*
X77989D01*
X77379D02*
Y32414D01*
X77989D01*
Y31906D02*
Y32414D01*
X77379Y33786D02*
X77989D01*
X77379D02*
Y34294D01*
X77989D01*
Y33786D02*
Y34294D01*
Y34624D02*
X79411D01*
Y31576D02*
Y34624D01*
X77989Y31576D02*
X79411D01*
X77989D02*
Y34624D01*
X79411Y33354D02*
X80021D01*
Y32846D02*
Y33354D01*
X79411Y32846D02*
X80021D01*
X79411D02*
Y33354D01*
X77379Y31906D02*
X77989D01*
X77379D02*
Y32414D01*
X77989D01*
Y31906D02*
Y32414D01*
X77379Y33786D02*
X77989D01*
X77379D02*
Y34294D01*
X77989D01*
Y33786D02*
Y34294D01*
M02*
