G04*
G04 #@! TF.GenerationSoftware,Altium Limited,Altium Designer,23.8.1 (32)*
G04*
G04 Layer_Color=255*
%FSLAX43Y43*%
%MOMM*%
G71*
G04*
G04 #@! TF.SameCoordinates,9BBBEFC2-DBCC-4367-88D2-B00D1FEB7D6A*
G04*
G04*
G04 #@! TF.FilePolarity,Positive*
G04*
G01*
G75*
%ADD18R,3.500X1.600*%
%ADD19R,1.000X0.900*%
%ADD20R,0.800X0.800*%
%ADD21R,0.900X1.000*%
%ADD22R,1.270X0.559*%
%ADD23R,2.000X2.400*%
%ADD24R,0.800X0.900*%
%ADD25R,0.900X0.800*%
%ADD26R,0.900X0.700*%
%ADD27R,1.981X0.559*%
%ADD28R,1.473X0.508*%
%ADD29R,0.508X1.473*%
%ADD30R,0.900X1.650*%
%ADD31R,0.800X0.800*%
%ADD49C,1.600*%
%ADD56C,4.500*%
G04:AMPARAMS|DCode=57|XSize=1.6mm|YSize=1.6mm|CornerRadius=0.4mm|HoleSize=0mm|Usage=FLASHONLY|Rotation=0.000|XOffset=0mm|YOffset=0mm|HoleType=Round|Shape=RoundedRectangle|*
%AMROUNDEDRECTD57*
21,1,1.600,0.800,0,0,0.0*
21,1,0.800,1.600,0,0,0.0*
1,1,0.800,0.400,-0.400*
1,1,0.800,-0.400,-0.400*
1,1,0.800,-0.400,0.400*
1,1,0.800,0.400,0.400*
%
%ADD57ROUNDEDRECTD57*%
%ADD58C,3.500*%
%ADD59C,1.500*%
%ADD60C,1.524*%
%ADD61R,1.524X1.524*%
%ADD62C,1.240*%
%ADD63R,1.240X1.240*%
D18*
X14700Y59800D02*
D03*
X20300D02*
D03*
D19*
X33800Y45800D02*
D03*
X35600D02*
D03*
X76000Y36350D02*
D03*
Y37700D02*
D03*
Y42050D02*
D03*
Y40700D02*
D03*
X68300Y27900D02*
D03*
X66500D02*
D03*
X29000Y12600D02*
D03*
X27200D02*
D03*
X33800Y49000D02*
D03*
X35600D02*
D03*
Y47400D02*
D03*
X33800D02*
D03*
X25500Y12600D02*
D03*
X23700D02*
D03*
X92700Y55900D02*
D03*
X94500D02*
D03*
X99200Y53300D02*
D03*
X101000D02*
D03*
Y50100D02*
D03*
X99200D02*
D03*
X101000Y51700D02*
D03*
X99200D02*
D03*
X14000Y26200D02*
D03*
X12200D02*
D03*
X87700Y51825D02*
D03*
Y53175D02*
D03*
X89354Y51825D02*
D03*
Y53175D02*
D03*
X92900Y14160D02*
D03*
Y15510D02*
D03*
Y17890D02*
D03*
Y19240D02*
D03*
X48700Y33725D02*
D03*
Y35075D02*
D03*
X47100Y33725D02*
D03*
Y35075D02*
D03*
X48700Y42800D02*
D03*
Y44150D02*
D03*
X47100Y42800D02*
D03*
Y44150D02*
D03*
X45500Y42800D02*
D03*
Y44150D02*
D03*
X43900Y42800D02*
D03*
Y44150D02*
D03*
D20*
X78400Y23425D02*
D03*
Y21825D02*
D03*
X76900Y23425D02*
D03*
Y21825D02*
D03*
D21*
X79375Y30600D02*
D03*
X78025D02*
D03*
X76850Y25125D02*
D03*
Y26925D02*
D03*
X78450Y25125D02*
D03*
Y26925D02*
D03*
X40500Y35300D02*
D03*
Y33500D02*
D03*
X36900Y35300D02*
D03*
Y33500D02*
D03*
X33300Y35300D02*
D03*
Y33500D02*
D03*
X75400Y53350D02*
D03*
Y51550D02*
D03*
X73800D02*
D03*
Y53350D02*
D03*
X77000Y51550D02*
D03*
Y53350D02*
D03*
X67400Y53250D02*
D03*
Y55050D02*
D03*
X80200Y51550D02*
D03*
Y53350D02*
D03*
X65800Y55050D02*
D03*
Y53250D02*
D03*
X78600Y51550D02*
D03*
Y53350D02*
D03*
X64200Y55050D02*
D03*
Y53250D02*
D03*
X81800Y53350D02*
D03*
Y51550D02*
D03*
X62600Y55050D02*
D03*
Y53250D02*
D03*
X59400D02*
D03*
Y55050D02*
D03*
X61000D02*
D03*
Y53250D02*
D03*
X33000Y61900D02*
D03*
Y60100D02*
D03*
X57800Y53250D02*
D03*
Y55050D02*
D03*
X56200Y53250D02*
D03*
Y55050D02*
D03*
X36200Y61900D02*
D03*
Y60100D02*
D03*
X53000Y55050D02*
D03*
Y53250D02*
D03*
X34600Y61900D02*
D03*
Y60100D02*
D03*
X49800Y55050D02*
D03*
Y53250D02*
D03*
X51400Y55050D02*
D03*
Y53250D02*
D03*
X31400Y61900D02*
D03*
Y60100D02*
D03*
X48200Y55050D02*
D03*
Y53250D02*
D03*
X25000Y61900D02*
D03*
Y60100D02*
D03*
X26600Y61900D02*
D03*
Y60100D02*
D03*
X28200Y61900D02*
D03*
Y60100D02*
D03*
X54600Y53250D02*
D03*
Y55050D02*
D03*
X29800Y60100D02*
D03*
Y61900D02*
D03*
X69000Y53250D02*
D03*
Y55050D02*
D03*
X70600Y53250D02*
D03*
Y55050D02*
D03*
X99425Y48500D02*
D03*
X100775D02*
D03*
X18175Y54600D02*
D03*
X16825D02*
D03*
D22*
X77659Y34040D02*
D03*
X79741Y33100D02*
D03*
X77659Y32160D02*
D03*
D23*
X78700Y37200D02*
D03*
Y41200D02*
D03*
D24*
X29050Y16000D02*
D03*
X27150D02*
D03*
X28100Y14000D02*
D03*
X25550Y16000D02*
D03*
X23650D02*
D03*
X24600Y14000D02*
D03*
D25*
X42300Y33250D02*
D03*
Y35550D02*
D03*
X38700Y33250D02*
D03*
Y35550D02*
D03*
X35100Y33250D02*
D03*
Y35550D02*
D03*
D26*
X16900Y26600D02*
D03*
Y28000D02*
D03*
D27*
X91238Y51865D02*
D03*
Y53135D02*
D03*
X95962Y54405D02*
D03*
Y53135D02*
D03*
Y51865D02*
D03*
Y50595D02*
D03*
X91238D02*
D03*
Y54405D02*
D03*
D28*
X66620Y37206D02*
D03*
X51380Y43607D02*
D03*
Y34006D02*
D03*
X66620Y37993D02*
D03*
X51380Y42794D02*
D03*
Y34793D02*
D03*
Y36393D02*
D03*
Y37206D02*
D03*
Y37993D02*
D03*
Y38806D02*
D03*
Y39594D02*
D03*
Y40406D02*
D03*
Y41194D02*
D03*
Y42007D02*
D03*
Y44394D02*
D03*
Y45207D02*
D03*
Y45994D02*
D03*
X66620D02*
D03*
Y45207D02*
D03*
Y44394D02*
D03*
Y43607D02*
D03*
Y42794D02*
D03*
Y42007D02*
D03*
Y41194D02*
D03*
Y40406D02*
D03*
Y39594D02*
D03*
Y38806D02*
D03*
Y36393D02*
D03*
Y35606D02*
D03*
Y34793D02*
D03*
X51380Y35606D02*
D03*
X66620Y34006D02*
D03*
D29*
X53006Y47620D02*
D03*
X53793D02*
D03*
X54606D02*
D03*
X55393D02*
D03*
X56206D02*
D03*
X56993D02*
D03*
X57806D02*
D03*
X58594D02*
D03*
X59406D02*
D03*
X60194D02*
D03*
X61007D02*
D03*
X61794D02*
D03*
X62607D02*
D03*
X63394D02*
D03*
X64207D02*
D03*
X64994D02*
D03*
X63394Y32380D02*
D03*
X62607D02*
D03*
X61794D02*
D03*
X61007D02*
D03*
X60194D02*
D03*
X56993D02*
D03*
X56206D02*
D03*
X55393D02*
D03*
X54606D02*
D03*
X53793D02*
D03*
X53006D02*
D03*
X59406D02*
D03*
X57806D02*
D03*
X58594D02*
D03*
X64994D02*
D03*
X64207D02*
D03*
D30*
X92965Y57700D02*
D03*
X94235D02*
D03*
D31*
X13900Y28000D02*
D03*
X12300D02*
D03*
D49*
X64080Y63270D02*
D03*
X61540D02*
D03*
X59000D02*
D03*
X76780Y60730D02*
D03*
X74240D02*
D03*
X71700D02*
D03*
X69160D02*
D03*
X74240Y63270D02*
D03*
X71700D02*
D03*
X69160D02*
D03*
X66620Y60730D02*
D03*
Y63270D02*
D03*
X53920Y60730D02*
D03*
Y63270D02*
D03*
X51380Y60730D02*
D03*
X48840D02*
D03*
X51380Y63270D02*
D03*
X48840D02*
D03*
X46300Y60730D02*
D03*
Y63270D02*
D03*
X43760Y60730D02*
D03*
Y63270D02*
D03*
X41220Y60730D02*
D03*
Y63270D02*
D03*
X56460Y60730D02*
D03*
X59000D02*
D03*
X61540D02*
D03*
X64080D02*
D03*
X38680D02*
D03*
X76780Y63270D02*
D03*
X79320D02*
D03*
Y60730D02*
D03*
X56460Y63270D02*
D03*
D56*
X12500Y67500D02*
D03*
X105500Y12500D02*
D03*
Y67500D02*
D03*
X12500Y12500D02*
D03*
D57*
X38680Y63270D02*
D03*
D58*
X12500Y67500D02*
D03*
Y12500D02*
D03*
X105500D02*
D03*
Y67500D02*
D03*
D59*
X25080D02*
D03*
X27620D02*
D03*
X30160D02*
D03*
X32700D02*
D03*
X35240D02*
D03*
X37780D02*
D03*
X40320D02*
D03*
X42860D02*
D03*
X45400D02*
D03*
X47940D02*
D03*
X50480D02*
D03*
X53020D02*
D03*
X55560D02*
D03*
X58100D02*
D03*
X20000D02*
D03*
X22540D02*
D03*
D60*
X48600Y12800D02*
D03*
Y15800D02*
D03*
X45600D02*
D03*
Y12800D02*
D03*
X36600D02*
D03*
X39600D02*
D03*
X42600D02*
D03*
X33600Y15800D02*
D03*
X42600D02*
D03*
X39600D02*
D03*
X36600D02*
D03*
X81300D02*
D03*
X78300D02*
D03*
X81300Y12800D02*
D03*
X70400Y15800D02*
D03*
X67400D02*
D03*
X70400Y12800D02*
D03*
X59500Y15800D02*
D03*
X56500D02*
D03*
X59500Y12800D02*
D03*
X95873Y14160D02*
D03*
Y16700D02*
D03*
Y19240D02*
D03*
D61*
X33600Y12800D02*
D03*
X78300D02*
D03*
X67400D02*
D03*
X56500D02*
D03*
D62*
X19800Y37460D02*
D03*
X22340Y42540D02*
D03*
X19800Y45080D02*
D03*
Y34920D02*
D03*
X22340Y37460D02*
D03*
Y40000D02*
D03*
X19800D02*
D03*
Y42540D02*
D03*
X22340Y45080D02*
D03*
D63*
Y34920D02*
D03*
M02*
