G04*
G04 #@! TF.GenerationSoftware,Altium Limited,Altium Designer,23.8.1 (32)*
G04*
G04 Layer_Color=32768*
%FSLAX43Y43*%
%MOMM*%
G71*
G04*
G04 #@! TF.SameCoordinates,9BBBEFC2-DBCC-4367-88D2-B00D1FEB7D6A*
G04*
G04*
G04 #@! TF.FilePolarity,Positive*
G04*
G01*
G75*
%ADD12C,0.100*%
%ADD67C,0.050*%
D12*
X34225Y45800D02*
X35175D01*
X34700Y45325D02*
Y46275D01*
X77750Y21100D02*
X79050D01*
X77750Y24150D02*
X79050D01*
X77750Y21100D02*
Y24150D01*
X79050Y21100D02*
Y24150D01*
X78400Y22175D02*
Y23075D01*
X77950Y22625D02*
X78850D01*
X78225Y30600D02*
X79175D01*
X78700Y30125D02*
Y31075D01*
X78200Y39200D02*
X79200D01*
X78700Y38700D02*
Y39700D01*
X75525Y37025D02*
X76475D01*
X76000Y36550D02*
Y37500D01*
X75525Y41375D02*
X76475D01*
X76000Y40900D02*
Y41850D01*
X76375Y26025D02*
X77325D01*
X76850Y25550D02*
Y26500D01*
X76450Y22625D02*
X77350D01*
X76900Y22175D02*
Y23075D01*
X77550Y21100D02*
Y24150D01*
X76250Y21100D02*
Y24150D01*
X77550D01*
X76250Y21100D02*
X77550D01*
X77975Y26025D02*
X78925D01*
X78450Y25550D02*
Y26500D01*
X66925Y27900D02*
X67875D01*
X67400Y27425D02*
Y28375D01*
X28100Y14500D02*
Y15500D01*
X27600Y15000D02*
X28600D01*
X27625Y12600D02*
X28575D01*
X28100Y12125D02*
Y13075D01*
X34700Y48525D02*
Y49475D01*
X34225Y49000D02*
X35175D01*
X34700Y46925D02*
Y47875D01*
X34225Y47400D02*
X35175D01*
X24600Y14500D02*
Y15500D01*
X24100Y15000D02*
X25100D01*
X24125Y12600D02*
X25075D01*
X24600Y12125D02*
Y13075D01*
X40025Y34400D02*
X40975D01*
X40500Y33925D02*
Y34875D01*
X36425Y34400D02*
X37375D01*
X36900Y33925D02*
Y34875D01*
X32825Y34400D02*
X33775D01*
X33300Y33925D02*
Y34875D01*
X41800Y34400D02*
X42800D01*
X42300Y33900D02*
Y34900D01*
X38200Y34400D02*
X39200D01*
X38700Y33900D02*
Y34900D01*
X34600Y34400D02*
X35600D01*
X35100Y33900D02*
Y34900D01*
X75400Y51975D02*
Y52925D01*
X74925Y52450D02*
X75875D01*
X73800Y51975D02*
Y52925D01*
X73325Y52450D02*
X74275D01*
X76525D02*
X77475D01*
X77000Y51975D02*
Y52925D01*
X66925Y54150D02*
X67875D01*
X67400Y53675D02*
Y54625D01*
X79725Y52450D02*
X80675D01*
X80200Y51975D02*
Y52925D01*
X65800Y53675D02*
Y54625D01*
X65325Y54150D02*
X66275D01*
X78125Y52450D02*
X79075D01*
X78600Y51975D02*
Y52925D01*
X64200Y53675D02*
Y54625D01*
X63725Y54150D02*
X64675D01*
X81325Y52450D02*
X82275D01*
X81800Y51975D02*
Y52925D01*
X62600Y53675D02*
Y54625D01*
X62125Y54150D02*
X63075D01*
X93125Y55900D02*
X94075D01*
X93600Y55425D02*
Y56375D01*
X100100Y52825D02*
Y53775D01*
X99625Y53300D02*
X100575D01*
X100100Y49625D02*
Y50575D01*
X99625Y50100D02*
X100575D01*
X100100Y51225D02*
Y52175D01*
X99625Y51700D02*
X100575D01*
X59400Y53675D02*
Y54625D01*
X58925Y54150D02*
X59875D01*
X12625Y26200D02*
X13575D01*
X13100Y25725D02*
Y26675D01*
X60525Y54150D02*
X61475D01*
X61000Y53675D02*
Y54625D01*
X32525Y61000D02*
X33475D01*
X33000Y60525D02*
Y61475D01*
X57325Y54150D02*
X58275D01*
X57800Y53675D02*
Y54625D01*
X55725Y54150D02*
X56675D01*
X56200Y53675D02*
Y54625D01*
X35725Y61000D02*
X36675D01*
X36200Y60525D02*
Y61475D01*
X52525Y54150D02*
X53475D01*
X53000Y53675D02*
Y54625D01*
X34125Y61000D02*
X35075D01*
X34600Y60525D02*
Y61475D01*
X49325Y54150D02*
X50275D01*
X49800Y53675D02*
Y54625D01*
X50925Y54150D02*
X51875D01*
X51400Y53675D02*
Y54625D01*
X31400Y60525D02*
Y61475D01*
X30925Y61000D02*
X31875D01*
X47725Y54150D02*
X48675D01*
X48200Y53675D02*
Y54625D01*
X25000Y60525D02*
Y61475D01*
X24525Y61000D02*
X25475D01*
X26600Y60525D02*
Y61475D01*
X26125Y61000D02*
X27075D01*
X27725D02*
X28675D01*
X28200Y60525D02*
Y61475D01*
X54125Y54150D02*
X55075D01*
X54600Y53675D02*
Y54625D01*
X29800Y60525D02*
Y61475D01*
X29325Y61000D02*
X30275D01*
X68525Y54150D02*
X69475D01*
X69000Y53675D02*
Y54625D01*
X70125Y54150D02*
X71075D01*
X70600Y53675D02*
Y54625D01*
X87225Y52500D02*
X88175D01*
X87700Y52025D02*
Y52975D01*
X88879Y52500D02*
X89829D01*
X89354Y52025D02*
Y52975D01*
X99625Y48500D02*
X100575D01*
X100100Y48025D02*
Y48975D01*
X92425Y14835D02*
X93375D01*
X92900Y14360D02*
Y15310D01*
X92425Y18565D02*
X93375D01*
X92900Y18090D02*
Y19040D01*
X17025Y54600D02*
X17975D01*
X17500Y54125D02*
Y55075D01*
X48225Y34400D02*
X49175D01*
X48700Y33925D02*
Y34875D01*
X46625Y34400D02*
X47575D01*
X47100Y33925D02*
Y34875D01*
X48700Y43000D02*
Y43950D01*
X48225Y43475D02*
X49175D01*
X47100Y43000D02*
Y43950D01*
X46625Y43475D02*
X47575D01*
X45500Y43000D02*
Y43950D01*
X45025Y43475D02*
X45975D01*
X43900Y43000D02*
Y43950D01*
X43425Y43475D02*
X44375D01*
X14625Y27350D02*
Y28650D01*
X11575Y27350D02*
Y28650D01*
Y27350D02*
X14625D01*
X11575Y28650D02*
X14625D01*
X12650Y28000D02*
X13550D01*
X13100Y27550D02*
Y28450D01*
D67*
X33280Y57150D02*
Y66700D01*
X84720D01*
Y57150D02*
Y66700D01*
X33280Y57150D02*
X84720D01*
X58500Y62000D02*
X59500D01*
X59000Y61500D02*
Y62500D01*
X36400Y45050D02*
Y46550D01*
X33000Y45050D02*
Y46550D01*
Y45050D02*
X36400D01*
X33000Y46550D02*
X36400D01*
X77350Y29850D02*
Y31350D01*
X80050Y29850D02*
Y31350D01*
X77350D02*
X80050D01*
X77350Y29850D02*
X80050D01*
X76750Y35850D02*
Y42550D01*
X80650Y35850D02*
Y42550D01*
X76750Y35850D02*
X80650D01*
X76750Y42550D02*
X80650D01*
X75250Y35675D02*
Y38375D01*
X76750Y35675D02*
Y38375D01*
X75250Y35675D02*
X76750D01*
X75250Y38375D02*
X76750D01*
X76750Y40025D02*
Y42725D01*
X75250Y40025D02*
Y42725D01*
X76750D01*
X75250Y40025D02*
X76750D01*
X76100Y24325D02*
Y27725D01*
X77600Y24325D02*
Y27725D01*
X76100Y24325D02*
X77600D01*
X76100Y27725D02*
X77600D01*
X77700Y24325D02*
Y27725D01*
X79200Y24325D02*
Y27725D01*
X77700Y24325D02*
X79200D01*
X77700Y27725D02*
X79200D01*
X69100Y27150D02*
Y28650D01*
X65700Y27150D02*
Y28650D01*
Y27150D02*
X69100D01*
X65700Y28650D02*
X69100D01*
X26540Y16550D02*
X29660D01*
X26540Y13450D02*
X29660D01*
Y16550D01*
X26540Y13450D02*
Y16550D01*
X29800Y11850D02*
Y13350D01*
X26400Y11850D02*
Y13350D01*
Y11850D02*
X29800D01*
X26400Y13350D02*
X29800D01*
X33000Y49750D02*
X36400D01*
X33000Y48250D02*
X36400D01*
X33000D02*
Y49750D01*
X36400Y48250D02*
Y49750D01*
X33000Y46650D02*
X36400D01*
X33000Y48150D02*
X36400D01*
Y46650D02*
Y48150D01*
X33000Y46650D02*
Y48150D01*
X23040Y16550D02*
X26160D01*
X23040Y13450D02*
X26160D01*
Y16550D01*
X23040Y13450D02*
Y16550D01*
X26300Y11850D02*
Y13350D01*
X22900Y11850D02*
Y13350D01*
Y11850D02*
X26300D01*
X22900Y13350D02*
X26300D01*
X41250Y32700D02*
Y36100D01*
X39750Y32700D02*
Y36100D01*
X41250D01*
X39750Y32700D02*
X41250D01*
X37650D02*
Y36100D01*
X36150Y32700D02*
Y36100D01*
X37650D01*
X36150Y32700D02*
X37650D01*
X34050D02*
Y36100D01*
X32550Y32700D02*
Y36100D01*
X34050D01*
X32550Y32700D02*
X34050D01*
X41350Y32550D02*
Y36250D01*
X43250Y32550D02*
Y36250D01*
X41350Y32550D02*
X43250D01*
X41350Y36250D02*
X43250D01*
X37750Y32550D02*
Y36250D01*
X39650Y32550D02*
Y36250D01*
X37750Y32550D02*
X39650D01*
X37750Y36250D02*
X39650D01*
X34150Y32550D02*
Y36250D01*
X36050Y32550D02*
Y36250D01*
X34150Y32550D02*
X36050D01*
X34150Y36250D02*
X36050D01*
X10012Y29590D02*
X23210D01*
X10012D02*
Y50410D01*
X23210D01*
Y29590D02*
Y50410D01*
X16350Y26150D02*
X17450D01*
X16350Y28450D02*
X17450D01*
X16350Y26150D02*
Y28450D01*
X17450Y26150D02*
Y28450D01*
X16900Y26825D02*
Y27775D01*
X16425Y27300D02*
X17375D01*
X74650Y50750D02*
X76150D01*
X74650Y54150D02*
X76150D01*
X74650Y50750D02*
Y54150D01*
X76150Y50750D02*
Y54150D01*
X73050Y50750D02*
X74550D01*
X73050Y54150D02*
X74550D01*
X73050Y50750D02*
Y54150D01*
X74550Y50750D02*
Y54150D01*
X77750Y50750D02*
Y54150D01*
X76250Y50750D02*
Y54150D01*
X77750D01*
X76250Y50750D02*
X77750D01*
X66650Y52450D02*
Y55850D01*
X68150Y52450D02*
Y55850D01*
X66650Y52450D02*
X68150D01*
X66650Y55850D02*
X68150D01*
X80950Y50750D02*
Y54150D01*
X79450Y50750D02*
Y54150D01*
X80950D01*
X79450Y50750D02*
X80950D01*
X65050Y55850D02*
X66550D01*
X65050Y52450D02*
X66550D01*
Y55850D01*
X65050Y52450D02*
Y55850D01*
X77850Y50750D02*
Y54150D01*
X79350Y50750D02*
Y54150D01*
X77850Y50750D02*
X79350D01*
X77850Y54150D02*
X79350D01*
X63450Y55850D02*
X64950D01*
X63450Y52450D02*
X64950D01*
Y55850D01*
X63450Y52450D02*
Y55850D01*
X82550Y50750D02*
Y54150D01*
X81050Y50750D02*
Y54150D01*
X82550D01*
X81050Y50750D02*
X82550D01*
X61850Y55850D02*
X63350D01*
X61850Y52450D02*
X63350D01*
Y55850D01*
X61850Y52450D02*
Y55850D01*
X91900Y55150D02*
Y56650D01*
X95300Y55150D02*
Y56650D01*
X91900D02*
X95300D01*
X91900Y55150D02*
X95300D01*
X98400Y54050D02*
X101800D01*
X98400Y52550D02*
X101800D01*
X98400D02*
Y54050D01*
X101800Y52550D02*
Y54050D01*
X98400Y49350D02*
X101800D01*
X98400Y50850D02*
X101800D01*
Y49350D02*
Y50850D01*
X98400Y49350D02*
Y50850D01*
Y50950D02*
X101800D01*
X98400Y52450D02*
X101800D01*
Y50950D02*
Y52450D01*
X98400Y50950D02*
Y52450D01*
X58650D02*
X60150D01*
X58650Y55850D02*
X60150D01*
X58650Y52450D02*
Y55850D01*
X60150Y52450D02*
Y55850D01*
X14800Y25450D02*
Y26950D01*
X11400Y25450D02*
Y26950D01*
Y25450D02*
X14800D01*
X11400Y26950D02*
X14800D01*
X61750Y52450D02*
Y55850D01*
X60250Y52450D02*
Y55850D01*
X61750D01*
X60250Y52450D02*
X61750D01*
X33750Y59300D02*
Y62700D01*
X32250Y59300D02*
Y62700D01*
X33750D01*
X32250Y59300D02*
X33750D01*
X57050Y52450D02*
Y55850D01*
X58550Y52450D02*
Y55850D01*
X57050Y52450D02*
X58550D01*
X57050Y55850D02*
X58550D01*
X55450Y52450D02*
Y55850D01*
X56950Y52450D02*
Y55850D01*
X55450Y52450D02*
X56950D01*
X55450Y55850D02*
X56950D01*
X35450Y59300D02*
Y62700D01*
X36950Y59300D02*
Y62700D01*
X35450Y59300D02*
X36950D01*
X35450Y62700D02*
X36950D01*
X53750Y52450D02*
Y55850D01*
X52250Y52450D02*
Y55850D01*
X53750D01*
X52250Y52450D02*
X53750D01*
X33850Y59300D02*
Y62700D01*
X35350Y59300D02*
Y62700D01*
X33850Y59300D02*
X35350D01*
X33850Y62700D02*
X35350D01*
X50550Y52450D02*
Y55850D01*
X49050Y52450D02*
Y55850D01*
X50550D01*
X49050Y52450D02*
X50550D01*
X52150D02*
Y55850D01*
X50650Y52450D02*
Y55850D01*
X52150D01*
X50650Y52450D02*
X52150D01*
X30650Y62700D02*
X32150D01*
X30650Y59300D02*
X32150D01*
Y62700D01*
X30650Y59300D02*
Y62700D01*
X48950Y52450D02*
Y55850D01*
X47450Y52450D02*
Y55850D01*
X48950D01*
X47450Y52450D02*
X48950D01*
X24250Y62700D02*
X25750D01*
X24250Y59300D02*
X25750D01*
Y62700D01*
X24250Y59300D02*
Y62700D01*
X25850D02*
X27350D01*
X25850Y59300D02*
X27350D01*
Y62700D01*
X25850Y59300D02*
Y62700D01*
X28950Y59300D02*
Y62700D01*
X27450Y59300D02*
Y62700D01*
X28950D01*
X27450Y59300D02*
X28950D01*
X53850Y52450D02*
Y55850D01*
X55350Y52450D02*
Y55850D01*
X53850Y52450D02*
X55350D01*
X53850Y55850D02*
X55350D01*
X29050Y59300D02*
X30550D01*
X29050Y62700D02*
X30550D01*
X29050Y59300D02*
Y62700D01*
X30550Y59300D02*
Y62700D01*
X68250Y52450D02*
Y55850D01*
X69750Y52450D02*
Y55850D01*
X68250Y52450D02*
X69750D01*
X68250Y55850D02*
X69750D01*
X69850Y52450D02*
Y55850D01*
X71350Y52450D02*
Y55850D01*
X69850Y52450D02*
X71350D01*
X69850Y55850D02*
X71350D01*
X86950Y51150D02*
Y53850D01*
X88450Y51150D02*
Y53850D01*
X86950Y51150D02*
X88450D01*
X86950Y53850D02*
X88450D01*
X88604Y51150D02*
Y53850D01*
X90104Y51150D02*
Y53850D01*
X88604Y51150D02*
X90104D01*
X88604Y53850D02*
X90104D01*
X101450Y47750D02*
Y49250D01*
X98750Y47750D02*
Y49250D01*
Y47750D02*
X101450D01*
X98750Y49250D02*
X101450D01*
X92150Y13485D02*
Y16185D01*
X93650Y13485D02*
Y16185D01*
X92150Y13485D02*
X93650D01*
X92150Y16185D02*
X93650D01*
X93650Y17215D02*
Y19915D01*
X92150Y17215D02*
Y19915D01*
X93650D01*
X92150Y17215D02*
X93650D01*
X18850Y53850D02*
Y55350D01*
X16150Y53850D02*
Y55350D01*
Y53850D02*
X18850D01*
X16150Y55350D02*
X18850D01*
X47950Y33050D02*
Y35750D01*
X49450Y33050D02*
Y35750D01*
X47950Y33050D02*
X49450D01*
X47950Y35750D02*
X49450D01*
X46350Y33050D02*
Y35750D01*
X47850Y33050D02*
Y35750D01*
X46350Y33050D02*
X47850D01*
X46350Y35750D02*
X47850D01*
X47950Y42125D02*
X49450D01*
X47950Y44825D02*
X49450D01*
X47950Y42125D02*
Y44825D01*
X49450Y42125D02*
Y44825D01*
X46350Y42125D02*
X47850D01*
X46350Y44825D02*
X47850D01*
X46350Y42125D02*
Y44825D01*
X47850Y42125D02*
Y44825D01*
X44750Y42125D02*
X46250D01*
X44750Y44825D02*
X46250D01*
X44750Y42125D02*
Y44825D01*
X46250Y42125D02*
Y44825D01*
X43150Y42125D02*
X44650D01*
X43150Y44825D02*
X44650D01*
X43150Y42125D02*
Y44825D01*
X44650Y42125D02*
Y44825D01*
M02*
