G04*
G04 #@! TF.GenerationSoftware,Altium Limited,Altium Designer,23.8.1 (32)*
G04*
G04 Layer_Color=16711935*
%FSLAX43Y43*%
%MOMM*%
G71*
G04*
G04 #@! TF.SameCoordinates,9BBBEFC2-DBCC-4367-88D2-B00D1FEB7D6A*
G04*
G04*
G04 #@! TF.FilePolarity,Positive*
G04*
G01*
G75*
%ADD10C,0.150*%
%ADD12C,0.100*%
%ADD13C,0.200*%
%ADD14C,0.000*%
%ADD15C,0.254*%
%ADD16C,0.152*%
%ADD17C,0.127*%
%ADD66R,4.500X0.725*%
D10*
X14200Y56500D02*
Y63100D01*
Y56500D02*
X20800D01*
Y63100D01*
X14200D02*
X20800D01*
D12*
X33580Y57575D02*
Y66425D01*
X84420D01*
Y57575D02*
Y66425D01*
X33580Y57575D02*
X84420D01*
X35575Y45325D02*
Y46275D01*
X33825Y45325D02*
Y46275D01*
Y45325D02*
X35575D01*
X33825Y46275D02*
X35575D01*
X77950Y21775D02*
X78850D01*
X77950Y23475D02*
X78850D01*
X77950Y21775D02*
Y23475D01*
X78850Y21775D02*
Y23475D01*
X77825Y30125D02*
Y31075D01*
X79575Y30125D02*
Y31075D01*
X77825D02*
X79575D01*
X77825Y30125D02*
X79575D01*
X77000Y36600D02*
Y41800D01*
X80400Y36600D02*
Y41800D01*
X77000Y36600D02*
X80400D01*
X77000Y41800D02*
X80400D01*
X75525Y36150D02*
Y37900D01*
X76475Y36150D02*
Y37900D01*
X75525Y36150D02*
X76475D01*
X75525Y37900D02*
X76475D01*
X76475Y40500D02*
Y42250D01*
X75525Y40500D02*
Y42250D01*
X76475D01*
X75525Y40500D02*
X76475D01*
X76375Y25150D02*
Y26900D01*
X77325Y25150D02*
Y26900D01*
X76375Y25150D02*
X77325D01*
X76375Y26900D02*
X77325D01*
X77350Y21775D02*
Y23475D01*
X76450Y21775D02*
Y23475D01*
X77350D01*
X76450Y21775D02*
X77350D01*
X77975Y25150D02*
Y26900D01*
X78925Y25150D02*
Y26900D01*
X77975Y25150D02*
X78925D01*
X77975Y26900D02*
X78925D01*
X68275Y27425D02*
Y28375D01*
X66525Y27425D02*
Y28375D01*
Y27425D02*
X68275D01*
X66525Y28375D02*
X68275D01*
X26640Y15650D02*
X29560D01*
X26640Y14350D02*
X29560D01*
Y15650D01*
X26640Y14350D02*
Y15650D01*
X28975Y12125D02*
Y13075D01*
X27225Y12125D02*
Y13075D01*
Y12125D02*
X28975D01*
X27225Y13075D02*
X28975D01*
X33825Y49475D02*
X35575D01*
X33825Y48525D02*
X35575D01*
X33825D02*
Y49475D01*
X35575Y48525D02*
Y49475D01*
X33825Y46925D02*
X35575D01*
X33825Y47875D02*
X35575D01*
Y46925D02*
Y47875D01*
X33825Y46925D02*
Y47875D01*
X23140Y15650D02*
X26060D01*
X23140Y14350D02*
X26060D01*
Y15650D01*
X23140Y14350D02*
Y15650D01*
X25475Y12125D02*
Y13075D01*
X23725Y12125D02*
Y13075D01*
Y12125D02*
X25475D01*
X23725Y13075D02*
X25475D01*
X40975Y33525D02*
Y35275D01*
X40025Y33525D02*
Y35275D01*
X40975D01*
X40025Y33525D02*
X40975D01*
X37375D02*
Y35275D01*
X36425Y33525D02*
Y35275D01*
X37375D01*
X36425Y33525D02*
X37375D01*
X33775D02*
Y35275D01*
X32825Y33525D02*
Y35275D01*
X33775D01*
X32825Y33525D02*
X33775D01*
X41575Y33450D02*
Y35350D01*
X43025Y33450D02*
Y35350D01*
X41575Y33450D02*
X43025D01*
X41575Y35350D02*
X43025D01*
X37975Y33450D02*
Y35350D01*
X39425Y33450D02*
Y35350D01*
X37975Y33450D02*
X39425D01*
X37975Y35350D02*
X39425D01*
X34375Y33450D02*
Y35350D01*
X35825Y33450D02*
Y35350D01*
X34375Y33450D02*
X35825D01*
X34375Y35350D02*
X35825D01*
X16425Y26425D02*
X17375D01*
X16425Y28175D02*
X17375D01*
X16425Y26425D02*
Y28175D01*
X17375Y26425D02*
Y28175D01*
X74925Y51575D02*
X75875D01*
X74925Y53325D02*
X75875D01*
X74925Y51575D02*
Y53325D01*
X75875Y51575D02*
Y53325D01*
X73325Y51575D02*
X74275D01*
X73325Y53325D02*
X74275D01*
X73325Y51575D02*
Y53325D01*
X74275Y51575D02*
Y53325D01*
X77475Y51575D02*
Y53325D01*
X76525Y51575D02*
Y53325D01*
X77475D01*
X76525Y51575D02*
X77475D01*
X66925Y53275D02*
Y55025D01*
X67875Y53275D02*
Y55025D01*
X66925Y53275D02*
X67875D01*
X66925Y55025D02*
X67875D01*
X80675Y51575D02*
Y53325D01*
X79725Y51575D02*
Y53325D01*
X80675D01*
X79725Y51575D02*
X80675D01*
X65325Y55025D02*
X66275D01*
X65325Y53275D02*
X66275D01*
Y55025D01*
X65325Y53275D02*
Y55025D01*
X78125Y51575D02*
Y53325D01*
X79075Y51575D02*
Y53325D01*
X78125Y51575D02*
X79075D01*
X78125Y53325D02*
X79075D01*
X63725Y55025D02*
X64675D01*
X63725Y53275D02*
X64675D01*
Y55025D01*
X63725Y53275D02*
Y55025D01*
X82275Y51575D02*
Y53325D01*
X81325Y51575D02*
Y53325D01*
X82275D01*
X81325Y51575D02*
X82275D01*
X62125Y55025D02*
X63075D01*
X62125Y53275D02*
X63075D01*
Y55025D01*
X62125Y53275D02*
Y55025D01*
X92725Y55425D02*
Y56375D01*
X94475Y55425D02*
Y56375D01*
X92725D02*
X94475D01*
X92725Y55425D02*
X94475D01*
X99225Y53775D02*
X100975D01*
X99225Y52825D02*
X100975D01*
X99225D02*
Y53775D01*
X100975Y52825D02*
Y53775D01*
X99225Y49625D02*
X100975D01*
X99225Y50575D02*
X100975D01*
Y49625D02*
Y50575D01*
X99225Y49625D02*
Y50575D01*
Y51225D02*
X100975D01*
X99225Y52175D02*
X100975D01*
Y51225D02*
Y52175D01*
X99225Y51225D02*
Y52175D01*
X58925Y53275D02*
X59875D01*
X58925Y55025D02*
X59875D01*
X58925Y53275D02*
Y55025D01*
X59875Y53275D02*
Y55025D01*
X13975Y25725D02*
Y26675D01*
X12225Y25725D02*
Y26675D01*
Y25725D02*
X13975D01*
X12225Y26675D02*
X13975D01*
X61475Y53275D02*
Y55025D01*
X60525Y53275D02*
Y55025D01*
X61475D01*
X60525Y53275D02*
X61475D01*
X33475Y60125D02*
Y61875D01*
X32525Y60125D02*
Y61875D01*
X33475D01*
X32525Y60125D02*
X33475D01*
X57325Y53275D02*
Y55025D01*
X58275Y53275D02*
Y55025D01*
X57325Y53275D02*
X58275D01*
X57325Y55025D02*
X58275D01*
X55725Y53275D02*
Y55025D01*
X56675Y53275D02*
Y55025D01*
X55725Y53275D02*
X56675D01*
X55725Y55025D02*
X56675D01*
X35725Y60125D02*
Y61875D01*
X36675Y60125D02*
Y61875D01*
X35725Y60125D02*
X36675D01*
X35725Y61875D02*
X36675D01*
X53475Y53275D02*
Y55025D01*
X52525Y53275D02*
Y55025D01*
X53475D01*
X52525Y53275D02*
X53475D01*
X34125Y60125D02*
Y61875D01*
X35075Y60125D02*
Y61875D01*
X34125Y60125D02*
X35075D01*
X34125Y61875D02*
X35075D01*
X50275Y53275D02*
Y55025D01*
X49325Y53275D02*
Y55025D01*
X50275D01*
X49325Y53275D02*
X50275D01*
X51875D02*
Y55025D01*
X50925Y53275D02*
Y55025D01*
X51875D01*
X50925Y53275D02*
X51875D01*
X30925Y61875D02*
X31875D01*
X30925Y60125D02*
X31875D01*
Y61875D01*
X30925Y60125D02*
Y61875D01*
X48675Y53275D02*
Y55025D01*
X47725Y53275D02*
Y55025D01*
X48675D01*
X47725Y53275D02*
X48675D01*
X24525Y61875D02*
X25475D01*
X24525Y60125D02*
X25475D01*
Y61875D01*
X24525Y60125D02*
Y61875D01*
X26125D02*
X27075D01*
X26125Y60125D02*
X27075D01*
Y61875D01*
X26125Y60125D02*
Y61875D01*
X28675Y60125D02*
Y61875D01*
X27725Y60125D02*
Y61875D01*
X28675D01*
X27725Y60125D02*
X28675D01*
X54125Y53275D02*
Y55025D01*
X55075Y53275D02*
Y55025D01*
X54125Y53275D02*
X55075D01*
X54125Y55025D02*
X55075D01*
X29325Y60125D02*
X30275D01*
X29325Y61875D02*
X30275D01*
X29325Y60125D02*
Y61875D01*
X30275Y60125D02*
Y61875D01*
X68525Y53275D02*
Y55025D01*
X69475Y53275D02*
Y55025D01*
X68525Y53275D02*
X69475D01*
X68525Y55025D02*
X69475D01*
X70125Y53275D02*
Y55025D01*
X71075Y53275D02*
Y55025D01*
X70125Y53275D02*
X71075D01*
X70125Y55025D02*
X71075D01*
X87225Y51625D02*
Y53375D01*
X88175Y51625D02*
Y53375D01*
X87225Y51625D02*
X88175D01*
X87225Y53375D02*
X88175D01*
X88879Y51625D02*
Y53375D01*
X89829Y51625D02*
Y53375D01*
X88879Y51625D02*
X89829D01*
X88879Y53375D02*
X89829D01*
X100975Y48025D02*
Y48975D01*
X99225Y48025D02*
Y48975D01*
Y48025D02*
X100975D01*
X99225Y48975D02*
X100975D01*
X92425Y13960D02*
Y15710D01*
X93375Y13960D02*
Y15710D01*
X92425Y13960D02*
X93375D01*
X92425Y15710D02*
X93375D01*
X93375Y17690D02*
Y19440D01*
X92425Y17690D02*
Y19440D01*
X93375D01*
X92425Y17690D02*
X93375D01*
X18375Y54125D02*
Y55075D01*
X16625Y54125D02*
Y55075D01*
Y54125D02*
X18375D01*
X16625Y55075D02*
X18375D01*
X48225Y33525D02*
Y35275D01*
X49175Y33525D02*
Y35275D01*
X48225Y33525D02*
X49175D01*
X48225Y35275D02*
X49175D01*
X46625Y33525D02*
Y35275D01*
X47575Y33525D02*
Y35275D01*
X46625Y33525D02*
X47575D01*
X46625Y35275D02*
X47575D01*
X48225Y42600D02*
X49175D01*
X48225Y44350D02*
X49175D01*
X48225Y42600D02*
Y44350D01*
X49175Y42600D02*
Y44350D01*
X46625Y42600D02*
X47575D01*
X46625Y44350D02*
X47575D01*
X46625Y42600D02*
Y44350D01*
X47575Y42600D02*
Y44350D01*
X45025Y42600D02*
X45975D01*
X45025Y44350D02*
X45975D01*
X45025Y42600D02*
Y44350D01*
X45975Y42600D02*
Y44350D01*
X43425Y42600D02*
X44375D01*
X43425Y44350D02*
X44375D01*
X43425Y42600D02*
Y44350D01*
X44375Y42600D02*
Y44350D01*
X13950Y27550D02*
Y28450D01*
X12250Y27550D02*
Y28450D01*
Y27550D02*
X13950D01*
X12250Y28450D02*
X13950D01*
D13*
X22440Y29190D02*
G03*
X22440Y29190I-100J0D01*
G01*
D14*
X93295Y54938D02*
G03*
X93905Y54938I305J0D01*
G01*
X93295D02*
G03*
X93905Y54938I305J0D01*
G01*
D15*
X93873Y10950D02*
Y22450D01*
X102373Y10950D02*
Y22450D01*
X93873D02*
X102373D01*
X93873Y10950D02*
X102373D01*
D16*
X95556Y54659D02*
X96597D01*
Y54151D02*
Y54659D01*
X95556Y54151D02*
X96597D01*
X95556D02*
Y54659D01*
Y53389D02*
X96597D01*
Y52881D02*
Y53389D01*
X95556Y52881D02*
X96597D01*
X95556D02*
Y53389D01*
Y52119D02*
X96597D01*
Y51611D02*
Y52119D01*
X95556Y51611D02*
X96597D01*
X95556D02*
Y52119D01*
Y50849D02*
X96597D01*
Y50341D02*
Y50849D01*
X95556Y50341D02*
X96597D01*
X95556D02*
Y50849D01*
X90603Y50341D02*
X91644D01*
X90603D02*
Y50849D01*
X91644D01*
Y50341D02*
Y50849D01*
X90603Y51611D02*
X91644D01*
X90603D02*
Y52119D01*
X91644D01*
Y51611D02*
Y52119D01*
X90603Y52881D02*
X91644D01*
X90603D02*
Y53389D01*
X91644D01*
Y52881D02*
Y53389D01*
X90603Y54151D02*
X91644D01*
X90603D02*
Y54659D01*
X91644D01*
Y54151D02*
Y54659D01*
X95556D02*
X96597D01*
Y54151D02*
Y54659D01*
X95556Y54151D02*
X96597D01*
X95556D02*
Y54659D01*
Y53389D02*
X96597D01*
Y52881D02*
Y53389D01*
X95556Y52881D02*
X96597D01*
X95556D02*
Y53389D01*
Y52119D02*
X96597D01*
Y51611D02*
Y52119D01*
X95556Y51611D02*
X96597D01*
X95556D02*
Y52119D01*
Y50849D02*
X96597D01*
Y50341D02*
Y50849D01*
X95556Y50341D02*
X96597D01*
X95556D02*
Y50849D01*
X90603Y50341D02*
X91644D01*
X90603D02*
Y50849D01*
X91644D01*
Y50341D02*
Y50849D01*
X90603Y51611D02*
X91644D01*
X90603D02*
Y52119D01*
X91644D01*
Y51611D02*
Y52119D01*
X90603Y52881D02*
X91644D01*
X90603D02*
Y53389D01*
X91644D01*
Y52881D02*
Y53389D01*
X90603Y54151D02*
X91644D01*
X90603D02*
Y54659D01*
X91644D01*
Y54151D02*
Y54659D01*
D17*
X10262Y29840D02*
X20117D01*
X10262D02*
Y50160D01*
X20117D01*
Y29840D02*
Y50160D01*
X10262Y29840D02*
X20117D01*
X10262D02*
Y50160D01*
X20117D01*
D66*
X59000Y66062D02*
D03*
M02*
