G04*
G04 #@! TF.GenerationSoftware,Altium Limited,Altium Designer,23.8.1 (32)*
G04*
G04 Layer_Color=32896*
%FSLAX43Y43*%
%MOMM*%
G71*
G04*
G04 #@! TF.SameCoordinates,9BBBEFC2-DBCC-4367-88D2-B00D1FEB7D6A*
G04*
G04*
G04 #@! TF.FilePolarity,Positive*
G04*
G01*
G75*
%ADD13C,0.200*%
%ADD15C,0.254*%
%ADD16C,0.152*%
%ADD65R,4.500X0.800*%
D13*
X29400Y12800D02*
G03*
X29400Y12800I-100J0D01*
G01*
X74100D02*
G03*
X74100Y12800I-100J0D01*
G01*
X63200D02*
G03*
X63200Y12800I-100J0D01*
G01*
X52300D02*
G03*
X52300Y12800I-100J0D01*
G01*
X33480Y57500D02*
Y66500D01*
X84520D01*
X33480Y57500D02*
X84520D01*
Y66500D01*
X52300Y10200D02*
Y17830D01*
X29900D02*
X52300D01*
X29900Y10200D02*
X52300D01*
X29900D02*
Y17830D01*
X85000Y10200D02*
Y17830D01*
X74600D02*
X85000D01*
X74600Y10200D02*
X85000D01*
X74600D02*
Y17830D01*
X74100Y10200D02*
Y17830D01*
X63700D02*
X74100D01*
X63700Y10200D02*
X74100D01*
X63700D02*
Y17830D01*
X63200Y10200D02*
Y17830D01*
X52800D02*
X63200D01*
X52800Y10200D02*
X63200D01*
X52800D02*
Y17830D01*
D15*
X84480Y69189D02*
Y67665D01*
X83465D01*
X81941Y69189D02*
X82957D01*
Y67665D01*
X81941D01*
X82957Y68427D02*
X82449D01*
X81433Y69189D02*
Y67665D01*
X80672D01*
X80418Y67919D01*
Y68935D01*
X80672Y69189D01*
X81433D01*
X79910Y67411D02*
X78894D01*
X78386Y69189D02*
Y67665D01*
Y68427D01*
X77371D01*
Y69189D01*
Y67665D01*
X76101D02*
X76609D01*
X76863Y67919D01*
Y68427D01*
X76609Y68681D01*
X76101D01*
X75847Y68427D01*
Y68173D01*
X76863D01*
X75085Y68681D02*
X74578D01*
X74324Y68427D01*
Y67665D01*
X75085D01*
X75339Y67919D01*
X75085Y68173D01*
X74324D01*
X72800Y69189D02*
Y67665D01*
X73562D01*
X73816Y67919D01*
Y68427D01*
X73562Y68681D01*
X72800D01*
X71531Y67665D02*
X72038D01*
X72292Y67919D01*
Y68427D01*
X72038Y68681D01*
X71531D01*
X71277Y68427D01*
Y68173D01*
X72292D01*
X70769Y68681D02*
Y67665D01*
Y68173D01*
X70515Y68427D01*
X70261Y68681D01*
X70007D01*
X83966Y20508D02*
X84220Y20762D01*
X84727D01*
X84981Y20508D01*
Y20254D01*
X84727Y20000D01*
X84220D01*
X83966Y19746D01*
Y19492D01*
X84220Y19238D01*
X84727D01*
X84981Y19492D01*
X83458Y20762D02*
Y19238D01*
X82950Y19746D01*
X82442Y19238D01*
Y20762D01*
X80919Y20508D02*
X81173Y20762D01*
X81680D01*
X81934Y20508D01*
Y19492D01*
X81680Y19238D01*
X81173D01*
X80919Y19492D01*
X51239Y20635D02*
X51493Y20889D01*
X52001D01*
X52255Y20635D01*
Y20381D01*
X52001Y20127D01*
X51493D01*
X51239Y19873D01*
Y19619D01*
X51493Y19365D01*
X52001D01*
X52255Y19619D01*
X50731Y20889D02*
Y19365D01*
X49970D01*
X49716Y19619D01*
Y20635D01*
X49970Y20889D01*
X50731D01*
X49208Y19111D02*
X48192D01*
X47684Y20889D02*
X46669D01*
X47176D01*
Y19365D01*
X45145Y20635D02*
X45399Y20889D01*
X45907D01*
X46161Y20635D01*
Y20381D01*
X45907Y20127D01*
X45399D01*
X45145Y19873D01*
Y19619D01*
X45399Y19365D01*
X45907D01*
X46161Y19619D01*
X74074Y20762D02*
Y19238D01*
X73313D01*
X73059Y19492D01*
Y20508D01*
X73313Y20762D01*
X74074D01*
X72551D02*
X72043D01*
X72297D01*
Y19238D01*
X72551D01*
X72043D01*
X70266Y20508D02*
X70520Y20762D01*
X71027D01*
X71281Y20508D01*
Y19492D01*
X71027Y19238D01*
X70520D01*
X70266Y19492D01*
X62159Y20635D02*
X62413Y20889D01*
X62921D01*
X63175Y20635D01*
Y19619D01*
X62921Y19365D01*
X62413D01*
X62159Y19619D01*
X61651Y19365D02*
Y20381D01*
X61144Y20889D01*
X60636Y20381D01*
Y19365D01*
Y20127D01*
X61651D01*
X60128Y19365D02*
Y20889D01*
X59112Y19365D01*
Y20889D01*
X58604Y19111D02*
X57589D01*
X57081Y20635D02*
X56827Y20889D01*
X56319D01*
X56065Y20635D01*
Y20381D01*
X56319Y20127D01*
X56573D01*
X56319D01*
X56065Y19873D01*
Y19619D01*
X56319Y19365D01*
X56827D01*
X57081Y19619D01*
D16*
X80580Y62894D02*
X80749Y62724D01*
X81088D01*
X81257Y62894D01*
Y63063D01*
X81088Y63232D01*
X80919D01*
X81088D01*
X81257Y63401D01*
Y63571D01*
X81088Y63740D01*
X80749D01*
X80580Y63571D01*
X81596Y62894D02*
X81765Y62724D01*
X82104D01*
X82273Y62894D01*
Y63063D01*
X82104Y63232D01*
X81934D01*
X82104D01*
X82273Y63401D01*
Y63571D01*
X82104Y63740D01*
X81765D01*
X81596Y63571D01*
X80580Y60354D02*
X80749Y60184D01*
X81088D01*
X81257Y60354D01*
Y60523D01*
X81088Y60692D01*
X80919D01*
X81088D01*
X81257Y60861D01*
Y61031D01*
X81088Y61200D01*
X80749D01*
X80580Y61031D01*
X82104Y61200D02*
Y60184D01*
X81596Y60692D01*
X82273D01*
X37497Y61260D02*
X36820D01*
X37497Y60583D01*
Y60414D01*
X37328Y60244D01*
X36989D01*
X36820Y60414D01*
X37120Y63800D02*
X37459D01*
X37289D01*
Y62784D01*
X37120Y62954D01*
D65*
X59000Y66100D02*
D03*
M02*
