G04*
G04 #@! TF.GenerationSoftware,Altium Limited,Altium Designer,23.8.1 (32)*
G04*
G04 Layer_Color=255*
%FSLAX43Y43*%
%MOMM*%
G71*
G04*
G04 #@! TF.SameCoordinates,9BBBEFC2-DBCC-4367-88D2-B00D1FEB7D6A*
G04*
G04*
G04 #@! TF.FilePolarity,Positive*
G04*
G01*
G75*
%ADD49C,1.600*%
%ADD56C,4.500*%
G04:AMPARAMS|DCode=57|XSize=1.6mm|YSize=1.6mm|CornerRadius=0.4mm|HoleSize=0mm|Usage=FLASHONLY|Rotation=0.000|XOffset=0mm|YOffset=0mm|HoleType=Round|Shape=RoundedRectangle|*
%AMROUNDEDRECTD57*
21,1,1.600,0.800,0,0,0.0*
21,1,0.800,1.600,0,0,0.0*
1,1,0.800,0.400,-0.400*
1,1,0.800,-0.400,-0.400*
1,1,0.800,-0.400,0.400*
1,1,0.800,0.400,0.400*
%
%ADD57ROUNDEDRECTD57*%
%ADD58C,3.500*%
%ADD59C,1.500*%
%ADD60C,1.524*%
%ADD61R,1.524X1.524*%
%ADD62C,1.240*%
%ADD63R,1.240X1.240*%
D49*
X64080Y63270D02*
D03*
X61540D02*
D03*
X59000D02*
D03*
X76780Y60730D02*
D03*
X74240D02*
D03*
X71700D02*
D03*
X69160D02*
D03*
X74240Y63270D02*
D03*
X71700D02*
D03*
X69160D02*
D03*
X66620Y60730D02*
D03*
Y63270D02*
D03*
X53920Y60730D02*
D03*
Y63270D02*
D03*
X51380Y60730D02*
D03*
X48840D02*
D03*
X51380Y63270D02*
D03*
X48840D02*
D03*
X46300Y60730D02*
D03*
Y63270D02*
D03*
X43760Y60730D02*
D03*
Y63270D02*
D03*
X41220Y60730D02*
D03*
Y63270D02*
D03*
X56460Y60730D02*
D03*
X59000D02*
D03*
X61540D02*
D03*
X64080D02*
D03*
X38680D02*
D03*
X76780Y63270D02*
D03*
X79320D02*
D03*
Y60730D02*
D03*
X56460Y63270D02*
D03*
D56*
X12500Y67500D02*
D03*
X105500Y12500D02*
D03*
Y67500D02*
D03*
X12500Y12500D02*
D03*
D57*
X38680Y63270D02*
D03*
D58*
X12500Y67500D02*
D03*
Y12500D02*
D03*
X105500D02*
D03*
Y67500D02*
D03*
D59*
X25080D02*
D03*
X27620D02*
D03*
X30160D02*
D03*
X32700D02*
D03*
X35240D02*
D03*
X37780D02*
D03*
X40320D02*
D03*
X42860D02*
D03*
X45400D02*
D03*
X47940D02*
D03*
X50480D02*
D03*
X53020D02*
D03*
X55560D02*
D03*
X58100D02*
D03*
X20000D02*
D03*
X22540D02*
D03*
D60*
X48600Y12800D02*
D03*
Y15800D02*
D03*
X45600D02*
D03*
Y12800D02*
D03*
X36600D02*
D03*
X39600D02*
D03*
X42600D02*
D03*
X33600Y15800D02*
D03*
X42600D02*
D03*
X39600D02*
D03*
X36600D02*
D03*
X81300D02*
D03*
X78300D02*
D03*
X81300Y12800D02*
D03*
X70400Y15800D02*
D03*
X67400D02*
D03*
X70400Y12800D02*
D03*
X59500Y15800D02*
D03*
X56500D02*
D03*
X59500Y12800D02*
D03*
X95873Y14160D02*
D03*
Y16700D02*
D03*
Y19240D02*
D03*
D61*
X33600Y12800D02*
D03*
X78300D02*
D03*
X67400D02*
D03*
X56500D02*
D03*
D62*
X19800Y37460D02*
D03*
X22340Y42540D02*
D03*
X19800Y45080D02*
D03*
Y34920D02*
D03*
X22340Y37460D02*
D03*
Y40000D02*
D03*
X19800D02*
D03*
Y42540D02*
D03*
X22340Y45080D02*
D03*
D63*
Y34920D02*
D03*
M02*
