G04*
G04 #@! TF.GenerationSoftware,Altium Limited,Altium Designer,23.8.1 (32)*
G04*
G04 Layer_Color=128*
%FSLAX43Y43*%
%MOMM*%
G71*
G04*
G04 #@! TF.SameCoordinates,9BBBEFC2-DBCC-4367-88D2-B00D1FEB7D6A*
G04*
G04*
G04 #@! TF.FilePolarity,Positive*
G04*
G01*
G75*
%ADD17C,0.127*%
D17*
X11150Y67500D02*
X13850D01*
X12500Y66150D02*
Y68850D01*
X63530Y63270D02*
X64630D01*
X64080Y62720D02*
Y63820D01*
X60990Y63270D02*
X62090D01*
X61540Y62720D02*
Y63820D01*
X58450Y63270D02*
X59550D01*
X59000Y62720D02*
Y63820D01*
X76230Y60730D02*
X77330D01*
X76780Y60180D02*
Y61280D01*
X73690Y60730D02*
X74790D01*
X74240Y60180D02*
Y61280D01*
X71150Y60730D02*
X72250D01*
X71700Y60180D02*
Y61280D01*
X68610Y60730D02*
X69710D01*
X69160Y60180D02*
Y61280D01*
X73690Y63270D02*
X74790D01*
X74240Y62720D02*
Y63820D01*
X71150Y63270D02*
X72250D01*
X71700Y62720D02*
Y63820D01*
X68610Y63270D02*
X69710D01*
X69160Y62720D02*
Y63820D01*
X66070Y60730D02*
X67170D01*
X66620Y60180D02*
Y61280D01*
X66070Y63270D02*
X67170D01*
X66620Y62720D02*
Y63820D01*
X53370Y60730D02*
X54470D01*
X53920Y60180D02*
Y61280D01*
X53370Y63270D02*
X54470D01*
X53920Y62720D02*
Y63820D01*
X50830Y60730D02*
X51930D01*
X51380Y60180D02*
Y61280D01*
X48290Y60730D02*
X49390D01*
X48840Y60180D02*
Y61280D01*
X50830Y63270D02*
X51930D01*
X51380Y62720D02*
Y63820D01*
X48290Y63270D02*
X49390D01*
X48840Y62720D02*
Y63820D01*
X45750Y60730D02*
X46850D01*
X46300Y60180D02*
Y61280D01*
X45750Y63270D02*
X46850D01*
X46300Y62720D02*
Y63820D01*
X43210Y60730D02*
X44310D01*
X43760Y60180D02*
Y61280D01*
X43210Y63270D02*
X44310D01*
X43760Y62720D02*
Y63820D01*
X40670Y60730D02*
X41770D01*
X41220Y60180D02*
Y61280D01*
X40670Y63270D02*
X41770D01*
X41220Y62720D02*
Y63820D01*
X55910Y60730D02*
X57010D01*
X56460Y60180D02*
Y61280D01*
X58450Y60730D02*
X59550D01*
X59000Y60180D02*
Y61280D01*
X60990Y60730D02*
X62090D01*
X61540Y60180D02*
Y61280D01*
X63530Y60730D02*
X64630D01*
X64080Y60180D02*
Y61280D01*
X38130Y63270D02*
X39230D01*
X38680Y62720D02*
Y63820D01*
X38130Y60730D02*
X39230D01*
X38680Y60180D02*
Y61280D01*
X76230Y63270D02*
X77330D01*
X76780Y62720D02*
Y63820D01*
X78770Y63270D02*
X79870D01*
X79320Y62720D02*
Y63820D01*
X78770Y60730D02*
X79870D01*
X79320Y60180D02*
Y61280D01*
X55910Y63270D02*
X57010D01*
X56460Y62720D02*
Y63820D01*
X11125Y67500D02*
X13875D01*
X12500Y66125D02*
Y68875D01*
X11125Y12500D02*
X13875D01*
X12500Y11125D02*
Y13875D01*
X104125Y12500D02*
X106875D01*
X105500Y11125D02*
Y13875D01*
X104125Y67500D02*
X106875D01*
X105500Y66125D02*
Y68875D01*
X24480Y67500D02*
X25680D01*
X25080Y66900D02*
Y68100D01*
X27020Y67500D02*
X28220D01*
X27620Y66900D02*
Y68100D01*
X29560Y67500D02*
X30760D01*
X30160Y66900D02*
Y68100D01*
X32100Y67500D02*
X33300D01*
X32700Y66900D02*
Y68100D01*
X34640Y67500D02*
X35840D01*
X35240Y66900D02*
Y68100D01*
X37180Y67500D02*
X38380D01*
X37780Y66900D02*
Y68100D01*
X39720Y67500D02*
X40920D01*
X40320Y66900D02*
Y68100D01*
X42260Y67500D02*
X43460D01*
X42860Y66900D02*
Y68100D01*
X44800Y67500D02*
X46000D01*
X45400Y66900D02*
Y68100D01*
X47340Y67500D02*
X48540D01*
X47940Y66900D02*
Y68100D01*
X49880Y67500D02*
X51080D01*
X50480Y66900D02*
Y68100D01*
X52420Y67500D02*
X53620D01*
X53020Y66900D02*
Y68100D01*
X54960Y67500D02*
X56160D01*
X55560Y66900D02*
Y68100D01*
X57500Y67500D02*
X58700D01*
X58100Y66900D02*
Y68100D01*
X19400Y67500D02*
X20600D01*
X20000Y66900D02*
Y68100D01*
X21940Y67500D02*
X23140D01*
X22540Y66900D02*
Y68100D01*
X48090Y12800D02*
X49110D01*
X48600Y12290D02*
Y13310D01*
X48090Y15800D02*
X49110D01*
X48600Y15290D02*
Y16310D01*
X45090Y15800D02*
X46110D01*
X45600Y15290D02*
Y16310D01*
X45090Y12800D02*
X46110D01*
X45600Y12290D02*
Y13310D01*
X30090Y16740D02*
X31110D01*
X30600Y16230D02*
Y17250D01*
X51090Y16740D02*
X52110D01*
X51600Y16230D02*
Y17250D01*
X36090Y12800D02*
X37110D01*
X36600Y12290D02*
Y13310D01*
X39090Y12800D02*
X40110D01*
X39600Y12290D02*
Y13310D01*
X42090Y12800D02*
X43110D01*
X42600Y12290D02*
Y13310D01*
X33090Y12800D02*
X34110D01*
X33600Y12290D02*
Y13310D01*
X33090Y15800D02*
X34110D01*
X33600Y15290D02*
Y16310D01*
X42090Y15800D02*
X43110D01*
X42600Y15290D02*
Y16310D01*
X39090Y15800D02*
X40110D01*
X39600Y15290D02*
Y16310D01*
X36090Y15800D02*
X37110D01*
X36600Y15290D02*
Y16310D01*
X80790Y15800D02*
X81810D01*
X81300Y15290D02*
Y16310D01*
X77790Y15800D02*
X78810D01*
X78300Y15290D02*
Y16310D01*
X77790Y12800D02*
X78810D01*
X78300Y12290D02*
Y13310D01*
X80790Y12800D02*
X81810D01*
X81300Y12290D02*
Y13310D01*
X83790Y16740D02*
X84810D01*
X84300Y16230D02*
Y17250D01*
X74790Y16740D02*
X75810D01*
X75300Y16230D02*
Y17250D01*
X69890Y15800D02*
X70910D01*
X70400Y15290D02*
Y16310D01*
X66890Y15800D02*
X67910D01*
X67400Y15290D02*
Y16310D01*
X66890Y12800D02*
X67910D01*
X67400Y12290D02*
Y13310D01*
X69890Y12800D02*
X70910D01*
X70400Y12290D02*
Y13310D01*
X72890Y16740D02*
X73910D01*
X73400Y16230D02*
Y17250D01*
X63890Y16740D02*
X64910D01*
X64400Y16230D02*
Y17250D01*
X58990Y15800D02*
X60010D01*
X59500Y15290D02*
Y16310D01*
X55990Y15800D02*
X57010D01*
X56500Y15290D02*
Y16310D01*
X55990Y12800D02*
X57010D01*
X56500Y12290D02*
Y13310D01*
X58990Y12800D02*
X60010D01*
X59500Y12290D02*
Y13310D01*
X61990Y16740D02*
X63010D01*
X62500Y16230D02*
Y17250D01*
X52990Y16740D02*
X54010D01*
X53500Y16230D02*
Y17250D01*
X19355Y37460D02*
X20245D01*
X19800Y37015D02*
Y37905D01*
X21895Y42540D02*
X22785D01*
X22340Y42095D02*
Y42985D01*
X19355Y45080D02*
X20245D01*
X19800Y44635D02*
Y45525D01*
X19355Y34920D02*
X20245D01*
X19800Y34475D02*
Y35365D01*
X21895Y34920D02*
X22785D01*
X22340Y34475D02*
Y35365D01*
X21895Y37460D02*
X22785D01*
X22340Y37015D02*
Y37905D01*
X21895Y40000D02*
X22785D01*
X22340Y39555D02*
Y40445D01*
X19355Y40000D02*
X20245D01*
X19800Y39555D02*
Y40445D01*
X19355Y42540D02*
X20245D01*
X19800Y42095D02*
Y42985D01*
X21895Y45080D02*
X22785D01*
X22340Y44635D02*
Y45525D01*
X95373Y14160D02*
X96373D01*
X95873Y13660D02*
Y14660D01*
X95373Y16700D02*
X96373D01*
X95873Y16200D02*
Y17200D01*
X95373Y19240D02*
X96373D01*
X95873Y18740D02*
Y19740D01*
X104150Y12500D02*
X106850D01*
X105500Y11150D02*
Y13850D01*
X104150Y67500D02*
X106850D01*
X105500Y66150D02*
Y68850D01*
X11150Y12500D02*
X13850D01*
X12500Y11150D02*
Y13850D01*
X56750Y59100D02*
X57050D01*
X56900Y58950D02*
Y59250D01*
X63250Y46100D02*
X63550D01*
X63400Y45950D02*
Y46250D01*
X64050Y58000D02*
X64350D01*
X64200Y57850D02*
Y58150D01*
X62450Y58000D02*
X62750D01*
X62600Y57850D02*
Y58150D01*
X60850Y58000D02*
X61150D01*
X61000Y57850D02*
Y58150D01*
X36050Y64800D02*
X36350D01*
X36200Y64650D02*
Y64950D01*
X34850Y63200D02*
X35150D01*
X35000Y63050D02*
Y63350D01*
X31850Y63200D02*
X32150D01*
X32000Y63050D02*
Y63350D01*
X30350Y63200D02*
X30650D01*
X30500Y63050D02*
Y63350D01*
X33350Y63200D02*
X33650D01*
X33500Y63050D02*
Y63350D01*
X27250Y40000D02*
X27550D01*
X27400Y39850D02*
Y40150D01*
X27250Y34920D02*
X27550D01*
X27400Y34770D02*
Y35070D01*
X27250Y41173D02*
X27550D01*
X27400Y41023D02*
Y41323D01*
X27250Y45080D02*
X27550D01*
X27400Y44930D02*
Y45230D01*
X54738Y46112D02*
X55038D01*
X54888Y45962D02*
Y46262D01*
X53838Y46088D02*
X54138D01*
X53988Y45938D02*
Y46238D01*
X49050Y48600D02*
X49350D01*
X49200Y48450D02*
Y48750D01*
X48579Y47408D02*
X48879D01*
X48729Y47258D02*
Y47558D01*
X37050Y49000D02*
X37350D01*
X37200Y48850D02*
Y49150D01*
X55650Y46100D02*
X55950D01*
X55800Y45950D02*
Y46250D01*
X37050Y45800D02*
X37350D01*
X37200Y45650D02*
Y45950D01*
X37050Y47400D02*
X37350D01*
X37200Y47250D02*
Y47550D01*
X47950Y49100D02*
X48250D01*
X48100Y48950D02*
Y49250D01*
X49650Y52100D02*
X49950D01*
X49800Y51950D02*
Y52250D01*
X48050Y52100D02*
X48350D01*
X48200Y51950D02*
Y52250D01*
X51250Y52100D02*
X51550D01*
X51400Y51950D02*
Y52250D01*
X80950Y31850D02*
X81250D01*
X81100Y31700D02*
Y32000D01*
X76150Y31380D02*
X76450D01*
X76300Y31230D02*
Y31530D01*
X67970Y45228D02*
X68270D01*
X68120Y45078D02*
Y45378D01*
X67970Y44373D02*
X68270D01*
X68120Y44223D02*
Y44523D01*
X75850Y39200D02*
X76150D01*
X76000Y39050D02*
Y39350D01*
X77500Y20075D02*
X77800D01*
X77650Y19925D02*
Y20225D01*
X69650Y27900D02*
X69950D01*
X69800Y27750D02*
Y28050D01*
X64850Y27900D02*
X65150D01*
X65000Y27750D02*
Y28050D01*
X59969Y30880D02*
X60269D01*
X60119Y30730D02*
Y31030D01*
X23500Y17200D02*
X23800D01*
X23650Y17050D02*
Y17350D01*
X25400Y17200D02*
X25700D01*
X25550Y17050D02*
Y17350D01*
X27000Y17200D02*
X27300D01*
X27150Y17050D02*
Y17350D01*
X67970Y34006D02*
X68270D01*
X68120Y33856D02*
Y34156D01*
X32150Y45800D02*
X32450D01*
X32300Y45650D02*
Y45950D01*
X45650Y33725D02*
X45950D01*
X45800Y33575D02*
Y33875D01*
X52730Y42760D02*
X53030D01*
X52880Y42610D02*
Y42910D01*
X52730Y43641D02*
X53030D01*
X52880Y43491D02*
Y43791D01*
X67970Y36393D02*
X68270D01*
X68120Y36243D02*
Y36543D01*
X38550Y32000D02*
X38850D01*
X38700Y31850D02*
Y32150D01*
X32150Y49000D02*
X32450D01*
X32300Y48850D02*
Y49150D01*
X32150Y47400D02*
X32450D01*
X32300Y47250D02*
Y47550D01*
X40350Y32000D02*
X40650D01*
X40500Y31850D02*
Y32150D01*
X36750Y32000D02*
X37050D01*
X36900Y31850D02*
Y32150D01*
X33150Y32000D02*
X33450D01*
X33300Y31850D02*
Y32150D01*
X42150Y32000D02*
X42450D01*
X42300Y31850D02*
Y32150D01*
X34950Y32000D02*
X35250D01*
X35100Y31850D02*
Y32150D01*
X42250Y42800D02*
X42550D01*
X42400Y42650D02*
Y42950D01*
X42250Y44150D02*
X42550D01*
X42400Y44000D02*
Y44300D01*
X45650Y35075D02*
X45950D01*
X45800Y34925D02*
Y35225D01*
X97550Y51700D02*
X97850D01*
X97700Y51550D02*
Y51850D01*
X97550Y53300D02*
X97850D01*
X97700Y53150D02*
Y53450D01*
X18025Y53100D02*
X18325D01*
X18175Y52950D02*
Y53250D01*
X15250Y26200D02*
X15550D01*
X15400Y26050D02*
Y26350D01*
X67970Y37248D02*
X68270D01*
X68120Y37098D02*
Y37398D01*
X86050Y51825D02*
X86350D01*
X86200Y51675D02*
Y51975D01*
X16675Y53100D02*
X16975D01*
X16825Y52950D02*
Y53250D01*
X15250Y28000D02*
X15550D01*
X15400Y27850D02*
Y28150D01*
X86050Y53175D02*
X86350D01*
X86200Y53025D02*
Y53325D01*
X67970Y38102D02*
X68270D01*
X68120Y37952D02*
Y38252D01*
X78705Y45228D02*
X79005D01*
X78855Y45078D02*
Y45378D01*
X77850Y44373D02*
X78150D01*
X78000Y44223D02*
Y44523D01*
X60823Y30880D02*
X61123D01*
X60973Y30730D02*
Y31030D01*
X62532Y30880D02*
X62832D01*
X62682Y30730D02*
Y31030D01*
X61678Y30880D02*
X61978D01*
X61828Y30730D02*
Y31030D01*
X81650Y54850D02*
X81950D01*
X81800Y54700D02*
Y55000D01*
X80050Y54850D02*
X80350D01*
X80200Y54700D02*
Y55000D01*
X78450Y54850D02*
X78750D01*
X78600Y54700D02*
Y55000D01*
X76850Y54850D02*
X77150D01*
X77000Y54700D02*
Y55000D01*
X75250Y54850D02*
X75550D01*
X75400Y54700D02*
Y55000D01*
X73650Y54850D02*
X73950D01*
X73800Y54700D02*
Y55000D01*
M02*
