G04*
G04 #@! TF.GenerationSoftware,Altium Limited,Altium Designer,23.8.1 (32)*
G04*
G04 Layer_Color=2752767*
%FSLAX25Y25*%
%MOIN*%
G70*
G04*
G04 #@! TF.SameCoordinates,BF2EEF1A-6A82-4CD2-B880-65E340770DF0*
G04*
G04*
G04 #@! TF.FilePolarity,Positive*
G04*
G01*
G75*
%ADD68C,0.00200*%
%ADD69C,0.00267*%
D68*
X251483Y248294D02*
Y249894D01*
X253083D01*
Y248294D01*
X251483D01*
X241483D02*
Y249894D01*
X243084D01*
Y248294D01*
X241483D01*
X231484D02*
Y249894D01*
X233084D01*
Y248294D01*
X231484D01*
X301483Y238295D02*
Y239895D01*
X303083D01*
Y238295D01*
X301483D01*
X291483D02*
Y239895D01*
X293084D01*
Y238295D01*
X291483D01*
X281484D02*
Y239895D01*
X283084D01*
Y238295D01*
X281484D01*
X271483D02*
Y239895D01*
X273083D01*
Y238295D01*
X271483D01*
X291483Y248294D02*
Y249894D01*
X293084D01*
Y248294D01*
X291483D01*
X281484D02*
Y249894D01*
X283084D01*
Y248294D01*
X281484D01*
X271483D02*
Y249894D01*
X273083D01*
Y248294D01*
X271483D01*
X261484Y238295D02*
Y239895D01*
X263084D01*
Y238295D01*
X261484D01*
Y248294D02*
Y249894D01*
X263084D01*
Y248294D01*
X261484D01*
X211484Y238295D02*
Y239895D01*
X213084D01*
Y238295D01*
X211484D01*
Y248294D02*
Y249894D01*
X213084D01*
Y248294D01*
X211484D01*
X201483Y238295D02*
Y239895D01*
X203083D01*
Y238295D01*
X201483D01*
X191483D02*
Y239895D01*
X193084D01*
Y238295D01*
X191483D01*
X201483Y248294D02*
Y249894D01*
X203083D01*
Y248294D01*
X201483D01*
X191483D02*
Y249894D01*
X193084D01*
Y248294D01*
X191483D01*
X181483Y238295D02*
Y239895D01*
X183083D01*
Y238295D01*
X181483D01*
Y248294D02*
Y249894D01*
X183083D01*
Y248294D01*
X181483D01*
X171484Y238295D02*
Y239895D01*
X173083D01*
Y238295D01*
X171484D01*
Y248294D02*
Y249894D01*
X173083D01*
Y248294D01*
X171484D01*
X161484Y238295D02*
Y239895D01*
X163084D01*
Y238295D01*
X161484D01*
Y248294D02*
Y249894D01*
X163084D01*
Y248294D01*
X161484D01*
X221483Y238295D02*
Y239895D01*
X223083D01*
Y238295D01*
X221483D01*
X231484D02*
Y239895D01*
X233084D01*
Y238295D01*
X231484D01*
X241483D02*
Y239895D01*
X243084D01*
Y238295D01*
X241483D01*
X251483D02*
Y239895D01*
X253083D01*
Y238295D01*
X251483D01*
X151484Y248294D02*
Y249894D01*
X153084D01*
Y248294D01*
X151484D01*
Y238295D02*
Y239895D01*
X153084D01*
Y238295D01*
X151484D01*
X301483Y248294D02*
Y249894D01*
X303083D01*
Y248294D01*
X301483D01*
X311484D02*
Y249894D01*
X313084D01*
Y248294D01*
X311484D01*
Y238295D02*
Y239895D01*
X313084D01*
Y238295D01*
X311484D01*
X221483Y248294D02*
Y249894D01*
X223083D01*
Y248294D01*
X221483D01*
X49213Y264948D02*
X48413Y266548D01*
X50013D01*
X49213Y264948D01*
Y48413D02*
X48413Y50013D01*
X50013D01*
X49213Y48413D01*
X415354D02*
X414554Y50013D01*
X416154D01*
X415354Y48413D01*
Y264948D02*
X414554Y266548D01*
X416154D01*
X415354Y264948D01*
X190539Y49594D02*
X190939Y50394D01*
X190539Y51194D01*
X191339Y50794D01*
X192139Y51194D01*
X191739Y50394D01*
X192139Y49594D01*
X191339Y49994D01*
X190539Y49594D01*
Y61405D02*
X190939Y62205D01*
X190539Y63005D01*
X191339Y62605D01*
X192139Y63005D01*
X191739Y62205D01*
X192139Y61405D01*
X191339Y61805D01*
X190539Y61405D01*
X178728D02*
X179128Y62205D01*
X178728Y63005D01*
X179528Y62605D01*
X180328Y63005D01*
X179928Y62205D01*
X180328Y61405D01*
X179528Y61805D01*
X178728Y61405D01*
Y49594D02*
X179128Y50394D01*
X178728Y51194D01*
X179528Y50794D01*
X180328Y51194D01*
X179928Y50394D01*
X180328Y49594D01*
X179528Y49994D01*
X178728Y49594D01*
X120072Y65505D02*
Y65105D01*
X120872D01*
Y65505D01*
X121272D01*
Y66306D01*
X120872D01*
Y66706D01*
X120072D01*
Y66306D01*
X119672D01*
Y65505D01*
X120072D01*
X202750D02*
Y65105D01*
X203550D01*
Y65505D01*
X203950D01*
Y66306D01*
X203550D01*
Y66706D01*
X202750D01*
Y66306D01*
X202350D01*
Y65505D01*
X202750D01*
X143295Y49594D02*
X143694Y50394D01*
X143295Y51194D01*
X144095Y50794D01*
X144895Y51194D01*
X144494Y50394D01*
X144895Y49594D01*
X144095Y49994D01*
X143295Y49594D01*
X155105D02*
X155506Y50394D01*
X155105Y51194D01*
X155905Y50794D01*
X156705Y51194D01*
X156306Y50394D01*
X156705Y49594D01*
X155905Y49994D01*
X155105Y49594D01*
X166917D02*
X167316Y50394D01*
X166917Y51194D01*
X167717Y50794D01*
X168517Y51194D01*
X168116Y50394D01*
X168517Y49594D01*
X167717Y49994D01*
X166917Y49594D01*
X131483D02*
X131883Y50394D01*
X131483Y51194D01*
X132283Y50794D01*
X133083Y51194D01*
X132683Y50394D01*
X133083Y49594D01*
X132283Y49994D01*
X131483Y49594D01*
Y61405D02*
X131883Y62205D01*
X131483Y63005D01*
X132283Y62605D01*
X133083Y63005D01*
X132683Y62205D01*
X133083Y61405D01*
X132283Y61805D01*
X131483Y61405D01*
X166917D02*
X167316Y62205D01*
X166917Y63005D01*
X167717Y62605D01*
X168517Y63005D01*
X168116Y62205D01*
X168517Y61405D01*
X167717Y61805D01*
X166917Y61405D01*
X155105D02*
X155506Y62205D01*
X155105Y63005D01*
X155905Y62605D01*
X156705Y63005D01*
X156306Y62205D01*
X156705Y61405D01*
X155905Y61805D01*
X155105Y61405D01*
X143295D02*
X143694Y62205D01*
X143295Y63005D01*
X144095Y62605D01*
X144895Y63005D01*
X144494Y62205D01*
X144895Y61405D01*
X144095Y61805D01*
X143295Y61405D01*
X319279D02*
X319679Y62205D01*
X319279Y63005D01*
X320079Y62605D01*
X320879Y63005D01*
X320479Y62205D01*
X320879Y61405D01*
X320079Y61805D01*
X319279Y61405D01*
X307468D02*
X307868Y62205D01*
X307468Y63005D01*
X308268Y62605D01*
X309068Y63005D01*
X308668Y62205D01*
X309068Y61405D01*
X308268Y61805D01*
X307468Y61405D01*
Y49594D02*
X307868Y50394D01*
X307468Y51194D01*
X308268Y50794D01*
X309068Y51194D01*
X308668Y50394D01*
X309068Y49594D01*
X308268Y49994D01*
X307468Y49594D01*
X319279D02*
X319679Y50394D01*
X319279Y51194D01*
X320079Y50794D01*
X320879Y51194D01*
X320479Y50394D01*
X320879Y49594D01*
X320079Y49994D01*
X319279Y49594D01*
X331490Y65505D02*
Y65105D01*
X332290D01*
Y65505D01*
X332690D01*
Y66306D01*
X332290D01*
Y66706D01*
X331490D01*
Y66306D01*
X331090D01*
Y65505D01*
X331490D01*
X296057D02*
Y65105D01*
X296857D01*
Y65505D01*
X297257D01*
Y66306D01*
X296857D01*
Y66706D01*
X296057D01*
Y66306D01*
X295657D01*
Y65505D01*
X296057D01*
X276365Y61405D02*
X276765Y62205D01*
X276365Y63005D01*
X277165Y62605D01*
X277965Y63005D01*
X277565Y62205D01*
X277965Y61405D01*
X277165Y61805D01*
X276365Y61405D01*
X264554D02*
X264954Y62205D01*
X264554Y63005D01*
X265354Y62605D01*
X266154Y63005D01*
X265754Y62205D01*
X266154Y61405D01*
X265354Y61805D01*
X264554Y61405D01*
Y49594D02*
X264954Y50394D01*
X264554Y51194D01*
X265354Y50794D01*
X266154Y51194D01*
X265754Y50394D01*
X266154Y49594D01*
X265354Y49994D01*
X264554Y49594D01*
X276365D02*
X276765Y50394D01*
X276365Y51194D01*
X277165Y50794D01*
X277965Y51194D01*
X277565Y50394D01*
X277965Y49594D01*
X277165Y49994D01*
X276365Y49594D01*
X288576Y65505D02*
Y65105D01*
X289376D01*
Y65505D01*
X289776D01*
Y66306D01*
X289376D01*
Y66706D01*
X288576D01*
Y66306D01*
X288176D01*
Y65505D01*
X288576D01*
X253143D02*
Y65105D01*
X253943D01*
Y65505D01*
X254343D01*
Y66306D01*
X253943D01*
Y66706D01*
X253143D01*
Y66306D01*
X252743D01*
Y65505D01*
X253143D01*
X233452Y61405D02*
X233852Y62205D01*
X233452Y63005D01*
X234252Y62605D01*
X235052Y63005D01*
X234652Y62205D01*
X235052Y61405D01*
X234252Y61805D01*
X233452Y61405D01*
X221641D02*
X222041Y62205D01*
X221641Y63005D01*
X222441Y62605D01*
X223241Y63005D01*
X222841Y62205D01*
X223241Y61405D01*
X222441Y61805D01*
X221641Y61405D01*
Y49594D02*
X222041Y50394D01*
X221641Y51194D01*
X222441Y50794D01*
X223241Y51194D01*
X222841Y50394D01*
X223241Y49594D01*
X222441Y49994D01*
X221641Y49594D01*
X233452D02*
X233852Y50394D01*
X233452Y51194D01*
X234252Y50794D01*
X235052Y51194D01*
X234652Y50394D01*
X235052Y49594D01*
X234252Y49994D01*
X233452Y49594D01*
X245663Y65505D02*
Y65105D01*
X246463D01*
Y65505D01*
X246863D01*
Y66306D01*
X246463D01*
Y66706D01*
X245663D01*
Y66306D01*
X245263D01*
Y65505D01*
X245663D01*
X210230D02*
Y65105D01*
X211030D01*
Y65505D01*
X211430D01*
Y66306D01*
X211030D01*
Y66706D01*
X210230D01*
Y66306D01*
X209830D01*
Y65505D01*
X210230D01*
X77153Y147480D02*
X77953Y148280D01*
X78753Y147480D01*
X77953Y146680D01*
X77153Y147480D01*
X87153Y167480D02*
X87953Y168280D01*
X88753Y167480D01*
X87953Y166680D01*
X87153Y167480D01*
X77153Y177480D02*
X77953Y178280D01*
X78753Y177480D01*
X77953Y176680D01*
X77153Y177480D01*
Y137480D02*
X77953Y138280D01*
X78753Y137480D01*
X77953Y136680D01*
X77153Y137480D01*
X87153D02*
X87953Y138280D01*
X88753Y137480D01*
X87953Y136680D01*
X87153Y137480D01*
Y147480D02*
X87953Y148280D01*
X88753Y147480D01*
X87953Y146680D01*
X87153Y147480D01*
Y157480D02*
X87953Y158280D01*
X88753Y157480D01*
X87953Y156680D01*
X87153Y157480D01*
X77153D02*
X77953Y158280D01*
X78753Y157480D01*
X77953Y156680D01*
X77153Y157480D01*
Y167480D02*
X77953Y168280D01*
X78753Y167480D01*
X77953Y166680D01*
X77153Y167480D01*
X87153Y177480D02*
X87953Y178280D01*
X88753Y177480D01*
X87953Y176680D01*
X87153Y177480D01*
X377453Y54948D02*
X377853Y55348D01*
X378253D01*
X377853Y55748D01*
X378253Y56148D01*
X377853D01*
X377453Y56548D01*
X377053Y56148D01*
X376653D01*
X377053Y55748D01*
X376653Y55348D01*
X377053D01*
X377453Y54948D01*
Y64948D02*
X377853Y65348D01*
X378253D01*
X377853Y65748D01*
X378253Y66148D01*
X377853D01*
X377453Y66548D01*
X377053Y66148D01*
X376653D01*
X377053Y65748D01*
X376653Y65348D01*
X377053D01*
X377453Y64948D01*
Y74948D02*
X377853Y75348D01*
X378253D01*
X377853Y75748D01*
X378253Y76148D01*
X377853D01*
X377453Y76548D01*
X377053Y76148D01*
X376653D01*
X377053Y75748D01*
X376653Y75348D01*
X377053D01*
X377453Y74948D01*
X221641Y229909D02*
Y231509D01*
X223241D01*
Y229909D01*
X221641D01*
X222041Y230309D02*
Y231109D01*
X222841D01*
Y230309D01*
X222041D01*
X248806Y180696D02*
Y182296D01*
X250406D01*
Y180696D01*
X248806D01*
X249206Y181096D02*
Y181896D01*
X250006D01*
Y181096D01*
X249206D01*
X251956Y227547D02*
Y229147D01*
X253556D01*
Y227547D01*
X251956D01*
X252356Y227946D02*
Y228747D01*
X253156D01*
Y227946D01*
X252356D01*
X245657Y227547D02*
Y229147D01*
X247257D01*
Y227547D01*
X245657D01*
X246057Y227946D02*
Y228747D01*
X246857D01*
Y227946D01*
X246057D01*
X239357Y227547D02*
Y229147D01*
X240957D01*
Y227547D01*
X239357D01*
X239757Y227946D02*
Y228747D01*
X240558D01*
Y227946D01*
X239757D01*
X141720Y254318D02*
Y255918D01*
X143320D01*
Y254318D01*
X141720D01*
X142120Y254718D02*
Y255518D01*
X142920D01*
Y254718D01*
X142120D01*
X136995Y248019D02*
Y249619D01*
X138595D01*
Y248019D01*
X136995D01*
X137395Y248419D02*
Y249219D01*
X138195D01*
Y248419D01*
X137395D01*
X125184Y248019D02*
Y249619D01*
X126784D01*
Y248019D01*
X125184D01*
X125584Y248419D02*
Y249219D01*
X126384D01*
Y248419D01*
X125584D01*
X119279Y248019D02*
Y249619D01*
X120879D01*
Y248019D01*
X119279D01*
X119679Y248419D02*
Y249219D01*
X120479D01*
Y248419D01*
X119679D01*
X131090Y248019D02*
Y249619D01*
X132690D01*
Y248019D01*
X131090D01*
X131490Y248419D02*
Y249219D01*
X132290D01*
Y248419D01*
X131490D01*
X107074Y156680D02*
Y158280D01*
X108674D01*
Y156680D01*
X107074D01*
X107474Y157080D02*
Y157880D01*
X108274D01*
Y157080D01*
X107474D01*
X107074Y136680D02*
Y138280D01*
X108674D01*
Y136680D01*
X107074D01*
X107474Y137080D02*
Y137880D01*
X108274D01*
Y137080D01*
X107474D01*
X107074Y161298D02*
Y162898D01*
X108674D01*
Y161298D01*
X107074D01*
X107474Y161698D02*
Y162498D01*
X108274D01*
Y161698D01*
X107474D01*
X107074Y176680D02*
Y178280D01*
X108674D01*
Y176680D01*
X107074D01*
X107474Y177080D02*
Y177880D01*
X108274D01*
Y177080D01*
X107474D01*
X215293Y180745D02*
Y182345D01*
X216893D01*
Y180745D01*
X215293D01*
X215693Y181145D02*
Y181945D01*
X216493D01*
Y181145D01*
X215693D01*
X211749Y180647D02*
Y182247D01*
X213349D01*
Y180647D01*
X211749D01*
X212149Y181047D02*
Y181847D01*
X212949D01*
Y181047D01*
X212149D01*
X192901Y190539D02*
Y192139D01*
X194501D01*
Y190539D01*
X192901D01*
X193301Y190939D02*
Y191739D01*
X194101D01*
Y190939D01*
X193301D01*
X191047Y185846D02*
Y187446D01*
X192647D01*
Y185846D01*
X191047D01*
X191447Y186246D02*
Y187046D01*
X192247D01*
Y186246D01*
X191447D01*
X145657Y192113D02*
Y193713D01*
X147257D01*
Y192113D01*
X145657D01*
X146057Y192513D02*
Y193313D01*
X146857D01*
Y192513D01*
X146057D01*
X218885Y180696D02*
Y182296D01*
X220485D01*
Y180696D01*
X218885D01*
X219285Y181096D02*
Y181896D01*
X220085D01*
Y181096D01*
X219285D01*
X145657Y179515D02*
Y181115D01*
X147257D01*
Y179515D01*
X145657D01*
X146057Y179915D02*
Y180715D01*
X146857D01*
Y179915D01*
X146057D01*
X145657Y185814D02*
Y187414D01*
X147257D01*
Y185814D01*
X145657D01*
X146057Y186214D02*
Y187014D01*
X146857D01*
Y186214D01*
X146057D01*
X188570Y192507D02*
Y194107D01*
X190170D01*
Y192507D01*
X188570D01*
X188970Y192907D02*
Y193707D01*
X189770D01*
Y192907D01*
X188970D01*
X195263Y204318D02*
Y205918D01*
X196863D01*
Y204318D01*
X195263D01*
X195663Y204718D02*
Y205518D01*
X196463D01*
Y204718D01*
X195663D01*
X188964Y204318D02*
Y205918D01*
X190564D01*
Y204318D01*
X188964D01*
X189364Y204718D02*
Y205518D01*
X190164D01*
Y204718D01*
X189364D01*
X201562Y204318D02*
Y205918D01*
X203162D01*
Y204318D01*
X201562D01*
X201962Y204718D02*
Y205518D01*
X202762D01*
Y204718D01*
X201962D01*
X318491Y124594D02*
Y126194D01*
X320091D01*
Y124594D01*
X318491D01*
X318891Y124994D02*
Y125794D01*
X319691D01*
Y124994D01*
X318891D01*
X299594Y122744D02*
Y124344D01*
X301194D01*
Y122744D01*
X299594D01*
X299994Y123144D02*
Y123944D01*
X300794D01*
Y123144D01*
X299994D01*
X267389Y177263D02*
Y178863D01*
X268989D01*
Y177263D01*
X267389D01*
X267789Y177663D02*
Y178463D01*
X268589D01*
Y177663D01*
X267789D01*
X267389Y173897D02*
Y175497D01*
X268989D01*
Y173897D01*
X267389D01*
X267789Y174297D02*
Y175097D01*
X268589D01*
Y174297D01*
X267789D01*
X298413Y153531D02*
Y155131D01*
X300013D01*
Y153531D01*
X298413D01*
X298813Y153931D02*
Y154731D01*
X299613D01*
Y153931D01*
X298813D01*
X304909Y78235D02*
Y79835D01*
X306509D01*
Y78235D01*
X304909D01*
X305309Y78635D02*
Y79435D01*
X306109D01*
Y78635D01*
X305309D01*
X274003Y109043D02*
Y110643D01*
X275603D01*
Y109043D01*
X274003D01*
X274403Y109442D02*
Y110242D01*
X275203D01*
Y109442D01*
X274403D01*
X255105Y109043D02*
Y110643D01*
X256705D01*
Y109043D01*
X255105D01*
X255505Y109442D02*
Y110242D01*
X256306D01*
Y109442D01*
X255505D01*
X235889Y120775D02*
Y122375D01*
X237489D01*
Y120775D01*
X235889D01*
X236289Y121175D02*
Y121975D01*
X237089D01*
Y121175D01*
X236289D01*
X92310Y66917D02*
Y68516D01*
X93910D01*
Y66917D01*
X92310D01*
X92710Y67317D02*
Y68116D01*
X93510D01*
Y67317D01*
X92710D01*
X99791Y66917D02*
Y68516D01*
X101391D01*
Y66917D01*
X99791D01*
X100190Y67317D02*
Y68116D01*
X100990D01*
Y67317D01*
X100190D01*
X106090Y66917D02*
Y68516D01*
X107690D01*
Y66917D01*
X106090D01*
X106490Y67317D02*
Y68116D01*
X107290D01*
Y67317D01*
X106490D01*
X267389Y133080D02*
Y134680D01*
X268989D01*
Y133080D01*
X267389D01*
X267789Y133480D02*
Y134280D01*
X268589D01*
Y133480D01*
X267789D01*
X126365Y179515D02*
Y181115D01*
X127965D01*
Y179515D01*
X126365D01*
X126765Y179915D02*
Y180715D01*
X127565D01*
Y179915D01*
X126765D01*
X179515Y131976D02*
Y133576D01*
X181115D01*
Y131976D01*
X179515D01*
X179915Y132376D02*
Y133176D01*
X180715D01*
Y132376D01*
X179915D01*
X207389Y167546D02*
Y169147D01*
X208989D01*
Y167546D01*
X207389D01*
X207789Y167947D02*
Y168746D01*
X208589D01*
Y167947D01*
X207789D01*
X207389Y171015D02*
Y172615D01*
X208989D01*
Y171015D01*
X207389D01*
X207789Y171415D02*
Y172215D01*
X208589D01*
Y171415D01*
X207789D01*
X267389Y142480D02*
Y144080D01*
X268989D01*
Y142480D01*
X267389D01*
X267789Y142880D02*
Y143680D01*
X268589D01*
Y142880D01*
X267789D01*
X151562Y125184D02*
Y126784D01*
X153162D01*
Y125184D01*
X151562D01*
X151962Y125584D02*
Y126384D01*
X152762D01*
Y125584D01*
X151962D01*
X126365Y192113D02*
Y193713D01*
X127965D01*
Y192113D01*
X126365D01*
X126765Y192513D02*
Y193313D01*
X127565D01*
Y192513D01*
X126765D01*
X126365Y185814D02*
Y187414D01*
X127965D01*
Y185814D01*
X126365D01*
X126765Y186214D02*
Y187014D01*
X127565D01*
Y186214D01*
X126765D01*
X158649Y125184D02*
Y126784D01*
X160249D01*
Y125184D01*
X158649D01*
X159049Y125584D02*
Y126384D01*
X159849D01*
Y125584D01*
X159049D01*
X144476Y125184D02*
Y126784D01*
X146076D01*
Y125184D01*
X144476D01*
X144876Y125584D02*
Y126384D01*
X145676D01*
Y125584D01*
X144876D01*
X130302Y125184D02*
Y126784D01*
X131902D01*
Y125184D01*
X130302D01*
X130702Y125584D02*
Y126384D01*
X131502D01*
Y125584D01*
X130702D01*
X165735Y125184D02*
Y126784D01*
X167335D01*
Y125184D01*
X165735D01*
X166135Y125584D02*
Y126384D01*
X166935D01*
Y125584D01*
X166135D01*
X137389Y125184D02*
Y126784D01*
X138989D01*
Y125184D01*
X137389D01*
X137789Y125584D02*
Y126384D01*
X138589D01*
Y125584D01*
X137789D01*
X166129Y167704D02*
Y169304D01*
X167729D01*
Y167704D01*
X166129D01*
X166529Y168104D02*
Y168904D01*
X167329D01*
Y168104D01*
X166529D01*
X166129Y173019D02*
Y174619D01*
X167729D01*
Y173019D01*
X166129D01*
X166529Y173419D02*
Y174219D01*
X167329D01*
Y173419D01*
X166529D01*
X179515Y137291D02*
Y138891D01*
X181115D01*
Y137291D01*
X179515D01*
X179915Y137691D02*
Y138491D01*
X180715D01*
Y137691D01*
X179915D01*
X383846Y202743D02*
Y204343D01*
X385446D01*
Y202743D01*
X383846D01*
X384246Y203143D02*
Y203943D01*
X385046D01*
Y203143D01*
X384246D01*
X383846Y209043D02*
Y210643D01*
X385446D01*
Y209043D01*
X383846D01*
X384246Y209442D02*
Y210243D01*
X385046D01*
Y209442D01*
X384246D01*
X70755Y208255D02*
Y209855D01*
X72355D01*
Y208255D01*
X70755D01*
X71155Y208655D02*
Y209455D01*
X71955D01*
Y208655D01*
X71155D01*
X59830Y102350D02*
Y103950D01*
X61430D01*
Y102350D01*
X59830D01*
X60230Y102750D02*
Y103550D01*
X61030D01*
Y102750D01*
X60230D01*
X267389Y145846D02*
Y147446D01*
X268989D01*
Y145846D01*
X267389D01*
X267789Y146246D02*
Y147046D01*
X268589D01*
Y146246D01*
X267789D01*
X338570Y203235D02*
Y204835D01*
X340170D01*
Y203235D01*
X338570D01*
X338970Y203635D02*
Y204435D01*
X339770D01*
Y203635D01*
X338970D01*
X65440Y208255D02*
Y209855D01*
X67040D01*
Y208255D01*
X65440D01*
X65840Y208655D02*
Y209455D01*
X66640D01*
Y208655D01*
X65840D01*
X59830Y109436D02*
Y111036D01*
X61430D01*
Y109436D01*
X59830D01*
X60230Y109836D02*
Y110636D01*
X61030D01*
Y109836D01*
X60230D01*
X338570Y208550D02*
Y210150D01*
X340170D01*
Y208550D01*
X338570D01*
X338970Y208950D02*
Y209750D01*
X339770D01*
Y208950D01*
X338970D01*
X267389Y149208D02*
Y150808D01*
X268989D01*
Y149208D01*
X267389D01*
X267789Y149608D02*
Y150408D01*
X268589D01*
Y149608D01*
X267789D01*
X309653Y177263D02*
Y178863D01*
X311253D01*
Y177263D01*
X309653D01*
X310053Y177663D02*
Y178463D01*
X310853D01*
Y177663D01*
X310053D01*
X306287Y173897D02*
Y175497D01*
X307887D01*
Y173897D01*
X306287D01*
X306687Y174297D02*
Y175097D01*
X307487D01*
Y174297D01*
X306687D01*
X239251Y120775D02*
Y122375D01*
X240851D01*
Y120775D01*
X239251D01*
X239651Y121175D02*
Y121975D01*
X240451D01*
Y121175D01*
X239651D01*
X245979Y120775D02*
Y122375D01*
X247580D01*
Y120775D01*
X245979D01*
X246379Y121175D02*
Y121975D01*
X247180D01*
Y121175D01*
X246379D01*
X242617Y120775D02*
Y122375D01*
X244217D01*
Y120775D01*
X242617D01*
X243017Y121175D02*
Y121975D01*
X243817D01*
Y121175D01*
X243017D01*
X321247Y215145D02*
Y216745D01*
X322847D01*
Y215145D01*
X321247D01*
X321647Y215545D02*
Y216345D01*
X322447D01*
Y215545D01*
X321647D01*
X314948Y215145D02*
Y216745D01*
X316548D01*
Y215145D01*
X314948D01*
X315348Y215545D02*
Y216345D01*
X316148D01*
Y215545D01*
X315348D01*
X308649Y215145D02*
Y216745D01*
X310249D01*
Y215145D01*
X308649D01*
X309049Y215545D02*
Y216345D01*
X309849D01*
Y215545D01*
X309049D01*
X302350Y215145D02*
Y216745D01*
X303950D01*
Y215145D01*
X302350D01*
X302750Y215545D02*
Y216345D01*
X303550D01*
Y215545D01*
X302750D01*
X296050Y215145D02*
Y216745D01*
X297650D01*
Y215145D01*
X296050D01*
X296450Y215545D02*
Y216345D01*
X297250D01*
Y215545D01*
X296450D01*
X289751Y215145D02*
Y216745D01*
X291351D01*
Y215145D01*
X289751D01*
X290151Y215545D02*
Y216345D01*
X290951D01*
Y215545D01*
X290151D01*
D69*
X99540Y265748D02*
X98987Y266509D01*
X98093Y266218D01*
Y265278D01*
X98987Y264987D01*
X99540Y265748D01*
X109540D02*
X108987Y266509D01*
X108093Y266218D01*
Y265278D01*
X108987Y264987D01*
X109540Y265748D01*
X119540D02*
X118987Y266509D01*
X118093Y266218D01*
Y265278D01*
X118987Y264987D01*
X119540Y265748D01*
X129540D02*
X128987Y266509D01*
X128093Y266218D01*
Y265278D01*
X128987Y264987D01*
X129540Y265748D01*
X139540D02*
X138987Y266509D01*
X138093Y266218D01*
Y265278D01*
X138987Y264987D01*
X139540Y265748D01*
X149540D02*
X148987Y266509D01*
X148093Y266218D01*
Y265278D01*
X148987Y264987D01*
X149540Y265748D01*
X159540D02*
X158987Y266509D01*
X158093Y266218D01*
Y265278D01*
X158987Y264987D01*
X159540Y265748D01*
X169540D02*
X168987Y266509D01*
X168093Y266218D01*
Y265278D01*
X168987Y264987D01*
X169540Y265748D01*
X179540D02*
X178987Y266509D01*
X178093Y266218D01*
Y265278D01*
X178987Y264987D01*
X179540Y265748D01*
X189540D02*
X188987Y266509D01*
X188093Y266218D01*
Y265278D01*
X188987Y264987D01*
X189540Y265748D01*
X199540D02*
X198987Y266509D01*
X198093Y266218D01*
Y265278D01*
X198987Y264987D01*
X199540Y265748D01*
X209540D02*
X208987Y266509D01*
X208093Y266218D01*
Y265278D01*
X208987Y264987D01*
X209540Y265748D01*
X219540D02*
X218987Y266509D01*
X218093Y266218D01*
Y265278D01*
X218987Y264987D01*
X219540Y265748D01*
X229540D02*
X228987Y266509D01*
X228093Y266218D01*
Y265278D01*
X228987Y264987D01*
X229540Y265748D01*
X79540D02*
X78987Y266509D01*
X78093Y266218D01*
Y265278D01*
X78987Y264987D01*
X79540Y265748D01*
X89540D02*
X88987Y266509D01*
X88093Y266218D01*
Y265278D01*
X88987Y264987D01*
X89540Y265748D01*
M02*
