G04*
G04 #@! TF.GenerationSoftware,Altium Limited,Altium Designer,23.8.1 (32)*
G04*
G04 Layer_Color=32896*
%FSLAX25Y25*%
%MOIN*%
G70*
G04*
G04 #@! TF.SameCoordinates,BF2EEF1A-6A82-4CD2-B880-65E340770DF0*
G04*
G04*
G04 #@! TF.FilePolarity,Positive*
G04*
G01*
G75*
%ADD14C,0.00000*%
%ADD16C,0.00600*%
D14*
X207784Y129880D02*
X256784D01*
X204683Y134780D02*
Y180180D01*
X210883Y185080D02*
X253683D01*
X259883Y137880D02*
Y177080D01*
X204683Y134880D02*
X209683Y129880D01*
X207784Y185080D02*
Y188980D01*
X209583D01*
Y185080D02*
Y188980D01*
X207784Y185080D02*
X209583D01*
X210883D02*
Y188980D01*
X212684D01*
Y185080D02*
Y188980D01*
X210883Y185080D02*
X212684D01*
X214084D02*
Y188980D01*
X215883D01*
Y185080D02*
Y188980D01*
X214084Y185080D02*
X215883D01*
X217183D02*
Y188980D01*
X218984D01*
Y185080D02*
Y188980D01*
X217183Y185080D02*
X218984D01*
X220384D02*
Y188980D01*
X222183D01*
Y185080D02*
Y188980D01*
X220384Y185080D02*
X222183D01*
X223483D02*
Y188980D01*
X225284D01*
Y185080D02*
Y188980D01*
X223483Y185080D02*
X225284D01*
X226683D02*
Y188980D01*
X228484D01*
Y185080D02*
Y188980D01*
X226683Y185080D02*
X228484D01*
X229784D02*
Y188980D01*
X231583D01*
Y185080D02*
Y188980D01*
X229784Y185080D02*
X231583D01*
X232983D02*
Y188980D01*
X234784D01*
Y185080D02*
Y188980D01*
X232983Y185080D02*
X234784D01*
X236084D02*
Y188980D01*
X237883D01*
Y185080D02*
Y188980D01*
X236084Y185080D02*
X237883D01*
X239283D02*
Y188980D01*
X241084D01*
Y185080D02*
Y188980D01*
X239283Y185080D02*
X241084D01*
X242384D02*
Y188980D01*
X244183D01*
Y185080D02*
Y188980D01*
X242384Y185080D02*
X244183D01*
X245584D02*
Y188980D01*
X247383D01*
Y185080D02*
Y188980D01*
X245584Y185080D02*
X247383D01*
X248684D02*
Y188980D01*
X250483D01*
Y185080D02*
Y188980D01*
X248684Y185080D02*
X250483D01*
X251884D02*
Y188980D01*
X253683D01*
Y185080D02*
Y188980D01*
X251884Y185080D02*
X253683D01*
X254983D02*
Y188980D01*
X256784D01*
Y185080D02*
Y188980D01*
X254983Y185080D02*
X256784D01*
X259883Y181980D02*
X263784D01*
Y180180D02*
Y181980D01*
X259883Y180180D02*
X263784D01*
X259883D02*
Y181980D01*
Y178880D02*
X263784D01*
Y177080D02*
Y178880D01*
X259883Y177080D02*
X263784D01*
X259883D02*
Y178880D01*
Y175680D02*
X263784D01*
Y173880D02*
Y175680D01*
X259883Y173880D02*
X263784D01*
X259883D02*
Y175680D01*
Y172580D02*
X263784D01*
Y170780D02*
Y172580D01*
X259883Y170780D02*
X263784D01*
X259883D02*
Y172580D01*
Y169380D02*
X263784D01*
Y167580D02*
Y169380D01*
X259883Y167580D02*
X263784D01*
X259883D02*
Y169380D01*
Y166280D02*
X263784D01*
Y164480D02*
Y166280D01*
X259883Y164480D02*
X263784D01*
X259883D02*
Y166280D01*
Y163080D02*
X263784D01*
Y161280D02*
Y163080D01*
X259883Y161280D02*
X263784D01*
X259883D02*
Y163080D01*
Y159980D02*
X263784D01*
Y158180D02*
Y159980D01*
X259883Y158180D02*
X263784D01*
X259883D02*
Y159980D01*
Y156780D02*
X263784D01*
Y154980D02*
Y156780D01*
X259883Y154980D02*
X263784D01*
X259883D02*
Y156780D01*
Y153680D02*
X263784D01*
Y151880D02*
Y153680D01*
X259883Y151880D02*
X263784D01*
X259883D02*
Y153680D01*
Y150480D02*
X263784D01*
Y148680D02*
Y150480D01*
X259883Y148680D02*
X263784D01*
X259883D02*
Y150480D01*
Y147380D02*
X263784D01*
Y145580D02*
Y147380D01*
X259883Y145580D02*
X263784D01*
X259883D02*
Y147380D01*
Y144180D02*
X263784D01*
Y142380D02*
Y144180D01*
X259883Y142380D02*
X263784D01*
X259883D02*
Y144180D01*
Y141080D02*
X263784D01*
Y139280D02*
Y141080D01*
X259883Y139280D02*
X263784D01*
X259883D02*
Y141080D01*
Y137880D02*
X263784D01*
Y136080D02*
Y137880D01*
X259883Y136080D02*
X263784D01*
X259883D02*
Y137880D01*
Y134780D02*
X263784D01*
Y132980D02*
Y134780D01*
X259883Y132980D02*
X263784D01*
X259883D02*
Y134780D01*
X256784Y125980D02*
Y129880D01*
X254983Y125980D02*
X256784D01*
X254983D02*
Y129880D01*
X256784D01*
X253683Y125980D02*
Y129880D01*
X251884Y125980D02*
X253683D01*
X251884D02*
Y129880D01*
X253683D01*
X250483Y125980D02*
Y129880D01*
X248684Y125980D02*
X250483D01*
X248684D02*
Y129880D01*
X250483D01*
X247383Y125980D02*
Y129880D01*
X245584Y125980D02*
X247383D01*
X245584D02*
Y129880D01*
X247383D01*
X244183Y125980D02*
Y129880D01*
X242384Y125980D02*
X244183D01*
X242384D02*
Y129880D01*
X244183D01*
X241084Y125980D02*
Y129880D01*
X239283Y125980D02*
X241084D01*
X239283D02*
Y129880D01*
X241084D01*
X237883Y125980D02*
Y129880D01*
X236084Y125980D02*
X237883D01*
X236084D02*
Y129880D01*
X237883D01*
X234784Y125980D02*
Y129880D01*
X232983Y125980D02*
X234784D01*
X232983D02*
Y129880D01*
X234784D01*
X231583Y125980D02*
Y129880D01*
X229784Y125980D02*
X231583D01*
X229784D02*
Y129880D01*
X231583D01*
X228484Y125980D02*
Y129880D01*
X226683Y125980D02*
X228484D01*
X226683D02*
Y129880D01*
X228484D01*
X225284Y125980D02*
Y129880D01*
X223483Y125980D02*
X225284D01*
X223483D02*
Y129880D01*
X225284D01*
X222183Y125980D02*
Y129880D01*
X220384Y125980D02*
X222183D01*
X220384D02*
Y129880D01*
X222183D01*
X218984Y125980D02*
Y129880D01*
X217183Y125980D02*
X218984D01*
X217183D02*
Y129880D01*
X218984D01*
X215883Y125980D02*
Y129880D01*
X214084Y125980D02*
X215883D01*
X214084D02*
Y129880D01*
X215883D01*
X212684Y125980D02*
Y129880D01*
X210883Y125980D02*
X212684D01*
X210883D02*
Y129880D01*
X212684D01*
X209583Y125980D02*
Y129880D01*
X207784Y125980D02*
X209583D01*
X207784D02*
Y129880D01*
X209583D01*
X200783Y132980D02*
X204683D01*
X200783D02*
Y134780D01*
X204683D01*
Y132980D02*
Y134780D01*
X200783Y136080D02*
X204683D01*
X200783D02*
Y137880D01*
X204683D01*
Y136080D02*
Y137880D01*
X200783Y139280D02*
X204683D01*
X200783D02*
Y141080D01*
X204683D01*
Y139280D02*
Y141080D01*
X200783Y142380D02*
X204683D01*
X200783D02*
Y144180D01*
X204683D01*
Y142380D02*
Y144180D01*
X200783Y145580D02*
X204683D01*
X200783D02*
Y147380D01*
X204683D01*
Y145580D02*
Y147380D01*
X200783Y148680D02*
X204683D01*
X200783D02*
Y150480D01*
X204683D01*
Y148680D02*
Y150480D01*
X200783Y151880D02*
X204683D01*
X200783D02*
Y153680D01*
X204683D01*
Y151880D02*
Y153680D01*
X200783Y154980D02*
X204683D01*
X200783D02*
Y156780D01*
X204683D01*
Y154980D02*
Y156780D01*
X200783Y158180D02*
X204683D01*
X200783D02*
Y159980D01*
X204683D01*
Y158180D02*
Y159980D01*
X200783Y161280D02*
X204683D01*
X200783D02*
Y163080D01*
X204683D01*
Y161280D02*
Y163080D01*
X200783Y164480D02*
X204683D01*
X200783D02*
Y166280D01*
X204683D01*
Y164480D02*
Y166280D01*
X200783Y167580D02*
X204683D01*
X200783D02*
Y169380D01*
X204683D01*
Y167580D02*
Y169380D01*
X200783Y170780D02*
X204683D01*
X200783D02*
Y172580D01*
X204683D01*
Y170780D02*
Y172580D01*
X200783Y173880D02*
X204683D01*
X200783D02*
Y175680D01*
X204683D01*
Y173880D02*
Y175680D01*
X200783Y177080D02*
X204683D01*
X200783D02*
Y178880D01*
X204683D01*
Y177080D02*
Y178880D01*
X200783Y180180D02*
X204683D01*
X200783D02*
Y181980D01*
X204683D01*
Y180180D02*
Y181980D01*
X256784Y129880D02*
X259883D01*
X253683D02*
X254983D01*
X250483D02*
X251884D01*
X247383D02*
X248684D01*
X244183D02*
X245584D01*
X241084D02*
X242384D01*
X237883D02*
X239283D01*
X234784D02*
X236084D01*
X231583D02*
X232983D01*
X228484D02*
X229784D01*
X225284D02*
X226683D01*
X222183D02*
X223483D01*
X218984D02*
X220384D01*
X215883D02*
X217183D01*
X212684D02*
X214084D01*
X209683D02*
X210883D01*
X209583D02*
X209683D01*
X204683D02*
X207784D01*
X204683D02*
Y132980D01*
Y134780D02*
Y134880D01*
Y136080D01*
Y137880D02*
Y139280D01*
Y141080D02*
Y142380D01*
Y144180D02*
Y145580D01*
Y147380D02*
Y148680D01*
Y150480D02*
Y151880D01*
Y153680D02*
Y154980D01*
Y156780D02*
Y158180D01*
Y159980D02*
Y161280D01*
Y163080D02*
Y164480D01*
Y166280D02*
Y167580D01*
Y169380D02*
Y170780D01*
Y172580D02*
Y173880D01*
Y175680D02*
Y177080D01*
Y178880D02*
Y180180D01*
Y181980D02*
Y185080D01*
X207784D01*
X209583D02*
X210883D01*
X212684D02*
X214084D01*
X215883D02*
X217183D01*
X218984D02*
X220384D01*
X222183D02*
X223483D01*
X225284D02*
X226683D01*
X228484D02*
X229784D01*
X231583D02*
X232983D01*
X234784D02*
X236084D01*
X237883D02*
X239283D01*
X241084D02*
X242384D01*
X244183D02*
X245584D01*
X247383D02*
X248684D01*
X250483D02*
X251884D01*
X253683D02*
X254983D01*
X256784D02*
X259883D01*
Y181980D02*
Y185080D01*
Y178880D02*
Y180180D01*
Y175680D02*
Y177080D01*
Y172580D02*
Y173880D01*
Y169380D02*
Y170780D01*
Y166280D02*
Y167580D01*
Y163080D02*
Y164480D01*
Y159980D02*
Y161280D01*
Y156780D02*
Y158180D01*
Y153680D02*
Y154980D01*
Y150480D02*
Y151880D01*
Y147380D02*
Y148680D01*
Y144180D02*
Y145580D01*
Y141080D02*
Y142380D01*
Y137880D02*
Y139280D01*
Y134780D02*
Y136080D01*
Y129880D02*
Y132980D01*
X207784Y129880D02*
X256784D01*
X204683Y134780D02*
Y180180D01*
X210883Y185080D02*
X253683D01*
X259883Y137880D02*
Y177080D01*
X204683Y134880D02*
X209683Y129880D01*
X207784Y185080D02*
Y188980D01*
X209583D01*
Y185080D02*
Y188980D01*
X207784Y185080D02*
X209583D01*
X210883D02*
Y188980D01*
X212684D01*
Y185080D02*
Y188980D01*
X210883Y185080D02*
X212684D01*
X214084D02*
Y188980D01*
X215883D01*
Y185080D02*
Y188980D01*
X214084Y185080D02*
X215883D01*
X217183D02*
Y188980D01*
X218984D01*
Y185080D02*
Y188980D01*
X217183Y185080D02*
X218984D01*
X220384D02*
Y188980D01*
X222183D01*
Y185080D02*
Y188980D01*
X220384Y185080D02*
X222183D01*
X223483D02*
Y188980D01*
X225284D01*
Y185080D02*
Y188980D01*
X223483Y185080D02*
X225284D01*
X226683D02*
Y188980D01*
X228484D01*
Y185080D02*
Y188980D01*
X226683Y185080D02*
X228484D01*
X229784D02*
Y188980D01*
X231583D01*
Y185080D02*
Y188980D01*
X229784Y185080D02*
X231583D01*
X232983D02*
Y188980D01*
X234784D01*
Y185080D02*
Y188980D01*
X232983Y185080D02*
X234784D01*
X236084D02*
Y188980D01*
X237883D01*
Y185080D02*
Y188980D01*
X236084Y185080D02*
X237883D01*
X239283D02*
Y188980D01*
X241084D01*
Y185080D02*
Y188980D01*
X239283Y185080D02*
X241084D01*
X242384D02*
Y188980D01*
X244183D01*
Y185080D02*
Y188980D01*
X242384Y185080D02*
X244183D01*
X245584D02*
Y188980D01*
X247383D01*
Y185080D02*
Y188980D01*
X245584Y185080D02*
X247383D01*
X248684D02*
Y188980D01*
X250483D01*
Y185080D02*
Y188980D01*
X248684Y185080D02*
X250483D01*
X251884D02*
Y188980D01*
X253683D01*
Y185080D02*
Y188980D01*
X251884Y185080D02*
X253683D01*
X254983D02*
Y188980D01*
X256784D01*
Y185080D02*
Y188980D01*
X254983Y185080D02*
X256784D01*
X259883Y181980D02*
X263784D01*
Y180180D02*
Y181980D01*
X259883Y180180D02*
X263784D01*
X259883D02*
Y181980D01*
Y178880D02*
X263784D01*
Y177080D02*
Y178880D01*
X259883Y177080D02*
X263784D01*
X259883D02*
Y178880D01*
Y175680D02*
X263784D01*
Y173880D02*
Y175680D01*
X259883Y173880D02*
X263784D01*
X259883D02*
Y175680D01*
Y172580D02*
X263784D01*
Y170780D02*
Y172580D01*
X259883Y170780D02*
X263784D01*
X259883D02*
Y172580D01*
Y169380D02*
X263784D01*
Y167580D02*
Y169380D01*
X259883Y167580D02*
X263784D01*
X259883D02*
Y169380D01*
Y166280D02*
X263784D01*
Y164480D02*
Y166280D01*
X259883Y164480D02*
X263784D01*
X259883D02*
Y166280D01*
Y163080D02*
X263784D01*
Y161280D02*
Y163080D01*
X259883Y161280D02*
X263784D01*
X259883D02*
Y163080D01*
Y159980D02*
X263784D01*
Y158180D02*
Y159980D01*
X259883Y158180D02*
X263784D01*
X259883D02*
Y159980D01*
Y156780D02*
X263784D01*
Y154980D02*
Y156780D01*
X259883Y154980D02*
X263784D01*
X259883D02*
Y156780D01*
Y153680D02*
X263784D01*
Y151880D02*
Y153680D01*
X259883Y151880D02*
X263784D01*
X259883D02*
Y153680D01*
Y150480D02*
X263784D01*
Y148680D02*
Y150480D01*
X259883Y148680D02*
X263784D01*
X259883D02*
Y150480D01*
Y147380D02*
X263784D01*
Y145580D02*
Y147380D01*
X259883Y145580D02*
X263784D01*
X259883D02*
Y147380D01*
Y144180D02*
X263784D01*
Y142380D02*
Y144180D01*
X259883Y142380D02*
X263784D01*
X259883D02*
Y144180D01*
Y141080D02*
X263784D01*
Y139280D02*
Y141080D01*
X259883Y139280D02*
X263784D01*
X259883D02*
Y141080D01*
Y137880D02*
X263784D01*
Y136080D02*
Y137880D01*
X259883Y136080D02*
X263784D01*
X259883D02*
Y137880D01*
Y134780D02*
X263784D01*
Y132980D02*
Y134780D01*
X259883Y132980D02*
X263784D01*
X259883D02*
Y134780D01*
X256784Y125980D02*
Y129880D01*
X254983Y125980D02*
X256784D01*
X254983D02*
Y129880D01*
X256784D01*
X253683Y125980D02*
Y129880D01*
X251884Y125980D02*
X253683D01*
X251884D02*
Y129880D01*
X253683D01*
X250483Y125980D02*
Y129880D01*
X248684Y125980D02*
X250483D01*
X248684D02*
Y129880D01*
X250483D01*
X247383Y125980D02*
Y129880D01*
X245584Y125980D02*
X247383D01*
X245584D02*
Y129880D01*
X247383D01*
X244183Y125980D02*
Y129880D01*
X242384Y125980D02*
X244183D01*
X242384D02*
Y129880D01*
X244183D01*
X241084Y125980D02*
Y129880D01*
X239283Y125980D02*
X241084D01*
X239283D02*
Y129880D01*
X241084D01*
X237883Y125980D02*
Y129880D01*
X236084Y125980D02*
X237883D01*
X236084D02*
Y129880D01*
X237883D01*
X234784Y125980D02*
Y129880D01*
X232983Y125980D02*
X234784D01*
X232983D02*
Y129880D01*
X234784D01*
X231583Y125980D02*
Y129880D01*
X229784Y125980D02*
X231583D01*
X229784D02*
Y129880D01*
X231583D01*
X228484Y125980D02*
Y129880D01*
X226683Y125980D02*
X228484D01*
X226683D02*
Y129880D01*
X228484D01*
X225284Y125980D02*
Y129880D01*
X223483Y125980D02*
X225284D01*
X223483D02*
Y129880D01*
X225284D01*
X222183Y125980D02*
Y129880D01*
X220384Y125980D02*
X222183D01*
X220384D02*
Y129880D01*
X222183D01*
X218984Y125980D02*
Y129880D01*
X217183Y125980D02*
X218984D01*
X217183D02*
Y129880D01*
X218984D01*
X215883Y125980D02*
Y129880D01*
X214084Y125980D02*
X215883D01*
X214084D02*
Y129880D01*
X215883D01*
X212684Y125980D02*
Y129880D01*
X210883Y125980D02*
X212684D01*
X210883D02*
Y129880D01*
X212684D01*
X209583Y125980D02*
Y129880D01*
X207784Y125980D02*
X209583D01*
X207784D02*
Y129880D01*
X209583D01*
X200783Y132980D02*
X204683D01*
X200783D02*
Y134780D01*
X204683D01*
Y132980D02*
Y134780D01*
X200783Y136080D02*
X204683D01*
X200783D02*
Y137880D01*
X204683D01*
Y136080D02*
Y137880D01*
X200783Y139280D02*
X204683D01*
X200783D02*
Y141080D01*
X204683D01*
Y139280D02*
Y141080D01*
X200783Y142380D02*
X204683D01*
X200783D02*
Y144180D01*
X204683D01*
Y142380D02*
Y144180D01*
X200783Y145580D02*
X204683D01*
X200783D02*
Y147380D01*
X204683D01*
Y145580D02*
Y147380D01*
X200783Y148680D02*
X204683D01*
X200783D02*
Y150480D01*
X204683D01*
Y148680D02*
Y150480D01*
X200783Y151880D02*
X204683D01*
X200783D02*
Y153680D01*
X204683D01*
Y151880D02*
Y153680D01*
X200783Y154980D02*
X204683D01*
X200783D02*
Y156780D01*
X204683D01*
Y154980D02*
Y156780D01*
X200783Y158180D02*
X204683D01*
X200783D02*
Y159980D01*
X204683D01*
Y158180D02*
Y159980D01*
X200783Y161280D02*
X204683D01*
X200783D02*
Y163080D01*
X204683D01*
Y161280D02*
Y163080D01*
X200783Y164480D02*
X204683D01*
X200783D02*
Y166280D01*
X204683D01*
Y164480D02*
Y166280D01*
X200783Y167580D02*
X204683D01*
X200783D02*
Y169380D01*
X204683D01*
Y167580D02*
Y169380D01*
X200783Y170780D02*
X204683D01*
X200783D02*
Y172580D01*
X204683D01*
Y170780D02*
Y172580D01*
X200783Y173880D02*
X204683D01*
X200783D02*
Y175680D01*
X204683D01*
Y173880D02*
Y175680D01*
X200783Y177080D02*
X204683D01*
X200783D02*
Y178880D01*
X204683D01*
Y177080D02*
Y178880D01*
X200783Y180180D02*
X204683D01*
X200783D02*
Y181980D01*
X204683D01*
Y180180D02*
Y181980D01*
X256784Y129880D02*
X259883D01*
X253683D02*
X254983D01*
X250483D02*
X251884D01*
X247383D02*
X248684D01*
X244183D02*
X245584D01*
X241084D02*
X242384D01*
X237883D02*
X239283D01*
X234784D02*
X236084D01*
X231583D02*
X232983D01*
X228484D02*
X229784D01*
X225284D02*
X226683D01*
X222183D02*
X223483D01*
X218984D02*
X220384D01*
X215883D02*
X217183D01*
X212684D02*
X214084D01*
X209683D02*
X210883D01*
X209583D02*
X209683D01*
X204683D02*
X207784D01*
X204683D02*
Y132980D01*
Y134780D02*
Y134880D01*
Y136080D01*
Y137880D02*
Y139280D01*
Y141080D02*
Y142380D01*
Y144180D02*
Y145580D01*
Y147380D02*
Y148680D01*
Y150480D02*
Y151880D01*
Y153680D02*
Y154980D01*
Y156780D02*
Y158180D01*
Y159980D02*
Y161280D01*
Y163080D02*
Y164480D01*
Y166280D02*
Y167580D01*
Y169380D02*
Y170780D01*
Y172580D02*
Y173880D01*
Y175680D02*
Y177080D01*
Y178880D02*
Y180180D01*
Y181980D02*
Y185080D01*
X207784D01*
X209583D02*
X210883D01*
X212684D02*
X214084D01*
X215883D02*
X217183D01*
X218984D02*
X220384D01*
X222183D02*
X223483D01*
X225284D02*
X226683D01*
X228484D02*
X229784D01*
X231583D02*
X232983D01*
X234784D02*
X236084D01*
X237883D02*
X239283D01*
X241084D02*
X242384D01*
X244183D02*
X245584D01*
X247383D02*
X248684D01*
X250483D02*
X251884D01*
X253683D02*
X254983D01*
X256784D02*
X259883D01*
Y181980D02*
Y185080D01*
Y178880D02*
Y180180D01*
Y175680D02*
Y177080D01*
Y172580D02*
Y173880D01*
Y169380D02*
Y170780D01*
Y166280D02*
Y167580D01*
Y163080D02*
Y164480D01*
Y159980D02*
Y161280D01*
Y156780D02*
Y158180D01*
Y153680D02*
Y154980D01*
Y150480D02*
Y151880D01*
Y147380D02*
Y148680D01*
Y144180D02*
Y145580D01*
Y141080D02*
Y142380D01*
Y137880D02*
Y139280D01*
Y134780D02*
Y136080D01*
Y129880D02*
Y132980D01*
D16*
X307043Y136315D02*
X312643D01*
Y124315D02*
Y136315D01*
X307043Y124315D02*
X312643D01*
X307043D02*
Y136315D01*
X312643Y131315D02*
X315042D01*
Y129315D02*
Y131315D01*
X312643Y129315D02*
X315042D01*
X312643D02*
Y131315D01*
X304643Y125615D02*
X307043D01*
X304643D02*
Y127615D01*
X307043D01*
Y125615D02*
Y127615D01*
X304643Y133015D02*
X307043D01*
X304643D02*
Y135015D01*
X307043D01*
Y133015D02*
Y135015D01*
Y136315D02*
X312643D01*
Y124315D02*
Y136315D01*
X307043Y124315D02*
X312643D01*
X307043D02*
Y136315D01*
X312643Y131315D02*
X315042D01*
Y129315D02*
Y131315D01*
X312643Y129315D02*
X315042D01*
X312643D02*
Y131315D01*
X304643Y125615D02*
X307043D01*
X304643D02*
Y127615D01*
X307043D01*
Y125615D02*
Y127615D01*
X304643Y133015D02*
X307043D01*
X304643D02*
Y135015D01*
X307043D01*
Y133015D02*
Y135015D01*
M02*
