G04*
G04 #@! TF.GenerationSoftware,Altium Limited,Altium Designer,23.8.1 (32)*
G04*
G04 Layer_Color=16711935*
%FSLAX25Y25*%
%MOIN*%
G70*
G04*
G04 #@! TF.SameCoordinates,BF2EEF1A-6A82-4CD2-B880-65E340770DF0*
G04*
G04*
G04 #@! TF.FilePolarity,Positive*
G04*
G01*
G75*
%ADD10C,0.00591*%
%ADD13C,0.00787*%
%ADD14C,0.00000*%
%ADD15C,0.01000*%
%ADD16C,0.00600*%
%ADD17C,0.00500*%
%ADD65C,0.00394*%
%ADD66R,0.17717X0.02854*%
D10*
X55905Y222441D02*
Y248425D01*
Y222441D02*
X81890D01*
Y248425D01*
X55905D02*
X81890D01*
D13*
X88346Y114921D02*
X87559D01*
X88346D01*
D14*
X367304Y216293D02*
X367655Y215444D01*
X368504Y215093D01*
X369353Y215444D01*
X369704Y216293D01*
X367304D02*
X367655Y215444D01*
X368504Y215093D01*
X369353Y215444D01*
X369704Y216293D01*
D15*
X369579Y43110D02*
Y88386D01*
X403043Y43110D02*
Y88386D01*
X369579D02*
X403043D01*
X369579Y43110D02*
X403043D01*
D16*
X376204Y215193D02*
X380304D01*
Y213193D02*
Y215193D01*
X376204Y213193D02*
X380304D01*
X376204D02*
Y215193D01*
Y210193D02*
X380304D01*
Y208193D02*
Y210193D01*
X376204Y208193D02*
X380304D01*
X376204D02*
Y210193D01*
Y205193D02*
X380304D01*
Y203193D02*
Y205193D01*
X376204Y203193D02*
X380304D01*
X376204D02*
Y205193D01*
Y200193D02*
X380304D01*
Y198193D02*
Y200193D01*
X376204Y198193D02*
X380304D01*
X376204D02*
Y200193D01*
X356704Y198193D02*
X360804D01*
X356704D02*
Y200193D01*
X360804D01*
Y198193D02*
Y200193D01*
X356704Y203193D02*
X360804D01*
X356704D02*
Y205193D01*
X360804D01*
Y203193D02*
Y205193D01*
X356704Y208193D02*
X360804D01*
X356704D02*
Y210193D01*
X360804D01*
Y208193D02*
Y210193D01*
X356704Y213193D02*
X360804D01*
X356704D02*
Y215193D01*
X360804D01*
Y213193D02*
Y215193D01*
X376204D02*
X380304D01*
Y213193D02*
Y215193D01*
X376204Y213193D02*
X380304D01*
X376204D02*
Y215193D01*
Y210193D02*
X380304D01*
Y208193D02*
Y210193D01*
X376204Y208193D02*
X380304D01*
X376204D02*
Y210193D01*
Y205193D02*
X380304D01*
Y203193D02*
Y205193D01*
X376204Y203193D02*
X380304D01*
X376204D02*
Y205193D01*
Y200193D02*
X380304D01*
Y198193D02*
Y200193D01*
X376204Y198193D02*
X380304D01*
X376204D02*
Y200193D01*
X356704Y198193D02*
X360804D01*
X356704D02*
Y200193D01*
X360804D01*
Y198193D02*
Y200193D01*
X356704Y203193D02*
X360804D01*
X356704D02*
Y205193D01*
X360804D01*
Y203193D02*
Y205193D01*
X356704Y208193D02*
X360804D01*
X356704D02*
Y210193D01*
X360804D01*
Y208193D02*
Y210193D01*
X356704Y213193D02*
X360804D01*
X356704D02*
Y215193D01*
X360804D01*
Y213193D02*
Y215193D01*
D17*
X40402Y117480D02*
X79201D01*
X40402D02*
Y197480D01*
X79201D01*
Y117480D02*
Y197480D01*
X40402Y117480D02*
X79201D01*
X40402D02*
Y197480D01*
X79201D01*
D65*
X132205Y226673D02*
Y261516D01*
X332362D01*
Y226673D02*
Y261516D01*
X132205Y226673D02*
X332362D01*
X140059Y178445D02*
Y182185D01*
X133169Y178445D02*
Y182185D01*
Y178445D02*
X140059D01*
X133169Y182185D02*
X140059D01*
X306890Y85728D02*
X310433D01*
X306890Y92421D02*
X310433D01*
X306890Y85728D02*
Y92421D01*
X310433Y85728D02*
Y92421D01*
X306398Y118602D02*
Y122343D01*
X313287Y118602D02*
Y122343D01*
X306398D02*
X313287D01*
X306398Y118602D02*
X313287D01*
X303150Y144095D02*
Y164567D01*
X316535Y144095D02*
Y164567D01*
X303150Y144095D02*
X316535D01*
X303150Y164567D02*
X316535D01*
X297342Y142323D02*
Y149213D01*
X301083Y142323D02*
Y149213D01*
X297342Y142323D02*
X301083D01*
X297342Y149213D02*
X301083D01*
X301083Y159449D02*
Y166339D01*
X297342Y159449D02*
Y166339D01*
X301083D01*
X297342Y159449D02*
X301083D01*
X300689Y99016D02*
Y105905D01*
X304429Y99016D02*
Y105905D01*
X300689Y99016D02*
X304429D01*
X300689Y105905D02*
X304429D01*
X304528Y85728D02*
Y92421D01*
X300984Y85728D02*
Y92421D01*
X304528D01*
X300984Y85728D02*
X304528D01*
X306988Y99016D02*
Y105905D01*
X310728Y99016D02*
Y105905D01*
X306988Y99016D02*
X310728D01*
X306988Y105905D02*
X310728D01*
X268799Y107972D02*
Y111713D01*
X261910Y107972D02*
Y111713D01*
Y107972D02*
X268799D01*
X261910Y111713D02*
X268799D01*
X104882Y61614D02*
X116378D01*
X104882Y56496D02*
X116378D01*
Y61614D01*
X104882Y56496D02*
Y61614D01*
X114075Y47736D02*
Y51476D01*
X107185Y47736D02*
Y51476D01*
Y47736D02*
X114075D01*
X107185Y51476D02*
X114075D01*
X133169Y194783D02*
X140059D01*
X133169Y191043D02*
X140059D01*
X133169D02*
Y194783D01*
X140059Y191043D02*
Y194783D01*
X133169Y184744D02*
X140059D01*
X133169Y188484D02*
X140059D01*
Y184744D02*
Y188484D01*
X133169Y184744D02*
Y188484D01*
X91102Y61614D02*
X102598D01*
X91102Y56496D02*
X102598D01*
Y61614D01*
X91102Y56496D02*
Y61614D01*
X100295Y47736D02*
Y51476D01*
X93405Y47736D02*
Y51476D01*
Y47736D02*
X100295D01*
X93405Y51476D02*
X100295D01*
X161319Y131988D02*
Y138878D01*
X157579Y131988D02*
Y138878D01*
X161319D01*
X157579Y131988D02*
X161319D01*
X147146D02*
Y138878D01*
X143405Y131988D02*
Y138878D01*
X147146D01*
X143405Y131988D02*
X147146D01*
X132972D02*
Y138878D01*
X129232Y131988D02*
Y138878D01*
X132972D01*
X129232Y131988D02*
X132972D01*
X163681Y131693D02*
Y139173D01*
X169390Y131693D02*
Y139173D01*
X163681Y131693D02*
X169390D01*
X163681Y139173D02*
X169390D01*
X149508Y131693D02*
Y139173D01*
X155217Y131693D02*
Y139173D01*
X149508Y131693D02*
X155217D01*
X149508Y139173D02*
X155217D01*
X135335Y131693D02*
Y139173D01*
X141043Y131693D02*
Y139173D01*
X135335Y131693D02*
X141043D01*
X135335Y139173D02*
X141043D01*
X64665Y104035D02*
X68405D01*
X64665Y110925D02*
X68405D01*
X64665Y104035D02*
Y110925D01*
X68405Y104035D02*
Y110925D01*
X294980Y203051D02*
X298721D01*
X294980Y209941D02*
X298721D01*
X294980Y203051D02*
Y209941D01*
X298721Y203051D02*
Y209941D01*
X288681Y203051D02*
X292421D01*
X288681Y209941D02*
X292421D01*
X288681Y203051D02*
Y209941D01*
X292421Y203051D02*
Y209941D01*
X305020Y203051D02*
Y209941D01*
X301279Y203051D02*
Y209941D01*
X305020D01*
X301279Y203051D02*
X305020D01*
X263484Y209744D02*
Y216634D01*
X267224Y209744D02*
Y216634D01*
X263484Y209744D02*
X267224D01*
X263484Y216634D02*
X267224D01*
X317618Y203051D02*
Y209941D01*
X313878Y203051D02*
Y209941D01*
X317618D01*
X313878Y203051D02*
X317618D01*
X257185Y216634D02*
X260925D01*
X257185Y209744D02*
X260925D01*
Y216634D01*
X257185Y209744D02*
Y216634D01*
X307579Y203051D02*
Y209941D01*
X311319Y203051D02*
Y209941D01*
X307579Y203051D02*
X311319D01*
X307579Y209941D02*
X311319D01*
X250886Y216634D02*
X254626D01*
X250886Y209744D02*
X254626D01*
Y216634D01*
X250886Y209744D02*
Y216634D01*
X323917Y203051D02*
Y209941D01*
X320177Y203051D02*
Y209941D01*
X323917D01*
X320177Y203051D02*
X323917D01*
X244587Y216634D02*
X248327D01*
X244587Y209744D02*
X248327D01*
Y216634D01*
X244587Y209744D02*
Y216634D01*
X365059Y218209D02*
Y221949D01*
X371949Y218209D02*
Y221949D01*
X365059D02*
X371949D01*
X365059Y218209D02*
X371949D01*
X390650Y211713D02*
X397539D01*
X390650Y207972D02*
X397539D01*
X390650D02*
Y211713D01*
X397539Y207972D02*
Y211713D01*
X390650Y195374D02*
X397539D01*
X390650Y199114D02*
X397539D01*
Y195374D02*
Y199114D01*
X390650Y195374D02*
Y199114D01*
Y201673D02*
X397539D01*
X390650Y205413D02*
X397539D01*
Y201673D02*
Y205413D01*
X390650Y201673D02*
Y205413D01*
X231988Y209744D02*
X235728D01*
X231988Y216634D02*
X235728D01*
X231988Y209744D02*
Y216634D01*
X235728Y209744D02*
Y216634D01*
X55020Y101279D02*
Y105020D01*
X48130Y101279D02*
Y105020D01*
Y101279D02*
X55020D01*
X48130Y105020D02*
X55020D01*
X242028Y209744D02*
Y216634D01*
X238287Y209744D02*
Y216634D01*
X242028D01*
X238287Y209744D02*
X242028D01*
X131791Y236713D02*
Y243602D01*
X128051Y236713D02*
Y243602D01*
X131791D01*
X128051Y236713D02*
X131791D01*
X225689Y209744D02*
Y216634D01*
X229429Y209744D02*
Y216634D01*
X225689Y209744D02*
X229429D01*
X225689Y216634D02*
X229429D01*
X219390Y209744D02*
Y216634D01*
X223130Y209744D02*
Y216634D01*
X219390Y209744D02*
X223130D01*
X219390Y216634D02*
X223130D01*
X140650Y236713D02*
Y243602D01*
X144390Y236713D02*
Y243602D01*
X140650Y236713D02*
X144390D01*
X140650Y243602D02*
X144390D01*
X210531Y209744D02*
Y216634D01*
X206791Y209744D02*
Y216634D01*
X210531D01*
X206791Y209744D02*
X210531D01*
X134350Y236713D02*
Y243602D01*
X138091Y236713D02*
Y243602D01*
X134350Y236713D02*
X138091D01*
X134350Y243602D02*
X138091D01*
X197933Y209744D02*
Y216634D01*
X194193Y209744D02*
Y216634D01*
X197933D01*
X194193Y209744D02*
X197933D01*
X204232D02*
Y216634D01*
X200492Y209744D02*
Y216634D01*
X204232D01*
X200492Y209744D02*
X204232D01*
X121752Y243602D02*
X125492D01*
X121752Y236713D02*
X125492D01*
Y243602D01*
X121752Y236713D02*
Y243602D01*
X191634Y209744D02*
Y216634D01*
X187894Y209744D02*
Y216634D01*
X191634D01*
X187894Y209744D02*
X191634D01*
X96555Y243602D02*
X100295D01*
X96555Y236713D02*
X100295D01*
Y243602D01*
X96555Y236713D02*
Y243602D01*
X102854D02*
X106595D01*
X102854Y236713D02*
X106595D01*
Y243602D01*
X102854Y236713D02*
Y243602D01*
X112894Y236713D02*
Y243602D01*
X109153Y236713D02*
Y243602D01*
X112894D01*
X109153Y236713D02*
X112894D01*
X213090Y209744D02*
Y216634D01*
X216831Y209744D02*
Y216634D01*
X213090Y209744D02*
X216831D01*
X213090Y216634D02*
X216831D01*
X115453Y236713D02*
X119193D01*
X115453Y243602D02*
X119193D01*
X115453Y236713D02*
Y243602D01*
X119193Y236713D02*
Y243602D01*
X269783Y209744D02*
Y216634D01*
X273524Y209744D02*
Y216634D01*
X269783Y209744D02*
X273524D01*
X269783Y216634D02*
X273524D01*
X276083Y209744D02*
Y216634D01*
X279823Y209744D02*
Y216634D01*
X276083Y209744D02*
X279823D01*
X276083Y216634D02*
X279823D01*
X343406Y203248D02*
Y210138D01*
X347146Y203248D02*
Y210138D01*
X343406Y203248D02*
X347146D01*
X343406Y210138D02*
X347146D01*
X349918Y203248D02*
Y210138D01*
X353659Y203248D02*
Y210138D01*
X349918Y203248D02*
X353659D01*
X349918Y210138D02*
X353659D01*
X397539Y189075D02*
Y192815D01*
X390650Y189075D02*
Y192815D01*
Y189075D02*
X397539D01*
X390650Y192815D02*
X397539D01*
X363878Y54961D02*
Y61850D01*
X367618Y54961D02*
Y61850D01*
X363878Y54961D02*
X367618D01*
X363878Y61850D02*
X367618D01*
X367618Y69646D02*
Y76535D01*
X363878Y69646D02*
Y76535D01*
X367618D01*
X363878Y69646D02*
X367618D01*
X72342Y213090D02*
Y216831D01*
X65453Y213090D02*
Y216831D01*
Y213090D02*
X72342D01*
X65453Y216831D02*
X72342D01*
X189862Y131988D02*
Y138878D01*
X193602Y131988D02*
Y138878D01*
X189862Y131988D02*
X193602D01*
X189862Y138878D02*
X193602D01*
X183563Y131988D02*
Y138878D01*
X187303Y131988D02*
Y138878D01*
X183563Y131988D02*
X187303D01*
X183563Y138878D02*
X187303D01*
X189862Y167717D02*
X193602D01*
X189862Y174606D02*
X193602D01*
X189862Y167717D02*
Y174606D01*
X193602Y167717D02*
Y174606D01*
X183563Y167717D02*
X187303D01*
X183563Y174606D02*
X187303D01*
X183563Y167717D02*
Y174606D01*
X187303Y167717D02*
Y174606D01*
X177264Y167717D02*
X181004D01*
X177264Y174606D02*
X181004D01*
X177264Y167717D02*
Y174606D01*
X181004Y167717D02*
Y174606D01*
X170965Y167717D02*
X174705D01*
X170965Y174606D02*
X174705D01*
X170965Y167717D02*
Y174606D01*
X174705Y167717D02*
Y174606D01*
X54921Y108465D02*
Y112008D01*
X48228Y108465D02*
Y112008D01*
Y108465D02*
X54921D01*
X48228Y112008D02*
X54921D01*
D66*
X232284Y260088D02*
D03*
M02*
