G04*
G04 #@! TF.GenerationSoftware,Altium Limited,Altium Designer,23.8.1 (32)*
G04*
G04 Layer_Color=65535*
%FSLAX25Y25*%
%MOIN*%
G70*
G04*
G04 #@! TF.SameCoordinates,BF2EEF1A-6A82-4CD2-B880-65E340770DF0*
G04*
G04*
G04 #@! TF.FilePolarity,Positive*
G04*
G01*
G75*
%ADD10C,0.00591*%
%ADD11C,0.00984*%
%ADD12C,0.00394*%
%ADD13C,0.00787*%
%ADD14C,0.00000*%
%ADD15C,0.01000*%
%ADD16C,0.00600*%
%ADD17C,0.00500*%
G36*
X383701Y158881D02*
X383715Y158854D01*
X383776Y158833D01*
X383938Y158820D01*
X383979Y158806D01*
X384074Y158793D01*
X384168Y158752D01*
X384236Y158739D01*
X384304Y158712D01*
X384412Y158684D01*
X384534Y158630D01*
X384609Y158610D01*
X385035Y158386D01*
X385062Y158359D01*
X385157Y158305D01*
X385184Y158278D01*
X385279Y158224D01*
X385306Y158197D01*
X385333Y158183D01*
X385401Y158143D01*
X385604Y157940D01*
X385699Y157885D01*
X385801Y157784D01*
X385814Y157729D01*
X385895Y157648D01*
X385909Y157621D01*
X385929Y157601D01*
X385956Y157587D01*
X385990Y157553D01*
X386044Y157459D01*
X386112Y157391D01*
X386180Y157269D01*
X386207Y157242D01*
X386261Y157147D01*
X386288Y157120D01*
X386532Y156619D01*
X386566Y156531D01*
X386593Y156463D01*
X386627Y156389D01*
X386640Y156334D01*
X386695Y156185D01*
X386708Y156145D01*
X386722Y156091D01*
X386735Y156009D01*
X386749Y155969D01*
X386762Y155833D01*
X386776Y155806D01*
X386742Y155772D01*
X386309D01*
X385089Y155786D01*
X385042Y155833D01*
X385029Y155887D01*
X385001Y155914D01*
X384974Y155982D01*
X384954Y156070D01*
X384886Y156179D01*
X384852Y156212D01*
X384819Y156301D01*
X384764Y156382D01*
X384717Y156416D01*
X384703Y156443D01*
X384649Y156538D01*
X384609Y156578D01*
X384602Y156599D01*
X384575Y156612D01*
X384345Y156842D01*
X384250Y156896D01*
X384195Y156951D01*
X384168Y156964D01*
X384047Y157032D01*
X383816Y157140D01*
X383749Y157154D01*
X383654Y157194D01*
X383600Y157208D01*
X383532Y157235D01*
X383437Y157249D01*
X383396Y157262D01*
X383329Y157276D01*
X383288Y157262D01*
X382794Y157269D01*
X382739Y157255D01*
X382665Y157235D01*
X382543Y157222D01*
X382475Y157194D01*
X382421Y157181D01*
X382326Y157140D01*
X382238Y157106D01*
X382042Y157005D01*
X382015Y156978D01*
X381988Y156964D01*
X381893Y156910D01*
X381724Y156781D01*
X381520Y156578D01*
X381507Y156551D01*
X381480Y156524D01*
X381439Y156456D01*
X381419Y156436D01*
X381399Y156429D01*
X381385Y156402D01*
X381331Y156307D01*
X381263Y156212D01*
X381195Y156063D01*
X381182Y156036D01*
X381155Y155969D01*
X381134Y155894D01*
X381114Y155833D01*
X381073Y155738D01*
X381060Y155576D01*
X381033Y155508D01*
X381019Y155251D01*
X380992Y155183D01*
X380979Y154506D01*
X380952Y154479D01*
X380938Y154384D01*
X380952Y152637D01*
X380979Y152610D01*
X380992Y152515D01*
X381006Y151919D01*
X381019Y151878D01*
X381033Y151824D01*
X381046Y151580D01*
X381073Y151513D01*
X381087Y151377D01*
X381128Y151282D01*
X381148Y151194D01*
X381175Y151127D01*
X381331Y150835D01*
X381358Y150808D01*
X381371Y150781D01*
X381432Y150707D01*
X381466Y150673D01*
X381534Y150551D01*
X381581Y150503D01*
X381609Y150490D01*
X381642Y150456D01*
X381656Y150429D01*
X381730Y150354D01*
X381757Y150341D01*
X381798Y150300D01*
X381852Y150287D01*
X381913Y150226D01*
X381927Y150199D01*
X382421Y149962D01*
X382516Y149948D01*
X382584Y149921D01*
X382679Y149907D01*
X382746Y149880D01*
X383478Y149894D01*
X383545Y149921D01*
X383640Y149934D01*
X383735Y149975D01*
X383803Y149989D01*
X383870Y150016D01*
X383965Y150056D01*
X383992Y150070D01*
X384087Y150138D01*
X384114Y150165D01*
X384168Y150178D01*
X384209Y150219D01*
X384236Y150233D01*
X384365Y150321D01*
X384426Y150395D01*
X384480Y150449D01*
X384507Y150463D01*
X384527Y150483D01*
X384541Y150510D01*
X384643Y150612D01*
X384670Y150625D01*
X384690Y150646D01*
X384703Y150673D01*
X384791Y150801D01*
X384859Y150910D01*
X384893Y150944D01*
X384907Y150998D01*
X385042Y151255D01*
X385062Y151276D01*
X385157Y151289D01*
X386755Y151276D01*
X386776Y151242D01*
X386749Y151174D01*
X386735Y151038D01*
X386708Y150971D01*
X386695Y150917D01*
X386667Y150889D01*
X386654Y150754D01*
X386627Y150727D01*
X386600Y150659D01*
X386579Y150571D01*
X386512Y150395D01*
X386363Y150097D01*
X386295Y149989D01*
X386275Y149968D01*
X386187Y149785D01*
X386159Y149772D01*
X386092Y149664D01*
X386058Y149630D01*
X386044Y149603D01*
X385977Y149535D01*
X385936Y149467D01*
X385855Y149386D01*
X385841Y149359D01*
X385767Y149284D01*
X385740Y149271D01*
X385706Y149237D01*
X385692Y149210D01*
X385618Y149135D01*
X385591Y149122D01*
X385523Y149054D01*
X385435Y149007D01*
X385421Y148980D01*
X385401Y148959D01*
X385374Y148946D01*
X385279Y148878D01*
X385205Y148817D01*
X385123Y148776D01*
X384968Y148688D01*
X384886Y148634D01*
X384710Y148553D01*
X384629Y148539D01*
X384602Y148512D01*
X384575Y148499D01*
X384507Y148472D01*
X384439Y148458D01*
X384372Y148431D01*
X384317Y148417D01*
X384250Y148390D01*
X384155Y148377D01*
X384087Y148350D01*
X383979Y148336D01*
X383952Y148309D01*
X383857Y148296D01*
X383749Y148282D01*
X383708Y148268D01*
X383369Y148255D01*
X383302Y148228D01*
X382814Y148241D01*
X382746Y148268D01*
X382435Y148282D01*
X382367Y148309D01*
X382313Y148296D01*
X382177Y148350D01*
X382069Y148363D01*
X382001Y148390D01*
X381920Y148404D01*
X381852Y148431D01*
X381785Y148445D01*
X381717Y148472D01*
X381663Y148485D01*
X381568Y148539D01*
X381473Y148580D01*
X381405Y148607D01*
X381317Y148641D01*
X381297Y148661D01*
X381270Y148675D01*
X381243Y148702D01*
X381067Y148797D01*
X381040Y148824D01*
X380918Y148892D01*
X380891Y148919D01*
X380796Y148973D01*
X380769Y149000D01*
X380701Y149041D01*
X380606Y149135D01*
X380579Y149149D01*
X380559Y149169D01*
X380545Y149196D01*
X380457Y149284D01*
X380430Y149298D01*
X380396Y149345D01*
X380146Y149596D01*
X380119Y149609D01*
X380051Y149718D01*
X380030Y149738D01*
X380017Y149765D01*
X379963Y149819D01*
X379936Y149887D01*
X379882Y149941D01*
X379787Y150117D01*
X379760Y150145D01*
X379692Y150294D01*
X379678Y150321D01*
X379624Y150443D01*
X379611Y150497D01*
X379543Y150646D01*
X379529Y150700D01*
X379502Y150768D01*
X379489Y150862D01*
X379448Y150957D01*
X379462Y151038D01*
X379421Y151133D01*
X379408Y151404D01*
X379380Y151431D01*
X379367Y152068D01*
X379340Y152136D01*
X379326Y152217D01*
X379340Y152257D01*
X379333Y155014D01*
X379353Y155061D01*
X379380Y155129D01*
X379394Y155738D01*
X379421Y155806D01*
X379434Y156063D01*
X379448Y156104D01*
X379462Y156158D01*
X379448Y156185D01*
X379462Y156226D01*
X379502Y156321D01*
X379516Y156429D01*
X379529Y156470D01*
X379563Y156558D01*
X379604Y156639D01*
X379624Y156700D01*
X379665Y156808D01*
X379746Y156957D01*
X379773Y156985D01*
X379787Y157012D01*
X379909Y157242D01*
X379949Y157283D01*
X380003Y157377D01*
X380037Y157411D01*
X380058Y157418D01*
X380125Y157540D01*
X380180Y157594D01*
X380193Y157621D01*
X380213Y157641D01*
X380241Y157655D01*
X380328Y157743D01*
X380342Y157770D01*
X380362Y157791D01*
X380389Y157804D01*
X380477Y157892D01*
X380491Y157919D01*
X380525Y157953D01*
X380552Y157967D01*
X380627Y158041D01*
X380640Y158068D01*
X380755Y158129D01*
X380809Y158183D01*
X380836Y158197D01*
X380863Y158224D01*
X380931Y158265D01*
X380958Y158292D01*
X381026Y158319D01*
X381080Y158373D01*
X381581Y158617D01*
X381710Y158664D01*
X381825Y158712D01*
X381920Y158725D01*
X381988Y158752D01*
X382042Y158766D01*
X382137Y158806D01*
X382245Y158820D01*
X382286Y158833D01*
X382462Y158847D01*
X382475Y158888D01*
X383701Y158881D01*
D02*
G37*
G36*
X144904Y158353D02*
X145015Y158345D01*
X145039Y158337D01*
X145087Y158329D01*
X145110Y158321D01*
X145150Y158305D01*
X145206Y158289D01*
X145257Y158277D01*
X145345Y158261D01*
X145377Y158254D01*
X145460Y158210D01*
X145524Y158194D01*
X145567Y158182D01*
X145595Y158170D01*
X145643Y158138D01*
X145722Y158114D01*
X145794Y158075D01*
X145865Y158043D01*
X145909Y158031D01*
X145953Y158003D01*
X145969Y157987D01*
X146008Y157971D01*
X146040Y157964D01*
X146112Y157924D01*
X146128Y157908D01*
X146215Y157876D01*
X146231Y157860D01*
X146243Y157856D01*
X146251Y157840D01*
X146358Y157781D01*
X146374Y157765D01*
X146390Y157757D01*
X146461Y157717D01*
X146501Y157677D01*
X146588Y157630D01*
X146612Y157606D01*
X146628Y157598D01*
X146684Y157558D01*
X146731Y157511D01*
X146771Y157487D01*
X146783Y157475D01*
X146791Y157459D01*
X146803Y157447D01*
X146819Y157439D01*
X146863Y157403D01*
X146890Y157376D01*
X146906Y157368D01*
X146958Y157332D01*
X146962Y157320D01*
X146978Y157312D01*
X147018Y157272D01*
X147033Y157264D01*
X147308Y156990D01*
X147316Y156974D01*
X147379Y156911D01*
X147411Y156855D01*
X147459Y156807D01*
X147467Y156791D01*
X147502Y156748D01*
X147518Y156740D01*
X147530Y156728D01*
X147538Y156712D01*
X147558Y156684D01*
X147613Y156668D01*
X147693Y156676D01*
X147904Y156688D01*
X148062Y156704D01*
X148678Y156708D01*
X148702Y156700D01*
X148968Y156688D01*
X149167Y156680D01*
X149731Y156664D01*
X149890Y156656D01*
X150001Y156649D01*
X150104Y156641D01*
X150192Y156633D01*
X150263Y156625D01*
X150359Y156617D01*
X150462Y156609D01*
X150724Y156585D01*
X150828Y156569D01*
X150891Y156553D01*
X150971Y156537D01*
X151018Y156529D01*
X151090Y156521D01*
X151185Y156513D01*
X151257Y156505D01*
X151352Y156490D01*
X151447Y156466D01*
X151527Y156450D01*
X151598Y156442D01*
X151678Y156434D01*
X151725Y156426D01*
X151765Y156418D01*
X151892Y156386D01*
X151972Y156370D01*
X152059Y156362D01*
X152123Y156354D01*
X152170Y156346D01*
X152234Y156331D01*
X152302Y156311D01*
X152333Y156303D01*
X152445Y156287D01*
X152520Y156275D01*
X152560Y156267D01*
X152675Y156231D01*
X152770Y156215D01*
X152826Y156208D01*
X152890Y156200D01*
X152913Y156192D01*
X152957Y156180D01*
X152993Y156168D01*
X153048Y156152D01*
X153080Y156144D01*
X153203Y156124D01*
X153243Y156116D01*
X153295Y156096D01*
X153334Y156080D01*
X153366Y156072D01*
X153422Y156064D01*
X153454Y156056D01*
X153517Y156049D01*
X153541Y156041D01*
X153593Y156021D01*
X153684Y155993D01*
X153740Y155985D01*
X153807Y155973D01*
X153839Y155965D01*
X153879Y155949D01*
X153922Y155929D01*
X153978Y155913D01*
X154034Y155905D01*
X154065Y155898D01*
X154109Y155886D01*
X154193Y155850D01*
X154256Y155834D01*
X154312Y155826D01*
X154411Y155790D01*
X154455Y155770D01*
X154506Y155759D01*
X154554Y155751D01*
X154586Y155743D01*
X154626Y155727D01*
X154677Y155699D01*
X154717Y155683D01*
X154785Y155671D01*
X154848Y155647D01*
X154900Y155620D01*
X154963Y155604D01*
X155015Y155592D01*
X155055Y155576D01*
X155154Y155532D01*
X155245Y155512D01*
X155329Y155468D01*
X155384Y155453D01*
X155468Y155433D01*
X155567Y155381D01*
X155627Y155369D01*
X155659Y155361D01*
X155698Y155345D01*
X155758Y155310D01*
X155809Y155298D01*
X155841Y155290D01*
X155893Y155270D01*
X155941Y155238D01*
X155984Y155226D01*
X156048Y155210D01*
X156088Y155194D01*
X156099Y155182D01*
X156115Y155175D01*
X156171Y155151D01*
X156203Y155143D01*
X156254Y155123D01*
X156302Y155091D01*
X156354Y155071D01*
X156405Y155059D01*
X156449Y155032D01*
X156497Y155000D01*
X156549Y154988D01*
X156600Y154968D01*
X156656Y154928D01*
X156687Y154920D01*
X156763Y154892D01*
X156791Y154873D01*
X156862Y154841D01*
X156894Y154833D01*
X156950Y154801D01*
X156966Y154785D01*
X157005Y154769D01*
X157037Y154761D01*
X157081Y154749D01*
X157093Y154737D01*
X157109Y154729D01*
X157156Y154698D01*
X157208Y154686D01*
X157272Y154662D01*
X157299Y154634D01*
X157339Y154618D01*
X157383Y154606D01*
X157415Y154598D01*
X157442Y154579D01*
X157490Y154547D01*
X157542Y154527D01*
X157581Y154511D01*
X157593Y154499D01*
X157625Y154491D01*
X157665Y154499D01*
X157689Y154523D01*
X157705Y154531D01*
X157756Y154567D01*
X157764Y154583D01*
X157776Y154595D01*
X157848Y154634D01*
X157887Y154674D01*
X157959Y154714D01*
X158007Y154761D01*
X158046Y154785D01*
X158086Y154825D01*
X158102Y154833D01*
X158158Y154873D01*
X158173Y154888D01*
X158189Y154896D01*
X158277Y154944D01*
X158316Y154984D01*
X158388Y155024D01*
X158412Y155047D01*
X158515Y155103D01*
X158539Y155127D01*
X158595Y155151D01*
X158634Y155175D01*
X158658Y155198D01*
X158714Y155222D01*
X158753Y155246D01*
X158777Y155270D01*
X158793Y155278D01*
X158885Y155322D01*
X158893Y155337D01*
X158904Y155349D01*
X158920Y155357D01*
X159008Y155405D01*
X159031Y155429D01*
X159047Y155437D01*
X159135Y155484D01*
X159183Y155516D01*
X159214Y155524D01*
X159286Y155564D01*
X159310Y155588D01*
X159409Y155623D01*
X159445Y155659D01*
X159485Y155675D01*
X159548Y155699D01*
X159564Y155715D01*
X159580Y155723D01*
X159596Y155739D01*
X159627Y155747D01*
X159703Y155774D01*
X159715Y155786D01*
X159731Y155794D01*
X159747Y155810D01*
X159786Y155826D01*
X159830Y155838D01*
X159870Y155854D01*
X159898Y155882D01*
X159937Y155898D01*
X160013Y155925D01*
X160096Y155969D01*
X160160Y155985D01*
X160207Y155993D01*
X160327Y156049D01*
X160390Y156064D01*
X160434Y156076D01*
X160517Y156120D01*
X160549Y156128D01*
X160660Y156152D01*
X160764Y156200D01*
X160859Y156215D01*
X160891Y156223D01*
X160970Y156231D01*
X161117Y156243D01*
X161229Y156251D01*
X161296Y156255D01*
X161320Y156247D01*
X161391Y156239D01*
X161415Y156231D01*
X161447Y156223D01*
X161538Y156203D01*
X161578Y156188D01*
X161606Y156160D01*
X161646Y156144D01*
X161721Y156116D01*
X161749Y156096D01*
X161765Y156080D01*
X161844Y156049D01*
X161872Y156029D01*
X161880Y156013D01*
X161892Y156001D01*
X161908Y155993D01*
X161952Y155957D01*
X162031Y155878D01*
X162055Y155838D01*
X162087Y155806D01*
X162095Y155790D01*
X162118Y155735D01*
X162142Y155695D01*
X162158Y155679D01*
X162166Y155663D01*
X162182Y155623D01*
X162194Y155580D01*
X162210Y155540D01*
X162246Y155480D01*
X162258Y155429D01*
X162266Y155389D01*
X162297Y155310D01*
X162317Y155266D01*
X162329Y155214D01*
X162337Y155151D01*
X162353Y155063D01*
X162361Y155032D01*
X162377Y154992D01*
X162389Y154948D01*
X162397Y154916D01*
X162413Y154805D01*
X162420Y154702D01*
X162428Y154670D01*
X162440Y154587D01*
X162448Y154547D01*
X162456Y154515D01*
X162464Y154467D01*
X162472Y154396D01*
X162480Y154316D01*
X162488Y154205D01*
X162496Y154014D01*
X162504Y153879D01*
X162532Y153327D01*
X162540Y153057D01*
X162532Y152135D01*
X162524Y152111D01*
X162504Y151567D01*
X162496Y151384D01*
X162488Y151098D01*
X162480Y150884D01*
X162472Y150749D01*
X162464Y150637D01*
X162456Y150550D01*
X162448Y150478D01*
X162440Y150415D01*
X162432Y150320D01*
X162420Y150085D01*
X162413Y149982D01*
X162401Y149748D01*
X162393Y149676D01*
X162389Y149616D01*
X162420Y149561D01*
X162488Y149493D01*
X162504Y149485D01*
X162563Y149426D01*
X162571Y149410D01*
X162659Y149322D01*
X162667Y149306D01*
X162730Y149243D01*
X162738Y149227D01*
X162766Y149199D01*
X162782Y149191D01*
X162814Y149144D01*
X162838Y149120D01*
X162854Y149112D01*
X162865Y149100D01*
X162873Y149084D01*
X162953Y149005D01*
X162961Y148989D01*
X162973Y148977D01*
X162989Y148969D01*
X163024Y148933D01*
X163032Y148917D01*
X163060Y148889D01*
X163076Y148881D01*
X163088Y148870D01*
X163096Y148854D01*
X163112Y148838D01*
X163120Y148822D01*
X163147Y148802D01*
X163175Y148774D01*
X163183Y148758D01*
X163219Y148723D01*
X163231Y148719D01*
X163239Y148703D01*
X163263Y148679D01*
X163271Y148663D01*
X163283Y148651D01*
X163298Y148643D01*
X163318Y148623D01*
X163326Y148607D01*
X163362Y148572D01*
X163378Y148564D01*
X163390Y148552D01*
X163398Y148536D01*
X163485Y148448D01*
X163493Y148433D01*
X163505Y148421D01*
X163521Y148413D01*
X163549Y148385D01*
X163557Y148369D01*
X163628Y148297D01*
X163636Y148282D01*
X163700Y148218D01*
X163708Y148202D01*
X163724Y148186D01*
X163732Y148170D01*
X163795Y148107D01*
X163803Y148091D01*
X163867Y148027D01*
X163874Y148011D01*
X163946Y147940D01*
X163954Y147924D01*
X163982Y147896D01*
X163998Y147888D01*
X164010Y147876D01*
X164017Y147860D01*
X164045Y147825D01*
X164061Y147817D01*
X164089Y147789D01*
X164097Y147773D01*
X164161Y147709D01*
X164169Y147694D01*
X164232Y147630D01*
X164240Y147614D01*
X164256Y147598D01*
X164264Y147582D01*
X164276Y147570D01*
X164292Y147562D01*
X164351Y147479D01*
X164391Y147439D01*
X164399Y147423D01*
X164435Y147380D01*
X164478Y147336D01*
X164486Y147320D01*
X164550Y147257D01*
X164558Y147241D01*
X164574Y147225D01*
X164578Y147213D01*
X164594Y147205D01*
X164613Y147185D01*
X164621Y147169D01*
X164637Y147153D01*
X164645Y147137D01*
X164657Y147125D01*
X164673Y147117D01*
X164685Y147106D01*
X164693Y147090D01*
X164709Y147074D01*
X164717Y147058D01*
X164772Y147002D01*
X164796Y146962D01*
X164836Y146923D01*
X164844Y146907D01*
X164884Y146851D01*
X164923Y146812D01*
X164947Y146772D01*
X164995Y146724D01*
X165003Y146708D01*
X165039Y146665D01*
X165066Y146637D01*
X165106Y146565D01*
X165154Y146518D01*
X165162Y146502D01*
X165198Y146458D01*
X165233Y146422D01*
X165241Y146406D01*
X165261Y146379D01*
X165277Y146371D01*
X165305Y146343D01*
X165329Y146303D01*
X165384Y146247D01*
X165392Y146231D01*
X165428Y146188D01*
X165456Y146160D01*
X165488Y146104D01*
X165527Y146065D01*
X165535Y146049D01*
X165571Y145997D01*
X165583Y145993D01*
X165587Y145989D01*
X165599Y145977D01*
X165607Y145961D01*
X165650Y145902D01*
X165666Y145894D01*
X165722Y145806D01*
X165750Y145779D01*
X165758Y145763D01*
X165789Y145707D01*
X165837Y145659D01*
X165869Y145604D01*
X165909Y145564D01*
X165952Y145481D01*
X165964Y145477D01*
X165972Y145461D01*
X165988Y145445D01*
X166020Y145389D01*
X166060Y145350D01*
X166107Y145262D01*
X166131Y145238D01*
X166179Y145151D01*
X166211Y145119D01*
X166234Y145063D01*
X166242Y145048D01*
X166278Y145004D01*
X166290Y144992D01*
X166310Y144940D01*
X166338Y144897D01*
X166361Y144873D01*
X166377Y144833D01*
X166397Y144781D01*
X166417Y144754D01*
X166433Y144738D01*
X166449Y144698D01*
X166477Y144623D01*
X166497Y144595D01*
X166513Y144579D01*
X166528Y144539D01*
X166540Y144487D01*
X166556Y144448D01*
X166568Y144436D01*
X166576Y144420D01*
X166600Y144364D01*
X166612Y144313D01*
X166620Y144281D01*
X166640Y144229D01*
X166671Y144158D01*
X166679Y144102D01*
X166687Y144070D01*
X166699Y143979D01*
X166707Y143939D01*
X166723Y143876D01*
X166731Y143828D01*
X166739Y143756D01*
X166743Y143633D01*
X166735Y143609D01*
X166723Y143502D01*
X166715Y143470D01*
X166695Y143403D01*
X166687Y143371D01*
X166675Y143304D01*
X166636Y143240D01*
X166624Y143228D01*
X166616Y143196D01*
X166596Y143145D01*
X166584Y143133D01*
X166576Y143117D01*
X166536Y143077D01*
X166513Y143037D01*
X166493Y143017D01*
X166477Y143009D01*
X166413Y142946D01*
X166374Y142922D01*
X166346Y142902D01*
X166342Y142890D01*
X166326Y142882D01*
X166286Y142867D01*
X166211Y142839D01*
X166175Y142827D01*
X166143Y142819D01*
X166111Y142827D01*
X134094Y142823D01*
X134046Y142831D01*
X133983Y142855D01*
X133939Y142882D01*
X133895Y142918D01*
X133883Y142930D01*
X133827Y142962D01*
X133780Y143009D01*
X133764Y143017D01*
X133728Y143045D01*
X133720Y143061D01*
X133700Y143081D01*
X133685Y143089D01*
X133669Y143105D01*
X133653Y143113D01*
X133633Y143141D01*
X133613Y143160D01*
X133597Y143168D01*
X133585Y143180D01*
X133577Y143196D01*
X133542Y143240D01*
X133526Y143248D01*
X133514Y143260D01*
X133506Y143276D01*
X133490Y143292D01*
X133482Y143307D01*
X133454Y143327D01*
X133434Y143347D01*
X133426Y143363D01*
X133371Y143435D01*
X133315Y143538D01*
X133283Y143570D01*
X133263Y143621D01*
X133251Y143633D01*
X133244Y143649D01*
X133212Y143681D01*
X133192Y143733D01*
X133164Y143776D01*
X133140Y143800D01*
X133124Y143840D01*
X133112Y143892D01*
X133085Y143935D01*
X133061Y143975D01*
X133045Y144030D01*
X133033Y144074D01*
X133017Y144114D01*
X132997Y144134D01*
X132973Y144190D01*
X132961Y144257D01*
X132938Y144321D01*
X132926Y144333D01*
X132906Y144384D01*
X132898Y144416D01*
X132890Y144464D01*
X132882Y144503D01*
X132874Y144535D01*
X132846Y144603D01*
X132830Y144658D01*
X132822Y144714D01*
X132814Y144746D01*
X132807Y144825D01*
X132799Y144849D01*
X132767Y144976D01*
X132751Y145071D01*
X132743Y145127D01*
X132723Y145377D01*
X132715Y145457D01*
X132699Y145560D01*
X132691Y145671D01*
X132683Y145878D01*
X132679Y146176D01*
X132687Y146200D01*
X132695Y146430D01*
X132703Y146454D01*
X132715Y146593D01*
X132723Y146665D01*
X132731Y146760D01*
X132739Y146895D01*
X132747Y146990D01*
X132755Y147054D01*
X132771Y147149D01*
X132779Y147181D01*
X132802Y147300D01*
X132810Y147348D01*
X132818Y147435D01*
X132826Y147499D01*
X132834Y147539D01*
X132842Y147570D01*
X132870Y147662D01*
X132886Y147725D01*
X132898Y147825D01*
X132906Y147864D01*
X132930Y147928D01*
X132949Y147980D01*
X132965Y148043D01*
X132977Y148119D01*
X132993Y148158D01*
X133037Y148258D01*
X133045Y148313D01*
X133053Y148345D01*
X133108Y148464D01*
X133116Y148496D01*
X133136Y148580D01*
X133164Y148623D01*
X133196Y148695D01*
X133208Y148738D01*
X133247Y148802D01*
X133267Y148846D01*
X133275Y148878D01*
X133307Y148933D01*
X133323Y148949D01*
X133347Y149005D01*
X133367Y149056D01*
X133395Y149084D01*
X133402Y149100D01*
X133418Y149116D01*
X133430Y149160D01*
X133458Y149203D01*
X133474Y149219D01*
X133482Y149235D01*
X133506Y149291D01*
X133529Y149330D01*
X133561Y149362D01*
X133569Y149378D01*
X133609Y149434D01*
X133633Y149458D01*
X133641Y149473D01*
X133673Y149529D01*
X133692Y149557D01*
X133704Y149561D01*
X133712Y149577D01*
X133728Y149593D01*
X133756Y149644D01*
X133772Y149652D01*
X133800Y149680D01*
X133824Y149720D01*
X133887Y149783D01*
X133895Y149799D01*
X133923Y149827D01*
X133939Y149835D01*
X133959Y149863D01*
X133978Y149883D01*
X133994Y149891D01*
X134074Y149970D01*
X134090Y149978D01*
X134102Y149990D01*
X134110Y150006D01*
X134130Y150026D01*
X134145Y150034D01*
X134161Y150049D01*
X134173Y150053D01*
X134181Y150069D01*
X134217Y150105D01*
X134268Y150125D01*
X134296Y150145D01*
X134320Y150169D01*
X134376Y150192D01*
X134392Y150200D01*
X134435Y150236D01*
X134447Y150248D01*
X134487Y150264D01*
X134543Y150296D01*
X134558Y150312D01*
X134574Y150320D01*
X134630Y150344D01*
X134646Y150351D01*
X134690Y150387D01*
X134733Y150407D01*
X134765Y150415D01*
X134817Y150427D01*
X134880Y150451D01*
X134916Y150471D01*
X134972Y150487D01*
X135055Y150506D01*
X135087Y150514D01*
X135202Y150550D01*
X135258Y150558D01*
X135409Y150566D01*
X135838Y150558D01*
X135862Y150550D01*
X135945Y150530D01*
X135981Y150518D01*
X136044Y150502D01*
X136176Y150482D01*
X136207Y150475D01*
X136247Y150459D01*
X136315Y150431D01*
X136346Y150423D01*
X136469Y150395D01*
X136529Y150359D01*
X136585Y150344D01*
X136648Y150328D01*
X136692Y150292D01*
X136704Y150280D01*
X136744Y150264D01*
X136799Y150232D01*
X136823Y150208D01*
X136879Y150185D01*
X136918Y150169D01*
X136962Y150133D01*
X137022Y150129D01*
X137065Y150165D01*
X137097Y150220D01*
X137133Y150264D01*
X137145Y150268D01*
X137153Y150284D01*
X137193Y150339D01*
X137232Y150379D01*
X137240Y150395D01*
X137276Y150439D01*
X137304Y150467D01*
X137312Y150482D01*
X137367Y150554D01*
X137383Y150570D01*
X137391Y150586D01*
X137427Y150629D01*
X137463Y150665D01*
X137487Y150705D01*
X137534Y150753D01*
X137566Y150808D01*
X137614Y150856D01*
X137645Y150912D01*
X137693Y150959D01*
X137701Y150975D01*
X137737Y151019D01*
X137757Y151031D01*
X137765Y151047D01*
X137800Y151090D01*
X137844Y151134D01*
X137868Y151174D01*
X137916Y151222D01*
X137924Y151237D01*
X137959Y151281D01*
X137979Y151309D01*
X138003Y151333D01*
X138027Y151373D01*
X138075Y151420D01*
X138083Y151436D01*
X138118Y151480D01*
X138134Y151488D01*
X138146Y151500D01*
X138154Y151515D01*
X138190Y151559D01*
X138233Y151603D01*
X138241Y151619D01*
X138297Y151674D01*
X138305Y151690D01*
X138341Y151734D01*
X138368Y151762D01*
X138376Y151778D01*
X138432Y151849D01*
X138464Y151881D01*
X138472Y151897D01*
X138492Y151925D01*
X138508Y151933D01*
X138527Y151953D01*
X138535Y151968D01*
X138571Y152012D01*
X138615Y152056D01*
X138623Y152072D01*
X138659Y152107D01*
X138671Y152111D01*
X138678Y152127D01*
X138694Y152143D01*
X138702Y152159D01*
X138766Y152223D01*
X138774Y152239D01*
X138829Y152294D01*
X138837Y152310D01*
X138873Y152354D01*
X138901Y152382D01*
X138909Y152398D01*
X138925Y152413D01*
X138933Y152429D01*
X139004Y152501D01*
X139012Y152517D01*
X139084Y152588D01*
X139092Y152604D01*
X139103Y152616D01*
X139119Y152624D01*
X139147Y152652D01*
X139155Y152668D01*
X139227Y152739D01*
X139235Y152755D01*
X139306Y152826D01*
X139314Y152842D01*
X139326Y152854D01*
X139342Y152862D01*
X139378Y152898D01*
X139386Y152914D01*
X139406Y152934D01*
X139421Y152942D01*
X139441Y152962D01*
X139449Y152978D01*
X139537Y153065D01*
X139544Y153081D01*
X139592Y153121D01*
X139628Y153164D01*
X139664Y153192D01*
X139672Y153208D01*
X139715Y153252D01*
X139731Y153260D01*
X139743Y153271D01*
X139751Y153287D01*
X139795Y153331D01*
X139811Y153339D01*
X139823Y153351D01*
X139831Y153367D01*
X139866Y153403D01*
X139882Y153410D01*
X139894Y153422D01*
X139902Y153438D01*
X139946Y153482D01*
X139962Y153490D01*
X139974Y153502D01*
X139981Y153518D01*
X140009Y153546D01*
X140025Y153554D01*
X140105Y153633D01*
X140121Y153641D01*
X140140Y153669D01*
X140176Y153705D01*
X140192Y153712D01*
X140212Y153732D01*
X140220Y153748D01*
X140240Y153768D01*
X140256Y153776D01*
X140327Y153848D01*
X140343Y153856D01*
X140407Y153919D01*
X140422Y153927D01*
X140438Y153943D01*
X140450Y153947D01*
X140458Y153963D01*
X140478Y153983D01*
X140494Y153991D01*
X140538Y154026D01*
X140574Y154062D01*
X140589Y154070D01*
X140661Y154126D01*
X140685Y154149D01*
X140701Y154157D01*
X140744Y154193D01*
X140780Y154229D01*
X140796Y154237D01*
X140824Y154257D01*
X140832Y154273D01*
X140852Y154293D01*
X140867Y154300D01*
X140923Y154340D01*
X140947Y154364D01*
X140963Y154372D01*
X141018Y154404D01*
X141058Y154444D01*
X141074Y154451D01*
X141130Y154491D01*
X141162Y154523D01*
X141217Y154555D01*
X141257Y154595D01*
X141273Y154602D01*
X141340Y154646D01*
X141348Y154662D01*
X141396Y154694D01*
X141424Y154714D01*
X141463Y154753D01*
X141535Y154793D01*
X141551Y154809D01*
X141567Y154817D01*
X141638Y154857D01*
X141678Y154896D01*
X141694Y154904D01*
X141781Y154952D01*
X141805Y154976D01*
X141845Y154992D01*
X141900Y155024D01*
X141932Y155055D01*
X141984Y155075D01*
X142028Y155103D01*
X142051Y155127D01*
X142107Y155151D01*
X142123Y155159D01*
X142167Y155194D01*
X142178Y155206D01*
X142258Y155238D01*
X142302Y155274D01*
X142345Y155294D01*
X142397Y155314D01*
X142409Y155325D01*
X142425Y155333D01*
X142449Y155357D01*
X142488Y155373D01*
X142560Y155413D01*
X142596Y155473D01*
X142604Y155504D01*
X142635Y155584D01*
X142651Y155647D01*
X142663Y155739D01*
X142691Y155814D01*
X142723Y155886D01*
X142731Y155941D01*
X142739Y155973D01*
X142759Y156025D01*
X142794Y156084D01*
X142806Y156136D01*
X142814Y156168D01*
X142830Y156208D01*
X142882Y156307D01*
X142894Y156358D01*
X142910Y156398D01*
X142929Y156418D01*
X142937Y156434D01*
X142953Y156474D01*
X142961Y156505D01*
X142981Y156557D01*
X143001Y156585D01*
X143017Y156601D01*
X143033Y156641D01*
X143041Y156672D01*
X143072Y156728D01*
X143088Y156744D01*
X143112Y156799D01*
X143132Y156851D01*
X143160Y156879D01*
X143168Y156895D01*
X143223Y156998D01*
X143247Y157022D01*
X143271Y157078D01*
X143279Y157093D01*
X143315Y157137D01*
X143335Y157157D01*
X143374Y157229D01*
X143406Y157260D01*
X143446Y157332D01*
X143494Y157379D01*
X143517Y157419D01*
X143565Y157467D01*
X143573Y157483D01*
X143609Y157527D01*
X143625Y157534D01*
X143644Y157562D01*
X143680Y157606D01*
X143696Y157614D01*
X143716Y157642D01*
X143780Y157705D01*
X143788Y157721D01*
X143823Y157757D01*
X143839Y157765D01*
X143895Y157820D01*
X143911Y157828D01*
X143974Y157892D01*
X143990Y157900D01*
X144046Y157956D01*
X144101Y157987D01*
X144141Y158027D01*
X144228Y158075D01*
X144252Y158099D01*
X144268Y158107D01*
X144340Y158146D01*
X144364Y158170D01*
X144379Y158178D01*
X144435Y158202D01*
X144491Y158234D01*
X144507Y158249D01*
X144546Y158265D01*
X144610Y158281D01*
X144745Y158345D01*
X144836Y158357D01*
X144880Y158361D01*
X144904Y158353D01*
D02*
G37*
G36*
X377017Y158793D02*
X377037Y158773D01*
X377051Y158664D01*
X377037Y158624D01*
Y155373D01*
Y155359D01*
X377044Y148431D01*
X377037Y148397D01*
X377051Y148357D01*
X377017Y148309D01*
X376963Y148296D01*
X375473Y148309D01*
X375439Y148343D01*
X375452Y158786D01*
X375513Y158806D01*
X377017Y158793D01*
D02*
G37*
G36*
X373834D02*
X373854Y158732D01*
X373841Y157377D01*
X373820Y157357D01*
X371017Y157343D01*
X370996Y157323D01*
X370983Y157255D01*
X370996Y157215D01*
X370983Y148329D01*
X370962Y148309D01*
X370908Y148296D01*
X369405Y148309D01*
X369384Y148329D01*
X369371Y148424D01*
X369378Y157276D01*
X369364Y157330D01*
X369296Y157357D01*
X367739D01*
X366533Y157371D01*
X366513Y157431D01*
X366526Y158773D01*
X366560Y158806D01*
X373834Y158793D01*
D02*
G37*
G36*
X362172D02*
X362206Y158759D01*
Y149941D01*
Y149928D01*
X362240Y149880D01*
X367278Y149867D01*
X367299Y149806D01*
X367285Y148316D01*
X367224Y148296D01*
X360614Y148309D01*
X360594Y148329D01*
X360607Y158786D01*
X360628Y158806D01*
X362172Y158793D01*
D02*
G37*
G36*
X355250D02*
X355271Y158732D01*
X355311Y158637D01*
X355332Y158563D01*
X355352Y158502D01*
X355365Y158447D01*
X355447Y158271D01*
X355474Y158177D01*
X355487Y158122D01*
X355515Y158055D01*
X355528Y158000D01*
X355596Y157851D01*
X355630Y157763D01*
X355657Y157655D01*
X355691Y157567D01*
X355731Y157472D01*
X355745Y157445D01*
X355772Y157377D01*
X355792Y157303D01*
X355833Y157194D01*
X355853Y157134D01*
X355867Y157066D01*
X355907Y156998D01*
X355955Y156869D01*
X355975Y156795D01*
X355989Y156741D01*
X356016Y156673D01*
X356049Y156585D01*
X356097Y156470D01*
X356117Y156395D01*
X356178Y156240D01*
X356199Y156165D01*
X356259Y156023D01*
X356293Y155935D01*
X356307Y155867D01*
X356327Y155820D01*
X356354Y155752D01*
X356368Y155698D01*
X356422Y155576D01*
X356436Y155522D01*
X356476Y155427D01*
X356517Y155291D01*
X356598Y155102D01*
X356639Y154966D01*
X356652Y154912D01*
X356679Y154844D01*
X356713Y154756D01*
X356747Y154682D01*
X356761Y154628D01*
X356801Y154533D01*
X356828Y154438D01*
X356876Y154309D01*
X356937Y154167D01*
X356964Y154072D01*
X356998Y153984D01*
X357025Y153876D01*
X357086Y153774D01*
X357099Y153693D01*
X357140Y153598D01*
X357160Y153524D01*
X357194Y153463D01*
X357221Y153395D01*
X357235Y153341D01*
X357262Y153273D01*
X357289Y153179D01*
X357323Y153091D01*
X357350Y153023D01*
X357370Y153002D01*
X357397Y152935D01*
X357411Y152853D01*
X357438Y152786D01*
X357465Y152691D01*
X357499Y152603D01*
X357560Y152461D01*
X357600Y152325D01*
X357634Y152237D01*
X357675Y152129D01*
X357709Y152068D01*
X357736Y151960D01*
X357763Y151892D01*
X357790Y151797D01*
X357824Y151709D01*
X357858Y151634D01*
X357885Y151567D01*
X357926Y151431D01*
X357980Y151296D01*
X358000Y151221D01*
X358020Y151201D01*
X358047Y151133D01*
X358068Y151045D01*
X358102Y150971D01*
X358115Y150903D01*
X358129Y150862D01*
X358169Y150768D01*
X358224Y150646D01*
X358237Y150578D01*
X358264Y150510D01*
X358305Y150415D01*
X358318Y150334D01*
X358386Y150185D01*
X358400Y150131D01*
X358440Y150036D01*
X358454Y149968D01*
X358481Y149901D01*
X358548Y149752D01*
X358562Y149670D01*
X358616Y149548D01*
X358643Y149454D01*
X358657Y149399D01*
X358725Y149250D01*
X358765Y149156D01*
X358779Y149074D01*
X358806Y149007D01*
X358840Y148919D01*
X358887Y148831D01*
X358901Y148749D01*
X358928Y148682D01*
X358962Y148594D01*
X358975Y148526D01*
X359050Y148370D01*
X359036Y148329D01*
X359016Y148309D01*
X358962Y148296D01*
X357377Y148309D01*
X357330Y148357D01*
X357302Y148424D01*
X357289Y148478D01*
X357235Y148600D01*
X357221Y148654D01*
X357208Y148682D01*
X357181Y148749D01*
X357167Y148803D01*
X357140Y148871D01*
X357126Y148939D01*
X357099Y149007D01*
X357038Y149176D01*
X357018Y149250D01*
X356957Y149420D01*
X356943Y149488D01*
X356916Y149555D01*
X356883Y149616D01*
X356849Y149704D01*
X356828Y149779D01*
X356815Y149833D01*
X356774Y149928D01*
X356747Y150023D01*
X356734Y150077D01*
X356693Y150172D01*
X356679Y150239D01*
X356652Y150307D01*
X356639Y150361D01*
X356612Y150429D01*
X356578Y150517D01*
X356557Y150592D01*
X356544Y150632D01*
X356524Y150652D01*
X356456Y150680D01*
X352609Y150666D01*
X352575Y150578D01*
X352562Y150551D01*
X352535Y150483D01*
X352494Y150348D01*
X352453Y150253D01*
X352440Y150172D01*
X352413Y150145D01*
X352386Y150077D01*
X352372Y150023D01*
X352331Y149928D01*
X352318Y149846D01*
X352291Y149779D01*
X352250Y149684D01*
X352230Y149609D01*
X352210Y149548D01*
X352196Y149494D01*
X352169Y149427D01*
X352155Y149372D01*
X352128Y149305D01*
X352115Y149250D01*
X352101Y149223D01*
X352074Y149156D01*
X352061Y149088D01*
X351993Y148939D01*
X351979Y148885D01*
X351952Y148817D01*
X351932Y148743D01*
X351898Y148654D01*
X351871Y148560D01*
X351830Y148465D01*
X351810Y148390D01*
X351790Y148343D01*
X351756Y148309D01*
X351661Y148296D01*
X350131Y148309D01*
X350097Y148343D01*
X350110Y148465D01*
X350124Y148506D01*
X350191Y148682D01*
X350205Y148736D01*
X350259Y148858D01*
X350273Y148912D01*
X350300Y148980D01*
X350313Y149034D01*
X350340Y149101D01*
X350374Y149190D01*
X350401Y149257D01*
X350435Y149345D01*
X350449Y149399D01*
X350503Y149535D01*
X350530Y149643D01*
X350584Y149765D01*
X350638Y149901D01*
X350652Y149968D01*
X350679Y150036D01*
X350713Y150124D01*
X350760Y150239D01*
X350781Y150314D01*
X350801Y150334D01*
X350815Y150415D01*
X350842Y150483D01*
X350875Y150571D01*
X350923Y150686D01*
X350957Y150774D01*
X350984Y150883D01*
X351018Y150957D01*
X351038Y151032D01*
X351058Y151052D01*
X351085Y151120D01*
X351099Y151174D01*
Y151187D01*
X351140Y151282D01*
X351160Y151357D01*
X351201Y151465D01*
X351241Y151546D01*
X351261Y151621D01*
X351289Y151689D01*
X351316Y151797D01*
X351343Y151865D01*
X351356Y151919D01*
X351411Y152000D01*
X351438Y152122D01*
X351465Y152190D01*
X351478Y152244D01*
X351546Y152352D01*
X351559Y152447D01*
X351587Y152515D01*
X351620Y152603D01*
X351634Y152671D01*
X351708Y152826D01*
X351729Y152901D01*
X351749Y152962D01*
X351769Y153036D01*
X351790Y153057D01*
X351803Y153151D01*
X351830Y153179D01*
X351871Y153273D01*
X351891Y153361D01*
X351912Y153382D01*
X351925Y153463D01*
X351952Y153531D01*
X351966Y153585D01*
X351979Y153612D01*
X352047Y153761D01*
X352061Y153815D01*
X352088Y153883D01*
X352101Y153951D01*
X352128Y153978D01*
X352142Y154072D01*
X352196Y154154D01*
X352223Y154276D01*
X352250Y154343D01*
X352264Y154397D01*
X352291Y154465D01*
X352325Y154553D01*
X352372Y154668D01*
X352399Y154736D01*
X352413Y154777D01*
X352426Y154844D01*
X352467Y154939D01*
X352481Y154993D01*
X352535Y155115D01*
X352548Y155183D01*
X352575Y155210D01*
X352596Y155298D01*
X352629Y155386D01*
X352643Y155440D01*
X352697Y155562D01*
X352731Y155650D01*
X352751Y155711D01*
X352765Y155765D01*
X352792Y155833D01*
X352806Y155901D01*
X352860Y155982D01*
X352887Y156091D01*
X352914Y156158D01*
X352934Y156233D01*
X352955Y156294D01*
X352988Y156382D01*
X353049Y156524D01*
X353077Y156619D01*
X353117Y156714D01*
X353131Y156808D01*
X353158Y156836D01*
X353198Y156930D01*
X353219Y157005D01*
X353239Y157066D01*
X353273Y157154D01*
X353286Y157208D01*
X353313Y157276D01*
X353374Y157418D01*
X353388Y157472D01*
X353401Y157513D01*
X353435Y157601D01*
X353496Y157743D01*
X353523Y157838D01*
X353557Y157926D01*
X353584Y158034D01*
X353645Y158149D01*
X353666Y158224D01*
X353699Y158312D01*
X353713Y158380D01*
X353740Y158447D01*
X353821Y158624D01*
X353842Y158712D01*
X353889Y158786D01*
X353909Y158806D01*
X355250Y158793D01*
D02*
G37*
G36*
X346419D02*
X346487Y158766D01*
X346541Y158752D01*
X346629Y158759D01*
X346683Y158745D01*
X346744Y158725D01*
X346798Y158712D01*
X346866Y158698D01*
X346907Y158684D01*
X347002Y158671D01*
X347096Y158630D01*
X347164Y158603D01*
X347252Y158583D01*
X347422Y158508D01*
X347510Y158475D01*
X347665Y158386D01*
X347692Y158359D01*
X347787Y158305D01*
X347814Y158278D01*
X347936Y158210D01*
X347963Y158170D01*
X347990Y158156D01*
X348112Y158061D01*
X348322Y157851D01*
X348336Y157824D01*
X348431Y157702D01*
X348458Y157675D01*
X348552Y157499D01*
X348607Y157418D01*
X348702Y157215D01*
X348735Y157127D01*
X348762Y157018D01*
X348790Y156951D01*
X348810Y156890D01*
X348823Y156808D01*
X348837Y156768D01*
X348850Y156673D01*
X348878Y156605D01*
X348891Y156551D01*
X348905Y156348D01*
X348932Y156280D01*
X348918Y155711D01*
X348891Y155644D01*
X348878Y155413D01*
X348850Y155386D01*
X348837Y155291D01*
X348823Y155237D01*
X348810Y155197D01*
X348790Y155122D01*
X348769Y155102D01*
X348742Y154980D01*
X348661Y154831D01*
X348600Y154716D01*
X348580Y154709D01*
X348525Y154614D01*
X348498Y154587D01*
X348431Y154465D01*
X348356Y154391D01*
X348329Y154377D01*
X348295Y154343D01*
X348282Y154316D01*
X348194Y154228D01*
X348173Y154221D01*
X348160Y154194D01*
X348139Y154174D01*
X348038Y154127D01*
X348024Y154100D01*
X348004Y154079D01*
X347977Y154066D01*
X347950Y154039D01*
X347923Y154025D01*
X347828Y153957D01*
X347462Y153768D01*
X347442Y153747D01*
X347455Y153707D01*
X347476Y153686D01*
X347611Y153673D01*
X347733Y153619D01*
X347808Y153598D01*
X347868Y153565D01*
X347963Y153510D01*
X347990Y153483D01*
X348018Y153470D01*
X348112Y153416D01*
X348194Y153334D01*
X348288Y153280D01*
X348498Y153070D01*
X348552Y152975D01*
X348607Y152921D01*
X348620Y152894D01*
X348674Y152799D01*
X348715Y152759D01*
X348878Y152420D01*
X348891Y152366D01*
X348905Y152325D01*
X348932Y152257D01*
X348945Y152190D01*
X348986Y152095D01*
X349013Y152027D01*
X349027Y151865D01*
X349054Y151797D01*
X349067Y151594D01*
X349081Y151553D01*
X349094Y151458D01*
X349081Y151052D01*
X349054Y150984D01*
X349040Y150727D01*
X349013Y150659D01*
X349000Y150510D01*
X348972Y150443D01*
X348952Y150354D01*
X348938Y150300D01*
X348911Y150233D01*
X348891Y150158D01*
X348857Y150070D01*
X348796Y149955D01*
X348647Y149670D01*
X348620Y149643D01*
X348552Y149521D01*
X348525Y149494D01*
X348471Y149399D01*
X348424Y149352D01*
X348397Y149339D01*
X348376Y149318D01*
X348363Y149291D01*
X348275Y149203D01*
X348248Y149190D01*
X348214Y149142D01*
X348126Y149054D01*
X348106Y149047D01*
X348092Y149020D01*
X347990Y148919D01*
X347963Y148905D01*
X347868Y148851D01*
X347828Y148810D01*
X347760Y148783D01*
X347706Y148729D01*
X347340Y148553D01*
X347259Y148539D01*
X347232Y148512D01*
X347205Y148499D01*
X347137Y148472D01*
X347069Y148458D01*
X347002Y148431D01*
X346893Y148417D01*
X346826Y148390D01*
X346690Y148377D01*
X346622Y148350D01*
X346284Y148336D01*
X346189Y148296D01*
X341746Y148309D01*
X341726Y148329D01*
Y150808D01*
Y150822D01*
X341740Y158786D01*
X341760Y158806D01*
X346419Y158793D01*
D02*
G37*
G36*
X389214Y146447D02*
X389268Y146433D01*
X389437Y146426D01*
X389464Y146440D01*
X389559Y146399D01*
X389722Y146386D01*
X389817Y146345D01*
X389911Y146332D01*
X389979Y146305D01*
X390033Y146291D01*
X390101Y146264D01*
X390155Y146250D01*
X390223Y146223D01*
X390297Y146203D01*
X390318Y146183D01*
X390345Y146169D01*
X390413Y146142D01*
X390494Y146128D01*
X390521Y146101D01*
X390670Y146020D01*
X390751Y145966D01*
X390873Y145898D01*
X390900Y145871D01*
X391022Y145803D01*
X391049Y145776D01*
X391137Y145729D01*
X391151Y145702D01*
X391252Y145600D01*
X391279Y145587D01*
X391306Y145560D01*
X391361Y145546D01*
X391408Y145499D01*
X391422Y145472D01*
X391483Y145411D01*
X391510Y145397D01*
X391544Y145363D01*
X391557Y145336D01*
X391638Y145255D01*
X391692Y145160D01*
X391720Y145147D01*
X391733Y145119D01*
X391801Y145052D01*
X391842Y144984D01*
X391889Y144923D01*
X391916Y144909D01*
X392011Y144720D01*
X392045Y144686D01*
X392316Y144131D01*
X392329Y144063D01*
X392383Y143982D01*
X392410Y143873D01*
X392438Y143806D01*
X392451Y143697D01*
X392478Y143629D01*
X392519Y143494D01*
X392505Y143359D01*
X392471Y143325D01*
X390846Y143338D01*
X390826Y143359D01*
X390744Y143535D01*
X390731Y143602D01*
X390690Y143670D01*
X390622Y143792D01*
X390555Y143887D01*
X390541Y143914D01*
X390514Y143941D01*
X390501Y143968D01*
X390446Y144063D01*
X390399Y144097D01*
X390352Y144144D01*
X390338Y144171D01*
X390304Y144205D01*
X390277Y144219D01*
X390189Y144307D01*
X390176Y144334D01*
X390155Y144354D01*
X390128Y144368D01*
X390060Y144435D01*
X389966Y144490D01*
X389938Y144517D01*
X389844Y144571D01*
X389803Y144611D01*
X389613Y144693D01*
X389559Y144706D01*
X389431Y144754D01*
X389342Y144788D01*
X389234Y144801D01*
X389194Y144815D01*
X389139Y144828D01*
X389031Y144815D01*
X388990Y144828D01*
X388896Y144855D01*
X388692Y144842D01*
X388652Y144828D01*
X388598Y144815D01*
X388543Y144828D01*
X388428Y144808D01*
X388367Y144788D01*
X388273Y144774D01*
X388178Y144733D01*
X388083Y144706D01*
X387995Y144672D01*
X387812Y144571D01*
X387785Y144544D01*
X387690Y144490D01*
X387663Y144462D01*
X387568Y144408D01*
X387291Y144131D01*
X387284Y144110D01*
X387257Y144097D01*
X387236Y144076D01*
X387223Y144049D01*
X387128Y143927D01*
X387101Y143900D01*
X387006Y143724D01*
X386925Y143548D01*
X386884Y143453D01*
X386864Y143352D01*
X386850Y143298D01*
X386830Y143183D01*
X386789Y143088D01*
X386776Y142830D01*
X386749Y142763D01*
X386735Y142207D01*
X386722Y142167D01*
X386708Y142112D01*
X386722Y142058D01*
X386715Y140142D01*
X386728Y140087D01*
X386749Y140026D01*
X386762Y139444D01*
X386789Y139376D01*
X386803Y139146D01*
X386843Y139051D01*
X386857Y138916D01*
X386871Y138875D01*
X386905Y138787D01*
X386932Y138679D01*
X386993Y138577D01*
X387087Y138401D01*
X387114Y138374D01*
X387169Y138279D01*
X387291Y138157D01*
X387304Y138103D01*
X387385Y138022D01*
X387399Y137995D01*
X387433Y137961D01*
X387460Y137947D01*
X387514Y137893D01*
X387568Y137880D01*
X387677Y137771D01*
X387771Y137717D01*
X387798Y137690D01*
X388002Y137595D01*
X388069Y137582D01*
X388245Y137501D01*
X388340Y137487D01*
X388381Y137473D01*
X388435Y137460D01*
X388476Y137473D01*
X388570Y137433D01*
X389180Y137446D01*
X389248Y137473D01*
X389370Y137487D01*
X389410Y137501D01*
X389519Y137514D01*
X389600Y137568D01*
X389674Y137589D01*
X389810Y137643D01*
X389918Y137710D01*
X389952Y137744D01*
X390047Y137798D01*
X390176Y137887D01*
X390196Y137907D01*
X390216Y137914D01*
X390230Y137941D01*
X390331Y138042D01*
X390352Y138049D01*
X390365Y138076D01*
X390514Y138225D01*
X390528Y138252D01*
X390589Y138327D01*
X390731Y138564D01*
X390812Y138740D01*
X390826Y138794D01*
X390866Y138889D01*
X390907Y139038D01*
X390920Y139160D01*
X390948Y139227D01*
X390961Y139498D01*
X390988Y139566D01*
X390975Y140108D01*
X390914Y140128D01*
X388868Y140142D01*
X388835Y140175D01*
X388848Y141638D01*
X388868Y141659D01*
X392580Y141645D01*
X392600Y141625D01*
X392586Y139187D01*
X392573Y139146D01*
X392559Y139092D01*
X392546Y138848D01*
X392519Y138780D01*
X392505Y138631D01*
X392465Y138537D01*
X392438Y138442D01*
X392424Y138347D01*
X392370Y138212D01*
X392316Y138090D01*
X392295Y138015D01*
X392248Y137927D01*
X392072Y137589D01*
X392031Y137548D01*
X391963Y137426D01*
X391869Y137304D01*
X391842Y137277D01*
X391828Y137250D01*
X391760Y137155D01*
X391706Y137101D01*
X391692Y137074D01*
X391645Y137026D01*
X391618Y137013D01*
X391557Y136952D01*
X391544Y136925D01*
X391483Y136850D01*
X391415Y136810D01*
X391395Y136789D01*
X391381Y136762D01*
X391347Y136728D01*
X391320Y136715D01*
X391259Y136654D01*
X391246Y136627D01*
X391212Y136593D01*
X391185Y136579D01*
X391056Y136491D01*
X390948Y136424D01*
X390927Y136403D01*
X390860Y136376D01*
X390805Y136322D01*
X390304Y136078D01*
X390250Y136065D01*
X390155Y136024D01*
X390101Y136011D01*
X389932Y135950D01*
X389864Y135936D01*
X389817Y135916D01*
X389749Y135889D01*
X389600Y135875D01*
X389559Y135862D01*
X389397Y135848D01*
X389329Y135821D01*
X388286Y135834D01*
X388218Y135862D01*
X388029Y135875D01*
X387988Y135889D01*
X387920D01*
X387853Y135929D01*
X387798Y135943D01*
X387704Y135956D01*
X387636Y135983D01*
X387467Y136044D01*
X387311Y136105D01*
X387223Y136139D01*
X386972Y136268D01*
X386905Y136309D01*
X386877Y136336D01*
X386701Y136430D01*
X386674Y136458D01*
X386579Y136512D01*
X386498Y136593D01*
X386444Y136607D01*
X385895Y137155D01*
X385841Y137250D01*
X385787Y137304D01*
X385773Y137331D01*
X385679Y137453D01*
X385638Y137521D01*
X385516Y137751D01*
X385475Y137792D01*
X385408Y137941D01*
X385360Y138069D01*
X385299Y138212D01*
X385279Y138286D01*
X385266Y138367D01*
X385239Y138435D01*
X385225Y138584D01*
X385198Y138652D01*
X385177Y138713D01*
X385164Y138929D01*
X385137Y138997D01*
X385150Y139078D01*
X385137Y139119D01*
X385144Y139491D01*
X385123Y139539D01*
X385096Y139607D01*
X385110Y142736D01*
X385137Y142763D01*
X385150Y142857D01*
X385137Y142898D01*
X385144Y143189D01*
X385137Y143250D01*
X385150Y143291D01*
X385177Y143386D01*
X385191Y143629D01*
X385232Y143724D01*
X385245Y143873D01*
X385272Y143941D01*
X385293Y144016D01*
X385320Y144083D01*
X385354Y144158D01*
X385367Y144239D01*
X385516Y144523D01*
X385597Y144672D01*
X385665Y144767D01*
X385679Y144821D01*
X385740Y144896D01*
X385801Y144957D01*
X385814Y145011D01*
X385936Y145133D01*
X385950Y145160D01*
X386044Y145282D01*
X386309Y145546D01*
X386403Y145600D01*
X386512Y145709D01*
X386539Y145722D01*
X386613Y145783D01*
X386728Y145844D01*
X386769Y145885D01*
X386823Y145898D01*
X386877Y145952D01*
X386905Y145966D01*
X387351Y146183D01*
X387426Y146203D01*
X387527Y146264D01*
X387629Y146284D01*
X387690Y146305D01*
X387771Y146318D01*
X387839Y146345D01*
X387947Y146359D01*
X387975Y146386D01*
X388164Y146413D01*
X388205Y146426D01*
X388476Y146440D01*
X388543Y146467D01*
X389146Y146474D01*
X389214Y146447D01*
D02*
G37*
G36*
X364217Y146467D02*
X364711Y146474D01*
X364766Y146460D01*
X364854Y146426D01*
X365111Y146413D01*
X365152Y146399D01*
X365287Y146386D01*
X365314Y146359D01*
X365368Y146345D01*
X365477Y146332D01*
X365517Y146318D01*
X365605Y146284D01*
X365714Y146257D01*
X365734Y146237D01*
X365788Y146223D01*
X365863Y146203D01*
X365883Y146183D01*
X365978Y146142D01*
X366371Y145939D01*
X366411Y145898D01*
X366479Y145871D01*
X366493D01*
X366614Y145776D01*
X366655Y145736D01*
X366750Y145682D01*
X366939Y145492D01*
X367034Y145438D01*
X367082Y145390D01*
X367095Y145336D01*
X367325Y145106D01*
X367393Y144984D01*
X367461Y144930D01*
X367475Y144876D01*
X367529Y144821D01*
X367623Y144645D01*
X367651Y144618D01*
X367840Y144225D01*
X367861Y144151D01*
X367921Y144036D01*
X367935Y143955D01*
X367962Y143887D01*
X367996Y143799D01*
X368009Y143745D01*
X368030Y143697D01*
X368057Y143629D01*
X368071Y143521D01*
X368084Y143480D01*
X368071Y143345D01*
X368009Y143325D01*
X366398Y143338D01*
X366364Y143372D01*
X366337Y143480D01*
X366107Y143927D01*
X366039Y143995D01*
X366025Y144022D01*
X365964Y144097D01*
X365903Y144158D01*
X365890Y144185D01*
X365815Y144259D01*
X365788Y144273D01*
X365741Y144320D01*
X365727Y144347D01*
X365693Y144381D01*
X365599Y144435D01*
X365517Y144517D01*
X365429Y144551D01*
X365233Y144652D01*
X365084Y144720D01*
X364908Y144788D01*
X364799Y144801D01*
X364732Y144828D01*
X364698Y144821D01*
X364664Y144828D01*
X364623Y144815D01*
X364474Y144855D01*
X364271Y144842D01*
X364231Y144828D01*
X364136Y144815D01*
X364095Y144828D01*
X364007Y144808D01*
X363946Y144788D01*
X363838Y144774D01*
X363743Y144733D01*
X363675Y144706D01*
X363621Y144693D01*
X363580Y144679D01*
X363323Y144544D01*
X363242Y144490D01*
X363215Y144476D01*
X363140Y144415D01*
X363127Y144388D01*
X363079Y144354D01*
X362951Y144266D01*
X362924Y144239D01*
X362869Y144144D01*
X362842Y144117D01*
X362829Y144090D01*
X362808Y144070D01*
X362781Y144056D01*
X362747Y144022D01*
X362734Y143968D01*
X362680Y143914D01*
X362626Y143819D01*
X362598Y143792D01*
X362490Y143562D01*
X362476Y143494D01*
X362436Y143399D01*
X362422Y143345D01*
X362409Y143304D01*
X362395Y143210D01*
X362368Y143142D01*
X362355Y142912D01*
X362328Y142844D01*
X362314Y142424D01*
X362287Y142397D01*
X362273Y142275D01*
X362287Y142248D01*
X362273Y142207D01*
X362287Y139850D01*
X362314Y139823D01*
X362328Y139729D01*
X362341Y139336D01*
X362368Y139268D01*
X362361Y139193D01*
X362375Y139112D01*
X362409Y139038D01*
X362422Y138875D01*
X362449Y138848D01*
X362463Y138753D01*
X362490Y138726D01*
X362544Y138604D01*
X362639Y138428D01*
X362666Y138401D01*
X362680Y138374D01*
X362734Y138279D01*
X362774Y138239D01*
X362829Y138144D01*
X363106Y137866D01*
X363201Y137812D01*
X363228Y137785D01*
X363255Y137771D01*
X363350Y137717D01*
X363377Y137690D01*
X363404Y137677D01*
X363635Y137568D01*
X363689Y137555D01*
X363716Y137541D01*
X363784Y137514D01*
X363919Y137473D01*
X364041Y137460D01*
X364109Y137433D01*
X364745Y137446D01*
X364813Y137473D01*
X364874Y137467D01*
X364928Y137480D01*
X365016Y137514D01*
X365070Y137528D01*
X365097Y137555D01*
X365192Y137568D01*
X365273Y137622D01*
X365328Y137636D01*
X365450Y137704D01*
X365504Y137758D01*
X365558Y137771D01*
X365605Y137819D01*
X365619Y137846D01*
X365666Y137893D01*
X365788Y137961D01*
X365876Y138049D01*
X365944Y138171D01*
X365964Y138191D01*
X365991Y138205D01*
X366039Y138252D01*
X366093Y138347D01*
X366120Y138374D01*
X366174Y138469D01*
X366228Y138550D01*
X366364Y138807D01*
X366398Y138841D01*
X368064Y138828D01*
X368084Y138767D01*
X368071Y138672D01*
X368057Y138631D01*
X368043Y138537D01*
X368003Y138442D01*
X367976Y138347D01*
X367949Y138279D01*
X367935Y138225D01*
X367915Y138151D01*
X367881Y138076D01*
X367867Y138022D01*
X367596Y137494D01*
X367556Y137453D01*
X367529Y137385D01*
X367475Y137331D01*
X367461Y137291D01*
X367407Y137236D01*
X367393Y137209D01*
X367353Y137169D01*
X367325Y137101D01*
X367305Y137067D01*
X367278Y137054D01*
X366865Y136640D01*
X366858Y136620D01*
X366831Y136607D01*
X366804Y136579D01*
X366682Y136512D01*
X366614Y136444D01*
X366587Y136430D01*
X366452Y136336D01*
X366384Y136309D01*
X366357Y136295D01*
X366222Y136200D01*
X366100Y136146D01*
X366019Y136132D01*
X365869Y136051D01*
X365802Y136024D01*
X365748Y136011D01*
X365680Y135983D01*
X365585Y135970D01*
X365517Y135943D01*
X365450Y135929D01*
X365355Y135889D01*
X365219Y135875D01*
X365179Y135862D01*
X365125Y135848D01*
X365084Y135862D01*
X365003Y135848D01*
X364935Y135821D01*
X364867Y135807D01*
X364826Y135821D01*
X363953Y135814D01*
X363872Y135828D01*
X363797Y135862D01*
X363709Y135855D01*
X363641Y135868D01*
X363567Y135889D01*
X363431Y135902D01*
X363404Y135929D01*
X363316Y135950D01*
X363262Y135963D01*
X363174Y135997D01*
X363086Y136017D01*
X363018Y136044D01*
X362930Y136078D01*
X362781Y136146D01*
X362416Y136336D01*
X362375Y136376D01*
X362185Y136485D01*
X362145Y136525D01*
X362118Y136539D01*
X362063Y136593D01*
X361996Y136620D01*
X361935Y136681D01*
X361921Y136708D01*
X361874Y136742D01*
X361813Y136803D01*
X361799Y136830D01*
X361698Y136877D01*
X361630Y136986D01*
X361488Y137128D01*
X361474Y137155D01*
X361393Y137223D01*
X361339Y137318D01*
X361285Y137399D01*
X361271Y137426D01*
X361244Y137453D01*
X361230Y137480D01*
X361142Y137609D01*
X360919Y138049D01*
X360905Y138130D01*
X360838Y138279D01*
X360824Y138374D01*
X360783Y138469D01*
X360797Y138537D01*
X360783Y138577D01*
X360756Y138645D01*
X360743Y138821D01*
X360716Y138889D01*
X360702Y139336D01*
X360675Y139363D01*
X360662Y139458D01*
X360675Y142885D01*
X360716Y142979D01*
X360729Y143413D01*
X360756Y143480D01*
X360770Y143684D01*
X360783Y143724D01*
X360797Y143778D01*
X360783Y143819D01*
X360817Y143907D01*
X360838Y143968D01*
X360865Y144063D01*
X360899Y144151D01*
X360960Y144293D01*
X360993Y144381D01*
X361081Y144537D01*
X361136Y144618D01*
X361217Y144767D01*
X361244Y144794D01*
X361298Y144889D01*
X361393Y145011D01*
X361434Y145052D01*
X361501Y145174D01*
X361765Y145438D01*
X361786Y145444D01*
X361799Y145472D01*
X361901Y145573D01*
X361928Y145587D01*
X362023Y145641D01*
X362104Y145722D01*
X362131Y145736D01*
X362206Y145797D01*
X362240Y145831D01*
X362361Y145898D01*
X362388Y145925D01*
X362917Y146183D01*
X362984Y146196D01*
X363133Y146264D01*
X363201Y146291D01*
X363255Y146305D01*
X363350Y146318D01*
X363418Y146345D01*
X363506Y146379D01*
X363567Y146399D01*
X363756Y146413D01*
X363797Y146426D01*
X364041Y146440D01*
X364109Y146467D01*
X364176Y146481D01*
X364217Y146467D01*
D02*
G37*
G36*
X382462Y146386D02*
X382482Y146365D01*
X382469Y135909D01*
X382408Y135889D01*
X380945Y135902D01*
X380897Y135950D01*
X380857Y136017D01*
X380789Y136112D01*
X380775Y136139D01*
X380748Y136166D01*
X380721Y136234D01*
X380667Y136288D01*
X380654Y136342D01*
X380599Y136397D01*
X380586Y136424D01*
X380505Y136573D01*
X380464Y136613D01*
X380410Y136708D01*
X380342Y136803D01*
X380328Y136830D01*
X380301Y136857D01*
X380207Y137033D01*
X380180Y137060D01*
X380112Y137182D01*
X380085Y137209D01*
X380071Y137263D01*
X380003Y137331D01*
X379929Y137487D01*
X379902Y137501D01*
X379821Y137636D01*
X379800Y137656D01*
X379787Y137683D01*
X379719Y137778D01*
X379624Y137954D01*
X379584Y137995D01*
X379475Y138184D01*
X379434Y138225D01*
X379421Y138252D01*
X379340Y138401D01*
X379299Y138442D01*
X379272Y138510D01*
X379231Y138550D01*
X379177Y138645D01*
X379150Y138672D01*
X379137Y138699D01*
X379055Y138848D01*
X378988Y138943D01*
X378974Y138970D01*
X378947Y138997D01*
X378933Y139024D01*
X378879Y139119D01*
X378839Y139160D01*
X378764Y139315D01*
X378737Y139329D01*
X378676Y139444D01*
X378635Y139485D01*
X378581Y139580D01*
X378574Y139586D01*
X378554Y139607D01*
X378459Y139783D01*
X378405Y139864D01*
X378392Y139891D01*
X378351Y139932D01*
X378297Y140026D01*
X378270Y140054D01*
X378216Y140148D01*
X378161Y140230D01*
X378094Y140352D01*
X378066Y140379D01*
X378012Y140473D01*
X377945Y140568D01*
X377931Y140595D01*
X377904Y140622D01*
X377796Y140826D01*
X377755Y140866D01*
X377741Y140920D01*
X377687Y140975D01*
X377633Y141069D01*
X377606Y141097D01*
X377525Y141246D01*
X377498Y141273D01*
X377484Y141300D01*
X377430Y141395D01*
X377403Y141422D01*
X377389Y141449D01*
X377322Y141544D01*
X377227Y141720D01*
X377200Y141747D01*
X377186Y141774D01*
X377118Y141869D01*
X377064Y141963D01*
X377024Y142004D01*
X376969Y142126D01*
X376956Y142153D01*
X376902Y142207D01*
X376848Y142302D01*
X376793Y142383D01*
X376780Y142410D01*
X376712Y142505D01*
X376631Y142654D01*
X376604Y142681D01*
X376550Y142776D01*
X376522Y142803D01*
X376468Y142898D01*
X376428Y142939D01*
X376414Y142993D01*
X376326Y143122D01*
X376306Y143169D01*
X376272Y143203D01*
X376218Y143189D01*
X376211Y143115D01*
X376224Y143101D01*
X376211Y143061D01*
X376197Y135909D01*
X376136Y135889D01*
X374633Y135902D01*
X374613Y135923D01*
X374626Y146379D01*
X374646Y146399D01*
X376109Y146386D01*
X376130Y146365D01*
X376170Y146298D01*
X376197Y146271D01*
X376252Y146176D01*
X376319Y146081D01*
X376333Y146054D01*
X376360Y146027D01*
X376373Y146000D01*
X376468Y145824D01*
X376509Y145783D01*
X376563Y145688D01*
X376590Y145661D01*
X376604Y145607D01*
X376658Y145553D01*
X376671Y145526D01*
X376753Y145377D01*
X376793Y145336D01*
X376848Y145241D01*
X376915Y145147D01*
X376929Y145119D01*
X376956Y145092D01*
X376983Y145025D01*
X376996Y144998D01*
X377064Y144903D01*
X377118Y144808D01*
X377159Y144767D01*
X377186Y144700D01*
X377227Y144659D01*
X377240Y144632D01*
X377322Y144483D01*
X377376Y144429D01*
X377389Y144374D01*
X377430Y144334D01*
X377444Y144307D01*
X377511Y144212D01*
X377525Y144185D01*
X377606Y144036D01*
X377701Y143900D01*
X377714Y143873D01*
X377755Y143833D01*
X377768Y143778D01*
X377823Y143724D01*
X377918Y143548D01*
X377958Y143508D01*
X377972Y143467D01*
X378066Y143332D01*
X378080Y143304D01*
X378107Y143277D01*
X378121Y143250D01*
X378216Y143101D01*
X378283Y142979D01*
X378324Y142939D01*
X378351Y142871D01*
X378405Y142817D01*
X378432Y142749D01*
X378459Y142722D01*
X378473Y142695D01*
X378527Y142614D01*
X378581Y142519D01*
X378608Y142492D01*
X378676Y142370D01*
X378703Y142343D01*
X378757Y142248D01*
X378784Y142221D01*
X378818Y142133D01*
X378839Y142112D01*
X378879Y142045D01*
X378906Y142018D01*
X378960Y141923D01*
X378988Y141896D01*
X379042Y141801D01*
X379069Y141774D01*
X379164Y141598D01*
X379191Y141571D01*
X379245Y141476D01*
X379313Y141381D01*
X379326Y141354D01*
X379367Y141313D01*
X379380Y141259D01*
X379434Y141164D01*
X379502Y141069D01*
X379516Y141042D01*
X379570Y140988D01*
X379584Y140934D01*
X379638Y140880D01*
X379651Y140853D01*
X379732Y140704D01*
X379773Y140663D01*
X379841Y140541D01*
X379895Y140460D01*
X379909Y140433D01*
X379949Y140392D01*
X379983Y140304D01*
X380037Y140223D01*
X380071Y140189D01*
X380125Y140094D01*
X380152Y140067D01*
X380180Y139999D01*
X380234Y139945D01*
X380328Y139769D01*
X380356Y139742D01*
X380410Y139647D01*
X380464Y139566D01*
X380477Y139539D01*
X380505Y139512D01*
X380518Y139485D01*
X380599Y139336D01*
X380627Y139309D01*
X380640Y139282D01*
X380728Y139153D01*
X380755Y139085D01*
X380796Y139072D01*
X380830Y139105D01*
X380843Y146379D01*
X380904Y146399D01*
X382462Y146386D01*
D02*
G37*
G36*
X371585D02*
X371606Y146365D01*
X371619Y146311D01*
X371606Y135923D01*
X371585Y135902D01*
X371531Y135889D01*
X370028Y135902D01*
X370007Y135963D01*
Y141151D01*
Y141164D01*
X370021Y146379D01*
X370082Y146399D01*
X371585Y146386D01*
D02*
G37*
G36*
X355535D02*
X355582Y146352D01*
X355596Y146325D01*
X355636Y146257D01*
X355663Y146135D01*
X355691Y146068D01*
X355704Y146027D01*
X355731Y145959D01*
X355745Y145905D01*
X355813Y145756D01*
X355826Y145702D01*
X355853Y145634D01*
X355867Y145566D01*
X355894Y145539D01*
X355907Y145444D01*
X355961Y145363D01*
X355975Y145309D01*
X355989Y145241D01*
X356016Y145174D01*
X356049Y145086D01*
X356063Y145031D01*
X356090Y144964D01*
X356138Y144849D01*
X356165Y144781D01*
X356178Y144740D01*
X356192Y144686D01*
X356205Y144659D01*
X356232Y144591D01*
X356246Y144510D01*
X356273Y144483D01*
X356287Y144456D01*
X356300Y144415D01*
X356320Y144327D01*
X356341Y144307D01*
X356368Y144198D01*
X356395Y144131D01*
X356409Y144076D01*
X356476Y143927D01*
X356510Y143839D01*
X356524Y143772D01*
X356557Y143697D01*
X356571Y143616D01*
X356625Y143535D01*
X356652Y143426D01*
X356679Y143359D01*
X356700Y143284D01*
X356720Y143223D01*
X356754Y143135D01*
X356815Y142993D01*
X356842Y142898D01*
X356883Y142803D01*
X356896Y142722D01*
X356950Y142627D01*
X356964Y142573D01*
X356991Y142505D01*
X357004Y142465D01*
X357018Y142410D01*
X357045Y142343D01*
X357059Y142288D01*
X357126Y142139D01*
X357140Y142085D01*
X357201Y141916D01*
X357221Y141855D01*
X357235Y141801D01*
X357289Y141679D01*
X357323Y141591D01*
X357343Y141516D01*
X357357Y141462D01*
X357384Y141435D01*
X357397Y141354D01*
X357465Y141205D01*
X357485Y141130D01*
X357519Y141042D01*
X357546Y140975D01*
X357567Y140887D01*
X357587Y140866D01*
X357600Y140812D01*
X357641Y140717D01*
X357668Y140650D01*
X357682Y140568D01*
X357763Y140392D01*
X357790Y140297D01*
X357804Y140243D01*
X357817Y140216D01*
X357844Y140148D01*
X357878Y140060D01*
X357912Y139986D01*
X357926Y139932D01*
X357959Y139844D01*
X357980Y139783D01*
X358007Y139688D01*
X358061Y139566D01*
X358102Y139471D01*
X358122Y139397D01*
X358135Y139342D01*
X358169Y139268D01*
X358190Y139180D01*
X358237Y139092D01*
X358251Y139038D01*
X358305Y138902D01*
X358325Y138828D01*
X358339Y138774D01*
X358372Y138699D01*
X358427Y138577D01*
X358440Y138523D01*
X358488Y138394D01*
X358515Y138286D01*
X358535Y138239D01*
X358589Y138117D01*
X358616Y138049D01*
X358630Y137995D01*
X358704Y137785D01*
X358752Y137697D01*
X358765Y137643D01*
X358786Y137568D01*
X358833Y137412D01*
X358867Y137324D01*
X358887Y137304D01*
X358921Y137216D01*
X358935Y137162D01*
X358968Y137074D01*
X358982Y137006D01*
X359036Y136871D01*
X359050Y136844D01*
X359090Y136749D01*
X359111Y136674D01*
X359144Y136586D01*
X359165Y136512D01*
X359178Y136458D01*
X359253Y136302D01*
X359266Y136248D01*
X359294Y136153D01*
X359348Y136031D01*
X359361Y135936D01*
X359354Y135902D01*
X359300Y135889D01*
X357675Y135902D01*
X357655Y135923D01*
X357641Y135977D01*
X357628Y136004D01*
X357600Y136072D01*
X357587Y136139D01*
X357560Y136207D01*
X357546Y136261D01*
X357519Y136329D01*
X357506Y136383D01*
X357478Y136451D01*
X357458Y136525D01*
X357424Y136613D01*
X357411Y136667D01*
X357397Y136708D01*
X357316Y136884D01*
X357296Y136959D01*
X357262Y137074D01*
X357248Y137101D01*
X357221Y137169D01*
X357201Y137243D01*
X357160Y137351D01*
X357133Y137460D01*
X357099Y137548D01*
X357072Y137643D01*
X357038Y137731D01*
X357018Y137805D01*
X356950Y137954D01*
X356930Y138029D01*
X356896Y138103D01*
X356883Y138157D01*
X356869Y138184D01*
X356849Y138205D01*
X356795Y138218D01*
X352934Y138205D01*
X352914Y138184D01*
X352900Y138103D01*
X352873Y138076D01*
X352853Y137975D01*
X352819Y137900D01*
X352806Y137846D01*
X352779Y137778D01*
X352758Y137704D01*
X352738Y137643D01*
X352704Y137555D01*
X352684Y137534D01*
X352657Y137467D01*
X352643Y137385D01*
X352616Y137318D01*
X352589Y137223D01*
X352535Y137087D01*
X352521Y137033D01*
X352474Y136905D01*
X352460Y136837D01*
X352447Y136783D01*
X352413Y136708D01*
X352379Y136620D01*
X352365Y136552D01*
X352291Y136383D01*
X352250Y136248D01*
X352210Y136153D01*
X352189Y136078D01*
X352169Y136017D01*
X352142Y135950D01*
X352095Y135902D01*
X352040Y135889D01*
X350455Y135902D01*
X350435Y135923D01*
X350422Y135963D01*
X350462Y136058D01*
X350483Y136132D01*
X350503Y136153D01*
X350523Y136254D01*
X350584Y136370D01*
X350598Y136451D01*
X350638Y136546D01*
X350652Y136600D01*
X350679Y136667D01*
X350693Y136722D01*
X350760Y136871D01*
X350774Y136925D01*
X350801Y136993D01*
X350815Y137047D01*
X350842Y137114D01*
X350855Y137182D01*
X350909Y137263D01*
X350930Y137351D01*
X350963Y137426D01*
X350977Y137507D01*
X351004Y137575D01*
X351038Y137663D01*
X351099Y137805D01*
X351126Y137873D01*
X351140Y137941D01*
X351207Y138090D01*
X351248Y138225D01*
X351289Y138320D01*
X351302Y138401D01*
X351370Y138550D01*
X351404Y138638D01*
X351424Y138713D01*
X351451Y138780D01*
X351465Y138835D01*
X351546Y139011D01*
X351566Y139085D01*
X351580Y139139D01*
X351607Y139207D01*
X351634Y139315D01*
X351695Y139417D01*
X351715Y139505D01*
X351749Y139593D01*
X351769Y139668D01*
X351810Y139776D01*
X351871Y139918D01*
X351885Y139972D01*
X351912Y140040D01*
X351952Y140175D01*
X351966Y140230D01*
X352047Y140406D01*
X352074Y140501D01*
X352108Y140589D01*
X352128Y140650D01*
X352162Y140738D01*
X352196Y140812D01*
X352210Y140866D01*
X352237Y140934D01*
X352291Y141110D01*
X352359Y141259D01*
X352386Y141327D01*
X352406Y141415D01*
X352433Y141483D01*
X352453Y141544D01*
X352494Y141652D01*
X352535Y141747D01*
X352548Y141801D01*
X352589Y141896D01*
X352609Y141970D01*
X352650Y142079D01*
X352677Y142146D01*
X352711Y142221D01*
X352731Y142295D01*
X352772Y142404D01*
X352792Y142478D01*
X352806Y142532D01*
X352873Y142681D01*
X352900Y142749D01*
X352914Y142803D01*
X352988Y143013D01*
X353036Y143101D01*
X353049Y143155D01*
X353070Y143230D01*
X353103Y143318D01*
X353158Y143440D01*
X353185Y143548D01*
X353225Y143643D01*
X353253Y143738D01*
X353286Y143826D01*
X353334Y143941D01*
X353374Y144036D01*
X353388Y144117D01*
X353429Y144212D01*
X353442Y144266D01*
X353496Y144347D01*
X353510Y144442D01*
X353551Y144537D01*
X353571Y144611D01*
X353611Y144720D01*
X353672Y144862D01*
X353686Y144916D01*
X353699Y144957D01*
X353733Y145045D01*
X353754Y145119D01*
X353821Y145268D01*
X353835Y145323D01*
X353849Y145363D01*
X353876Y145431D01*
X353896Y145505D01*
X353937Y145614D01*
X353943Y145634D01*
X353950Y145641D01*
X353984Y145715D01*
X353997Y145770D01*
X354031Y145858D01*
X354045Y145912D01*
X354079Y145986D01*
X354092Y146068D01*
X354119Y146095D01*
X354147Y146162D01*
X354174Y146271D01*
X354201Y146338D01*
X354221Y146386D01*
X354275Y146399D01*
X355535Y146386D01*
D02*
G37*
G36*
X346121D02*
X346216Y146345D01*
X346568Y146332D01*
X346636Y146305D01*
X346771Y146291D01*
X346812Y146277D01*
X346907Y146264D01*
X346934Y146250D01*
X347002Y146223D01*
X347076Y146203D01*
X347137Y146183D01*
X347205Y146156D01*
X347259Y146142D01*
X347347Y146108D01*
X347449Y146047D01*
X347516Y146020D01*
X347543Y146007D01*
X347577Y145986D01*
X347584Y145966D01*
X347611Y145952D01*
X347706Y145898D01*
X347747Y145858D01*
X347841Y145803D01*
X347896Y145749D01*
X347923Y145736D01*
X348011Y145675D01*
X348024Y145648D01*
X348085Y145587D01*
X348112Y145573D01*
X348160Y145526D01*
X348173Y145499D01*
X348234Y145438D01*
X348261Y145424D01*
X348309Y145377D01*
X348322Y145350D01*
X348349Y145323D01*
X348397Y145235D01*
X348424Y145221D01*
X348498Y145147D01*
X348552Y145052D01*
X348607Y144970D01*
X348837Y144496D01*
X348850Y144442D01*
X348878Y144374D01*
X348905Y144266D01*
X348932Y144198D01*
X348945Y144117D01*
X348959Y144076D01*
X348966Y144029D01*
X348959Y143982D01*
X348972Y143941D01*
X348986Y143914D01*
X349013Y143846D01*
X349000Y142952D01*
X348972Y142925D01*
X348959Y142803D01*
X348972Y142763D01*
X348932Y142668D01*
X348918Y142559D01*
X348891Y142492D01*
X348878Y142438D01*
X348850Y142370D01*
X348810Y142234D01*
X348796Y142180D01*
X348647Y141896D01*
X348593Y141801D01*
X348566Y141774D01*
X348512Y141679D01*
X348485Y141652D01*
X348431Y141557D01*
X348363Y141489D01*
X348322Y141422D01*
X348261Y141347D01*
X348187Y141286D01*
X348126Y141212D01*
X348051Y141151D01*
X348024Y141124D01*
X348011Y141097D01*
X347990Y141076D01*
X347963Y141063D01*
X347841Y140968D01*
X347814Y140941D01*
X347720Y140887D01*
X347692Y140859D01*
X347665Y140846D01*
X347516Y140765D01*
X347489Y140738D01*
X347462Y140724D01*
X347259Y140629D01*
X347184Y140609D01*
X347069Y140548D01*
X347049Y140528D01*
X347063Y140446D01*
X347157Y140270D01*
X347415Y139742D01*
X347482Y139620D01*
X347550Y139525D01*
X347984Y138672D01*
X348011Y138645D01*
X348431Y137819D01*
X348458Y137792D01*
X348932Y136857D01*
X348959Y136830D01*
X349379Y136004D01*
X349406Y135977D01*
X349419Y135923D01*
X349385Y135889D01*
X347516Y135902D01*
X347469Y135950D01*
X347388Y136126D01*
X347103Y136708D01*
X347069Y136796D01*
X347042Y136864D01*
X346981Y136965D01*
X346941Y137060D01*
X346440Y138076D01*
X346426Y138144D01*
X346372Y138225D01*
X346338Y138313D01*
X346304Y138374D01*
X345830Y139336D01*
X345810Y139410D01*
X345708Y139607D01*
X345342Y140324D01*
X345282Y140345D01*
X343399Y140331D01*
X343378Y140311D01*
X343365Y140257D01*
X343351Y135909D01*
X343290Y135889D01*
X341746Y135902D01*
X341726Y135923D01*
X341740Y146379D01*
X341760Y146399D01*
X342722D01*
X346121Y146386D01*
D02*
G37*
G36*
X408671Y158793D02*
X408739Y158766D01*
X408793Y158752D01*
X409098Y158759D01*
X409165Y158732D01*
X409240Y158712D01*
X409423Y158718D01*
X409490Y158691D01*
X409714Y158671D01*
X409809Y158630D01*
X409985Y158617D01*
X410052Y158590D01*
X410228Y158576D01*
X410269Y158563D01*
X410323Y158549D01*
X410405Y158535D01*
X410472Y158508D01*
X410594Y158495D01*
X410635Y158481D01*
X410689Y158468D01*
X410757Y158454D01*
X410824Y158427D01*
X410933Y158414D01*
X411001Y158386D01*
X411095Y158373D01*
X411163Y158346D01*
X411244Y158332D01*
X411312Y158305D01*
X411387Y158285D01*
X411583Y158224D01*
X411664Y158210D01*
X411732Y158183D01*
X411786Y158170D01*
X411854Y158143D01*
X411908Y158129D01*
X411976Y158102D01*
X412064Y158068D01*
X412206Y158007D01*
X412260Y157994D01*
X412328Y157967D01*
X412396Y157953D01*
X412477Y157899D01*
X412572Y157858D01*
X412660Y157838D01*
X412883Y157723D01*
X412965Y157709D01*
X413046Y157655D01*
X413100Y157641D01*
X413276Y157547D01*
X413642Y157357D01*
X413669Y157330D01*
X413926Y157194D01*
X414021Y157127D01*
X414048Y157113D01*
X414129Y157059D01*
X414278Y156978D01*
X414319Y156937D01*
X414387Y156910D01*
X414407Y156890D01*
X414421Y156863D01*
X414455Y156829D01*
X414576Y156761D01*
X414671Y156693D01*
X414698Y156680D01*
X414766Y156612D01*
X414861Y156558D01*
X414901Y156504D01*
X415023Y156436D01*
X415172Y156287D01*
X415240Y156246D01*
X415315Y156185D01*
X415342Y156158D01*
X415355Y156131D01*
X415389Y156097D01*
X415416Y156084D01*
X415491Y156009D01*
X415504Y155982D01*
X415538Y155948D01*
X415565Y155935D01*
X415640Y155860D01*
X415653Y155833D01*
X415701Y155786D01*
X415728Y155772D01*
X415789Y155711D01*
X415802Y155684D01*
X415850Y155637D01*
X415877Y155623D01*
X415938Y155562D01*
X415951Y155535D01*
X415985Y155501D01*
X416012Y155488D01*
X416087Y155413D01*
X416100Y155386D01*
X416168Y155291D01*
X416303Y155156D01*
X416371Y155034D01*
X416439Y154966D01*
X416493Y154872D01*
X416534Y154844D01*
X416547Y154817D01*
X416649Y154675D01*
X416669Y154668D01*
X416683Y154641D01*
X416737Y154546D01*
X416777Y154506D01*
X416832Y154411D01*
X416859Y154384D01*
X416954Y154208D01*
X417008Y154127D01*
X417075Y154005D01*
X417130Y153923D01*
X417468Y153233D01*
X417522Y153138D01*
X417543Y153036D01*
X417604Y152935D01*
X417658Y152813D01*
X417671Y152732D01*
X417712Y152664D01*
X417759Y152535D01*
X417780Y152474D01*
X417793Y152420D01*
X417841Y152291D01*
X417868Y152183D01*
X417902Y152095D01*
X417929Y152027D01*
X417949Y151939D01*
X417983Y151865D01*
X417997Y151756D01*
X418023Y151689D01*
X418037Y151594D01*
X418064Y151526D01*
X418078Y151431D01*
X418105Y151364D01*
X418139Y151221D01*
X418152Y151140D01*
X418179Y151072D01*
X418193Y150910D01*
X418240Y150795D01*
X418254Y150659D01*
X418267Y150619D01*
X418281Y150551D01*
X418267Y150510D01*
X418288Y150436D01*
X418308Y150375D01*
X418322Y150145D01*
X418349Y150117D01*
X418362Y150063D01*
X418376Y149779D01*
X418403Y149725D01*
X418389Y149684D01*
X418403Y149372D01*
X418423Y149352D01*
X418443Y149345D01*
X418437Y148566D01*
X418301Y148553D01*
X409077D01*
X403239Y148539D01*
X403179Y148438D01*
X403165Y148357D01*
X402813Y147639D01*
X402779Y147551D01*
X402569Y147124D01*
X402447Y146867D01*
X402413Y146779D01*
X402379Y146704D01*
X402244Y146433D01*
X402278Y146399D01*
X417759Y146386D01*
X417766Y146325D01*
X417441Y145688D01*
X417360Y145512D01*
X417346Y145444D01*
X416872Y144483D01*
X416838Y144395D01*
X416446Y143609D01*
X416378Y143433D01*
X416330Y143332D01*
X415911Y142478D01*
X415890Y142404D01*
X415748Y142126D01*
X415409Y141435D01*
X415389Y141361D01*
X415328Y141259D01*
X415294Y141171D01*
X415274Y141151D01*
X415240Y141063D01*
X415220Y141042D01*
X415186Y140954D01*
X415125Y140853D01*
X415111Y140799D01*
X415044Y140677D01*
X414962Y140501D01*
X414949Y140446D01*
X414461Y139458D01*
X414448Y139390D01*
X414421Y139363D01*
X414407Y139309D01*
X414245Y138997D01*
X413960Y138415D01*
X413947Y138347D01*
X413865Y138198D01*
X413608Y137670D01*
X413527Y137521D01*
X413500Y137453D01*
X413486Y137385D01*
X413412Y137351D01*
X405352Y137338D01*
X405305Y137291D01*
X405007Y136708D01*
X404980Y136681D01*
X404479Y135692D01*
X404445Y135658D01*
X404391Y135645D01*
X394774Y135658D01*
X394754Y135679D01*
X394767Y135746D01*
X394794Y135774D01*
X394821Y135882D01*
X395174Y136600D01*
X395187Y136667D01*
X395268Y136816D01*
X395553Y137399D01*
X395566Y137453D01*
X395918Y138171D01*
X395932Y138225D01*
X396284Y138943D01*
X396332Y139072D01*
X396663Y139742D01*
X396691Y139850D01*
X396718Y139877D01*
X396880Y140216D01*
X396894Y140243D01*
X397083Y140636D01*
X397097Y140690D01*
X397449Y141408D01*
X397469Y141483D01*
X397490Y141503D01*
X397524Y141591D01*
X397544Y141611D01*
X397585Y141706D01*
X397842Y142234D01*
X397855Y142302D01*
X397937Y142451D01*
X398208Y143006D01*
X398228Y143081D01*
X398289Y143183D01*
X398302Y143237D01*
X398384Y143386D01*
X398573Y143778D01*
X398587Y143833D01*
X398953Y144578D01*
X398966Y144645D01*
X399034Y144767D01*
X399318Y145350D01*
X399332Y145404D01*
X399684Y146122D01*
X399718Y146210D01*
X399745Y146277D01*
X400063Y146934D01*
X400097Y147022D01*
X400483Y147815D01*
X400497Y147869D01*
X400808Y148478D01*
X400822Y148519D01*
X400788Y148553D01*
X390846Y148566D01*
X390826Y148587D01*
X390812Y157594D01*
X390785Y157662D01*
X390799Y158786D01*
X390860Y158806D01*
X408671Y158793D01*
D02*
G37*
G36*
X401465Y133098D02*
X401533Y133071D01*
X401682Y133058D01*
X401709Y133031D01*
X401790Y133017D01*
X401858Y132990D01*
X401912Y132976D01*
X402278Y132787D01*
X402284Y132726D01*
X402217Y132631D01*
X402190Y132604D01*
X402176Y132550D01*
X402108Y132482D01*
X402047Y132367D01*
X401993Y132353D01*
X401926Y132367D01*
X401750Y132462D01*
X401682Y132489D01*
X401628Y132502D01*
X401601Y132516D01*
X401560Y132529D01*
X401465Y132543D01*
X401397Y132570D01*
X401018Y132557D01*
X400923Y132502D01*
X400835Y132455D01*
X400822Y132428D01*
X400788Y132394D01*
X400768Y132387D01*
X400754Y132360D01*
X400700Y132279D01*
X400686Y132143D01*
X400700Y132049D01*
X400754Y131954D01*
X400801Y131893D01*
X400896Y131839D01*
X400937Y131798D01*
X400991Y131785D01*
X401099Y131771D01*
X401167Y131744D01*
X401228Y131737D01*
X401303Y131744D01*
X401397Y131703D01*
X401628Y131690D01*
X401722Y131649D01*
X401797Y131629D01*
X401905Y131588D01*
X401980Y131541D01*
X402007Y131514D01*
X402034Y131500D01*
X402075Y131459D01*
X402136Y131426D01*
X402183Y131338D01*
X402210Y131324D01*
X402244Y131290D01*
X402339Y131087D01*
X402352Y130992D01*
X402379Y130924D01*
X402393Y130870D01*
X402379Y130599D01*
X402352Y130532D01*
X402339Y130437D01*
X402190Y130152D01*
X402102Y130064D01*
X402075Y130051D01*
X402007Y130010D01*
X401966Y129970D01*
X401878Y129936D01*
X401817Y129915D01*
X401763Y129902D01*
X401675Y129868D01*
X401655Y129834D01*
X400808Y129841D01*
X400795Y129868D01*
X400720Y129888D01*
X400625Y129902D01*
X400530Y129943D01*
X400436Y129970D01*
X400287Y130051D01*
X400260Y130078D01*
X400165Y130132D01*
X400138Y130159D01*
X400070Y130200D01*
X400009Y130261D01*
X400023Y130329D01*
X400063Y130369D01*
X400077Y130396D01*
X400300Y130620D01*
X400354Y130633D01*
X400409Y130620D01*
X400436Y130593D01*
X400463Y130579D01*
X400490Y130552D01*
X400774Y130417D01*
X400842Y130403D01*
X400937Y130362D01*
X401086Y130349D01*
X401154Y130322D01*
X401194Y130335D01*
X401411Y130349D01*
X401451Y130362D01*
X401546Y130376D01*
X401641Y130430D01*
X401695Y130484D01*
X401763Y130525D01*
X401783Y130545D01*
X401817Y130633D01*
X401838Y130654D01*
X401865Y130748D01*
X401851Y130884D01*
X401783Y131006D01*
X401729Y131060D01*
X401716Y131087D01*
X401695Y131107D01*
X401607Y131141D01*
X401546Y131161D01*
X401370Y131175D01*
X401303Y131202D01*
X401072Y131216D01*
X400978Y131256D01*
X400842Y131270D01*
X400801Y131283D01*
X400679Y131338D01*
X400456Y131453D01*
Y131466D01*
X400395Y131527D01*
X400368Y131541D01*
X400348Y131561D01*
X400334Y131588D01*
X400199Y131873D01*
X400185Y131927D01*
X400199Y131967D01*
X400178Y132042D01*
X400158Y132103D01*
X400172Y132279D01*
X400199Y132347D01*
X400212Y132482D01*
X400348Y132739D01*
X400544Y132936D01*
X400720Y133017D01*
X400774Y133031D01*
X400869Y133071D01*
X400978Y133085D01*
X401018Y133098D01*
X401072Y133112D01*
X401465Y133098D01*
D02*
G37*
G36*
X398526D02*
X398594Y133071D01*
X398729Y133058D01*
X398756Y133031D01*
X398871Y133010D01*
X398892Y132990D01*
X398980Y132970D01*
X399311Y132800D01*
X399359Y132753D01*
X399345Y132699D01*
X399278Y132631D01*
X399264Y132577D01*
X399169Y132482D01*
X399115Y132387D01*
X399095Y132367D01*
X399041Y132353D01*
X398953Y132387D01*
X398702Y132502D01*
X398648Y132516D01*
X398607Y132529D01*
X398539Y132557D01*
X398485Y132570D01*
X398079Y132557D01*
X397903Y132462D01*
X397842Y132401D01*
X397828Y132374D01*
Y132360D01*
X397747Y132184D01*
X397761Y132076D01*
X397869Y131886D01*
X397971Y131839D01*
X398052Y131785D01*
X398147Y131771D01*
X398214Y131744D01*
X398431Y131730D01*
X398499Y131703D01*
X398688Y131690D01*
X398783Y131649D01*
X398878Y131636D01*
X399054Y131541D01*
X399095Y131500D01*
X399163Y131459D01*
X399217Y131405D01*
X399244Y131392D01*
X399305Y131290D01*
X399332Y131222D01*
X399399Y131073D01*
X399413Y131006D01*
X399454Y130911D01*
X399440Y130559D01*
X399413Y130532D01*
X399399Y130437D01*
X399379Y130362D01*
X399332Y130274D01*
X399278Y130180D01*
X399244Y130146D01*
X399217Y130132D01*
X399196Y130112D01*
X399183Y130085D01*
X399122Y130024D01*
X398837Y129888D01*
X398729Y129875D01*
X398702Y129834D01*
X397855Y129841D01*
X397842Y129868D01*
X397821Y129888D01*
X397700Y129902D01*
X397659Y129915D01*
X397571Y129949D01*
X397469Y129997D01*
X397239Y130119D01*
X397212Y130146D01*
X397117Y130200D01*
X397070Y130234D01*
X397083Y130301D01*
X397124Y130342D01*
X397137Y130369D01*
X397165Y130396D01*
X397219Y130491D01*
X397266Y130538D01*
X397293Y130552D01*
X397314Y130572D01*
X397327Y130599D01*
X397375Y130647D01*
X397435Y130654D01*
X397483Y130620D01*
X397510Y130593D01*
X397537Y130579D01*
X397612Y130518D01*
X397754Y130457D01*
X397842Y130423D01*
X397910Y130410D01*
X397977Y130383D01*
X398052Y130362D01*
X398113Y130369D01*
X398181Y130342D01*
X398417Y130335D01*
X398485Y130362D01*
X398600Y130383D01*
X398736Y130450D01*
X398810Y130498D01*
X398858Y130545D01*
X398912Y130667D01*
X398898Y130897D01*
X398844Y130992D01*
X398783Y131067D01*
X398756Y131094D01*
X398729Y131107D01*
X398607Y131161D01*
X398472Y131175D01*
X398404Y131202D01*
X398174Y131216D01*
X398079Y131256D01*
X397903Y131270D01*
X397835Y131297D01*
X397747Y131331D01*
X397612Y131412D01*
X397591Y131432D01*
X397469Y131500D01*
X397435Y131534D01*
X397368Y131656D01*
X397341Y131683D01*
X397300Y131778D01*
X397287Y131845D01*
X397259Y131913D01*
X397253Y131988D01*
X397259Y132333D01*
X397246Y132374D01*
X397280Y132462D01*
X397293Y132516D01*
X397320Y132584D01*
X397388Y132692D01*
X397408Y132712D01*
X397463Y132807D01*
X397537Y132882D01*
X397632Y132936D01*
X397659Y132963D01*
X397781Y133017D01*
X397855Y133037D01*
X397916Y133071D01*
X398038Y133085D01*
X398106Y133112D01*
X398526Y133098D01*
D02*
G37*
G36*
X383843D02*
X383911Y133071D01*
X384047Y133058D01*
X384114Y133031D01*
X384202Y132997D01*
X384257Y132983D01*
X384324Y132956D01*
X384649Y132794D01*
X384663Y132753D01*
X384595Y132631D01*
X384568Y132604D01*
X384514Y132509D01*
X384487Y132482D01*
X384433Y132387D01*
X384399Y132353D01*
X384304Y132367D01*
X384047Y132489D01*
X383959Y132523D01*
X383904Y132536D01*
X383837Y132563D01*
X383423Y132570D01*
X383220Y132462D01*
X383119Y132360D01*
X383092Y132252D01*
X383065Y132184D01*
X383078Y132076D01*
X383173Y131900D01*
X383193Y131879D01*
X383396Y131785D01*
X383464Y131771D01*
X383532Y131744D01*
X383749Y131730D01*
X383816Y131703D01*
X384006Y131690D01*
X384033Y131663D01*
X384195Y131636D01*
X384345Y131554D01*
X384385Y131514D01*
X384507Y131446D01*
X384527Y131426D01*
X384541Y131398D01*
X384582Y131331D01*
X384622Y131290D01*
X384656Y131202D01*
X384717Y131087D01*
X384731Y131006D01*
X384758Y130979D01*
X384771Y130803D01*
X384758Y130559D01*
X384717Y130464D01*
X384703Y130369D01*
X384609Y130234D01*
X384561Y130146D01*
X384534Y130132D01*
X384500Y130098D01*
X384487Y130071D01*
X384372Y130010D01*
X384331Y129970D01*
X384155Y129888D01*
X384047Y129875D01*
X384019Y129834D01*
X383173Y129841D01*
X383159Y129868D01*
X383098Y129888D01*
X383004Y129902D01*
X382936Y129929D01*
X382841Y129970D01*
X382563Y130112D01*
X382557Y130119D01*
X382529Y130146D01*
X382435Y130200D01*
X382387Y130247D01*
X382401Y130301D01*
X382462Y130376D01*
X382482Y130396D01*
X382529Y130484D01*
X382557Y130498D01*
X382645Y130586D01*
X382658Y130613D01*
X382679Y130633D01*
X382706Y130647D01*
X382746Y130660D01*
X382821Y130599D01*
X382834Y130572D01*
X382949Y130511D01*
X383071Y130457D01*
X383125Y130444D01*
X383193Y130417D01*
X383268Y130396D01*
X383329Y130376D01*
X383417Y130356D01*
X383491Y130335D01*
X383776Y130349D01*
X383816Y130362D01*
X383938Y130389D01*
X384114Y130484D01*
X384175Y130545D01*
X384216Y130640D01*
X384229Y130694D01*
X384216Y130897D01*
X384148Y131019D01*
X384060Y131107D01*
X383938Y131161D01*
X383789Y131175D01*
X383721Y131202D01*
X383491Y131216D01*
X383396Y131256D01*
X383207Y131270D01*
X383112Y131310D01*
X382936Y131405D01*
X382895Y131446D01*
X382841Y131459D01*
X382800Y131500D01*
X382773Y131514D01*
X382753Y131534D01*
X382685Y131656D01*
X382631Y131737D01*
X382618Y131791D01*
X382597Y131866D01*
X382577Y131886D01*
X382563Y131981D01*
X382577Y132428D01*
X382618Y132523D01*
X382631Y132577D01*
X382719Y132746D01*
X382746Y132760D01*
X382780Y132794D01*
X382794Y132821D01*
X382855Y132882D01*
X382949Y132936D01*
X382977Y132963D01*
X383098Y133017D01*
X383186Y133051D01*
X383247Y133071D01*
X383342Y133085D01*
X383410Y133112D01*
X383843Y133098D01*
D02*
G37*
G36*
X392878D02*
X392945Y133071D01*
X393040Y133058D01*
X393135Y133017D01*
X393210Y132997D01*
X393230Y132976D01*
X393318Y132943D01*
X393338Y132922D01*
X393365Y132909D01*
X393616Y132658D01*
X393670Y132563D01*
X393697Y132536D01*
X393711Y132509D01*
X393765Y132387D01*
X393799Y132299D01*
X393812Y132177D01*
X393819Y132143D01*
X393799Y132123D01*
X393745Y132110D01*
X393399Y132116D01*
X393325Y132110D01*
X393277Y132143D01*
X393196Y132292D01*
X393088Y132401D01*
X393081Y132421D01*
X393054Y132435D01*
X393000Y132489D01*
X392912Y132523D01*
X392891Y132543D01*
X392796Y132570D01*
X392512Y132557D01*
X392444Y132529D01*
X392350Y132475D01*
X392255Y132408D01*
X392234Y132387D01*
X392194Y132320D01*
X392140Y132238D01*
X392112Y132143D01*
X392058Y132022D01*
X392072Y130843D01*
X392099Y130816D01*
X392112Y130762D01*
X392126Y130694D01*
X392194Y130599D01*
X392302Y130491D01*
X392316Y130464D01*
X392350Y130430D01*
X392471Y130376D01*
X392553Y130362D01*
X392620Y130335D01*
X392824Y130349D01*
X392891Y130376D01*
X392986Y130417D01*
X393013Y130430D01*
X393067Y130484D01*
X393094Y130498D01*
X393155Y130559D01*
X393223Y130681D01*
X393264Y130721D01*
X393298Y130782D01*
X393365Y130796D01*
X393406Y130782D01*
X393765Y130789D01*
X393819Y130775D01*
X393833Y130721D01*
X393806Y130654D01*
X393785Y130579D01*
X393751Y130491D01*
X393724Y130423D01*
X393643Y130274D01*
X393589Y130220D01*
X393582Y130200D01*
X393555Y130186D01*
X393392Y130024D01*
X393298Y129970D01*
X393230Y129929D01*
X393142Y129895D01*
X393074Y129882D01*
X393034Y129868D01*
X393027Y129834D01*
X392336Y129848D01*
X392322Y129875D01*
X392248Y129895D01*
X392167Y129936D01*
X392160Y129943D01*
X392072Y129976D01*
X391997Y130024D01*
X391963Y130044D01*
X391950Y130071D01*
X391930Y130092D01*
X391902Y130105D01*
X391720Y130288D01*
X391706Y130315D01*
X391571Y130599D01*
X391557Y130735D01*
X391530Y130803D01*
X391544Y132157D01*
X391571Y132225D01*
X391584Y132360D01*
X391720Y132618D01*
X391760Y132658D01*
X391814Y132753D01*
X391875Y132814D01*
X391943Y132841D01*
X392038Y132936D01*
X392126Y132970D01*
X392146Y132990D01*
X392214Y133017D01*
X392302Y133037D01*
X392322Y133058D01*
X392377Y133071D01*
X392485Y133085D01*
X392553Y133112D01*
X392878Y133098D01*
D02*
G37*
G36*
X390020D02*
X390088Y133071D01*
X390182Y133058D01*
X390277Y133017D01*
X390331Y133004D01*
X390480Y132922D01*
X390555Y132861D01*
X390589Y132827D01*
X390616Y132814D01*
X390663Y132767D01*
X390677Y132739D01*
X390758Y132658D01*
X390765Y132638D01*
X390792Y132624D01*
X390934Y132347D01*
X390948Y132252D01*
X390961Y132198D01*
X390975Y132157D01*
X390961Y132130D01*
X390900Y132110D01*
X390541Y132116D01*
X390467Y132110D01*
X390406Y132157D01*
X390324Y132306D01*
X390297Y132333D01*
X390250Y132421D01*
X390223Y132435D01*
X390094Y132523D01*
X389938Y132570D01*
X389654Y132557D01*
X389478Y132462D01*
X389431Y132414D01*
X389424Y132394D01*
X389397Y132380D01*
X389309Y132292D01*
X389295Y132265D01*
X389254Y132171D01*
X389241Y132116D01*
X389227Y132035D01*
X389200Y132008D01*
X389214Y130884D01*
X389241Y130816D01*
X389261Y130714D01*
X389322Y130626D01*
X389363Y130559D01*
X389410Y130525D01*
X389431Y130505D01*
X389444Y130477D01*
X389492Y130430D01*
X389613Y130376D01*
X389702Y130356D01*
X389722Y130335D01*
X389783Y130329D01*
X389932Y130342D01*
X390040Y130383D01*
X390108Y130410D01*
X390182Y130457D01*
X390352Y130626D01*
X390433Y130775D01*
X390494Y130796D01*
X390548Y130782D01*
X390562D01*
X390907Y130789D01*
X390954Y130769D01*
X390961Y130694D01*
X390948Y130654D01*
X390934Y130545D01*
X390907Y130518D01*
X390785Y130288D01*
X390724Y130213D01*
X390704Y130193D01*
X390656Y130105D01*
X390562Y130051D01*
X390507Y129997D01*
X390480Y129983D01*
X390277Y129888D01*
X390216Y129854D01*
X390209Y129834D01*
X389478Y129848D01*
X389451Y129875D01*
X389363Y129909D01*
X389315Y129929D01*
X389194Y129997D01*
X389166Y130024D01*
X389072Y130078D01*
X388875Y130274D01*
X388862Y130329D01*
X388794Y130396D01*
X388780Y130437D01*
X388740Y130532D01*
X388720Y130606D01*
X388706Y130796D01*
X388672Y130870D01*
X388686Y132089D01*
X388713Y132157D01*
X388726Y132320D01*
X388740Y132360D01*
X388753Y132428D01*
X388808Y132509D01*
X388821Y132563D01*
X388848Y132590D01*
X388862Y132618D01*
X388909Y132678D01*
X388936Y132692D01*
X389011Y132767D01*
X389024Y132794D01*
X389044Y132814D01*
X389072Y132827D01*
X389146Y132902D01*
X389153Y132922D01*
X389356Y133017D01*
X389410Y133031D01*
X389451Y133044D01*
X389519Y133071D01*
X389627Y133085D01*
X389695Y133112D01*
X390020Y133098D01*
D02*
G37*
G36*
X349209D02*
X349277Y133071D01*
X349372Y133058D01*
X349399Y133031D01*
X349453Y133017D01*
X349650Y132916D01*
X349663Y132888D01*
X349799Y132807D01*
X349866Y132739D01*
X349934Y132618D01*
X349988Y132563D01*
X350002Y132536D01*
X350042Y132441D01*
X350083Y132306D01*
X350124Y132211D01*
X350110Y132130D01*
X350049Y132110D01*
X349616Y132123D01*
X349582Y132143D01*
X349568Y132171D01*
X349528Y132238D01*
X349501Y132265D01*
X349433Y132387D01*
X349385Y132435D01*
X349291Y132489D01*
X349264Y132516D01*
X349209Y132529D01*
X349115Y132570D01*
X348803Y132557D01*
X348627Y132462D01*
X348512Y132347D01*
X348498Y132320D01*
X348471Y132292D01*
X348404Y132143D01*
X348390Y132089D01*
X348376Y131967D01*
X348349Y131900D01*
X348363Y130952D01*
X348390Y130884D01*
X348404Y130748D01*
X348458Y130654D01*
X348485Y130626D01*
X348498Y130599D01*
X348566Y130505D01*
X348586Y130484D01*
X348614Y130471D01*
X348817Y130376D01*
X348905Y130342D01*
X349013Y130329D01*
X349020Y130322D01*
X349060Y130335D01*
X349088Y130349D01*
X349128Y130362D01*
X349182Y130376D01*
X349413Y130498D01*
X349487Y130572D01*
X349501Y130599D01*
X349595Y130803D01*
X349616Y130877D01*
X349636Y130897D01*
X349623Y131141D01*
X349562Y131161D01*
X349006Y131175D01*
X348972Y131209D01*
X348986Y131629D01*
X349006Y131649D01*
X349629D01*
X350069Y131656D01*
X350117Y131636D01*
X350124Y130694D01*
X350097Y130626D01*
X350063Y130538D01*
X350049Y130471D01*
X350029Y130423D01*
X349900Y130254D01*
X349853Y130207D01*
X349812Y130139D01*
X349792Y130119D01*
X349724Y130078D01*
X349656Y130010D01*
X349589Y129970D01*
X349562Y129943D01*
X349494Y129915D01*
X349413Y129902D01*
X349325Y129854D01*
X349318Y129834D01*
X348634Y129841D01*
X348620Y129868D01*
X348559Y129888D01*
X348505Y129902D01*
X348329Y129997D01*
X348288Y130037D01*
X348194Y130092D01*
X348160Y130125D01*
X348153Y130146D01*
X348126Y130159D01*
X348078Y130207D01*
X348024Y130301D01*
X347997Y130329D01*
X347970Y130396D01*
X347902Y130545D01*
X347889Y130599D01*
X347848Y130694D01*
X347835Y131087D01*
X347821Y131128D01*
X347808Y131182D01*
X347821Y131805D01*
X347848Y131873D01*
X347862Y132265D01*
X347889Y132292D01*
X347916Y132414D01*
X347970Y132496D01*
X347984Y132550D01*
X348099Y132719D01*
X348126Y132746D01*
X348153Y132760D01*
X348200Y132807D01*
X348214Y132834D01*
X348261Y132882D01*
X348356Y132936D01*
X348437Y132990D01*
X348505Y133017D01*
X348580Y133037D01*
X348641Y133071D01*
X348762Y133085D01*
X348830Y133112D01*
X349209Y133098D01*
D02*
G37*
G36*
X343724Y133058D02*
X343744Y133037D01*
X343731Y132590D01*
X343670Y132570D01*
X342193Y132557D01*
X342173Y132536D01*
X342159Y132496D01*
X342173Y132455D01*
X342166Y131771D01*
X342186Y131724D01*
X342207Y131703D01*
X343466Y131690D01*
X343487Y131669D01*
X343494Y131310D01*
X343473Y131263D01*
X343419Y131249D01*
X342220Y131256D01*
X342186Y131236D01*
X342173Y131182D01*
X342166Y130403D01*
X342186Y130356D01*
X342207Y130335D01*
X342268Y130329D01*
X343683Y130335D01*
X343744Y130288D01*
X343737Y129834D01*
X341949D01*
X341672Y129841D01*
X341679Y133071D01*
X343724Y133058D01*
D02*
G37*
G36*
X366872D02*
X366892Y132997D01*
X366879Y132590D01*
X366818Y132570D01*
X365328Y132557D01*
X365307Y132496D01*
X365321Y131737D01*
X365355Y131703D01*
X366614Y131690D01*
X366635Y131629D01*
X366621Y131263D01*
X366560Y131243D01*
X366520Y131256D01*
X365341Y131243D01*
X365321Y131222D01*
X365307Y131128D01*
X365321Y130356D01*
X365341Y130335D01*
X365409Y130322D01*
X365450Y130335D01*
X366858Y130322D01*
X366879Y130301D01*
X366892Y130247D01*
X366879Y129841D01*
X365287Y129834D01*
X365273D01*
X364786Y129848D01*
X364779Y133037D01*
X364813Y133071D01*
X366872Y133058D01*
D02*
G37*
G36*
X354966D02*
X354986Y133037D01*
X354973Y129841D01*
X354492Y129834D01*
X354465Y129902D01*
X354445Y129922D01*
X354431Y129949D01*
X354390Y129990D01*
X354323Y130112D01*
X354295Y130139D01*
X354255Y130207D01*
X354228Y130234D01*
X354119Y130437D01*
X354092Y130464D01*
X354038Y130559D01*
X354011Y130586D01*
X353957Y130681D01*
X353930Y130708D01*
X353916Y130735D01*
X353835Y130884D01*
X353808Y130911D01*
X353754Y131006D01*
X353713Y131046D01*
X353686Y131114D01*
X353632Y131168D01*
X353537Y131344D01*
X353483Y131439D01*
X353442Y131480D01*
X353388Y131575D01*
X353320Y131669D01*
X353280Y131737D01*
X353253Y131764D01*
X353158Y131940D01*
X353110Y131974D01*
X353097Y131988D01*
X353077Y131967D01*
X353063Y129841D01*
X353056Y129834D01*
X352548Y129841D01*
X352535Y129976D01*
X352548Y133051D01*
X352569Y133071D01*
X353056Y133058D01*
X353077Y133037D01*
X353131Y132943D01*
X353158Y132916D01*
X353198Y132848D01*
X353253Y132767D01*
X353266Y132712D01*
X353293Y132685D01*
X353334Y132618D01*
X353361Y132590D01*
X353415Y132496D01*
X353442Y132469D01*
X353469Y132401D01*
X353523Y132347D01*
X353618Y132171D01*
X353645Y132143D01*
X353699Y132049D01*
X353767Y131954D01*
X353781Y131927D01*
X353808Y131900D01*
X353903Y131724D01*
X353930Y131696D01*
X353984Y131602D01*
X354025Y131561D01*
X354038Y131507D01*
X354092Y131453D01*
X354187Y131277D01*
X354228Y131236D01*
X354255Y131168D01*
X354295Y131128D01*
X354363Y131006D01*
X354383Y130985D01*
X354438Y130972D01*
X354451Y133017D01*
X354465Y133058D01*
X354519Y133071D01*
X354966Y133058D01*
D02*
G37*
G36*
X346920D02*
X346941Y132997D01*
X346927Y129841D01*
X346446Y129834D01*
X346419Y129902D01*
X346399Y129922D01*
X346385Y129949D01*
X346358Y129976D01*
X346345Y130003D01*
X346257Y130132D01*
X346236Y130152D01*
X346223Y130207D01*
X346114Y130369D01*
X346101Y130396D01*
X346040Y130471D01*
X346013Y130538D01*
X345966Y130586D01*
X345952Y130613D01*
X345871Y130762D01*
X345844Y130789D01*
X345789Y130884D01*
X345762Y130911D01*
X345742Y130958D01*
X345735Y130965D01*
X345674Y131040D01*
X345627Y131141D01*
X345539Y131270D01*
X345491Y131344D01*
X345464Y131371D01*
X345410Y131466D01*
X345356Y131547D01*
X345288Y131669D01*
X345234Y131751D01*
X345220Y131778D01*
X345153Y131873D01*
X345099Y131967D01*
X345078Y131988D01*
X345038Y131974D01*
X345024Y129888D01*
X345011Y129834D01*
X344503Y129841D01*
X344489Y130058D01*
X344503Y133037D01*
X344536Y133071D01*
X345011Y133058D01*
X345031Y133037D01*
X345072Y132970D01*
X345126Y132888D01*
X345166Y132821D01*
X345193Y132794D01*
X345207Y132739D01*
X345261Y132685D01*
X345275Y132658D01*
X345356Y132509D01*
X345397Y132469D01*
X345451Y132374D01*
X345518Y132279D01*
X345532Y132252D01*
X345559Y132225D01*
X345586Y132157D01*
X345600Y132130D01*
X345668Y132035D01*
X345722Y131940D01*
X345762Y131900D01*
X345796Y131812D01*
X345857Y131751D01*
X345938Y131602D01*
X345979Y131561D01*
X345993Y131507D01*
X346033Y131466D01*
X346047Y131439D01*
X346142Y131304D01*
X346196Y131209D01*
X346223Y131182D01*
X346318Y131006D01*
X346345Y130992D01*
X346358Y130965D01*
X346379Y130945D01*
X346399Y130965D01*
X346412Y131019D01*
X346406Y131134D01*
X346419Y133058D01*
X346460Y133071D01*
X346920Y133058D01*
D02*
G37*
G36*
X387812D02*
X387832Y132997D01*
X387819Y130626D01*
X387792Y130559D01*
X387758Y130471D01*
X387656Y130274D01*
X387582Y130173D01*
X387555Y130159D01*
X387446Y130051D01*
X387351Y129997D01*
X387324Y129970D01*
X387270Y129956D01*
X387175Y129902D01*
X387135Y129888D01*
X387067Y129861D01*
X387053Y129834D01*
X386329Y129841D01*
X386315Y129868D01*
X386254Y129888D01*
X386200Y129902D01*
X386173Y129929D01*
X386105Y129956D01*
X385956Y130037D01*
X385895Y130085D01*
X385882Y130112D01*
X385794Y130200D01*
X385767Y130213D01*
X385706Y130315D01*
X385692Y130342D01*
X385665Y130369D01*
X385638Y130437D01*
X385625Y130477D01*
X385597Y130545D01*
X385584Y130613D01*
X385557Y130681D01*
X385543Y130870D01*
X385516Y130938D01*
X385530Y133051D01*
X385550Y133071D01*
X386024Y133058D01*
X386044Y133037D01*
X386058Y130884D01*
X386085Y130857D01*
X386099Y130735D01*
X386166Y130613D01*
X386193Y130586D01*
X386207Y130559D01*
X386281Y130484D01*
X386309Y130471D01*
X386363Y130417D01*
X386451Y130383D01*
X386512Y130362D01*
X386566D01*
X386593Y130349D01*
X386634Y130335D01*
X386735Y130329D01*
X386803Y130356D01*
X386932Y130376D01*
X387053Y130444D01*
X387081Y130471D01*
X387108Y130484D01*
X387169Y130545D01*
X387182Y130572D01*
X387223Y130640D01*
X387304Y130816D01*
X387318Y130924D01*
X387345Y130992D01*
X387358Y133051D01*
X387379Y133071D01*
X387812Y133058D01*
D02*
G37*
G36*
X396562D02*
X396582Y133037D01*
X396569Y132590D01*
X396508Y132570D01*
X395031Y132557D01*
X395011Y132536D01*
X395004Y132489D01*
X395011Y132062D01*
Y132049D01*
X395004Y131771D01*
X395025Y131724D01*
X395086Y131703D01*
X396318Y131690D01*
X396338Y131629D01*
X396325Y131277D01*
X396304Y131256D01*
X395045Y131243D01*
X395011Y131209D01*
X395004Y130403D01*
X395025Y130356D01*
X395045Y130335D01*
X396548Y130322D01*
X396582Y130288D01*
X396575Y129834D01*
X394483Y129841D01*
X394469Y129936D01*
X394483Y133051D01*
X394503Y133071D01*
X396562Y133058D01*
D02*
G37*
G36*
X379699D02*
X379726Y133031D01*
X379827Y133010D01*
X379929Y132949D01*
X379983Y132936D01*
X380030Y132888D01*
X380044Y132861D01*
X380125Y132794D01*
X380166Y132753D01*
X380180Y132726D01*
X380247Y132658D01*
X380288Y132563D01*
X380356Y132414D01*
X380369Y132360D01*
X380362Y132299D01*
X380369Y131940D01*
X380356Y131900D01*
X380342Y131845D01*
X380301Y131751D01*
X380234Y131629D01*
X380166Y131534D01*
X380152Y131507D01*
X380105Y131459D01*
X380078Y131446D01*
X380010Y131378D01*
X379983Y131365D01*
X379807Y131270D01*
X379787Y131236D01*
X379868Y131087D01*
X379909Y131046D01*
X380328Y130220D01*
X380356Y130193D01*
X380423Y130044D01*
X380437Y130017D01*
X380477Y129949D01*
X380484Y129888D01*
X380471Y129834D01*
X379882Y129841D01*
X379868Y129895D01*
X379678Y130288D01*
X379651Y130356D01*
X379489Y130694D01*
X379238Y131189D01*
X379184Y131202D01*
X378683Y131189D01*
X378662Y131168D01*
X378656Y129834D01*
X378547D01*
X378148Y129841D01*
X378134Y129936D01*
X378148Y133051D01*
X378168Y133071D01*
X379699Y133058D01*
D02*
G37*
G36*
X376299Y133098D02*
X376367Y133071D01*
X376462Y133058D01*
X376556Y133017D01*
X376644Y132983D01*
X376665Y132963D01*
X376692Y132949D01*
X376786Y132882D01*
X376814Y132868D01*
X377024Y132658D01*
X377037Y132631D01*
X377125Y132502D01*
X377159Y132428D01*
X377173Y132374D01*
X377213Y132279D01*
X377227Y132225D01*
X377213Y132184D01*
X377227Y131967D01*
X377240Y131927D01*
X377254Y131873D01*
X377240Y131006D01*
X377213Y130938D01*
X377200Y130626D01*
X377173Y130599D01*
X377159Y130505D01*
X377051Y130301D01*
X377010Y130261D01*
X376996Y130234D01*
X376936Y130159D01*
X376827Y130051D01*
X376732Y129997D01*
X376583Y129915D01*
X376516Y129888D01*
X376448Y129875D01*
X376434Y129834D01*
X375750Y129841D01*
X375737Y129868D01*
X375649Y129902D01*
X375527Y129929D01*
X375473Y129983D01*
X375446Y129997D01*
X375310Y130092D01*
X375283Y130105D01*
X375209Y130166D01*
X375195Y130193D01*
X375154Y130261D01*
X375148Y130268D01*
X375100Y130315D01*
X375087Y130342D01*
X375060Y130369D01*
X374978Y130559D01*
X374965Y130667D01*
X374938Y130735D01*
X374951Y132225D01*
X374978Y132292D01*
X374992Y132387D01*
X375087Y132563D01*
X375127Y132604D01*
X375195Y132726D01*
X375222Y132753D01*
X375236Y132780D01*
X375283Y132814D01*
X375364Y132895D01*
X375418Y132909D01*
X375500Y132963D01*
X375554Y132976D01*
X375676Y133044D01*
X375744Y133071D01*
X375852Y133085D01*
X375920Y133112D01*
X376299Y133098D01*
D02*
G37*
G36*
X374335Y133058D02*
X374355Y133037D01*
X374342Y132590D01*
X374281Y132570D01*
X372804Y132557D01*
X372771Y132523D01*
X372784Y131683D01*
X372804Y131663D01*
X372899Y131649D01*
X374091Y131636D01*
X374112Y131575D01*
X374098Y131236D01*
X374064Y131202D01*
X372791Y131189D01*
X372771Y131128D01*
X372764Y129834D01*
X372242Y129841D01*
Y131534D01*
Y131547D01*
X372256Y133051D01*
X372276Y133071D01*
X374335Y133058D01*
D02*
G37*
G36*
X369066D02*
X369161Y133017D01*
X369229Y133004D01*
X369296Y132976D01*
X369391Y132922D01*
X369418Y132895D01*
X369486Y132855D01*
X369540Y132800D01*
X369567Y132787D01*
X369628Y132739D01*
X369669Y132672D01*
X369737Y132604D01*
X369791Y132509D01*
X369818Y132482D01*
X369845Y132374D01*
X369858Y132347D01*
X369865Y132340D01*
X369899Y132265D01*
X369913Y132211D01*
X369926Y131967D01*
X369953Y131900D01*
X369940Y131033D01*
X369913Y130965D01*
X369899Y130681D01*
X369885Y130640D01*
X369872Y130586D01*
X369750Y130356D01*
X369696Y130274D01*
X369682Y130247D01*
X369527Y130092D01*
X369472Y130078D01*
X369405Y130010D01*
X369283Y129956D01*
X369256Y129943D01*
X369188Y129915D01*
X369113Y129895D01*
X368985Y129875D01*
X368971Y129834D01*
X367651Y129841D01*
X367637Y129976D01*
X367651Y133051D01*
X367712Y133071D01*
X369066Y133058D01*
D02*
G37*
G36*
X363269D02*
X363364Y133017D01*
X363418Y133004D01*
X363567Y132922D01*
X363621Y132868D01*
X363641Y132861D01*
X363655Y132834D01*
X363763Y132726D01*
X363818Y132631D01*
X363858Y132590D01*
X363885Y132523D01*
X363899Y132469D01*
X363939Y132333D01*
X363926Y131913D01*
X363899Y131845D01*
X363885Y131778D01*
X363858Y131751D01*
X363777Y131602D01*
X363750Y131575D01*
X363696Y131480D01*
X363675Y131459D01*
X363621Y131446D01*
X363574Y131398D01*
X363560Y131371D01*
X363472Y131324D01*
X363377Y131270D01*
X363370Y131209D01*
X363425Y131128D01*
X363452Y131060D01*
X363709Y130559D01*
X363777Y130464D01*
X363790Y130410D01*
X363844Y130329D01*
X363912Y130180D01*
X364048Y129895D01*
X364061Y129841D01*
X363445Y129834D01*
X363431Y129888D01*
X363411Y129909D01*
X363391Y129997D01*
X363330Y130112D01*
X362964Y130857D01*
X362896Y130979D01*
X362788Y131182D01*
X362727Y131202D01*
X362226Y131189D01*
X362206Y131168D01*
X362192Y129841D01*
X361711Y129834D01*
X361704Y133037D01*
X361738Y133071D01*
X362131D01*
X363269Y133058D01*
D02*
G37*
G36*
X360899D02*
X360919Y132983D01*
X360905Y132590D01*
X360844Y132570D01*
X359368Y132557D01*
X359348Y132536D01*
X359361Y131724D01*
X359382Y131703D01*
X360384D01*
X360682Y131690D01*
X360702Y131669D01*
X360716Y131575D01*
X360702Y131277D01*
X360682Y131256D01*
X359368Y131243D01*
X359348Y131222D01*
X359361Y130342D01*
X359422Y130322D01*
X359463Y130335D01*
X360885Y130322D01*
X360905Y130301D01*
X360919Y130207D01*
X360905Y129841D01*
X358853Y129834D01*
X358846Y133037D01*
X358880Y133071D01*
X360899Y133058D01*
D02*
G37*
G36*
X358027D02*
X358047Y133037D01*
X358034Y132590D01*
X358014Y132570D01*
X356537Y132557D01*
X356517Y132536D01*
Y132523D01*
X356530Y131724D01*
X356591Y131703D01*
X357824Y131690D01*
X357844Y131669D01*
X357851Y131581D01*
X357844Y131358D01*
X357858Y131317D01*
X357824Y131256D01*
X356551Y131243D01*
X356530Y131222D01*
X356517Y131168D01*
X356530Y130356D01*
X356551Y130335D01*
X358027Y130322D01*
X358047Y130301D01*
X358041Y129834D01*
X355989Y129841D01*
X355975Y130058D01*
X355989Y133051D01*
X356049Y133071D01*
X358027Y133058D01*
D02*
G37*
G36*
X351526D02*
X351546Y132997D01*
X351532Y129841D01*
X351065Y129834D01*
X351045Y129895D01*
X351058Y133051D01*
X351079Y133071D01*
X351458D01*
X351526Y133058D01*
D02*
G37*
%LPC*%
G36*
X144912Y157463D02*
X144856Y157439D01*
X144785Y157399D01*
X144777Y157383D01*
X144761Y157376D01*
X144674Y157328D01*
X144642Y157296D01*
X144570Y157256D01*
X144550Y157236D01*
X144546Y157225D01*
X144530Y157217D01*
X144487Y157181D01*
X144435Y157129D01*
X144419Y157121D01*
X144399Y157093D01*
X144336Y157030D01*
X144328Y157014D01*
X144256Y156942D01*
X144248Y156927D01*
X144213Y156891D01*
X144197Y156883D01*
X144165Y156835D01*
X144113Y156783D01*
X144081Y156728D01*
X144046Y156684D01*
X144010Y156609D01*
X143970Y156569D01*
X143954Y156529D01*
X143915Y156458D01*
X143891Y156434D01*
X143875Y156394D01*
X143855Y156342D01*
X143827Y156315D01*
X143819Y156299D01*
X143803Y156259D01*
X143791Y156215D01*
X143760Y156168D01*
X143748Y156156D01*
X143732Y156116D01*
X143716Y156052D01*
X143652Y155917D01*
X143633Y155834D01*
X143581Y155735D01*
X143553Y155612D01*
X143537Y155572D01*
X143525Y155560D01*
X143509Y155520D01*
X143501Y155488D01*
X143494Y155433D01*
X143486Y155401D01*
X143474Y155357D01*
X143466Y155325D01*
X143438Y155258D01*
X143426Y155206D01*
X143402Y155063D01*
X143370Y154976D01*
X143354Y154896D01*
X143339Y154857D01*
X143331Y154841D01*
X143315Y154833D01*
X143259Y154793D01*
X143243Y154785D01*
X143203Y154769D01*
X143140Y154745D01*
X143096Y154710D01*
X143084Y154698D01*
X143041Y154686D01*
X142989Y154666D01*
X142973Y154650D01*
X142957Y154642D01*
X142941Y154626D01*
X142842Y154590D01*
X142822Y154571D01*
X142806Y154563D01*
X142790Y154547D01*
X142715Y154519D01*
X142687Y154499D01*
X142671Y154483D01*
X142655Y154475D01*
X142616Y154459D01*
X142560Y154428D01*
X142536Y154404D01*
X142520Y154396D01*
X142449Y154356D01*
X142409Y154316D01*
X142337Y154277D01*
X142314Y154253D01*
X142298Y154245D01*
X142242Y154221D01*
X142226Y154213D01*
X142186Y154173D01*
X142171Y154165D01*
X142099Y154126D01*
X142055Y154090D01*
X141996Y154062D01*
X141968Y154042D01*
X141964Y154030D01*
X141948Y154022D01*
X141932Y154007D01*
X141877Y153975D01*
X141845Y153943D01*
X141829Y153935D01*
X141773Y153903D01*
X141726Y153856D01*
X141710Y153848D01*
X141658Y153812D01*
X141650Y153796D01*
X141591Y153760D01*
X141575Y153752D01*
X141543Y153720D01*
X141527Y153712D01*
X141455Y153673D01*
X141444Y153661D01*
X141440Y153649D01*
X141424Y153641D01*
X141408Y153625D01*
X141392Y153617D01*
X141348Y153581D01*
X141340Y153566D01*
X141293Y153534D01*
X141281Y153522D01*
X141265Y153514D01*
X141249Y153490D01*
X141233Y153482D01*
X141217Y153466D01*
X141177Y153442D01*
X141130Y153395D01*
X141114Y153387D01*
X141070Y153351D01*
X141026Y153307D01*
X141010Y153299D01*
X140975Y153263D01*
X140971Y153252D01*
X140955Y153244D01*
X140939Y153228D01*
X140923Y153220D01*
X140911Y153208D01*
X140903Y153192D01*
X140867Y153156D01*
X140852Y153148D01*
X140788Y153085D01*
X140772Y153077D01*
X140744Y153049D01*
X140736Y153033D01*
X140725Y153021D01*
X140709Y153013D01*
X140665Y152978D01*
X140657Y152962D01*
X140637Y152942D01*
X140621Y152934D01*
X140585Y152906D01*
X140577Y152890D01*
X140558Y152870D01*
X140542Y152862D01*
X140427Y152747D01*
X140419Y152731D01*
X140407Y152719D01*
X140391Y152711D01*
X140347Y152668D01*
X140339Y152652D01*
X140311Y152632D01*
X140276Y152596D01*
X140268Y152580D01*
X140256Y152568D01*
X140240Y152560D01*
X140212Y152532D01*
X140204Y152517D01*
X140124Y152437D01*
X140117Y152421D01*
X140105Y152409D01*
X140089Y152401D01*
X140061Y152374D01*
X140053Y152358D01*
X139974Y152278D01*
X139966Y152262D01*
X139938Y152243D01*
X139910Y152215D01*
X139902Y152199D01*
X139839Y152135D01*
X139831Y152119D01*
X139759Y152048D01*
X139751Y152032D01*
X139688Y151968D01*
X139680Y151953D01*
X139616Y151889D01*
X139608Y151873D01*
X139572Y151829D01*
X139537Y151794D01*
X139529Y151778D01*
X139513Y151762D01*
X139505Y151746D01*
X139441Y151682D01*
X139433Y151666D01*
X139370Y151603D01*
X139362Y151587D01*
X139298Y151523D01*
X139290Y151507D01*
X139227Y151444D01*
X139219Y151428D01*
X139155Y151365D01*
X139147Y151349D01*
X139084Y151285D01*
X139076Y151269D01*
X139040Y151225D01*
X139004Y151190D01*
X138996Y151174D01*
X138961Y151130D01*
X138925Y151094D01*
X138917Y151078D01*
X138901Y151063D01*
X138893Y151047D01*
X138881Y151035D01*
X138865Y151027D01*
X138853Y151015D01*
X138845Y150999D01*
X138810Y150955D01*
X138774Y150919D01*
X138766Y150904D01*
X138730Y150860D01*
X138710Y150848D01*
X138702Y150832D01*
X138663Y150777D01*
X138631Y150745D01*
X138623Y150729D01*
X138583Y150673D01*
X138543Y150634D01*
X138535Y150618D01*
X138500Y150574D01*
X138456Y150530D01*
X138448Y150514D01*
X138392Y150459D01*
X138384Y150443D01*
X138357Y150407D01*
X138341Y150399D01*
X138321Y150379D01*
X138289Y150324D01*
X138249Y150284D01*
X138241Y150268D01*
X138202Y150212D01*
X138170Y150181D01*
X138162Y150165D01*
X138118Y150105D01*
X138102Y150097D01*
X138059Y150030D01*
X138011Y149982D01*
X137979Y149926D01*
X137940Y149887D01*
X137932Y149871D01*
X137892Y149815D01*
X137876Y149807D01*
X137868Y149791D01*
X137852Y149775D01*
X137844Y149759D01*
X137808Y149716D01*
X137780Y149688D01*
X137773Y149672D01*
X137749Y149616D01*
X137773Y149577D01*
X137800Y149549D01*
X137816Y149541D01*
X137856Y149501D01*
X137872Y149493D01*
X137888Y149477D01*
X137904Y149469D01*
X137924Y149442D01*
X137951Y149422D01*
X137995Y149386D01*
X138015Y149358D01*
X138031Y149350D01*
X138047Y149334D01*
X138063Y149326D01*
X138075Y149314D01*
X138083Y149299D01*
X138110Y149271D01*
X138126Y149263D01*
X138154Y149235D01*
X138162Y149219D01*
X138233Y149148D01*
X138241Y149132D01*
X138261Y149112D01*
X138277Y149104D01*
X138305Y149076D01*
X138313Y149060D01*
X138349Y149024D01*
X138365Y149016D01*
X138404Y148961D01*
X138420Y148953D01*
X138448Y148925D01*
X138456Y148909D01*
X138520Y148846D01*
X138527Y148830D01*
X138583Y148774D01*
X138591Y148758D01*
X138623Y148726D01*
X138631Y148711D01*
X138678Y148663D01*
X138686Y148647D01*
X138722Y148603D01*
X138758Y148568D01*
X138766Y148552D01*
X138802Y148508D01*
X138837Y148472D01*
X138869Y148417D01*
X138901Y148385D01*
X138909Y148369D01*
X138941Y148313D01*
X138972Y148282D01*
X138980Y148266D01*
X139036Y148194D01*
X139052Y148186D01*
X139060Y148170D01*
X139111Y148095D01*
X139139Y148067D01*
X139147Y148035D01*
X139187Y147964D01*
X139219Y147892D01*
X139227Y147733D01*
X139219Y147709D01*
X139211Y147638D01*
X139155Y147550D01*
X139131Y147511D01*
X139064Y147443D01*
X139024Y147427D01*
X138972Y147407D01*
X138913Y147372D01*
X138857Y147364D01*
X138674Y147372D01*
X138595Y147427D01*
X138543Y147447D01*
X138500Y147475D01*
X138472Y147503D01*
X138464Y147519D01*
X138448Y147535D01*
X138440Y147550D01*
X138400Y147590D01*
X138361Y147662D01*
X138313Y147709D01*
X138305Y147725D01*
X138269Y147769D01*
X138241Y147797D01*
X138210Y147853D01*
X138170Y147892D01*
X138138Y147948D01*
X138090Y147995D01*
X138083Y148011D01*
X138047Y148055D01*
X138011Y148091D01*
X138003Y148107D01*
X137932Y148178D01*
X137924Y148194D01*
X137860Y148258D01*
X137852Y148274D01*
X137828Y148297D01*
X137820Y148313D01*
X137757Y148377D01*
X137749Y148393D01*
X137729Y148413D01*
X137713Y148421D01*
X137693Y148441D01*
X137685Y148456D01*
X137475Y148667D01*
X137459Y148675D01*
X137439Y148703D01*
X137427Y148715D01*
X137411Y148723D01*
X137387Y148746D01*
X137371Y148754D01*
X137316Y148810D01*
X137300Y148818D01*
X137228Y148889D01*
X137212Y148897D01*
X137169Y148933D01*
X137165Y148945D01*
X137149Y148953D01*
X137133Y148969D01*
X137117Y148977D01*
X137089Y148997D01*
X137081Y149013D01*
X137054Y149032D01*
X136994Y149076D01*
X136990Y149088D01*
X136974Y149096D01*
X136958Y149112D01*
X136902Y149144D01*
X136871Y149175D01*
X136855Y149183D01*
X136799Y149215D01*
X136752Y149263D01*
X136700Y149283D01*
X136688Y149295D01*
X136672Y149303D01*
X136640Y149334D01*
X136589Y149354D01*
X136549Y149378D01*
X136545Y149390D01*
X136529Y149398D01*
X136513Y149414D01*
X136469Y149426D01*
X136406Y149466D01*
X136354Y149493D01*
X136303Y149513D01*
X136219Y149557D01*
X136164Y149573D01*
X136112Y149585D01*
X136048Y149609D01*
X136005Y149628D01*
X135973Y149636D01*
X135917Y149644D01*
X135886Y149652D01*
X135794Y149664D01*
X135715Y149672D01*
X135572Y149688D01*
X135377Y149692D01*
X135353Y149684D01*
X135274Y149660D01*
X135218Y149652D01*
X135154Y149636D01*
X135083Y149589D01*
X135027Y149573D01*
X134972Y149541D01*
X134948Y149517D01*
X134908Y149501D01*
X134853Y149469D01*
X134829Y149446D01*
X134813Y149438D01*
X134741Y149398D01*
X134694Y149350D01*
X134678Y149342D01*
X134606Y149271D01*
X134590Y149263D01*
X134571Y149243D01*
X134563Y149227D01*
X134491Y149156D01*
X134483Y149140D01*
X134455Y149112D01*
X134439Y149104D01*
X134420Y149076D01*
X134384Y149032D01*
X134368Y149024D01*
X134356Y149013D01*
X134340Y148973D01*
X134316Y148933D01*
X134292Y148909D01*
X134284Y148893D01*
X134245Y148822D01*
X134205Y148782D01*
X134189Y148742D01*
X134157Y148687D01*
X134141Y148671D01*
X134133Y148655D01*
X134110Y148599D01*
X134090Y148548D01*
X134062Y148520D01*
X134054Y148504D01*
X134038Y148464D01*
X134026Y148413D01*
X133998Y148369D01*
X133967Y148297D01*
X133959Y148266D01*
X133947Y148222D01*
X133895Y148123D01*
X133887Y148091D01*
X133867Y148007D01*
X133851Y147968D01*
X133832Y147932D01*
X133816Y147876D01*
X133808Y147845D01*
X133796Y147753D01*
X133764Y147674D01*
X133744Y147606D01*
X133736Y147574D01*
X133724Y147475D01*
X133716Y147435D01*
X133700Y147372D01*
X133680Y147320D01*
X133669Y147268D01*
X133657Y147161D01*
X133645Y147038D01*
X133629Y146943D01*
X133605Y146824D01*
X133597Y146760D01*
X133589Y146672D01*
X133581Y146545D01*
X133573Y146387D01*
X133565Y146188D01*
X133561Y145842D01*
X133569Y145818D01*
X133577Y145445D01*
X133585Y145421D01*
X133593Y145278D01*
X133601Y145254D01*
X133613Y145195D01*
X133629Y145131D01*
X133637Y145083D01*
X133645Y145044D01*
X133657Y144936D01*
X133677Y144845D01*
X133700Y144781D01*
X133712Y144738D01*
X133728Y144682D01*
X133740Y144615D01*
X133760Y144563D01*
X133800Y144475D01*
X133816Y144412D01*
X133839Y144372D01*
X133871Y144325D01*
X133887Y144269D01*
X133927Y144197D01*
X133943Y144182D01*
X133959Y144142D01*
X133998Y144070D01*
X134022Y144046D01*
X134070Y143959D01*
X134110Y143919D01*
X134117Y143903D01*
X134153Y143860D01*
X134189Y143824D01*
X134213Y143784D01*
X134268Y143729D01*
X134273Y143717D01*
X134312Y143701D01*
X154558Y143709D01*
X154586Y143737D01*
X154578Y143776D01*
X154506Y143911D01*
X154483Y143967D01*
X154471Y144011D01*
X154459Y144038D01*
X154427Y144086D01*
X154411Y144126D01*
X154399Y144177D01*
X154375Y144241D01*
X154355Y144261D01*
X154332Y144317D01*
X154320Y144376D01*
X154304Y144416D01*
X154268Y144475D01*
X154256Y144527D01*
X154248Y144567D01*
X154240Y144599D01*
X154216Y144662D01*
X154204Y144674D01*
X154189Y144714D01*
X154177Y144765D01*
X154161Y144845D01*
X154121Y144932D01*
X154105Y144996D01*
X154097Y145044D01*
X154089Y145083D01*
X154081Y145115D01*
X154065Y145155D01*
X154046Y145199D01*
X154030Y145254D01*
X154022Y145334D01*
X154002Y145425D01*
X153966Y145540D01*
X153958Y145572D01*
X153950Y145628D01*
X153942Y145731D01*
X153934Y145787D01*
X153918Y145882D01*
X153902Y145946D01*
X153891Y146037D01*
X153883Y146116D01*
X153875Y146212D01*
X153871Y146907D01*
X153879Y146931D01*
X153887Y147074D01*
X153895Y147098D01*
X153902Y147161D01*
X153911Y147185D01*
X153926Y147249D01*
X153942Y147384D01*
X153954Y147459D01*
X153962Y147499D01*
X153978Y147539D01*
X154002Y147602D01*
X154010Y147634D01*
X154018Y147674D01*
X154026Y147721D01*
X154034Y147753D01*
X154050Y147793D01*
X154077Y147845D01*
X154093Y147900D01*
X154113Y147984D01*
X154145Y148031D01*
X154157Y148043D01*
X154173Y148107D01*
X154185Y148150D01*
X154197Y148178D01*
X154236Y148234D01*
X154244Y148266D01*
X154284Y148337D01*
X154300Y148353D01*
X154308Y148369D01*
X154332Y148425D01*
X154363Y148480D01*
X154387Y148504D01*
X154435Y148591D01*
X154467Y148623D01*
X154483Y148663D01*
X154514Y148719D01*
X154546Y148750D01*
X154578Y148806D01*
X154606Y148826D01*
X154618Y148838D01*
X154626Y148854D01*
X154661Y148897D01*
X154697Y148933D01*
X154729Y148989D01*
X154777Y149036D01*
X154785Y149052D01*
X154800Y149068D01*
X154808Y149084D01*
X154828Y149104D01*
X154844Y149112D01*
X154880Y149148D01*
X154888Y149163D01*
X154900Y149175D01*
X154916Y149183D01*
X154951Y149219D01*
X154959Y149235D01*
X154979Y149255D01*
X154995Y149263D01*
X155075Y149342D01*
X155090Y149350D01*
X155154Y149414D01*
X155170Y149422D01*
X155221Y149458D01*
X155229Y149473D01*
X155289Y149509D01*
X155305Y149517D01*
X155321Y149533D01*
X155333Y149537D01*
X155337Y149549D01*
X155353Y149557D01*
X155408Y149581D01*
X155448Y149597D01*
X155504Y149636D01*
X155559Y149652D01*
X155591Y149660D01*
X155663Y149700D01*
X155718Y149724D01*
X155798Y149732D01*
X155853Y149740D01*
X155885Y149748D01*
X155945Y149759D01*
X155976Y149767D01*
X156040Y149775D01*
X156127Y149783D01*
X156282Y149787D01*
X156306Y149779D01*
X156362Y149771D01*
X156394Y149763D01*
X156449Y149756D01*
X156481Y149748D01*
X156604Y149736D01*
X156700Y149728D01*
X156775Y149716D01*
X156878Y149668D01*
X156942Y149652D01*
X157009Y149640D01*
X157073Y149601D01*
X157125Y149581D01*
X157188Y149557D01*
X157260Y149509D01*
X157291Y149501D01*
X157343Y149481D01*
X157363Y149461D01*
X157379Y149453D01*
X157395Y149438D01*
X157438Y149426D01*
X157478Y149410D01*
X157506Y149390D01*
X157522Y149374D01*
X157538Y149366D01*
X157593Y149342D01*
X157633Y149319D01*
X157657Y149295D01*
X157673Y149287D01*
X157760Y149239D01*
X157792Y149207D01*
X157879Y149160D01*
X157911Y149128D01*
X157983Y149088D01*
X157999Y149064D01*
X158015Y149056D01*
X158070Y149016D01*
X158110Y148977D01*
X158126Y148969D01*
X158169Y148933D01*
X158205Y148897D01*
X158221Y148889D01*
X158237Y148873D01*
X158253Y148866D01*
X158300Y148818D01*
X158316Y148810D01*
X158360Y148774D01*
X158372Y148754D01*
X158388Y148746D01*
X158404Y148731D01*
X158420Y148723D01*
X158483Y148659D01*
X158499Y148651D01*
X158571Y148580D01*
X158587Y148572D01*
X158606Y148544D01*
X158650Y148500D01*
X158666Y148492D01*
X158686Y148464D01*
X158722Y148428D01*
X158738Y148421D01*
X158749Y148409D01*
X158757Y148393D01*
X158908Y148242D01*
X158916Y148226D01*
X158936Y148206D01*
X158952Y148198D01*
X158980Y148170D01*
X158988Y148154D01*
X159051Y148091D01*
X159059Y148075D01*
X159123Y148011D01*
X159131Y147995D01*
X159147Y147980D01*
X159151Y147968D01*
X159167Y147960D01*
X159186Y147940D01*
X159194Y147924D01*
X159210Y147908D01*
X159218Y147892D01*
X159254Y147848D01*
X159282Y147821D01*
X159306Y147781D01*
X159361Y147725D01*
X159385Y147686D01*
X159405Y147666D01*
X159421Y147658D01*
X159453Y147610D01*
X159504Y147558D01*
X159524Y147507D01*
X159540Y147467D01*
X159552Y147455D01*
X159576Y147400D01*
X159584Y147320D01*
X159576Y147193D01*
X159536Y147129D01*
X159520Y147090D01*
X159488Y147034D01*
X159437Y146982D01*
X159421Y146975D01*
X159377Y146939D01*
X159326Y146911D01*
X159274Y146899D01*
X159071Y146895D01*
X159047Y146903D01*
X158956Y146915D01*
X158908Y146955D01*
X158897Y146967D01*
X158881Y146975D01*
X158837Y147010D01*
X158749Y147098D01*
X158741Y147114D01*
X158678Y147177D01*
X158670Y147193D01*
X158606Y147257D01*
X158598Y147272D01*
X158543Y147328D01*
X158535Y147344D01*
X158519Y147360D01*
X158511Y147376D01*
X158475Y147419D01*
X158440Y147455D01*
X158432Y147471D01*
X158360Y147543D01*
X158352Y147558D01*
X158281Y147630D01*
X158273Y147646D01*
X158253Y147666D01*
X158237Y147674D01*
X158225Y147686D01*
X158217Y147702D01*
X158189Y147737D01*
X158173Y147745D01*
X158146Y147773D01*
X158138Y147789D01*
X158110Y147817D01*
X158094Y147825D01*
X158058Y147860D01*
X158050Y147876D01*
X158038Y147888D01*
X158022Y147896D01*
X157951Y147968D01*
X157935Y147976D01*
X157899Y148011D01*
X157891Y148027D01*
X157863Y148047D01*
X157820Y148083D01*
X157812Y148099D01*
X157800Y148111D01*
X157784Y148119D01*
X157740Y148154D01*
X157713Y148182D01*
X157697Y148190D01*
X157681Y148206D01*
X157665Y148214D01*
X157649Y148230D01*
X157637Y148234D01*
X157629Y148250D01*
X157617Y148262D01*
X157601Y148270D01*
X157585Y148285D01*
X157570Y148293D01*
X157514Y148349D01*
X157474Y148373D01*
X157427Y148421D01*
X157355Y148460D01*
X157323Y148492D01*
X157252Y148532D01*
X157220Y148564D01*
X157204Y148572D01*
X157132Y148611D01*
X157117Y148627D01*
X157101Y148635D01*
X157085Y148651D01*
X157009Y148679D01*
X156997Y148691D01*
X156982Y148699D01*
X156966Y148715D01*
X156926Y148731D01*
X156874Y148742D01*
X156834Y148758D01*
X156807Y148778D01*
X156735Y148810D01*
X156684Y148822D01*
X156616Y148850D01*
X156560Y148866D01*
X156505Y148873D01*
X156473Y148881D01*
X156394Y148889D01*
X156338Y148897D01*
X156187Y148905D01*
X156048Y148893D01*
X155976Y148885D01*
X155937Y148878D01*
X155873Y148838D01*
X155822Y148818D01*
X155750Y148778D01*
X155524Y148552D01*
X155516Y148536D01*
X155488Y148516D01*
X155444Y148472D01*
X155436Y148456D01*
X155420Y148448D01*
X155412Y148433D01*
X155396Y148417D01*
X155388Y148401D01*
X155361Y148365D01*
X155345Y148357D01*
X155333Y148345D01*
X155325Y148329D01*
X155289Y148285D01*
X155245Y148242D01*
X155214Y148186D01*
X155182Y148154D01*
X155166Y148115D01*
X155134Y148059D01*
X155110Y148043D01*
X155102Y148027D01*
X155055Y147940D01*
X155023Y147892D01*
X155011Y147841D01*
X154995Y147801D01*
X154983Y147789D01*
X154975Y147773D01*
X154959Y147757D01*
X154943Y147717D01*
X154924Y147626D01*
X154908Y147586D01*
X154888Y147550D01*
X154872Y147511D01*
X154836Y147348D01*
X154828Y147316D01*
X154808Y147265D01*
X154796Y147221D01*
X154785Y147114D01*
X154777Y147010D01*
X154769Y146978D01*
X154757Y146895D01*
X154745Y146788D01*
X154737Y146684D01*
X154729Y146510D01*
X154737Y146478D01*
X154745Y146271D01*
X154753Y146247D01*
X154765Y146156D01*
X154773Y146084D01*
X154788Y145910D01*
X154796Y145846D01*
X154804Y145799D01*
X154812Y145759D01*
X154824Y145715D01*
X154848Y145636D01*
X154864Y145524D01*
X154876Y145457D01*
X154900Y145393D01*
X154916Y145353D01*
X154928Y145310D01*
X154936Y145278D01*
X154947Y145203D01*
X154955Y145171D01*
X154999Y145071D01*
X155007Y145040D01*
X155027Y144948D01*
X155043Y144908D01*
X155078Y144849D01*
X155106Y144726D01*
X155150Y144642D01*
X155166Y144587D01*
X155178Y144535D01*
X155206Y144491D01*
X155237Y144420D01*
X155245Y144388D01*
X155265Y144336D01*
X155301Y144285D01*
X155317Y144229D01*
X155337Y144177D01*
X155368Y144130D01*
X155380Y144118D01*
X155392Y144074D01*
X155416Y144011D01*
X155444Y143983D01*
X155452Y143967D01*
X155476Y143911D01*
X155484Y143880D01*
X155519Y143836D01*
X155531Y143824D01*
X155563Y143737D01*
X155583Y143717D01*
X155647Y143701D01*
X163386D01*
X165833Y143709D01*
X165853Y143729D01*
X165861Y143760D01*
X165845Y143856D01*
X165825Y143939D01*
X165781Y144030D01*
X165773Y144062D01*
X165762Y144114D01*
X165746Y144154D01*
X165726Y144182D01*
X165694Y144253D01*
X165682Y144305D01*
X165662Y144333D01*
X165646Y144348D01*
X165638Y144364D01*
X165615Y144420D01*
X165575Y144491D01*
X165559Y144507D01*
X165503Y144611D01*
X165472Y144642D01*
X165464Y144674D01*
X165424Y144730D01*
X165408Y144746D01*
X165400Y144762D01*
X165360Y144833D01*
X165321Y144873D01*
X165281Y144944D01*
X165249Y144976D01*
X165209Y145048D01*
X165170Y145087D01*
X165138Y145143D01*
X165090Y145191D01*
X165050Y145262D01*
X165019Y145294D01*
X165011Y145310D01*
X164971Y145365D01*
X164939Y145397D01*
X164931Y145413D01*
X164895Y145457D01*
X164868Y145485D01*
X164860Y145501D01*
X164820Y145556D01*
X164804Y145572D01*
X164796Y145588D01*
X164780Y145604D01*
X164749Y145659D01*
X164737Y145671D01*
X164721Y145679D01*
X164673Y145751D01*
X164657Y145759D01*
X164637Y145779D01*
X164629Y145794D01*
X164594Y145838D01*
X164558Y145874D01*
X164550Y145890D01*
X164514Y145934D01*
X164478Y145969D01*
X164454Y146009D01*
X164415Y146049D01*
X164407Y146065D01*
X164351Y146136D01*
X164320Y146168D01*
X164296Y146208D01*
X164284Y146220D01*
X164268Y146228D01*
X164256Y146239D01*
X164248Y146255D01*
X164212Y146299D01*
X164176Y146335D01*
X164169Y146351D01*
X164105Y146414D01*
X164097Y146430D01*
X164061Y146474D01*
X164025Y146510D01*
X164017Y146526D01*
X164002Y146541D01*
X163994Y146557D01*
X163930Y146621D01*
X163922Y146637D01*
X163867Y146692D01*
X163859Y146708D01*
X163843Y146724D01*
X163835Y146740D01*
X163795Y146772D01*
X163787Y146788D01*
X163751Y146831D01*
X163735Y146839D01*
X163724Y146851D01*
X163716Y146867D01*
X163680Y146911D01*
X163644Y146947D01*
X163636Y146962D01*
X163612Y146986D01*
X163608Y146998D01*
X163592Y147006D01*
X163581Y147018D01*
X163573Y147034D01*
X163557Y147050D01*
X163549Y147066D01*
X163493Y147122D01*
X163485Y147137D01*
X163469Y147153D01*
X163461Y147169D01*
X163398Y147233D01*
X163390Y147249D01*
X163326Y147312D01*
X163318Y147328D01*
X163275Y147372D01*
X163263Y147376D01*
X163255Y147392D01*
X163239Y147407D01*
X163231Y147423D01*
X163203Y147443D01*
X163175Y147471D01*
X163167Y147487D01*
X163096Y147558D01*
X163088Y147574D01*
X163068Y147594D01*
X163052Y147602D01*
X163032Y147622D01*
X163024Y147638D01*
X162961Y147702D01*
X162953Y147717D01*
X162937Y147733D01*
X162929Y147749D01*
X162901Y147769D01*
X162889Y147781D01*
X162881Y147797D01*
X162865Y147813D01*
X162857Y147829D01*
X162802Y147884D01*
X162794Y147900D01*
X162778Y147916D01*
X162770Y147932D01*
X162714Y147987D01*
X162706Y148003D01*
X162643Y148067D01*
X162635Y148083D01*
X162607Y148119D01*
X162591Y148127D01*
X162571Y148146D01*
X162563Y148162D01*
X162484Y148242D01*
X162476Y148258D01*
X162456Y148278D01*
X162440Y148285D01*
X162420Y148305D01*
X162413Y148321D01*
X162333Y148401D01*
X162325Y148417D01*
X162305Y148436D01*
X162289Y148444D01*
X162269Y148464D01*
X162261Y148480D01*
X162226Y148516D01*
X162210Y148524D01*
X162198Y148536D01*
X162190Y148552D01*
X162103Y148639D01*
X162099Y148651D01*
X162083Y148659D01*
X162039Y148703D01*
X162031Y148719D01*
X161960Y148790D01*
X161952Y148806D01*
X161852Y148905D01*
X161836Y148913D01*
X161817Y148933D01*
X161809Y148949D01*
X161773Y148985D01*
X161757Y148993D01*
X161737Y149013D01*
X161729Y149028D01*
X161709Y149048D01*
X161693Y149056D01*
X161658Y149092D01*
X161650Y149108D01*
X161622Y149136D01*
X161606Y149144D01*
X161594Y149156D01*
X161586Y149171D01*
X161507Y149251D01*
X161491Y149291D01*
X161483Y149322D01*
X161491Y149426D01*
X161499Y149481D01*
X161507Y149704D01*
X161515Y149728D01*
X161527Y149867D01*
X161550Y150057D01*
X161558Y150145D01*
X161570Y150379D01*
X161590Y150788D01*
X161598Y150892D01*
X161606Y150963D01*
X161614Y151059D01*
X161634Y151412D01*
X161642Y151492D01*
X161654Y152107D01*
X161658Y153454D01*
X161650Y153478D01*
X161642Y153963D01*
X161634Y153987D01*
X161626Y154122D01*
X161618Y154146D01*
X161610Y154241D01*
X161602Y154265D01*
X161590Y154356D01*
X161582Y154428D01*
X161574Y154539D01*
X161566Y154618D01*
X161550Y154722D01*
X161542Y154753D01*
X161523Y154821D01*
X161507Y154885D01*
X161487Y155000D01*
X161463Y155063D01*
X161451Y155075D01*
X161427Y155155D01*
X161419Y155186D01*
X161407Y155230D01*
X161380Y155274D01*
X161364Y155290D01*
X161356Y155306D01*
X161320Y155357D01*
X161256Y155373D01*
X161034Y155365D01*
X161010Y155357D01*
X160978Y155349D01*
X160923Y155333D01*
X160891Y155325D01*
X160835Y155310D01*
X160780Y155302D01*
X160748Y155294D01*
X160704Y155282D01*
X160652Y155262D01*
X160581Y155230D01*
X160517Y155214D01*
X160462Y155182D01*
X160422Y155159D01*
X160359Y155143D01*
X160287Y155103D01*
X160271Y155087D01*
X160160Y155047D01*
X160104Y155008D01*
X160029Y154980D01*
X159985Y154952D01*
X159969Y154936D01*
X159890Y154904D01*
X159874Y154896D01*
X159830Y154861D01*
X159786Y154841D01*
X159755Y154833D01*
X159659Y154769D01*
X159596Y154745D01*
X159552Y154710D01*
X159508Y154690D01*
X159453Y154658D01*
X159429Y154634D01*
X159413Y154626D01*
X159326Y154579D01*
X159294Y154547D01*
X159242Y154527D01*
X159214Y154507D01*
X159183Y154475D01*
X159167Y154467D01*
X159095Y154428D01*
X159071Y154404D01*
X159055Y154396D01*
X158984Y154356D01*
X158952Y154324D01*
X158849Y154269D01*
X158825Y154245D01*
X158738Y154197D01*
X158714Y154173D01*
X158626Y154126D01*
X158587Y154086D01*
X158515Y154046D01*
X158483Y154014D01*
X158467Y154007D01*
X158412Y153975D01*
X158380Y153943D01*
X158364Y153935D01*
X158308Y153903D01*
X158261Y153856D01*
X158205Y153824D01*
X158173Y153792D01*
X158158Y153784D01*
X158102Y153752D01*
X158054Y153705D01*
X158038Y153697D01*
X157995Y153661D01*
X157967Y153633D01*
X157911Y153601D01*
X157868Y153566D01*
X157856Y153554D01*
X157784Y153514D01*
X157764Y153494D01*
X157760Y153482D01*
X157744Y153474D01*
X157697Y153458D01*
X157673Y153466D01*
X157629Y153478D01*
X157601Y153498D01*
X157585Y153514D01*
X157570Y153522D01*
X157530Y153538D01*
X157478Y153558D01*
X157427Y153609D01*
X157371Y153625D01*
X157331Y153649D01*
X157275Y153689D01*
X157232Y153701D01*
X157184Y153732D01*
X157164Y153752D01*
X157065Y153788D01*
X157037Y153808D01*
X156990Y153840D01*
X156914Y153867D01*
X156886Y153895D01*
X156870Y153903D01*
X156831Y153919D01*
X156799Y153927D01*
X156727Y153967D01*
X156656Y153998D01*
X156604Y154010D01*
X156505Y154062D01*
X156449Y154078D01*
X156405Y154090D01*
X156358Y154122D01*
X156290Y154149D01*
X156258Y154157D01*
X156187Y154197D01*
X156131Y154221D01*
X156099Y154229D01*
X156048Y154249D01*
X156000Y154281D01*
X155949Y154300D01*
X155905Y154312D01*
X155865Y154328D01*
X155845Y154348D01*
X155829Y154356D01*
X155774Y154380D01*
X155742Y154388D01*
X155690Y154408D01*
X155631Y154444D01*
X155599Y154451D01*
X155516Y154471D01*
X155476Y154487D01*
X155440Y154507D01*
X155400Y154523D01*
X155368Y154531D01*
X155285Y154551D01*
X155194Y154595D01*
X155138Y154610D01*
X155087Y154622D01*
X155023Y154662D01*
X154971Y154682D01*
X154912Y154694D01*
X154848Y154718D01*
X154836Y154729D01*
X154785Y154749D01*
X154753Y154757D01*
X154673Y154773D01*
X154633Y154789D01*
X154534Y154833D01*
X154467Y154845D01*
X154435Y154853D01*
X154395Y154869D01*
X154343Y154896D01*
X154288Y154912D01*
X154220Y154924D01*
X154189Y154932D01*
X154089Y154976D01*
X154058Y154984D01*
X154002Y154992D01*
X153938Y155008D01*
X153835Y155055D01*
X153740Y155071D01*
X153664Y155099D01*
X153621Y155119D01*
X153565Y155135D01*
X153533Y155143D01*
X153450Y155155D01*
X153418Y155163D01*
X153338Y155194D01*
X153295Y155206D01*
X153263Y155214D01*
X153148Y155234D01*
X153116Y155242D01*
X153076Y155258D01*
X153024Y155278D01*
X152993Y155286D01*
X152882Y155302D01*
X152818Y155317D01*
X152691Y155357D01*
X152659Y155365D01*
X152560Y155377D01*
X152512Y155385D01*
X152480Y155393D01*
X152437Y155405D01*
X152397Y155421D01*
X152333Y155437D01*
X152222Y155453D01*
X152155Y155464D01*
X152123Y155473D01*
X152055Y155492D01*
X151992Y155508D01*
X151912Y155516D01*
X151880Y155524D01*
X151741Y155536D01*
X151662Y155552D01*
X151567Y155576D01*
X151527Y155584D01*
X151479Y155592D01*
X151408Y155600D01*
X151312Y155607D01*
X151161Y155631D01*
X151121Y155639D01*
X151090Y155647D01*
X151042Y155655D01*
X150935Y155667D01*
X150903Y155675D01*
X150732Y155687D01*
X150669Y155695D01*
X150581Y155711D01*
X150533Y155719D01*
X150502Y155727D01*
X150454Y155735D01*
X150383Y155743D01*
X149997Y155763D01*
X149838Y155778D01*
X149783Y155786D01*
X149592Y155810D01*
X149513Y155818D01*
X148813Y155826D01*
X148376Y155834D01*
X147788Y155826D01*
X147764Y155818D01*
X147542Y155810D01*
X147518Y155802D01*
X147379Y155790D01*
X147292Y155782D01*
X147244Y155774D01*
X147176Y155770D01*
X147105Y155810D01*
X147085Y155846D01*
X147053Y155902D01*
X147029Y155925D01*
X147021Y155941D01*
X146974Y156029D01*
X146942Y156061D01*
X146910Y156116D01*
X146871Y156156D01*
X146863Y156172D01*
X146831Y156227D01*
X146783Y156275D01*
X146775Y156291D01*
X146739Y156335D01*
X146557Y156517D01*
X146541Y156525D01*
X146477Y156589D01*
X146461Y156597D01*
X146445Y156613D01*
X146430Y156621D01*
X146374Y156676D01*
X146358Y156684D01*
X146294Y156748D01*
X146279Y156756D01*
X146235Y156791D01*
X146207Y156819D01*
X146167Y156843D01*
X146128Y156883D01*
X146056Y156923D01*
X146024Y156954D01*
X146008Y156962D01*
X145937Y157002D01*
X145897Y157042D01*
X145845Y157062D01*
X145818Y157081D01*
X145794Y157105D01*
X145778Y157113D01*
X145691Y157161D01*
X145667Y157185D01*
X145595Y157217D01*
X145516Y157264D01*
X145460Y157280D01*
X145408Y157292D01*
X145381Y157304D01*
X145325Y157344D01*
X145273Y157356D01*
X145210Y157379D01*
X145150Y157415D01*
X145087Y157431D01*
X145003Y157443D01*
X144940Y157459D01*
X144912Y157463D01*
D02*
G37*
%LPD*%
G36*
X142973Y148667D02*
X143053Y148659D01*
X143108Y148651D01*
X143160Y148639D01*
X143200Y148623D01*
X143315Y148564D01*
X143362Y148516D01*
X143418Y148484D01*
X143494Y148409D01*
X143525Y148353D01*
X143557Y148321D01*
X143565Y148305D01*
X143597Y148250D01*
X143621Y148210D01*
X143637Y148154D01*
X143644Y148123D01*
X143664Y147960D01*
X143668Y147884D01*
X143660Y147860D01*
X143644Y147749D01*
X143629Y147646D01*
X143573Y147566D01*
X143549Y147527D01*
X143517Y147495D01*
X143509Y147479D01*
X143470Y147407D01*
X143442Y147380D01*
X143426Y147372D01*
X143370Y147340D01*
X143323Y147292D01*
X143271Y147272D01*
X143259Y147260D01*
X143247Y147257D01*
X143239Y147241D01*
X143203Y147221D01*
X143172Y147213D01*
X143005Y147197D01*
X142965Y147181D01*
X142933Y147173D01*
X142878Y147181D01*
X142854Y147189D01*
X142790Y147205D01*
X142651Y147217D01*
X142608Y147245D01*
X142584Y147268D01*
X142496Y147316D01*
X142492Y147320D01*
X142465Y147348D01*
X142449Y147356D01*
X142373Y147407D01*
X142365Y147423D01*
X142325Y147495D01*
X142286Y147535D01*
X142246Y147606D01*
X142214Y147654D01*
X142206Y147733D01*
X142198Y147765D01*
X142191Y147853D01*
X142183Y147876D01*
X142191Y148043D01*
X142198Y148067D01*
X142206Y148154D01*
X142214Y148178D01*
X142234Y148230D01*
X142246Y148242D01*
X142254Y148258D01*
X142286Y148313D01*
X142322Y148357D01*
X142341Y148377D01*
X142373Y148433D01*
X142433Y148492D01*
X142504Y148532D01*
X142516Y148544D01*
X142524Y148560D01*
X142584Y148595D01*
X142623Y148611D01*
X142695Y148643D01*
X142890Y148671D01*
X142949Y148675D01*
X142973Y148667D01*
D02*
G37*
G36*
X144944Y148039D02*
X144999Y148000D01*
X145015Y147984D01*
X145031Y147976D01*
X145075Y147940D01*
X145091Y147924D01*
X145103Y147880D01*
X145118Y147841D01*
X145130Y147813D01*
X145170Y147725D01*
X145182Y147674D01*
X145214Y147626D01*
X145234Y147606D01*
X145273Y147535D01*
X145293Y147515D01*
X145309Y147507D01*
X145321Y147495D01*
X145329Y147479D01*
X145349Y147451D01*
X145365Y147443D01*
X145420Y147404D01*
X145436Y147388D01*
X145468Y147380D01*
X145738Y147388D01*
X145842Y147435D01*
X145885Y147447D01*
X145933Y147479D01*
X145961Y147507D01*
X145993Y147515D01*
X146048Y147555D01*
X146080Y147586D01*
X146096Y147594D01*
X146120Y147618D01*
X146135Y147626D01*
X146203Y147709D01*
X146247Y147753D01*
X146263Y147761D01*
X146302Y147801D01*
X146318Y147809D01*
X146358Y147825D01*
X146414Y147833D01*
X146533Y147825D01*
X146557Y147817D01*
X146596Y147793D01*
X146644Y147745D01*
X146660Y147737D01*
X146696Y147702D01*
X146728Y147646D01*
X146763Y147602D01*
X146779Y147562D01*
X146799Y147535D01*
X146819Y147515D01*
X146835Y147507D01*
X146867Y147459D01*
X146890Y147435D01*
X146906Y147427D01*
X146918Y147415D01*
X146926Y147400D01*
X147006Y147320D01*
X147014Y147304D01*
X147033Y147284D01*
X147049Y147276D01*
X147113Y147213D01*
X147145Y147205D01*
X147216Y147173D01*
X147335Y147181D01*
X147407Y147213D01*
X147447Y147237D01*
X147494Y147284D01*
X147510Y147292D01*
X147538Y147320D01*
X147562Y147360D01*
X147574Y147372D01*
X147590Y147380D01*
X147609Y147407D01*
X147645Y147451D01*
X147693Y147499D01*
X147697Y147503D01*
X147717Y147523D01*
X147733Y147531D01*
X147836Y147578D01*
X147963Y147570D01*
X148019Y147531D01*
X148074Y147499D01*
X148142Y147431D01*
X148166Y147352D01*
X148182Y147296D01*
X148174Y147225D01*
X148158Y147185D01*
X148138Y147102D01*
X148126Y147090D01*
X148122Y147078D01*
X148106Y147070D01*
X148094Y147058D01*
X148086Y147042D01*
X148047Y146986D01*
X148015Y146955D01*
X148007Y146939D01*
X147991Y146923D01*
X147983Y146907D01*
X147963Y146887D01*
X147947Y146879D01*
X147927Y146859D01*
X147919Y146843D01*
X147892Y146824D01*
X147848Y146788D01*
X147820Y146760D01*
X147748Y146720D01*
X147733Y146704D01*
X147717Y146696D01*
X147661Y146672D01*
X147629Y146665D01*
X147542Y146609D01*
X147459Y146589D01*
X147391Y146569D01*
X147335Y146561D01*
X147240Y146569D01*
X147200Y146585D01*
X147101Y146597D01*
X147029Y146605D01*
X146982Y146613D01*
X146918Y146653D01*
X146851Y146680D01*
X146795Y146712D01*
X146763Y146744D01*
X146731Y146752D01*
X146688Y146788D01*
X146660Y146816D01*
X146604Y146847D01*
X146561Y146883D01*
X146533Y146911D01*
X146517Y146919D01*
X146481Y146955D01*
X146473Y146970D01*
X146457Y146986D01*
X146449Y147002D01*
X146430Y147022D01*
X146414Y147030D01*
X146390Y147038D01*
X146342Y147030D01*
X146302Y146990D01*
X146251Y146970D01*
X146167Y146911D01*
X146116Y146899D01*
X146088Y146887D01*
X146032Y146847D01*
X145969Y146831D01*
X145806Y146812D01*
X145710Y146788D01*
X145671Y146780D01*
X145623Y146772D01*
X145500Y146768D01*
X145476Y146776D01*
X145408Y146788D01*
X145365Y146800D01*
X145309Y146816D01*
X145277Y146824D01*
X145210Y146835D01*
X145170Y146851D01*
X145142Y146871D01*
X145126Y146887D01*
X145075Y146907D01*
X145047Y146919D01*
X145027Y146931D01*
X145019Y146947D01*
X145007Y146959D01*
X144991Y146967D01*
X144948Y147002D01*
X144932Y147018D01*
X144924Y147034D01*
X144912Y147046D01*
X144896Y147054D01*
X144797Y147153D01*
X144789Y147169D01*
X144753Y147213D01*
X144733Y147233D01*
X144709Y147288D01*
X144677Y147344D01*
X144662Y147360D01*
X144646Y147400D01*
X144618Y147475D01*
X144598Y147503D01*
X144566Y147574D01*
X144554Y147650D01*
X144546Y147697D01*
X144542Y147797D01*
X144550Y147821D01*
X144558Y147853D01*
X144570Y147896D01*
X144598Y147940D01*
X144618Y147960D01*
X144634Y147968D01*
X144705Y148023D01*
X144761Y148047D01*
X144944Y148039D01*
D02*
G37*
G36*
X152715Y147841D02*
X152810Y147825D01*
X152893Y147813D01*
X152933Y147805D01*
X152973Y147789D01*
X152985Y147777D01*
X153072Y147729D01*
X153120Y147682D01*
X153136Y147674D01*
X153191Y147634D01*
X153251Y147574D01*
X153291Y147503D01*
X153319Y147475D01*
X153323Y147471D01*
X153378Y147384D01*
X153394Y147344D01*
X153402Y147312D01*
X153410Y147257D01*
X153418Y147177D01*
X153426Y147145D01*
X153430Y147062D01*
X153422Y146998D01*
X153410Y146891D01*
X153398Y146800D01*
X153370Y146756D01*
X153354Y146740D01*
X153338Y146700D01*
X153315Y146661D01*
X153279Y146617D01*
X153267Y146605D01*
X153247Y146553D01*
X153223Y146529D01*
X153207Y146522D01*
X153164Y146486D01*
X153136Y146458D01*
X153064Y146418D01*
X153040Y146394D01*
X153024Y146387D01*
X152905Y146331D01*
X152874Y146323D01*
X152798Y146311D01*
X152750Y146303D01*
X152679Y146295D01*
X152619Y146291D01*
X152595Y146299D01*
X152532Y146307D01*
X152508Y146315D01*
X152417Y146335D01*
X152377Y146351D01*
X152290Y146390D01*
X152254Y146426D01*
X152238Y146434D01*
X152166Y146474D01*
X152051Y146589D01*
X152004Y146677D01*
X151972Y146708D01*
X151916Y146827D01*
X151908Y146883D01*
X151896Y146959D01*
X151888Y146998D01*
X151884Y147137D01*
X151892Y147161D01*
X151904Y147253D01*
X151912Y147292D01*
X151928Y147332D01*
X151964Y147415D01*
X151972Y147431D01*
X152007Y147475D01*
X152067Y147574D01*
X152115Y147622D01*
X152123Y147638D01*
X152143Y147658D01*
X152194Y147678D01*
X152206Y147690D01*
X152222Y147697D01*
X152262Y147737D01*
X152313Y147757D01*
X152341Y147777D01*
X152365Y147801D01*
X152405Y147817D01*
X152540Y147825D01*
X152564Y147833D01*
X152639Y147845D01*
X152691Y147848D01*
X152715Y147841D01*
D02*
G37*
%LPC*%
G36*
X354573Y156558D02*
X354546Y156544D01*
X354526Y156524D01*
X354485Y156429D01*
X354472Y156361D01*
X354445Y156294D01*
X354411Y156206D01*
X354397Y156097D01*
X354363Y156023D01*
X354336Y155928D01*
X354323Y155874D01*
X354282Y155779D01*
X354268Y155711D01*
X354241Y155644D01*
X354228Y155589D01*
X354187Y155495D01*
X354174Y155440D01*
X354147Y155373D01*
X354133Y155305D01*
X354106Y155237D01*
X354092Y155183D01*
X354065Y155115D01*
X354025Y155021D01*
X354011Y154939D01*
X353970Y154844D01*
X353950Y154756D01*
X353923Y154689D01*
X353889Y154601D01*
X353869Y154526D01*
X353842Y154458D01*
X353815Y154350D01*
X353781Y154262D01*
X353767Y154208D01*
X353740Y154181D01*
X353727Y154086D01*
X353699Y154018D01*
X353679Y153944D01*
X353659Y153923D01*
X353645Y153829D01*
X353605Y153734D01*
X353578Y153666D01*
X353551Y153558D01*
X353523Y153490D01*
X353496Y153395D01*
X353456Y153300D01*
X353442Y153246D01*
X353381Y153077D01*
X353368Y153009D01*
X353341Y152942D01*
X353300Y152833D01*
X353280Y152759D01*
X353266Y152718D01*
X353239Y152650D01*
X353225Y152583D01*
X353198Y152515D01*
X353185Y152461D01*
X353158Y152393D01*
X353144Y152339D01*
X353117Y152271D01*
X353103Y152217D01*
X353097Y152210D01*
X353077Y152163D01*
X353110Y152129D01*
X353192Y152115D01*
X353232Y152129D01*
X356016Y152136D01*
X356029Y152190D01*
X355975Y152312D01*
X355961Y152434D01*
X355948Y152474D01*
X355907Y152569D01*
X355894Y152650D01*
X355867Y152677D01*
X355846Y152765D01*
X355826Y152826D01*
X355792Y152914D01*
X355765Y153023D01*
X355731Y153097D01*
X355718Y153165D01*
X355691Y153233D01*
X355657Y153321D01*
X355643Y153388D01*
X355609Y153463D01*
X355569Y153612D01*
X355528Y153707D01*
X355508Y153781D01*
X355460Y153937D01*
X355447Y153991D01*
X355406Y154086D01*
X355379Y154154D01*
X355352Y154262D01*
X355325Y154330D01*
X355305Y154404D01*
X355284Y154425D01*
X355264Y154526D01*
X355244Y154546D01*
X355223Y154635D01*
X355189Y154723D01*
X355176Y154790D01*
X355149Y154858D01*
X355135Y154912D01*
X355081Y155048D01*
X355067Y155102D01*
X355000Y155319D01*
X354986Y155373D01*
X354946Y155468D01*
X354905Y155603D01*
X354891Y155630D01*
X354864Y155698D01*
X354851Y155765D01*
X354824Y155833D01*
X354810Y155887D01*
X354783Y155955D01*
X354770Y156009D01*
X354743Y156077D01*
X354722Y156152D01*
X354702Y156212D01*
X354668Y156301D01*
X354627Y156409D01*
X354607Y156483D01*
X354593Y156538D01*
X354573Y156558D01*
D02*
G37*
G36*
X345959Y157357D02*
X344943D01*
X343385Y157343D01*
X343365Y157283D01*
X343378Y154425D01*
X343399Y154404D01*
X345864Y154418D01*
X345932Y154445D01*
X346094Y154458D01*
X346162Y154486D01*
X346270Y154499D01*
X346338Y154526D01*
X346392Y154540D01*
X346419Y154553D01*
X346650Y154675D01*
X346690Y154716D01*
X346785Y154770D01*
X346866Y154851D01*
X346893Y154865D01*
X346927Y154899D01*
X346941Y154926D01*
X347008Y154993D01*
X347022Y155021D01*
X347110Y155149D01*
X347144Y155224D01*
X347157Y155251D01*
X347239Y155427D01*
X347252Y155522D01*
X347266Y155562D01*
X347279Y155793D01*
X347320Y155860D01*
X347306Y155969D01*
X347266Y156063D01*
X347252Y156294D01*
X347225Y156361D01*
X347164Y156531D01*
X347096Y156639D01*
X347076Y156659D01*
X347049Y156727D01*
X346995Y156781D01*
X346941Y156876D01*
X346826Y156991D01*
X346798Y157005D01*
X346704Y157073D01*
X346677Y157086D01*
X346500Y157181D01*
X346324Y157262D01*
X346270Y157276D01*
X346175Y157316D01*
X346026Y157330D01*
X345959Y157357D01*
D02*
G37*
G36*
X346081Y152955D02*
X343385Y152942D01*
X343365Y152881D01*
X343378Y149901D01*
X343399Y149880D01*
X344103D01*
X346189Y149894D01*
X346257Y149921D01*
X346365Y149934D01*
X346433Y149962D01*
X346528Y150002D01*
X346595Y150016D01*
X346798Y150124D01*
X346839Y150165D01*
X346934Y150219D01*
X346968Y150266D01*
X347029Y150327D01*
X347056Y150341D01*
X347103Y150388D01*
X347117Y150415D01*
X347239Y150592D01*
X347347Y150822D01*
X347361Y150876D01*
X347388Y150944D01*
X347408Y151032D01*
X347442Y151106D01*
X347428Y151770D01*
X347401Y151838D01*
X347388Y151892D01*
X347361Y151960D01*
X347347Y152014D01*
X347184Y152325D01*
X347157Y152352D01*
X347144Y152379D01*
X347083Y152454D01*
X346920Y152616D01*
X346853Y152657D01*
X346826Y152684D01*
X346433Y152874D01*
X346358Y152894D01*
X346297Y152914D01*
X346148Y152928D01*
X346081Y152955D01*
D02*
G37*
G36*
X354912Y144110D02*
X354878Y144104D01*
X354864Y144049D01*
X354824Y143955D01*
X354803Y143880D01*
X354770Y143792D01*
X354756Y143738D01*
X354729Y143670D01*
X354715Y143616D01*
X354688Y143548D01*
X354675Y143480D01*
X354648Y143413D01*
X354607Y143318D01*
X354593Y143237D01*
X354553Y143142D01*
X354533Y143067D01*
X354505Y143000D01*
X354485Y142939D01*
X354472Y142885D01*
X354424Y142756D01*
X354397Y142648D01*
X354363Y142573D01*
X354350Y142519D01*
X354323Y142451D01*
X354309Y142397D01*
X354282Y142329D01*
X354268Y142261D01*
X354241Y142194D01*
X354228Y142139D01*
X354187Y142045D01*
X354174Y141990D01*
X354147Y141923D01*
X354133Y141855D01*
X354106Y141787D01*
X354092Y141733D01*
X354065Y141665D01*
X354025Y141571D01*
X354011Y141489D01*
X353984Y141422D01*
X353957Y141327D01*
X353923Y141239D01*
X353903Y141178D01*
X353876Y141110D01*
X353855Y141036D01*
X353821Y140948D01*
X353808Y140880D01*
X353781Y140812D01*
X353767Y140758D01*
X353740Y140690D01*
X353706Y140602D01*
X353693Y140534D01*
X353672Y140487D01*
X353659Y140446D01*
X353645Y140392D01*
X353618Y140324D01*
X353578Y140230D01*
X353564Y140175D01*
X353544Y140101D01*
X353510Y140013D01*
X353490Y139925D01*
X353469Y139877D01*
X353442Y139810D01*
X353415Y139701D01*
X353449Y139668D01*
X356239D01*
X356361Y139681D01*
X356368Y139756D01*
X356354Y139796D01*
X356314Y139891D01*
X356300Y139972D01*
X356259Y140067D01*
X356232Y140135D01*
X356219Y140203D01*
X356192Y140270D01*
X356178Y140324D01*
X356151Y140392D01*
X356138Y140446D01*
X356111Y140514D01*
X356083Y140609D01*
X356049Y140697D01*
X356029Y140771D01*
X356016Y140826D01*
X355989Y140853D01*
X355975Y140934D01*
X355948Y141002D01*
X355934Y141056D01*
X355907Y141124D01*
X355887Y141198D01*
X355867Y141218D01*
X355840Y141340D01*
X355813Y141408D01*
X355799Y141462D01*
X355772Y141530D01*
X355758Y141584D01*
X355731Y141652D01*
X355718Y141706D01*
X355691Y141774D01*
X355657Y141862D01*
X355643Y141970D01*
X355609Y142058D01*
X355596Y142112D01*
X355569Y142180D01*
X355555Y142234D01*
X355528Y142302D01*
X355508Y142377D01*
X355487Y142438D01*
X355454Y142525D01*
X355440Y142580D01*
X355393Y142695D01*
X355379Y142763D01*
X355352Y142830D01*
X355325Y142925D01*
X355291Y143013D01*
X355244Y143169D01*
X355217Y143237D01*
X355203Y143277D01*
X355183Y143352D01*
X355162Y143413D01*
X355129Y143501D01*
X355108Y143562D01*
X355095Y143616D01*
X355067Y143684D01*
X355054Y143738D01*
X355027Y143806D01*
X355013Y143873D01*
X354986Y143941D01*
X354946Y144036D01*
X354932Y144090D01*
X354912Y144110D01*
D02*
G37*
G36*
X345972Y144950D02*
X343399Y144937D01*
X343365Y144903D01*
X343378Y141801D01*
X343453Y141781D01*
X343480Y141794D01*
X343521Y141781D01*
X343554Y141787D01*
X345756Y141781D01*
X345796Y141794D01*
X345837Y141781D01*
X345925Y141814D01*
X346142Y141828D01*
X346257Y141862D01*
X346324D01*
X346331Y141869D01*
X346392Y141902D01*
X346446Y141916D01*
X346704Y142038D01*
X346731Y142051D01*
X346826Y142106D01*
X346907Y142187D01*
X347002Y142241D01*
X347090Y142329D01*
X347103Y142356D01*
X347171Y142451D01*
X347198Y142478D01*
X347212Y142505D01*
X347239Y142532D01*
X347266Y142600D01*
X347401Y142885D01*
X347415Y142952D01*
X347442Y142979D01*
X347455Y143101D01*
X347482Y143169D01*
X347469Y143738D01*
X347442Y143765D01*
X347428Y143927D01*
X347401Y143995D01*
X347381Y144070D01*
X347334Y144158D01*
X347279Y144253D01*
X347252Y144280D01*
X347239Y144307D01*
X347151Y144435D01*
X347076Y144496D01*
X347022Y144551D01*
X347008Y144578D01*
X346988Y144598D01*
X346961Y144611D01*
X346934Y144639D01*
X346812Y144706D01*
X346785Y144733D01*
X346636Y144801D01*
X346548Y144835D01*
X346473Y144855D01*
X346379Y144869D01*
X346284Y144909D01*
X346067Y144923D01*
X346026Y144937D01*
X345972Y144950D01*
D02*
G37*
G36*
X379468Y132624D02*
X379225D01*
X378683Y132611D01*
X378662Y132550D01*
X378676Y131683D01*
X378696Y131663D01*
X378750Y131649D01*
X379387Y131663D01*
X379482Y131703D01*
X379577Y131717D01*
X379672Y131771D01*
X379712Y131812D01*
X379739Y131825D01*
X379787Y131873D01*
X379800Y131900D01*
X379827Y131927D01*
X379854Y131994D01*
X379882Y132089D01*
X379868Y132306D01*
X379787Y132455D01*
X379739Y132502D01*
X379712Y132516D01*
X379685Y132543D01*
X379617Y132570D01*
X379543Y132590D01*
X379523Y132611D01*
X379468Y132624D01*
D02*
G37*
G36*
X376218Y132570D02*
X375920Y132557D01*
X375852Y132529D01*
X375798Y132516D01*
X375703Y132462D01*
X375656Y132414D01*
X375642Y132387D01*
X375622Y132367D01*
X375595Y132353D01*
X375574Y132333D01*
X375480Y132130D01*
X375466Y132035D01*
X375473Y131893D01*
X375459Y131839D01*
X375425Y131751D01*
X375439Y131100D01*
X375480Y131006D01*
X375466Y130952D01*
X375480Y130803D01*
X375507Y130735D01*
X375561Y130640D01*
X375588Y130613D01*
X375615Y130545D01*
X375635Y130511D01*
X375723Y130477D01*
X375784Y130417D01*
X375920Y130362D01*
X375987Y130349D01*
X376028Y130335D01*
X376062Y130329D01*
X376170Y130342D01*
X376245Y130376D01*
X376299Y130389D01*
X376475Y130484D01*
X376529Y130538D01*
X376556Y130552D01*
X376617Y130654D01*
X376671Y130775D01*
X376685Y130830D01*
X376698Y130952D01*
X376705Y130958D01*
X376719Y131906D01*
X376726Y131913D01*
X376712Y131954D01*
X376685Y132049D01*
X376665Y132150D01*
X376644Y132211D01*
X376617Y132279D01*
X376407Y132489D01*
X376340Y132516D01*
X376312Y132529D01*
X376218Y132570D01*
D02*
G37*
G36*
X368931D02*
X368199Y132557D01*
X368179Y132536D01*
X368172Y130403D01*
X368192Y130356D01*
X368213Y130335D01*
X368274Y130329D01*
X368856Y130342D01*
X368931Y130362D01*
X368998Y130389D01*
X369174Y130484D01*
X369256Y130566D01*
X369276Y130572D01*
X369371Y130775D01*
X369384Y130830D01*
X369425Y130924D01*
Y131507D01*
Y131520D01*
X369411Y131981D01*
X369371Y132076D01*
X369357Y132171D01*
X369262Y132347D01*
X369229Y132380D01*
X369201Y132394D01*
X369168Y132428D01*
X369154Y132455D01*
X369120Y132489D01*
X369046Y132509D01*
X369025Y132529D01*
X368931Y132570D01*
D02*
G37*
G36*
X362998Y132624D02*
X362226Y132611D01*
X362206Y132590D01*
X362219Y131669D01*
X362294Y131649D01*
X362930Y131663D01*
X363025Y131703D01*
X363160Y131717D01*
X363174Y131730D01*
X363188D01*
X363310Y131825D01*
X363377Y131906D01*
X363398Y131927D01*
X363411Y131981D01*
X363438Y132049D01*
X363452Y132103D01*
X363438Y132279D01*
X363411Y132306D01*
X363391Y132394D01*
X363357Y132441D01*
X363296Y132502D01*
X363269Y132516D01*
X363147Y132570D01*
X363059Y132604D01*
X362998Y132624D01*
D02*
G37*
%LPD*%
D10*
X57087Y248425D02*
X56251Y248079D01*
X55905Y247244D01*
Y223622D02*
X56251Y222787D01*
X57087Y222441D01*
Y248425D02*
X75787D01*
X55905Y239291D02*
Y247205D01*
X81890Y239291D02*
Y242323D01*
X75787Y248425D02*
X81890Y242323D01*
X75787Y222441D02*
X81890Y228543D01*
Y231575D01*
X55905Y223661D02*
Y231575D01*
X57087Y222441D02*
X75787D01*
X136614Y177559D02*
Y183071D01*
X142913Y177559D02*
Y178315D01*
X130315Y177559D02*
X142913D01*
X130315D02*
Y178315D01*
Y182315D02*
Y183071D01*
X142913D01*
Y182315D02*
Y183071D01*
X304331Y117717D02*
Y118898D01*
Y117717D02*
X315354D01*
Y118898D01*
Y122047D02*
Y123228D01*
X304331D02*
X315354D01*
X304331Y122047D02*
Y123228D01*
X309842Y117717D02*
Y123228D01*
X296457Y145768D02*
X301969D01*
X300787Y151279D02*
X301969D01*
Y140256D02*
Y151279D01*
X300787Y140256D02*
X301969D01*
X296457D02*
X297638D01*
X296457D02*
Y151279D01*
X297638D01*
X296457Y162894D02*
X301969D01*
X296457Y157382D02*
X297638D01*
X296457D02*
Y168405D01*
X297638D01*
X300787D02*
X301969D01*
Y157382D02*
Y168405D01*
X300787Y157382D02*
X301969D01*
X299803Y108760D02*
X300559D01*
X299803Y96161D02*
Y108760D01*
Y96161D02*
X300559D01*
X304559D02*
X305315D01*
Y108760D01*
X304559D02*
X305315D01*
X299803Y102461D02*
X305315D01*
X306102Y108760D02*
X306858D01*
X306102Y96161D02*
Y108760D01*
Y96161D02*
X306858D01*
X310858D02*
X311614D01*
Y108760D01*
X310858D02*
X311614D01*
X306102Y102461D02*
X311614D01*
X265354Y107087D02*
Y112598D01*
X271654Y107087D02*
Y107843D01*
X259055Y107087D02*
X271654D01*
X259055D02*
Y107843D01*
Y111843D02*
Y112598D01*
X271654D01*
Y111843D02*
Y112598D01*
X110630Y46850D02*
Y52362D01*
X116929Y46850D02*
Y47606D01*
X104331Y46850D02*
X116929D01*
X104331D02*
Y47606D01*
Y51606D02*
Y52362D01*
X116929D01*
Y51606D02*
Y52362D01*
X142913Y194913D02*
Y195669D01*
X130315D02*
X142913D01*
X130315Y194913D02*
Y195669D01*
Y190157D02*
Y190913D01*
Y190157D02*
X142913D01*
Y190913D01*
X136614Y190157D02*
Y195669D01*
X130315Y183858D02*
Y184614D01*
Y183858D02*
X142913D01*
Y184614D01*
Y188614D02*
Y189370D01*
X130315D02*
X142913D01*
X130315Y188614D02*
Y189370D01*
X136614Y183858D02*
Y189370D01*
X96850Y46850D02*
Y52362D01*
X103150Y46850D02*
Y47606D01*
X90551Y46850D02*
X103150D01*
X90551D02*
Y47606D01*
Y51606D02*
Y52362D01*
X103150D01*
Y51606D02*
Y52362D01*
X161449Y129134D02*
X162205D01*
Y141732D01*
X161449D02*
X162205D01*
X156693D02*
X157449D01*
X156693Y129134D02*
Y141732D01*
Y129134D02*
X157449D01*
X156693Y135433D02*
X162205D01*
X147276Y129134D02*
X148031D01*
Y141732D01*
X147276D02*
X148031D01*
X142520D02*
X143276D01*
X142520Y129134D02*
Y141732D01*
Y129134D02*
X143276D01*
X142520Y135433D02*
X148031D01*
X133102Y129134D02*
X133858D01*
Y141732D01*
X133102D02*
X133858D01*
X128347D02*
X129102D01*
X128347Y129134D02*
Y141732D01*
Y129134D02*
X129102D01*
X128347Y135433D02*
X133858D01*
X294094Y206496D02*
X299606D01*
X294094Y200197D02*
X294850D01*
X294094D02*
Y212795D01*
X294850D01*
X298850D02*
X299606D01*
Y200197D02*
Y212795D01*
X298850Y200197D02*
X299606D01*
X287795Y206496D02*
X293307D01*
X287795Y200197D02*
X288551D01*
X287795D02*
Y212795D01*
X288551D01*
X292551D02*
X293307D01*
Y200197D02*
Y212795D01*
X292551Y200197D02*
X293307D01*
X305150D02*
X305906D01*
Y212795D01*
X305150D02*
X305906D01*
X300394D02*
X301150D01*
X300394Y200197D02*
Y212795D01*
Y200197D02*
X301150D01*
X300394Y206496D02*
X305906D01*
X262598Y219488D02*
X263354D01*
X262598Y206890D02*
Y219488D01*
Y206890D02*
X263354D01*
X267354D02*
X268110D01*
Y219488D01*
X267354D02*
X268110D01*
X262598Y213189D02*
X268110D01*
X317748Y200197D02*
X318504D01*
Y212795D01*
X317748D02*
X318504D01*
X312992D02*
X313748D01*
X312992Y200197D02*
Y212795D01*
Y200197D02*
X313748D01*
X312992Y206496D02*
X318504D01*
X256299Y213189D02*
X261811D01*
X261055Y219488D02*
X261811D01*
Y206890D02*
Y219488D01*
X261055Y206890D02*
X261811D01*
X256299D02*
X257055D01*
X256299D02*
Y219488D01*
X257055D01*
X306693Y212795D02*
X307449D01*
X306693Y200197D02*
Y212795D01*
Y200197D02*
X307449D01*
X311449D02*
X312205D01*
Y212795D01*
X311449D02*
X312205D01*
X306693Y206496D02*
X312205D01*
X250000Y213189D02*
X255512D01*
X254756Y219488D02*
X255512D01*
Y206890D02*
Y219488D01*
X254756Y206890D02*
X255512D01*
X250000D02*
X250756D01*
X250000D02*
Y219488D01*
X250756D01*
X324047Y200197D02*
X324803D01*
Y212795D01*
X324047D02*
X324803D01*
X319291D02*
X320047D01*
X319291Y200197D02*
Y212795D01*
Y200197D02*
X320047D01*
X319291Y206496D02*
X324803D01*
X243701Y213189D02*
X249213D01*
X248457Y219488D02*
X249213D01*
Y206890D02*
Y219488D01*
X248457Y206890D02*
X249213D01*
X243701D02*
X244457D01*
X243701D02*
Y219488D01*
X244457D01*
X368504Y217323D02*
Y222835D01*
X362205Y222079D02*
Y222835D01*
X374803D01*
Y222079D02*
Y222835D01*
Y217323D02*
Y218079D01*
X362205Y217323D02*
X374803D01*
X362205D02*
Y218079D01*
X400394Y211842D02*
Y212598D01*
X387795D02*
X400394D01*
X387795Y211842D02*
Y212598D01*
Y207087D02*
Y207842D01*
Y207087D02*
X400394D01*
Y207842D01*
X394094Y207087D02*
Y212598D01*
X387795Y194488D02*
Y195244D01*
Y194488D02*
X400394D01*
Y195244D01*
Y199244D02*
Y200000D01*
X387795D02*
X400394D01*
X387795Y199244D02*
Y200000D01*
X394094Y194488D02*
Y200000D01*
X387795Y200787D02*
Y201543D01*
Y200787D02*
X400394D01*
Y201543D01*
Y205543D02*
Y206299D01*
X387795D02*
X400394D01*
X387795Y205543D02*
Y206299D01*
X394094Y200787D02*
Y206299D01*
X231102Y213189D02*
X236614D01*
X231102Y206890D02*
X231858D01*
X231102D02*
Y219488D01*
X231858D01*
X235858D02*
X236614D01*
Y206890D02*
Y219488D01*
X235858Y206890D02*
X236614D01*
X51575Y100394D02*
Y105905D01*
X57874Y100394D02*
Y101150D01*
X45276Y100394D02*
X57874D01*
X45276D02*
Y101150D01*
Y105150D02*
Y105905D01*
X57874D01*
Y105150D02*
Y105905D01*
X242158Y206890D02*
X242913D01*
Y219488D01*
X242158D02*
X242913D01*
X237402D02*
X238158D01*
X237402Y206890D02*
Y219488D01*
Y206890D02*
X238158D01*
X237402Y213189D02*
X242913D01*
X131921Y233858D02*
X132677D01*
Y246457D01*
X131921D02*
X132677D01*
X127165D02*
X127921D01*
X127165Y233858D02*
Y246457D01*
Y233858D02*
X127921D01*
X127165Y240158D02*
X132677D01*
X224803Y219488D02*
X225559D01*
X224803Y206890D02*
Y219488D01*
Y206890D02*
X225559D01*
X229559D02*
X230315D01*
Y219488D01*
X229559D02*
X230315D01*
X224803Y213189D02*
X230315D01*
X218504Y219488D02*
X219260D01*
X218504Y206890D02*
Y219488D01*
Y206890D02*
X219260D01*
X223260D02*
X224016D01*
Y219488D01*
X223260D02*
X224016D01*
X218504Y213189D02*
X224016D01*
X139764Y246457D02*
X140520D01*
X139764Y233858D02*
Y246457D01*
Y233858D02*
X140520D01*
X144520D02*
X145276D01*
Y246457D01*
X144520D02*
X145276D01*
X139764Y240158D02*
X145276D01*
X210661Y206890D02*
X211417D01*
Y219488D01*
X210661D02*
X211417D01*
X205906D02*
X206661D01*
X205906Y206890D02*
Y219488D01*
Y206890D02*
X206661D01*
X205906Y213189D02*
X211417D01*
X133465Y246457D02*
X134221D01*
X133465Y233858D02*
Y246457D01*
Y233858D02*
X134221D01*
X138221D02*
X138976D01*
Y246457D01*
X138221D02*
X138976D01*
X133465Y240158D02*
X138976D01*
X198063Y206890D02*
X198819D01*
Y219488D01*
X198063D02*
X198819D01*
X193307D02*
X194063D01*
X193307Y206890D02*
Y219488D01*
Y206890D02*
X194063D01*
X193307Y213189D02*
X198819D01*
X204362Y206890D02*
X205118D01*
Y219488D01*
X204362D02*
X205118D01*
X199606D02*
X200362D01*
X199606Y206890D02*
Y219488D01*
Y206890D02*
X200362D01*
X199606Y213189D02*
X205118D01*
X120866Y240158D02*
X126378D01*
X125622Y246457D02*
X126378D01*
Y233858D02*
Y246457D01*
X125622Y233858D02*
X126378D01*
X120866D02*
X121622D01*
X120866D02*
Y246457D01*
X121622D01*
X191764Y206890D02*
X192520D01*
Y219488D01*
X191764D02*
X192520D01*
X187008D02*
X187764D01*
X187008Y206890D02*
Y219488D01*
Y206890D02*
X187764D01*
X187008Y213189D02*
X192520D01*
X95669Y240158D02*
X101181D01*
X100425Y246457D02*
X101181D01*
Y233858D02*
Y246457D01*
X100425Y233858D02*
X101181D01*
X95669D02*
X96425D01*
X95669D02*
Y246457D01*
X96425D01*
X101969Y240158D02*
X107480D01*
X106724Y246457D02*
X107480D01*
Y233858D02*
Y246457D01*
X106724Y233858D02*
X107480D01*
X101969D02*
X102724D01*
X101969D02*
Y246457D01*
X102724D01*
X113024Y233858D02*
X113779D01*
Y246457D01*
X113024D02*
X113779D01*
X108268D02*
X109024D01*
X108268Y233858D02*
Y246457D01*
Y233858D02*
X109024D01*
X108268Y240158D02*
X113779D01*
X212205Y219488D02*
X212961D01*
X212205Y206890D02*
Y219488D01*
Y206890D02*
X212961D01*
X216961D02*
X217717D01*
Y219488D01*
X216961D02*
X217717D01*
X212205Y213189D02*
X217717D01*
X114567Y240158D02*
X120079D01*
X114567Y233858D02*
X115323D01*
X114567D02*
Y246457D01*
X115323D01*
X119323D02*
X120079D01*
Y233858D02*
Y246457D01*
X119323Y233858D02*
X120079D01*
X268898Y219488D02*
X269654D01*
X268898Y206890D02*
Y219488D01*
Y206890D02*
X269654D01*
X273654D02*
X274410D01*
Y219488D01*
X273654D02*
X274410D01*
X268898Y213189D02*
X274410D01*
X275197Y219488D02*
X275953D01*
X275197Y206890D02*
Y219488D01*
Y206890D02*
X275953D01*
X279953D02*
X280709D01*
Y219488D01*
X279953D02*
X280709D01*
X275197Y213189D02*
X280709D01*
X342520Y206693D02*
X348031D01*
X346850Y212205D02*
X348031D01*
Y201181D02*
Y212205D01*
X346850Y201181D02*
X348031D01*
X342520D02*
X343701D01*
X342520D02*
Y212205D01*
X343701D01*
X349032Y206693D02*
X354544D01*
X353363Y212205D02*
X354544D01*
Y201181D02*
Y212205D01*
X353363Y201181D02*
X354544D01*
X349032D02*
X350214D01*
X349032D02*
Y212205D01*
X350214D01*
X399606Y192520D02*
Y193701D01*
X388583D02*
X399606D01*
X388583Y192520D02*
Y193701D01*
Y188189D02*
Y189370D01*
Y188189D02*
X399606D01*
Y189370D01*
X394094Y188189D02*
Y193701D01*
X362992Y58406D02*
X368504D01*
X367323Y63917D02*
X368504D01*
Y52894D02*
Y63917D01*
X367323Y52894D02*
X368504D01*
X362992D02*
X364173D01*
X362992D02*
Y63917D01*
X364173D01*
X362992Y73090D02*
X368504D01*
X362992Y67579D02*
X364173D01*
X362992D02*
Y78602D01*
X364173D01*
X367323D02*
X368504D01*
Y67579D02*
Y78602D01*
X367323Y67579D02*
X368504D01*
X74410Y216535D02*
Y217717D01*
X63386D02*
X74410D01*
X63386Y216535D02*
Y217717D01*
Y212205D02*
Y213386D01*
Y212205D02*
X74410D01*
Y213386D01*
X68898Y212205D02*
Y217717D01*
X188976Y135433D02*
X194488D01*
X193307Y140945D02*
X194488D01*
Y129921D02*
Y140945D01*
X193307Y129921D02*
X194488D01*
X188976D02*
X190157D01*
X188976D02*
Y140945D01*
X190157D01*
X182677Y135433D02*
X188189D01*
X187008Y140945D02*
X188189D01*
Y129921D02*
Y140945D01*
X187008Y129921D02*
X188189D01*
X182677D02*
X183858D01*
X182677D02*
Y140945D01*
X183858D01*
X193307Y165650D02*
X194488D01*
Y176673D01*
X193307D02*
X194488D01*
X188976D02*
X190157D01*
X188976Y165650D02*
Y176673D01*
Y165650D02*
X190157D01*
X188976Y171161D02*
X194488D01*
X187008Y165650D02*
X188189D01*
Y176673D01*
X187008D02*
X188189D01*
X182677D02*
X183858D01*
X182677Y165650D02*
Y176673D01*
Y165650D02*
X183858D01*
X182677Y171161D02*
X188189D01*
X180709Y165650D02*
X181890D01*
Y176673D01*
X180709D02*
X181890D01*
X176378D02*
X177559D01*
X176378Y165650D02*
Y176673D01*
Y165650D02*
X177559D01*
X176378Y171161D02*
X181890D01*
X174409Y165650D02*
X175591D01*
Y176673D01*
X174409D02*
X175591D01*
X170079D02*
X171260D01*
X170079Y165650D02*
Y176673D01*
Y165650D02*
X171260D01*
X170079Y171161D02*
X175591D01*
D11*
X118602Y62992D02*
X117864Y63418D01*
Y62566D01*
X118602Y62992D01*
X104823D02*
X104085Y63418D01*
Y62566D01*
X104823Y62992D01*
D12*
X169685Y141142D02*
D03*
X155512D02*
D03*
X141339D02*
D03*
D13*
X88346Y114921D02*
X87559D01*
X88346D01*
X37402Y277559D02*
X37402Y37402D01*
X427165D01*
X427165Y277559D02*
X427165Y37402D01*
X37402Y277559D02*
X427165D01*
X307480Y83169D02*
X309842D01*
X303150Y143898D02*
X304331D01*
X303150Y164764D02*
X304331D01*
X315354Y143898D02*
X316535D01*
X315354Y164764D02*
X316535D01*
X303150Y143898D02*
Y164764D01*
X316535Y143898D02*
Y164764D01*
X301575Y83169D02*
X303937D01*
X116378Y56496D02*
Y59705D01*
X113779Y56496D02*
X116378D01*
X104882D02*
Y59705D01*
Y56496D02*
X107480D01*
X102598D02*
Y59705D01*
X100000Y56496D02*
X102598D01*
X91102D02*
Y59705D01*
Y56496D02*
X93701D01*
X65158Y107283D02*
Y107677D01*
X67913Y107283D02*
Y107677D01*
X57480Y109055D02*
Y111417D01*
D14*
X367304Y216293D02*
X367655Y215444D01*
X368504Y215093D01*
X369353Y215444D01*
X369704Y216293D01*
D15*
X360004Y217693D02*
X359254Y218126D01*
Y217260D01*
X360004Y217693D01*
X202783Y126980D02*
X202033Y127413D01*
Y126547D01*
X202783Y126980D01*
X109417Y70255D02*
X112277D01*
X110847D01*
Y65965D01*
X116567D02*
X113707D01*
X116567Y68825D01*
Y69540D01*
X115852Y70255D01*
X114422D01*
X113707Y69540D01*
X259634Y100611D02*
Y104901D01*
X261779D01*
X262494Y104186D01*
Y102756D01*
X261779Y102041D01*
X259634D01*
X261064D02*
X262494Y100611D01*
X263924Y104186D02*
X264639Y104901D01*
X266069D01*
X266784Y104186D01*
Y103471D01*
X266069Y102756D01*
X265354D01*
X266069D01*
X266784Y102041D01*
Y101326D01*
X266069Y100611D01*
X264639D01*
X263924Y101326D01*
X268214Y104186D02*
X268929Y104901D01*
X270359D01*
X271074Y104186D01*
Y101326D01*
X270359Y100611D01*
X268929D01*
X268214Y101326D01*
Y104186D01*
X104910Y40375D02*
Y44665D01*
X107055D01*
X107770Y43950D01*
Y42520D01*
X107055Y41805D01*
X104910D01*
X106340D02*
X107770Y40375D01*
X112060D02*
X109200D01*
X112060Y43235D01*
Y43950D01*
X111345Y44665D01*
X109915D01*
X109200Y43950D01*
X113490D02*
X114205Y44665D01*
X115635D01*
X116350Y43950D01*
Y43235D01*
X115635Y42520D01*
X116350Y41805D01*
Y41090D01*
X115635Y40375D01*
X114205D01*
X113490Y41090D01*
Y41805D01*
X114205Y42520D01*
X113490Y43235D01*
Y43950D01*
X114205Y42520D02*
X115635D01*
X83360Y61200D02*
X86221D01*
X84790D01*
Y56910D01*
X87651D02*
X89080D01*
X88365D01*
Y61200D01*
X87651Y60485D01*
X91131Y40375D02*
Y44665D01*
X93275D01*
X93990Y43950D01*
Y42520D01*
X93275Y41805D01*
X91131D01*
X92560D02*
X93990Y40375D01*
X98280D02*
X95420D01*
X98280Y43235D01*
Y43950D01*
X97565Y44665D01*
X96135D01*
X95420Y43950D01*
X99710Y41090D02*
X100425Y40375D01*
X101855D01*
X102570Y41090D01*
Y43950D01*
X101855Y44665D01*
X100425D01*
X99710Y43950D01*
Y43235D01*
X100425Y42520D01*
X102570D01*
X61856Y256724D02*
X60856Y257723D01*
X58856D01*
X57857Y256724D01*
Y252725D01*
X58856Y251725D01*
X60856D01*
X61856Y252725D01*
X63855Y251725D02*
X65854D01*
X64855D01*
Y257723D01*
X63855Y256724D01*
X68853D02*
X69853Y257723D01*
X71852D01*
X72852Y256724D01*
Y252725D01*
X71852Y251725D01*
X69853D01*
X68853Y252725D01*
Y256724D01*
X161594Y110422D02*
X157304D01*
Y112567D01*
X158019Y113282D01*
X159449D01*
X160164Y112567D01*
Y110422D01*
Y111852D02*
X161594Y113282D01*
Y117572D02*
Y114712D01*
X158734Y117572D01*
X158019D01*
X157304Y116857D01*
Y115427D01*
X158019Y114712D01*
X161594Y121862D02*
Y119002D01*
X158734Y121862D01*
X158019D01*
X157304Y121147D01*
Y119717D01*
X158019Y119002D01*
X147421Y110422D02*
X143131D01*
Y112567D01*
X143846Y113282D01*
X145276D01*
X145991Y112567D01*
Y110422D01*
Y111852D02*
X147421Y113282D01*
Y117572D02*
Y114712D01*
X144561Y117572D01*
X143846D01*
X143131Y116857D01*
Y115427D01*
X143846Y114712D01*
Y119002D02*
X143131Y119717D01*
Y121147D01*
X143846Y121862D01*
X146706D01*
X147421Y121147D01*
Y119717D01*
X146706Y119002D01*
X143846D01*
X133247Y110598D02*
X128957D01*
Y112743D01*
X129672Y113458D01*
X131102D01*
X131817Y112743D01*
Y110598D01*
Y112028D02*
X133247Y113458D01*
Y117033D02*
X128957D01*
X131102Y114888D01*
Y117748D01*
X164391Y110205D02*
X168680D01*
Y112350D01*
X167965Y113065D01*
X165105D01*
X164391Y112350D01*
Y110205D01*
X165105Y114495D02*
X164391Y115209D01*
Y116639D01*
X165105Y117355D01*
X165820D01*
X166535Y116639D01*
Y115925D01*
Y116639D01*
X167250Y117355D01*
X167965D01*
X168680Y116639D01*
Y115209D01*
X167965Y114495D01*
X150217Y110401D02*
X154507D01*
Y112546D01*
X153792Y113261D01*
X150932D01*
X150217Y112546D01*
Y110401D01*
X154507Y117551D02*
Y114691D01*
X151647Y117551D01*
X150932D01*
X150217Y116836D01*
Y115406D01*
X150932Y114691D01*
X136044Y110329D02*
X140334D01*
Y112474D01*
X139619Y113189D01*
X136759D01*
X136044Y112474D01*
Y110329D01*
X140334Y114619D02*
Y116049D01*
Y115334D01*
X136044D01*
X136759Y114619D01*
X275492Y91220D02*
Y86930D01*
Y89075D01*
X278352D01*
Y91220D01*
Y86930D01*
X281927D02*
X280497D01*
X279782Y87645D01*
Y89075D01*
X280497Y89790D01*
X281927D01*
X282642Y89075D01*
Y88360D01*
X279782D01*
X284787Y89790D02*
X286217D01*
X286932Y89075D01*
Y86930D01*
X284787D01*
X284072Y87645D01*
X284787Y88360D01*
X286932D01*
X288362Y89790D02*
Y86930D01*
Y88360D01*
X289077Y89075D01*
X289792Y89790D01*
X290507D01*
X293367Y90505D02*
Y89790D01*
X292652D01*
X294082D01*
X293367D01*
Y87645D01*
X294082Y86930D01*
X296227D02*
X297657D01*
X296942D01*
Y91220D01*
X296227Y90505D01*
X316781Y91220D02*
X313921D01*
Y89075D01*
X315351D01*
X313921D01*
Y86930D01*
X318926D02*
X320356D01*
X321071Y87645D01*
Y89075D01*
X320356Y89790D01*
X318926D01*
X318211Y89075D01*
Y87645D01*
X318926Y86930D01*
X322501Y89790D02*
Y87645D01*
X323216Y86930D01*
X325361D01*
Y89790D01*
X326791Y86930D02*
X328221D01*
X327506D01*
Y91220D01*
X326791D01*
X331081Y90505D02*
Y89790D01*
X330366D01*
X331796D01*
X331081D01*
Y87645D01*
X331796Y86930D01*
X333941D02*
X335371D01*
X334656D01*
Y91220D01*
X333941Y90505D01*
X290716Y100316D02*
Y104606D01*
X292861D01*
X293576Y103891D01*
Y102461D01*
X292861Y101746D01*
X290716D01*
X292146D02*
X293576Y100316D01*
X295006Y104606D02*
X297866D01*
Y103891D01*
X295006Y101031D01*
Y100316D01*
X111603Y190768D02*
Y195058D01*
X113748D01*
X114463Y194343D01*
Y192913D01*
X113748Y192198D01*
X111603D01*
X113033D02*
X114463Y190768D01*
X118753D02*
X115893D01*
X118753Y193628D01*
Y194343D01*
X118038Y195058D01*
X116608D01*
X115893Y194343D01*
X122328Y190768D02*
Y195058D01*
X120183Y192913D01*
X123043D01*
X56357Y205361D02*
X54358D01*
X55358D01*
Y200363D01*
X54358Y199363D01*
X53358D01*
X52359Y200363D01*
X58357Y205361D02*
X62355D01*
X60356D01*
Y199363D01*
X64355D02*
Y203362D01*
X66354Y205361D01*
X68353Y203362D01*
Y199363D01*
Y202362D01*
X64355D01*
X74351Y204362D02*
X73352Y205361D01*
X71352D01*
X70353Y204362D01*
Y200363D01*
X71352Y199363D01*
X73352D01*
X74351Y200363D01*
Y202362D01*
X72352D01*
X76351Y199363D02*
X78350D01*
X77350D01*
Y205361D01*
X76351Y204362D01*
X73052Y108910D02*
X72337Y109625D01*
X70907D01*
X70192Y108910D01*
Y106050D01*
X70907Y105335D01*
X72337D01*
X73052Y106050D01*
X77342Y105335D02*
X74482D01*
X77342Y108195D01*
Y108910D01*
X76627Y109625D01*
X75197D01*
X74482Y108910D01*
X78772Y105335D02*
X80202D01*
X79487D01*
Y109625D01*
X78772Y108910D01*
X314535Y138365D02*
Y134791D01*
X315250Y134075D01*
X316680D01*
X317395Y134791D01*
Y138365D01*
X320970Y134075D02*
Y138365D01*
X318825Y136221D01*
X321685D01*
X363506Y195125D02*
Y190127D01*
X364505Y189127D01*
X366505D01*
X367504Y190127D01*
Y195125D01*
X369504Y194125D02*
X370503Y195125D01*
X372503D01*
X373502Y194125D01*
Y193126D01*
X372503Y192126D01*
X371503D01*
X372503D01*
X373502Y191126D01*
Y190127D01*
X372503Y189127D01*
X370503D01*
X369504Y190127D01*
X369805Y97487D02*
Y92489D01*
X370804Y91489D01*
X372804D01*
X373803Y92489D01*
Y97487D01*
X379802Y91489D02*
X375803D01*
X379802Y95488D01*
Y96487D01*
X378802Y97487D01*
X376802D01*
X375803Y96487D01*
X194820Y190007D02*
Y185009D01*
X195820Y184009D01*
X197819D01*
X198819Y185009D01*
Y190007D01*
X200818Y184009D02*
X202818D01*
X201818D01*
Y190007D01*
X200818Y189007D01*
X298995Y186800D02*
X294705D01*
Y188945D01*
X295420Y189660D01*
X296850D01*
X297565Y188945D01*
Y186800D01*
Y188230D02*
X298995Y189660D01*
X294705Y193950D02*
Y191090D01*
X296850D01*
X296135Y192520D01*
Y193235D01*
X296850Y193950D01*
X298280D01*
X298995Y193235D01*
Y191805D01*
X298280Y191090D01*
X294705Y198240D02*
Y195380D01*
X296850D01*
X296135Y196810D01*
Y197525D01*
X296850Y198240D01*
X298280D01*
X298995Y197525D01*
Y196095D01*
X298280Y195380D01*
X292696Y186800D02*
X288406D01*
Y188945D01*
X289121Y189660D01*
X290551D01*
X291266Y188945D01*
Y186800D01*
Y188230D02*
X292696Y189660D01*
X288406Y193950D02*
Y191090D01*
X290551D01*
X289836Y192520D01*
Y193235D01*
X290551Y193950D01*
X291981D01*
X292696Y193235D01*
Y191805D01*
X291981Y191090D01*
X292696Y197525D02*
X288406D01*
X290551Y195380D01*
Y198240D01*
X324192Y186800D02*
X319902D01*
Y188945D01*
X320617Y189660D01*
X322047D01*
X322762Y188945D01*
Y186800D01*
Y188230D02*
X324192Y189660D01*
X319902Y193950D02*
Y191090D01*
X322047D01*
X321332Y192520D01*
Y193235D01*
X322047Y193950D01*
X323477D01*
X324192Y193235D01*
Y191805D01*
X323477Y191090D01*
X320617Y195380D02*
X319902Y196095D01*
Y197525D01*
X320617Y198240D01*
X321332D01*
X322047Y197525D01*
Y196810D01*
Y197525D01*
X322762Y198240D01*
X323477D01*
X324192Y197525D01*
Y196095D01*
X323477Y195380D01*
X267499Y193493D02*
X263209D01*
Y195638D01*
X263924Y196353D01*
X265354D01*
X266069Y195638D01*
Y193493D01*
Y194923D02*
X267499Y196353D01*
X263209Y200643D02*
Y197783D01*
X265354D01*
X264639Y199213D01*
Y199928D01*
X265354Y200643D01*
X266784D01*
X267499Y199928D01*
Y198498D01*
X266784Y197783D01*
X267499Y204932D02*
Y202073D01*
X264639Y204932D01*
X263924D01*
X263209Y204218D01*
Y202788D01*
X263924Y202073D01*
X317893Y186802D02*
X313603D01*
Y188947D01*
X314318Y189662D01*
X315748D01*
X316463Y188947D01*
Y186802D01*
Y188232D02*
X317893Y189662D01*
X313603Y193952D02*
Y191092D01*
X315748D01*
X315033Y192522D01*
Y193237D01*
X315748Y193952D01*
X317178D01*
X317893Y193237D01*
Y191807D01*
X317178Y191092D01*
X317893Y195382D02*
Y196812D01*
Y196097D01*
X313603D01*
X314318Y195382D01*
X261200Y193493D02*
X256910D01*
Y195638D01*
X257625Y196353D01*
X259055D01*
X259770Y195638D01*
Y193493D01*
Y194923D02*
X261200Y196353D01*
X256910Y200643D02*
Y197783D01*
X259055D01*
X258340Y199213D01*
Y199928D01*
X259055Y200643D01*
X260485D01*
X261200Y199928D01*
Y198498D01*
X260485Y197783D01*
X257625Y202073D02*
X256910Y202788D01*
Y204218D01*
X257625Y204932D01*
X260485D01*
X261200Y204218D01*
Y202788D01*
X260485Y202073D01*
X257625D01*
X305295Y186800D02*
X301005D01*
Y188945D01*
X301720Y189660D01*
X303150D01*
X303865Y188945D01*
Y186800D01*
Y188230D02*
X305295Y189660D01*
Y193235D02*
X301005D01*
X303150Y191090D01*
Y193950D01*
X304580Y195380D02*
X305295Y196095D01*
Y197525D01*
X304580Y198240D01*
X301720D01*
X301005Y197525D01*
Y196095D01*
X301720Y195380D01*
X302435D01*
X303150Y196095D01*
Y198240D01*
X254901Y193493D02*
X250611D01*
Y195638D01*
X251326Y196353D01*
X252756D01*
X253471Y195638D01*
Y193493D01*
Y194923D02*
X254901Y196353D01*
Y199928D02*
X250611D01*
X252756Y197783D01*
Y200643D01*
X251326Y202073D02*
X250611Y202788D01*
Y204218D01*
X251326Y204932D01*
X252041D01*
X252756Y204218D01*
X253471Y204932D01*
X254186D01*
X254901Y204218D01*
Y202788D01*
X254186Y202073D01*
X253471D01*
X252756Y202788D01*
X252041Y202073D01*
X251326D01*
X252756Y202788D02*
Y204218D01*
X311594Y186800D02*
X307304D01*
Y188945D01*
X308019Y189660D01*
X309449D01*
X310164Y188945D01*
Y186800D01*
Y188230D02*
X311594Y189660D01*
Y193235D02*
X307304D01*
X309449Y191090D01*
Y193950D01*
X307304Y195380D02*
Y198240D01*
X308019D01*
X310879Y195380D01*
X311594D01*
X248602Y193493D02*
X244312D01*
Y195638D01*
X245027Y196353D01*
X246457D01*
X247172Y195638D01*
Y193493D01*
Y194923D02*
X248602Y196353D01*
Y199928D02*
X244312D01*
X246457Y197783D01*
Y200643D01*
X244312Y204932D02*
X245027Y203502D01*
X246457Y202073D01*
X247887D01*
X248602Y202788D01*
Y204218D01*
X247887Y204932D01*
X247172D01*
X246457Y204218D01*
Y202073D01*
X111603Y178170D02*
Y182460D01*
X113748D01*
X114463Y181745D01*
Y180315D01*
X113748Y179600D01*
X111603D01*
X113033D02*
X114463Y178170D01*
X118038D02*
Y182460D01*
X115893Y180315D01*
X118753D01*
X123043Y182460D02*
X120183D01*
Y180315D01*
X121613Y181030D01*
X122328D01*
X123043Y180315D01*
Y178885D01*
X122328Y178170D01*
X120898D01*
X120183Y178885D01*
X376957Y217934D02*
Y222224D01*
X379102D01*
X379817Y221509D01*
Y220079D01*
X379102Y219364D01*
X376957D01*
X378387D02*
X379817Y217934D01*
X383392D02*
Y222224D01*
X381247Y220079D01*
X384107D01*
X385537Y221509D02*
X386252Y222224D01*
X387682D01*
X388397Y221509D01*
Y218649D01*
X387682Y217934D01*
X386252D01*
X385537Y218649D01*
Y221509D01*
X402548Y207698D02*
Y211987D01*
X404693D01*
X405408Y211273D01*
Y209842D01*
X404693Y209127D01*
X402548D01*
X403978D02*
X405408Y207698D01*
X406838Y211273D02*
X407553Y211987D01*
X408983D01*
X409698Y211273D01*
Y210558D01*
X408983Y209842D01*
X408268D01*
X408983D01*
X409698Y209127D01*
Y208413D01*
X408983Y207698D01*
X407553D01*
X406838Y208413D01*
X411128Y211987D02*
X413988D01*
Y211273D01*
X411128Y208413D01*
Y207698D01*
X402548Y195099D02*
Y199389D01*
X404693D01*
X405408Y198674D01*
Y197244D01*
X404693Y196529D01*
X402548D01*
X403978D02*
X405408Y195099D01*
X406838Y198674D02*
X407553Y199389D01*
X408983D01*
X409698Y198674D01*
Y197959D01*
X408983Y197244D01*
X408268D01*
X408983D01*
X409698Y196529D01*
Y195814D01*
X408983Y195099D01*
X407553D01*
X406838Y195814D01*
X413988Y199389D02*
X411128D01*
Y197244D01*
X412558Y197959D01*
X413273D01*
X413988Y197244D01*
Y195814D01*
X413273Y195099D01*
X411843D01*
X411128Y195814D01*
X402548Y201398D02*
Y205688D01*
X404693D01*
X405408Y204973D01*
Y203543D01*
X404693Y202828D01*
X402548D01*
X403978D02*
X405408Y201398D01*
X406838Y204973D02*
X407553Y205688D01*
X408983D01*
X409698Y204973D01*
Y204258D01*
X408983Y203543D01*
X408268D01*
X408983D01*
X409698Y202828D01*
Y202113D01*
X408983Y201398D01*
X407553D01*
X406838Y202113D01*
X411128Y204973D02*
X411843Y205688D01*
X413273D01*
X413988Y204973D01*
Y204258D01*
X413273Y203543D01*
X412558D01*
X413273D01*
X413988Y202828D01*
Y202113D01*
X413273Y201398D01*
X411843D01*
X411128Y202113D01*
X236003Y193493D02*
X231713D01*
Y195638D01*
X232428Y196353D01*
X233858D01*
X234573Y195638D01*
Y193493D01*
Y194923D02*
X236003Y196353D01*
Y200643D02*
Y197783D01*
X233143Y200643D01*
X232428D01*
X231713Y199928D01*
Y198498D01*
X232428Y197783D01*
X231713Y202073D02*
Y204932D01*
X232428D01*
X235288Y202073D01*
X236003D01*
X45855Y93524D02*
Y97814D01*
X48000D01*
X48715Y97099D01*
Y95669D01*
X48000Y94954D01*
X45855D01*
X47285D02*
X48715Y93524D01*
X53005D02*
X50145D01*
X53005Y96384D01*
Y97099D01*
X52290Y97814D01*
X50860D01*
X50145Y97099D01*
X57295Y97814D02*
X55865Y97099D01*
X54435Y95669D01*
Y94239D01*
X55150Y93524D01*
X56580D01*
X57295Y94239D01*
Y94954D01*
X56580Y95669D01*
X54435D01*
X242302Y193493D02*
X238013D01*
Y195638D01*
X238727Y196353D01*
X240158D01*
X240873Y195638D01*
Y193493D01*
Y194923D02*
X242302Y196353D01*
Y200643D02*
Y197783D01*
X239442Y200643D01*
X238727D01*
X238013Y199928D01*
Y198498D01*
X238727Y197783D01*
X238013Y204932D02*
Y202073D01*
X240158D01*
X239442Y203502D01*
Y204218D01*
X240158Y204932D01*
X241587D01*
X242302Y204218D01*
Y202788D01*
X241587Y202073D01*
X132066Y220658D02*
X127776D01*
Y222803D01*
X128491Y223518D01*
X129921D01*
X130636Y222803D01*
Y220658D01*
Y222088D02*
X132066Y223518D01*
Y227808D02*
Y224948D01*
X129206Y227808D01*
X128491D01*
X127776Y227093D01*
Y225663D01*
X128491Y224948D01*
Y229238D02*
X127776Y229953D01*
Y231383D01*
X128491Y232098D01*
X129206D01*
X129921Y231383D01*
Y230668D01*
Y231383D01*
X130636Y232098D01*
X131351D01*
X132066Y231383D01*
Y229953D01*
X131351Y229238D01*
X229704Y193420D02*
X225414D01*
Y195565D01*
X226129Y196280D01*
X227559D01*
X228274Y195565D01*
Y193420D01*
Y194850D02*
X229704Y196280D01*
Y200570D02*
Y197710D01*
X226844Y200570D01*
X226129D01*
X225414Y199855D01*
Y198425D01*
X226129Y197710D01*
X229704Y202000D02*
Y203430D01*
Y202715D01*
X225414D01*
X226129Y202000D01*
X223405Y193456D02*
X219115D01*
Y195601D01*
X219830Y196316D01*
X221260D01*
X221975Y195601D01*
Y193456D01*
Y194886D02*
X223405Y196316D01*
Y197746D02*
Y199176D01*
Y198461D01*
X219115D01*
X219830Y197746D01*
X222690Y201321D02*
X223405Y202036D01*
Y203466D01*
X222690Y204181D01*
X219830D01*
X219115Y203466D01*
Y202036D01*
X219830Y201321D01*
X220545D01*
X221260Y202036D01*
Y204181D01*
X111803Y184469D02*
Y188759D01*
X113948D01*
X114663Y188044D01*
Y186614D01*
X113948Y185899D01*
X111803D01*
X113233D02*
X114663Y184469D01*
X116093D02*
X117523D01*
X116808D01*
Y188759D01*
X116093Y188044D01*
X119668D02*
X120383Y188759D01*
X121813D01*
X122528Y188044D01*
Y187329D01*
X121813Y186614D01*
X122528Y185899D01*
Y185184D01*
X121813Y184469D01*
X120383D01*
X119668Y185184D01*
Y185899D01*
X120383Y186614D01*
X119668Y187329D01*
Y188044D01*
X120383Y186614D02*
X121813D01*
X144665Y220661D02*
X140375D01*
Y222806D01*
X141090Y223521D01*
X142520D01*
X143235Y222806D01*
Y220661D01*
Y222091D02*
X144665Y223521D01*
Y224951D02*
Y226381D01*
Y225666D01*
X140375D01*
X141090Y224951D01*
X140375Y228526D02*
Y231386D01*
X141090D01*
X143950Y228526D01*
X144665D01*
X210806Y193456D02*
X206516D01*
Y195601D01*
X207231Y196316D01*
X208661D01*
X209376Y195601D01*
Y193456D01*
Y194886D02*
X210806Y196316D01*
Y197746D02*
Y199176D01*
Y198461D01*
X206516D01*
X207231Y197746D01*
X206516Y204181D02*
X207231Y202751D01*
X208661Y201321D01*
X210091D01*
X210806Y202036D01*
Y203466D01*
X210091Y204181D01*
X209376D01*
X208661Y203466D01*
Y201321D01*
X138365Y220661D02*
X134075D01*
Y222806D01*
X134791Y223521D01*
X136221D01*
X136935Y222806D01*
Y220661D01*
Y222091D02*
X138365Y223521D01*
Y224951D02*
Y226381D01*
Y225666D01*
X134075D01*
X134791Y224951D01*
X134075Y231386D02*
Y228526D01*
X136221D01*
X135505Y229956D01*
Y230671D01*
X136221Y231386D01*
X137651D01*
X138365Y230671D01*
Y229241D01*
X137651Y228526D01*
X198208Y193456D02*
X193918D01*
Y195601D01*
X194633Y196316D01*
X196063D01*
X196778Y195601D01*
Y193456D01*
Y194886D02*
X198208Y196316D01*
Y197746D02*
Y199176D01*
Y198461D01*
X193918D01*
X194633Y197746D01*
X198208Y203466D02*
X193918D01*
X196063Y201321D01*
Y204181D01*
X204507Y193456D02*
X200217D01*
Y195601D01*
X200932Y196316D01*
X202362D01*
X203077Y195601D01*
Y193456D01*
Y194886D02*
X204507Y196316D01*
Y197746D02*
Y199176D01*
Y198461D01*
X200217D01*
X200932Y197746D01*
Y201321D02*
X200217Y202036D01*
Y203466D01*
X200932Y204181D01*
X201647D01*
X202362Y203466D01*
Y202751D01*
Y203466D01*
X203077Y204181D01*
X203792D01*
X204507Y203466D01*
Y202036D01*
X203792Y201321D01*
X125767Y220661D02*
X121477D01*
Y222806D01*
X122192Y223521D01*
X123622D01*
X124337Y222806D01*
Y220661D01*
Y222091D02*
X125767Y223521D01*
Y224951D02*
Y226381D01*
Y225666D01*
X121477D01*
X122192Y224951D01*
X125767Y231386D02*
Y228526D01*
X122907Y231386D01*
X122192D01*
X121477Y230671D01*
Y229241D01*
X122192Y228526D01*
X191909Y193384D02*
X187619D01*
Y195529D01*
X188334Y196244D01*
X189764D01*
X190479Y195529D01*
Y193384D01*
Y194814D02*
X191909Y196244D01*
Y197674D02*
Y199104D01*
Y198389D01*
X187619D01*
X188334Y197674D01*
X191909Y201249D02*
Y202679D01*
Y201964D01*
X187619D01*
X188334Y201249D01*
X313732Y100316D02*
Y104606D01*
X315877D01*
X316592Y103891D01*
Y102461D01*
X315877Y101746D01*
X313732D01*
X315162D02*
X316592Y100316D01*
X318022D02*
X319452D01*
X318737D01*
Y104606D01*
X318022Y103891D01*
X321597D02*
X322312Y104606D01*
X323742D01*
X324457Y103891D01*
Y101031D01*
X323742Y100316D01*
X322312D01*
X321597Y101031D01*
Y103891D01*
X100570Y220677D02*
X96280D01*
Y222822D01*
X96995Y223537D01*
X98425D01*
X99140Y222822D01*
Y220677D01*
Y222107D02*
X100570Y223537D01*
X99855Y224967D02*
X100570Y225682D01*
Y227112D01*
X99855Y227827D01*
X96995D01*
X96280Y227112D01*
Y225682D01*
X96995Y224967D01*
X97710D01*
X98425Y225682D01*
Y227827D01*
X106869Y220677D02*
X102579D01*
Y222822D01*
X103294Y223537D01*
X104724D01*
X105439Y222822D01*
Y220677D01*
Y222107D02*
X106869Y223537D01*
X103294Y224967D02*
X102579Y225682D01*
Y227112D01*
X103294Y227827D01*
X104009D01*
X104724Y227112D01*
X105439Y227827D01*
X106154D01*
X106869Y227112D01*
Y225682D01*
X106154Y224967D01*
X105439D01*
X104724Y225682D01*
X104009Y224967D01*
X103294D01*
X104724Y225682D02*
Y227112D01*
X113169Y220677D02*
X108879D01*
Y222822D01*
X109594Y223537D01*
X111024D01*
X111739Y222822D01*
Y220677D01*
Y222107D02*
X113169Y223537D01*
X108879Y227827D02*
X109594Y226397D01*
X111024Y224967D01*
X112454D01*
X113169Y225682D01*
Y227112D01*
X112454Y227827D01*
X111739D01*
X111024Y227112D01*
Y224967D01*
X217106Y193669D02*
X212816D01*
Y195814D01*
X213531Y196529D01*
X214961D01*
X215676Y195814D01*
Y193669D01*
Y195099D02*
X217106Y196529D01*
X212816Y200819D02*
Y197959D01*
X214961D01*
X214246Y199389D01*
Y200104D01*
X214961Y200819D01*
X216391D01*
X217106Y200104D01*
Y198674D01*
X216391Y197959D01*
X119468Y220677D02*
X115178D01*
Y222822D01*
X115893Y223537D01*
X117323D01*
X118038Y222822D01*
Y220677D01*
Y222107D02*
X119468Y223537D01*
X115893Y224967D02*
X115178Y225682D01*
Y227112D01*
X115893Y227827D01*
X116608D01*
X117323Y227112D01*
Y226397D01*
Y227112D01*
X118038Y227827D01*
X118753D01*
X119468Y227112D01*
Y225682D01*
X118753Y224967D01*
X273798Y193445D02*
X269509D01*
Y195590D01*
X270223Y196305D01*
X271654D01*
X272369Y195590D01*
Y193445D01*
Y194875D02*
X273798Y196305D01*
Y200595D02*
Y197735D01*
X270938Y200595D01*
X270223D01*
X269509Y199880D01*
Y198450D01*
X270223Y197735D01*
X280098Y193468D02*
X275808D01*
Y195613D01*
X276523Y196328D01*
X277953D01*
X278668Y195613D01*
Y193468D01*
Y194898D02*
X280098Y196328D01*
Y197758D02*
Y199188D01*
Y198473D01*
X275808D01*
X276523Y197758D01*
X322441Y152331D02*
Y156330D01*
X321441Y157330D01*
X319442D01*
X318442Y156330D01*
Y152331D01*
X319442Y151332D01*
X321441D01*
X320442Y153331D02*
X322441Y151332D01*
X321441D02*
X322441Y152331D01*
X324440Y151332D02*
X326440D01*
X325440D01*
Y157330D01*
X324440Y156330D01*
X367074Y235515D02*
X366359Y234800D01*
Y233370D01*
X367074Y232655D01*
X369934D01*
X370649Y233370D01*
Y234800D01*
X369934Y235515D01*
X367074Y239805D02*
X366359Y239090D01*
Y237660D01*
X367074Y236945D01*
X369934D01*
X370649Y237660D01*
Y239090D01*
X369934Y239805D01*
X366359Y241234D02*
Y244094D01*
Y242665D01*
X370649D01*
Y245525D02*
X366359D01*
Y247670D01*
X367074Y248384D01*
X368504D01*
X369219Y247670D01*
Y245525D01*
Y246954D02*
X370649Y248384D01*
X366359Y249814D02*
X370649D01*
Y252674D01*
Y254104D02*
Y255534D01*
Y254819D01*
X366359D01*
X367074Y254104D01*
X306983Y114816D02*
X306268Y115531D01*
X304838D01*
X304123Y114816D01*
Y111956D01*
X304838Y111241D01*
X306268D01*
X306983Y111956D01*
X311273Y111241D02*
X308413D01*
X311273Y114101D01*
Y114816D01*
X310558Y115531D01*
X309127D01*
X308413Y114816D01*
X315563Y115531D02*
X314132Y114816D01*
X312702Y113386D01*
Y111956D01*
X313418Y111241D01*
X314847D01*
X315563Y111956D01*
Y112671D01*
X314847Y113386D01*
X312702D01*
X343846Y190447D02*
X343131Y189732D01*
Y188302D01*
X343846Y187587D01*
X346706D01*
X347421Y188302D01*
Y189732D01*
X346706Y190447D01*
X347421Y194737D02*
Y191877D01*
X344561Y194737D01*
X343846D01*
X343131Y194022D01*
Y192592D01*
X343846Y191877D01*
X343131Y199027D02*
Y196167D01*
X345276D01*
X344561Y197597D01*
Y198312D01*
X345276Y199027D01*
X346706D01*
X347421Y198312D01*
Y196882D01*
X346706Y196167D01*
X350357Y190447D02*
X349642Y189732D01*
Y188302D01*
X350357Y187587D01*
X353217D01*
X353932Y188302D01*
Y189732D01*
X353217Y190447D01*
X353932Y194737D02*
Y191877D01*
X351072Y194737D01*
X350357D01*
X349642Y194022D01*
Y192592D01*
X350357Y191877D01*
X353932Y198312D02*
X349642D01*
X351787Y196167D01*
Y199027D01*
X405408Y192375D02*
X404693Y193090D01*
X403263D01*
X402548Y192375D01*
Y189515D01*
X403263Y188800D01*
X404693D01*
X405408Y189515D01*
X409698Y188800D02*
X406838D01*
X409698Y191660D01*
Y192375D01*
X408983Y193090D01*
X407553D01*
X406838Y192375D01*
X411128D02*
X411843Y193090D01*
X413273D01*
X413988Y192375D01*
Y191660D01*
X413273Y190945D01*
X412558D01*
X413273D01*
X413988Y190230D01*
Y189515D01*
X413273Y188800D01*
X411843D01*
X411128Y189515D01*
X350044Y60405D02*
X349045Y61405D01*
X347045D01*
X346046Y60405D01*
Y56406D01*
X347045Y55406D01*
X349045D01*
X350044Y56406D01*
X352044Y55406D02*
X354043D01*
X353044D01*
Y61405D01*
X352044Y60405D01*
X357042D02*
X358042Y61405D01*
X360041D01*
X361041Y60405D01*
Y59405D01*
X360041Y58406D01*
X359042D01*
X360041D01*
X361041Y57406D01*
Y56406D01*
X360041Y55406D01*
X358042D01*
X357042Y56406D01*
X350044Y75090D02*
X349045Y76090D01*
X347045D01*
X346046Y75090D01*
Y71091D01*
X347045Y70091D01*
X349045D01*
X350044Y71091D01*
X352044Y70091D02*
X354043D01*
X353044D01*
Y76090D01*
X352044Y75090D01*
X361041Y70091D02*
X357042D01*
X361041Y74090D01*
Y75090D01*
X360041Y76090D01*
X358042D01*
X357042Y75090D01*
X79315Y216391D02*
X78600Y217106D01*
X77170D01*
X76455Y216391D01*
Y213531D01*
X77170Y212816D01*
X78600D01*
X79315Y213531D01*
X80745Y212816D02*
X82175D01*
X81460D01*
Y217106D01*
X80745Y216391D01*
X84320Y212816D02*
X85750D01*
X85035D01*
Y217106D01*
X84320Y216391D01*
X190302Y123695D02*
X189587Y122979D01*
Y121549D01*
X190302Y120835D01*
X193162D01*
X193877Y121549D01*
Y122979D01*
X193162Y123695D01*
X190302Y125125D02*
X189587Y125839D01*
Y127269D01*
X190302Y127984D01*
X191017D01*
X191732Y127269D01*
X192447Y127984D01*
X193162D01*
X193877Y127269D01*
Y125839D01*
X193162Y125125D01*
X192447D01*
X191732Y125839D01*
X191017Y125125D01*
X190302D01*
X191732Y125839D02*
Y127269D01*
X184003Y123695D02*
X183288Y122979D01*
Y121549D01*
X184003Y120835D01*
X186863D01*
X187578Y121549D01*
Y122979D01*
X186863Y123695D01*
X183288Y125125D02*
Y127984D01*
X184003D01*
X186863Y125125D01*
X187578D01*
X288370Y164893D02*
X287371Y165893D01*
X285371D01*
X284372Y164893D01*
Y160894D01*
X285371Y159895D01*
X287371D01*
X288370Y160894D01*
X294369Y165893D02*
X292369Y164893D01*
X290370Y162894D01*
Y160894D01*
X291369Y159895D01*
X293369D01*
X294369Y160894D01*
Y161894D01*
X293369Y162894D01*
X290370D01*
X190302Y159423D02*
X189587Y158708D01*
Y157278D01*
X190302Y156563D01*
X193162D01*
X193877Y157278D01*
Y158708D01*
X193162Y159423D01*
X189587Y163713D02*
Y160853D01*
X191732D01*
X191017Y162283D01*
Y162998D01*
X191732Y163713D01*
X193162D01*
X193877Y162998D01*
Y161568D01*
X193162Y160853D01*
X184003Y159423D02*
X183288Y158708D01*
Y157278D01*
X184003Y156563D01*
X186863D01*
X187578Y157278D01*
Y158708D01*
X186863Y159423D01*
X187578Y162998D02*
X183288D01*
X185433Y160853D01*
Y163713D01*
X177704Y159423D02*
X176989Y158708D01*
Y157278D01*
X177704Y156563D01*
X180564D01*
X181279Y157278D01*
Y158708D01*
X180564Y159423D01*
X177704Y160853D02*
X176989Y161568D01*
Y162998D01*
X177704Y163713D01*
X178419D01*
X179134Y162998D01*
Y162283D01*
Y162998D01*
X179849Y163713D01*
X180564D01*
X181279Y162998D01*
Y161568D01*
X180564Y160853D01*
X171405Y159423D02*
X170690Y158708D01*
Y157278D01*
X171405Y156563D01*
X174265D01*
X174980Y157278D01*
Y158708D01*
X174265Y159423D01*
X174980Y163713D02*
Y160853D01*
X172120Y163713D01*
X171405D01*
X170690Y162998D01*
Y161568D01*
X171405Y160853D01*
X290551Y147767D02*
X289551Y148767D01*
X287552D01*
X286553Y147767D01*
Y143768D01*
X287552Y142769D01*
X289551D01*
X290551Y143768D01*
X292550Y142769D02*
X294550D01*
X293550D01*
Y148767D01*
X292550Y147767D01*
X42592Y108091D02*
X44022D01*
X43307D01*
Y112381D01*
X42592Y111666D01*
D16*
X308842Y136315D02*
X312643D01*
Y124315D02*
Y127915D01*
X308842Y124315D02*
X312643D01*
Y132715D02*
Y136315D01*
X376004Y197193D02*
Y216193D01*
X361004Y197193D02*
X376004D01*
X361004D02*
Y216193D01*
X376004D01*
X204683Y129880D02*
X206383D01*
X204683Y183380D02*
Y185080D01*
X258184D02*
X259883D01*
Y129880D02*
Y131580D01*
X204683Y129880D02*
Y131580D01*
Y185080D02*
X206383D01*
X259883Y183380D02*
Y185080D01*
X258184Y129880D02*
X259883D01*
D17*
X40402Y117480D02*
X79201D01*
X40402Y197480D02*
X79201D01*
X40402Y117480D02*
Y197480D01*
X79201Y181181D02*
Y197480D01*
Y117480D02*
Y133780D01*
M02*
