G04*
G04 #@! TF.GenerationSoftware,Altium Limited,Altium Designer,23.8.1 (32)*
G04*
G04 Layer_Color=32768*
%FSLAX25Y25*%
%MOIN*%
G70*
G04*
G04 #@! TF.SameCoordinates,BF2EEF1A-6A82-4CD2-B880-65E340770DF0*
G04*
G04*
G04 #@! TF.FilePolarity,Positive*
G04*
G01*
G75*
%ADD10C,0.00591*%
%ADD65C,0.00394*%
%ADD66R,0.17717X0.02854*%
D10*
X225394Y241144D02*
Y247047D01*
X229329D01*
X235233Y241144D02*
X231297D01*
Y247047D01*
X235233D01*
X231297Y244095D02*
X233265D01*
X237201Y241144D02*
Y247047D01*
X240153D01*
X241137Y246063D01*
Y242128D01*
X240153Y241144D01*
X237201D01*
X243105Y248031D02*
X247040D01*
X249008Y241144D02*
Y247047D01*
Y244095D01*
X252944D01*
Y241144D01*
Y247047D01*
X257863D02*
X255896D01*
X254912Y246063D01*
Y244095D01*
X255896Y243111D01*
X257863D01*
X258847Y244095D01*
Y245079D01*
X254912D01*
X261799Y243111D02*
X263767D01*
X264751Y244095D01*
Y247047D01*
X261799D01*
X260815Y246063D01*
X261799Y245079D01*
X264751D01*
X270655Y241144D02*
Y247047D01*
X267703D01*
X266719Y246063D01*
Y244095D01*
X267703Y243111D01*
X270655D01*
X275574Y247047D02*
X273606D01*
X272622Y246063D01*
Y244095D01*
X273606Y243111D01*
X275574D01*
X276558Y244095D01*
Y245079D01*
X272622D01*
X278526Y243111D02*
Y247047D01*
Y245079D01*
X279510Y244095D01*
X280494Y243111D01*
X281478D01*
D65*
X132205Y226673D02*
X332362D01*
Y261516D01*
X132205D02*
X332362D01*
X132205Y226673D02*
Y261516D01*
D66*
X232284Y260088D02*
D03*
M02*
