M48
;Layer_Color=9474304
;FILE_FORMAT=2:5
INCH,TZ
;TYPE=PLATED
T01F00S00C0.01181
T02F00S00C0.03504
T03F00S00C0.03937
T04F00S00C0.04016
T05F00S00C0.04331
T06F00S00C0.04724
T07F00S00C0.10630
T08F00S00C0.10827
;TYPE=NON_PLATED
T09F00S00C0.04016
%
T01
X93110Y67716
X100591
X106890
X107874Y137480
X131102Y125984
X138189
X145276
X152362
X60630Y110236
Y103150
X159449Y125984
X166535
X180315Y132776
Y138091
X236689Y121575
X240051
X243417
X246779
X255906Y109843
X274803
X268189Y133880
X268189Y143280
Y146646
Y150008
X299213Y154331
X300394Y123544
X305709Y79035
X319291Y125394
X322047Y215945
X315748
X339370Y209350
Y204035
X384646Y203543
Y209842
X309449Y215945
X303150
X296850
X290551
X252756Y228346
X246457
X240158
X222441Y230709
X202362Y205118
X196063
X189764
X189370Y193307
X193701Y191339
X191847Y186646
X212549Y181447
X216093Y181545
X219685Y181496
X208189Y171815
Y168347
X166929Y168504
Y173819
X249606Y181496
X268189Y178063
Y174697
X307087
X310453Y178063
X146457Y180315
Y186614
Y192913
X127165Y192913
Y186614
Y180315
X107874Y177480
Y162098
Y157480
X71555Y209055
X66240
X120079Y248819
X125984
X131890
X137795
X142520Y255118
T02
X77953Y137480
Y147480
X87953
Y137480
Y157480
Y167480
X77953
Y177480
X87953
X77953Y157480
T03
X377453Y55748
Y65748
Y75748
T04
X132283Y50394
Y62205
X144095
Y50394
X155905
Y62205
X167717
Y50394
X179528
X191339
Y62205
X179528
X222441
X234252
Y50394
X222441
X265354
Y62205
X277165
Y50394
X308268
Y62205
X320079
Y50394
T05
X162284Y239094
X172283
X182283
X192283
X202284
X212283
Y249095
X202284
X192283
X182283
X172283
X162284
X222284
X232283
X242284
X252284
X262283
X272284
Y239094
X282283
X292284
X302284
Y249095
X292284
X282283
X262283Y239094
X252284
X242284
X232283
X222284
X312283
Y249095
X152284
Y239094
T06
X158740Y265748
X168740
X178740
X188740
X198740
X208740
X218740
X228740
X148740
X138740
X128740
X118740
X108740
X98740
X88740
X78740
T07
X49213Y49213
X415354
Y265748
X49213
T08
X49213Y49213
X415354
Y265748
X49213
T09
X120472Y65905
X203150
X210630
X246063
X253543
X288976
X296457
X331890
M30
