G04*
G04 #@! TF.GenerationSoftware,Altium Limited,Altium Designer,23.8.1 (32)*
G04*
G04 Layer_Color=8388736*
%FSLAX25Y25*%
%MOIN*%
G70*
G04*
G04 #@! TF.SameCoordinates,BF2EEF1A-6A82-4CD2-B880-65E340770DF0*
G04*
G04*
G04 #@! TF.FilePolarity,Negative*
G04*
G01*
G75*
%ADD12C,0.00394*%
%ADD19R,0.03937X0.03543*%
%ADD32R,0.14173X0.06693*%
%ADD33R,0.04331X0.03937*%
%ADD34R,0.03543X0.03543*%
%ADD35R,0.03937X0.04331*%
%ADD36R,0.05394X0.02594*%
%ADD37R,0.08268X0.09843*%
%ADD38R,0.03543X0.03937*%
%ADD39R,0.03937X0.03150*%
%ADD40R,0.08194X0.02594*%
%ADD41R,0.06194X0.02394*%
%ADD42R,0.02394X0.06194*%
%ADD43R,0.03937X0.06890*%
%ADD44R,0.03543X0.03543*%
%ADD45C,0.18110*%
%ADD46C,0.06693*%
G04:AMPARAMS|DCode=47|XSize=66.93mil|YSize=66.93mil|CornerRadius=17.72mil|HoleSize=0mil|Usage=FLASHONLY|Rotation=0.000|XOffset=0mil|YOffset=0mil|HoleType=Round|Shape=RoundedRectangle|*
%AMROUNDEDRECTD47*
21,1,0.06693,0.03150,0,0,0.0*
21,1,0.03150,0.06693,0,0,0.0*
1,1,0.03543,0.01575,-0.01575*
1,1,0.03543,-0.01575,-0.01575*
1,1,0.03543,-0.01575,0.01575*
1,1,0.03543,0.01575,0.01575*
%
%ADD47ROUNDEDRECTD47*%
%ADD48C,0.14173*%
%ADD49C,0.06299*%
%ADD50C,0.06394*%
%ADD51R,0.06394X0.06394*%
%ADD52C,0.05276*%
%ADD53R,0.05276X0.05276*%
%ADD54C,0.02756*%
D12*
X120472Y65905D02*
D03*
X203150D02*
D03*
X331890D02*
D03*
X296457D02*
D03*
X288976D02*
D03*
X253543D02*
D03*
X246063D02*
D03*
X210630D02*
D03*
D19*
X166535Y130905D02*
D03*
Y139961D02*
D03*
X152362Y130905D02*
D03*
Y139961D02*
D03*
X138189Y130905D02*
D03*
Y139961D02*
D03*
D32*
X57874Y235433D02*
D03*
X79921D02*
D03*
D33*
X133071Y180315D02*
D03*
X140157D02*
D03*
X299213Y143110D02*
D03*
Y148425D02*
D03*
Y165551D02*
D03*
Y160236D02*
D03*
X268898Y109843D02*
D03*
X261811D02*
D03*
X114173Y49606D02*
D03*
X107087D02*
D03*
X133071Y192913D02*
D03*
X140157D02*
D03*
Y186614D02*
D03*
X133071D02*
D03*
X100394Y49606D02*
D03*
X93307D02*
D03*
X364961Y220079D02*
D03*
X372047D02*
D03*
X390551Y209842D02*
D03*
X397638D02*
D03*
Y197244D02*
D03*
X390551D02*
D03*
X397638Y203543D02*
D03*
X390551D02*
D03*
X55118Y103150D02*
D03*
X48031D02*
D03*
X345276Y204035D02*
D03*
Y209350D02*
D03*
X351788Y204035D02*
D03*
Y209350D02*
D03*
X365748Y55748D02*
D03*
Y61063D02*
D03*
Y70433D02*
D03*
Y75748D02*
D03*
X191732Y132776D02*
D03*
Y138091D02*
D03*
X185433Y132776D02*
D03*
Y138091D02*
D03*
X191732Y168504D02*
D03*
Y173819D02*
D03*
X185433Y168504D02*
D03*
Y173819D02*
D03*
X179134Y168504D02*
D03*
Y173819D02*
D03*
X172835Y168504D02*
D03*
Y173819D02*
D03*
D34*
X308661Y92224D02*
D03*
Y85925D02*
D03*
X302756Y92224D02*
D03*
Y85925D02*
D03*
D35*
X312500Y120472D02*
D03*
X307185D02*
D03*
X302559Y98917D02*
D03*
Y106004D02*
D03*
X308858Y98917D02*
D03*
Y106004D02*
D03*
X159449Y138976D02*
D03*
Y131890D02*
D03*
X145276Y138976D02*
D03*
Y131890D02*
D03*
X131102Y138976D02*
D03*
Y131890D02*
D03*
X296850Y210039D02*
D03*
Y202953D02*
D03*
X290551D02*
D03*
Y210039D02*
D03*
X303150Y202953D02*
D03*
Y210039D02*
D03*
X265354Y209646D02*
D03*
Y216732D02*
D03*
X315748Y202953D02*
D03*
Y210039D02*
D03*
X259055Y216732D02*
D03*
Y209646D02*
D03*
X309449Y202953D02*
D03*
Y210039D02*
D03*
X252756Y216732D02*
D03*
Y209646D02*
D03*
X322047Y210039D02*
D03*
Y202953D02*
D03*
X246457Y216732D02*
D03*
Y209646D02*
D03*
X233858D02*
D03*
Y216732D02*
D03*
X240158D02*
D03*
Y209646D02*
D03*
X129921Y243701D02*
D03*
Y236614D02*
D03*
X227559Y209646D02*
D03*
Y216732D02*
D03*
X221260Y209646D02*
D03*
Y216732D02*
D03*
X142520Y243701D02*
D03*
Y236614D02*
D03*
X208661Y216732D02*
D03*
Y209646D02*
D03*
X136221Y243701D02*
D03*
Y236614D02*
D03*
X196063Y216732D02*
D03*
Y209646D02*
D03*
X202362Y216732D02*
D03*
Y209646D02*
D03*
X123622Y243701D02*
D03*
Y236614D02*
D03*
X189764Y216732D02*
D03*
Y209646D02*
D03*
X98425Y243701D02*
D03*
Y236614D02*
D03*
X104724Y243701D02*
D03*
Y236614D02*
D03*
X111024Y243701D02*
D03*
Y236614D02*
D03*
X214961Y209646D02*
D03*
Y216732D02*
D03*
X117323Y236614D02*
D03*
Y243701D02*
D03*
X271654Y209646D02*
D03*
Y216732D02*
D03*
X277953Y209646D02*
D03*
Y216732D02*
D03*
X391437Y190945D02*
D03*
X396752D02*
D03*
X71555Y214961D02*
D03*
X66240D02*
D03*
D36*
X305743Y134015D02*
D03*
X313943Y130315D02*
D03*
X305743Y126615D02*
D03*
D37*
X309842Y146457D02*
D03*
Y162205D02*
D03*
D38*
X114370Y62992D02*
D03*
X106890D02*
D03*
X110630Y55118D02*
D03*
X100591Y62992D02*
D03*
X93110D02*
D03*
X96850Y55118D02*
D03*
D39*
X66535Y104724D02*
D03*
Y110236D02*
D03*
D40*
X359204Y204193D02*
D03*
Y209193D02*
D03*
X377804Y214193D02*
D03*
Y209193D02*
D03*
Y204193D02*
D03*
Y199193D02*
D03*
X359204D02*
D03*
Y214193D02*
D03*
D41*
X262283Y146480D02*
D03*
X202284Y171680D02*
D03*
Y133880D02*
D03*
X262283Y149580D02*
D03*
X202284Y168480D02*
D03*
Y136980D02*
D03*
Y143280D02*
D03*
Y146480D02*
D03*
Y149580D02*
D03*
Y152780D02*
D03*
Y155880D02*
D03*
Y159080D02*
D03*
Y162180D02*
D03*
Y165380D02*
D03*
Y174780D02*
D03*
Y177980D02*
D03*
Y181080D02*
D03*
X262283D02*
D03*
Y177980D02*
D03*
Y174780D02*
D03*
Y171680D02*
D03*
Y168480D02*
D03*
Y165380D02*
D03*
Y162180D02*
D03*
Y159080D02*
D03*
Y155880D02*
D03*
Y152780D02*
D03*
Y143280D02*
D03*
Y140180D02*
D03*
Y136980D02*
D03*
X202284Y140180D02*
D03*
X262283Y133880D02*
D03*
D42*
X208683Y187480D02*
D03*
X211784D02*
D03*
X214984D02*
D03*
X218084D02*
D03*
X221284D02*
D03*
X224383D02*
D03*
X227584D02*
D03*
X230683D02*
D03*
X233884D02*
D03*
X236983D02*
D03*
X240183D02*
D03*
X243284D02*
D03*
X246483D02*
D03*
X249584D02*
D03*
X252783D02*
D03*
X255884D02*
D03*
X249584Y127480D02*
D03*
X246483D02*
D03*
X243284D02*
D03*
X240183D02*
D03*
X236983D02*
D03*
X224383D02*
D03*
X221284D02*
D03*
X218084D02*
D03*
X214984D02*
D03*
X211784D02*
D03*
X208683D02*
D03*
X233884D02*
D03*
X227584D02*
D03*
X230683D02*
D03*
X255884D02*
D03*
X252783D02*
D03*
D43*
X366004Y227165D02*
D03*
X371004D02*
D03*
D44*
X54724Y110236D02*
D03*
X48425D02*
D03*
D45*
X49213Y265748D02*
D03*
X415354Y49213D02*
D03*
Y265748D02*
D03*
X49213Y49213D02*
D03*
D46*
X252284Y249095D02*
D03*
X242284D02*
D03*
X232283D02*
D03*
X302284Y239094D02*
D03*
X292284D02*
D03*
X282283D02*
D03*
X272284D02*
D03*
X292284Y249095D02*
D03*
X282283D02*
D03*
X272284D02*
D03*
X262283Y239094D02*
D03*
Y249095D02*
D03*
X212283Y239094D02*
D03*
Y249095D02*
D03*
X202284Y239094D02*
D03*
X192283D02*
D03*
X202284Y249095D02*
D03*
X192283D02*
D03*
X182283Y239094D02*
D03*
Y249095D02*
D03*
X172283Y239094D02*
D03*
Y249095D02*
D03*
X162284Y239094D02*
D03*
Y249095D02*
D03*
X222284Y239094D02*
D03*
X232283D02*
D03*
X242284D02*
D03*
X252284D02*
D03*
X152284D02*
D03*
X302284Y249095D02*
D03*
X312283D02*
D03*
Y239094D02*
D03*
X222284Y249095D02*
D03*
D47*
X152284D02*
D03*
D48*
X49213Y265748D02*
D03*
Y49213D02*
D03*
X415354D02*
D03*
Y265748D02*
D03*
D49*
X98740D02*
D03*
X108740D02*
D03*
X118740D02*
D03*
X128740D02*
D03*
X138740D02*
D03*
X148740D02*
D03*
X158740D02*
D03*
X168740D02*
D03*
X178740D02*
D03*
X188740D02*
D03*
X198740D02*
D03*
X208740D02*
D03*
X218740D02*
D03*
X228740D02*
D03*
X78740D02*
D03*
X88740D02*
D03*
D50*
X191339Y50394D02*
D03*
Y62205D02*
D03*
X179528D02*
D03*
Y50394D02*
D03*
X144095D02*
D03*
X155905D02*
D03*
X167717D02*
D03*
X132283Y62205D02*
D03*
X167717D02*
D03*
X155905D02*
D03*
X144095D02*
D03*
X320079D02*
D03*
X308268D02*
D03*
X320079Y50394D02*
D03*
X277165Y62205D02*
D03*
X265354D02*
D03*
X277165Y50394D02*
D03*
X234252Y62205D02*
D03*
X222441D02*
D03*
X234252Y50394D02*
D03*
X377453Y55748D02*
D03*
Y65748D02*
D03*
Y75748D02*
D03*
D51*
X132283Y50394D02*
D03*
X308268D02*
D03*
X265354D02*
D03*
X222441D02*
D03*
D52*
X77953Y147480D02*
D03*
X87953Y167480D02*
D03*
X77953Y177480D02*
D03*
Y137480D02*
D03*
X87953Y147480D02*
D03*
Y157480D02*
D03*
X77953D02*
D03*
Y167480D02*
D03*
X87953Y177480D02*
D03*
D53*
Y137480D02*
D03*
D54*
X222441Y230709D02*
D03*
X249606Y181496D02*
D03*
X252756Y228346D02*
D03*
X246457D02*
D03*
X240158D02*
D03*
X142520Y255118D02*
D03*
X137795Y248819D02*
D03*
X125984D02*
D03*
X120079D02*
D03*
X131890D02*
D03*
X107874Y157480D02*
D03*
Y137480D02*
D03*
Y162098D02*
D03*
Y177480D02*
D03*
X216093Y181545D02*
D03*
X212549Y181447D02*
D03*
X193701Y191339D02*
D03*
X191847Y186646D02*
D03*
X146457Y192913D02*
D03*
X219685Y181496D02*
D03*
X146457Y180315D02*
D03*
Y186614D02*
D03*
X189370Y193307D02*
D03*
X196063Y205118D02*
D03*
X189764D02*
D03*
X202362D02*
D03*
X319291Y125394D02*
D03*
X300394Y123544D02*
D03*
X268189Y178063D02*
D03*
Y174697D02*
D03*
X299213Y154331D02*
D03*
X305709Y79035D02*
D03*
X274803Y109843D02*
D03*
X255906D02*
D03*
X236689Y121575D02*
D03*
X93110Y67716D02*
D03*
X100591D02*
D03*
X106890D02*
D03*
X268189Y133880D02*
D03*
X127165Y180315D02*
D03*
X180315Y132776D02*
D03*
X208189Y168347D02*
D03*
Y171815D02*
D03*
X268189Y143280D02*
D03*
X152362Y125984D02*
D03*
X127165Y192913D02*
D03*
Y186614D02*
D03*
X159449Y125984D02*
D03*
X145276D02*
D03*
X131102D02*
D03*
X166535D02*
D03*
X138189D02*
D03*
X166929Y168504D02*
D03*
Y173819D02*
D03*
X180315Y138091D02*
D03*
X384646Y203543D02*
D03*
Y209842D02*
D03*
X71555Y209055D02*
D03*
X60630Y103150D02*
D03*
X268189Y146646D02*
D03*
X339370Y204035D02*
D03*
X66240Y209055D02*
D03*
X60630Y110236D02*
D03*
X339370Y209350D02*
D03*
X268189Y150008D02*
D03*
X310453Y178063D02*
D03*
X307087Y174697D02*
D03*
X240051Y121575D02*
D03*
X246779D02*
D03*
X243417D02*
D03*
X322047Y215945D02*
D03*
X315748D02*
D03*
X309449D02*
D03*
X303150D02*
D03*
X296850D02*
D03*
X290551D02*
D03*
M02*
