G04*
G04 #@! TF.GenerationSoftware,Altium Limited,Altium Designer,23.8.1 (32)*
G04*
G04 Layer_Physical_Order=3*
G04 Layer_Color=16440176*
%FSLAX25Y25*%
%MOIN*%
G70*
G04*
G04 #@! TF.SameCoordinates,BF2EEF1A-6A82-4CD2-B880-65E340770DF0*
G04*
G04*
G04 #@! TF.FilePolarity,Positive*
G04*
G01*
G75*
%ADD13C,0.00787*%
%ADD15C,0.01000*%
%ADD49C,0.06299*%
%ADD58C,0.05906*%
%ADD59C,0.06000*%
%ADD60R,0.06000X0.06000*%
%ADD61C,0.04882*%
%ADD63C,0.02362*%
G36*
X409852Y274288D02*
X408879Y273638D01*
X407465Y272223D01*
X406353Y270559D01*
X405587Y268711D01*
X405197Y266748D01*
Y264748D01*
X405587Y262785D01*
X406353Y260937D01*
X407465Y259273D01*
X408879Y257858D01*
X410543Y256747D01*
X412392Y255981D01*
X414354Y255591D01*
X416355D01*
X418317Y255981D01*
X420166Y256747D01*
X421829Y257858D01*
X423244Y259273D01*
X423894Y260246D01*
X424394Y260094D01*
Y54867D01*
X423894Y54715D01*
X423244Y55688D01*
X421829Y57102D01*
X420166Y58214D01*
X418317Y58980D01*
X416355Y59370D01*
X414354D01*
X412392Y58980D01*
X410543Y58214D01*
X408879Y57102D01*
X407465Y55688D01*
X406353Y54024D01*
X405587Y52175D01*
X405197Y50213D01*
Y48212D01*
X405587Y46250D01*
X406353Y44401D01*
X407465Y42738D01*
X408879Y41323D01*
X409852Y40673D01*
X409700Y40173D01*
X54867D01*
X54715Y40673D01*
X55688Y41323D01*
X57102Y42738D01*
X58214Y44401D01*
X58980Y46250D01*
X59370Y48212D01*
Y50213D01*
X58980Y52175D01*
X58214Y54024D01*
X57102Y55688D01*
X55688Y57102D01*
X54024Y58214D01*
X52175Y58980D01*
X50213Y59370D01*
X48212D01*
X46250Y58980D01*
X44401Y58214D01*
X42738Y57102D01*
X41323Y55688D01*
X40673Y54715D01*
X40173Y54867D01*
Y260094D01*
X40673Y260246D01*
X41323Y259273D01*
X42738Y257858D01*
X44401Y256747D01*
X46250Y255981D01*
X48212Y255591D01*
X50213D01*
X52175Y255981D01*
X54024Y256747D01*
X55688Y257858D01*
X57102Y259273D01*
X58214Y260937D01*
X58980Y262785D01*
X59370Y264748D01*
Y266748D01*
X58980Y268711D01*
X58214Y270559D01*
X57102Y272223D01*
X55688Y273638D01*
X54715Y274288D01*
X54867Y274788D01*
X409700D01*
X409852Y274288D01*
D02*
G37*
%LPC*%
G36*
X229300Y270000D02*
X228180D01*
X227099Y269710D01*
X226129Y269150D01*
X225338Y268359D01*
X224778Y267389D01*
X224488Y266308D01*
Y265188D01*
X224778Y264107D01*
X225338Y263137D01*
X226129Y262346D01*
X227099Y261786D01*
X228180Y261496D01*
X229300D01*
X230381Y261786D01*
X231351Y262346D01*
X232142Y263137D01*
X232702Y264107D01*
X232992Y265188D01*
Y266308D01*
X232702Y267389D01*
X232142Y268359D01*
X231351Y269150D01*
X230381Y269710D01*
X229300Y270000D01*
D02*
G37*
G36*
X219300D02*
X218180D01*
X217099Y269710D01*
X216129Y269150D01*
X215338Y268359D01*
X214778Y267389D01*
X214488Y266308D01*
Y265188D01*
X214778Y264107D01*
X215338Y263137D01*
X216129Y262346D01*
X217099Y261786D01*
X218180Y261496D01*
X219300D01*
X220381Y261786D01*
X221351Y262346D01*
X222143Y263137D01*
X222702Y264107D01*
X222992Y265188D01*
Y266308D01*
X222702Y267389D01*
X222143Y268359D01*
X221351Y269150D01*
X220381Y269710D01*
X219300Y270000D01*
D02*
G37*
G36*
X209300D02*
X208180D01*
X207099Y269710D01*
X206129Y269150D01*
X205338Y268359D01*
X204778Y267389D01*
X204488Y266308D01*
Y265188D01*
X204778Y264107D01*
X205338Y263137D01*
X206129Y262346D01*
X207099Y261786D01*
X208180Y261496D01*
X209300D01*
X210381Y261786D01*
X211351Y262346D01*
X212142Y263137D01*
X212702Y264107D01*
X212992Y265188D01*
Y266308D01*
X212702Y267389D01*
X212142Y268359D01*
X211351Y269150D01*
X210381Y269710D01*
X209300Y270000D01*
D02*
G37*
G36*
X199300D02*
X198180D01*
X197099Y269710D01*
X196129Y269150D01*
X195338Y268359D01*
X194778Y267389D01*
X194488Y266308D01*
Y265188D01*
X194778Y264107D01*
X195338Y263137D01*
X196129Y262346D01*
X197099Y261786D01*
X198180Y261496D01*
X199300D01*
X200381Y261786D01*
X201351Y262346D01*
X202143Y263137D01*
X202702Y264107D01*
X202992Y265188D01*
Y266308D01*
X202702Y267389D01*
X202143Y268359D01*
X201351Y269150D01*
X200381Y269710D01*
X199300Y270000D01*
D02*
G37*
G36*
X189300D02*
X188180D01*
X187099Y269710D01*
X186129Y269150D01*
X185338Y268359D01*
X184778Y267389D01*
X184488Y266308D01*
Y265188D01*
X184778Y264107D01*
X185338Y263137D01*
X186129Y262346D01*
X187099Y261786D01*
X188180Y261496D01*
X189300D01*
X190381Y261786D01*
X191351Y262346D01*
X192142Y263137D01*
X192702Y264107D01*
X192992Y265188D01*
Y266308D01*
X192702Y267389D01*
X192142Y268359D01*
X191351Y269150D01*
X190381Y269710D01*
X189300Y270000D01*
D02*
G37*
G36*
X179300D02*
X178180D01*
X177099Y269710D01*
X176129Y269150D01*
X175338Y268359D01*
X174778Y267389D01*
X174488Y266308D01*
Y265188D01*
X174778Y264107D01*
X175338Y263137D01*
X176129Y262346D01*
X177099Y261786D01*
X178180Y261496D01*
X179300D01*
X180381Y261786D01*
X181351Y262346D01*
X182142Y263137D01*
X182702Y264107D01*
X182992Y265188D01*
Y266308D01*
X182702Y267389D01*
X182142Y268359D01*
X181351Y269150D01*
X180381Y269710D01*
X179300Y270000D01*
D02*
G37*
G36*
X169300D02*
X168180D01*
X167099Y269710D01*
X166129Y269150D01*
X165338Y268359D01*
X164778Y267389D01*
X164488Y266308D01*
Y265188D01*
X164778Y264107D01*
X165338Y263137D01*
X166129Y262346D01*
X167099Y261786D01*
X168180Y261496D01*
X169300D01*
X170381Y261786D01*
X171351Y262346D01*
X172143Y263137D01*
X172702Y264107D01*
X172992Y265188D01*
Y266308D01*
X172702Y267389D01*
X172143Y268359D01*
X171351Y269150D01*
X170381Y269710D01*
X169300Y270000D01*
D02*
G37*
G36*
X159300D02*
X158180D01*
X157099Y269710D01*
X156129Y269150D01*
X155338Y268359D01*
X154778Y267389D01*
X154488Y266308D01*
Y265188D01*
X154778Y264107D01*
X155338Y263137D01*
X156129Y262346D01*
X157099Y261786D01*
X158180Y261496D01*
X159300D01*
X160381Y261786D01*
X161351Y262346D01*
X162143Y263137D01*
X162702Y264107D01*
X162992Y265188D01*
Y266308D01*
X162702Y267389D01*
X162143Y268359D01*
X161351Y269150D01*
X160381Y269710D01*
X159300Y270000D01*
D02*
G37*
G36*
X149300D02*
X148180D01*
X147099Y269710D01*
X146129Y269150D01*
X145338Y268359D01*
X144778Y267389D01*
X144488Y266308D01*
Y265188D01*
X144778Y264107D01*
X145338Y263137D01*
X146129Y262346D01*
X147099Y261786D01*
X148180Y261496D01*
X149300D01*
X150381Y261786D01*
X151351Y262346D01*
X152143Y263137D01*
X152702Y264107D01*
X152992Y265188D01*
Y266308D01*
X152702Y267389D01*
X152143Y268359D01*
X151351Y269150D01*
X150381Y269710D01*
X149300Y270000D01*
D02*
G37*
G36*
X139300D02*
X138180D01*
X137099Y269710D01*
X136129Y269150D01*
X135338Y268359D01*
X134778Y267389D01*
X134488Y266308D01*
Y265188D01*
X134778Y264107D01*
X135338Y263137D01*
X136129Y262346D01*
X137099Y261786D01*
X138180Y261496D01*
X139300D01*
X140381Y261786D01*
X141351Y262346D01*
X142142Y263137D01*
X142702Y264107D01*
X142992Y265188D01*
Y266308D01*
X142702Y267389D01*
X142142Y268359D01*
X141351Y269150D01*
X140381Y269710D01*
X139300Y270000D01*
D02*
G37*
G36*
X129300D02*
X128180D01*
X127099Y269710D01*
X126129Y269150D01*
X125338Y268359D01*
X124778Y267389D01*
X124488Y266308D01*
Y265188D01*
X124778Y264107D01*
X125338Y263137D01*
X126129Y262346D01*
X127099Y261786D01*
X128180Y261496D01*
X129300D01*
X130381Y261786D01*
X131351Y262346D01*
X132142Y263137D01*
X132702Y264107D01*
X132992Y265188D01*
Y266308D01*
X132702Y267389D01*
X132142Y268359D01*
X131351Y269150D01*
X130381Y269710D01*
X129300Y270000D01*
D02*
G37*
G36*
X119300D02*
X118180D01*
X117099Y269710D01*
X116129Y269150D01*
X115338Y268359D01*
X114778Y267389D01*
X114488Y266308D01*
Y265188D01*
X114778Y264107D01*
X115338Y263137D01*
X116129Y262346D01*
X117099Y261786D01*
X118180Y261496D01*
X119300D01*
X120381Y261786D01*
X121351Y262346D01*
X122143Y263137D01*
X122702Y264107D01*
X122992Y265188D01*
Y266308D01*
X122702Y267389D01*
X122143Y268359D01*
X121351Y269150D01*
X120381Y269710D01*
X119300Y270000D01*
D02*
G37*
G36*
X109300D02*
X108180D01*
X107099Y269710D01*
X106129Y269150D01*
X105338Y268359D01*
X104778Y267389D01*
X104488Y266308D01*
Y265188D01*
X104778Y264107D01*
X105338Y263137D01*
X106129Y262346D01*
X107099Y261786D01*
X108180Y261496D01*
X109300D01*
X110381Y261786D01*
X111351Y262346D01*
X112143Y263137D01*
X112702Y264107D01*
X112992Y265188D01*
Y266308D01*
X112702Y267389D01*
X112143Y268359D01*
X111351Y269150D01*
X110381Y269710D01*
X109300Y270000D01*
D02*
G37*
G36*
X99300D02*
X98180D01*
X97099Y269710D01*
X96129Y269150D01*
X95338Y268359D01*
X94778Y267389D01*
X94488Y266308D01*
Y265188D01*
X94778Y264107D01*
X95338Y263137D01*
X96129Y262346D01*
X97099Y261786D01*
X98180Y261496D01*
X99300D01*
X100381Y261786D01*
X101351Y262346D01*
X102143Y263137D01*
X102702Y264107D01*
X102992Y265188D01*
Y266308D01*
X102702Y267389D01*
X102143Y268359D01*
X101351Y269150D01*
X100381Y269710D01*
X99300Y270000D01*
D02*
G37*
G36*
X79300D02*
X78180D01*
X77099Y269710D01*
X76129Y269150D01*
X75338Y268359D01*
X74778Y267389D01*
X74488Y266308D01*
Y265188D01*
X74778Y264107D01*
X75338Y263137D01*
X76129Y262346D01*
X77099Y261786D01*
X78180Y261496D01*
X79300D01*
X80381Y261786D01*
X81351Y262346D01*
X82143Y263137D01*
X82702Y264107D01*
X82992Y265188D01*
Y266308D01*
X82702Y267389D01*
X82143Y268359D01*
X81351Y269150D01*
X80381Y269710D01*
X79300Y270000D01*
D02*
G37*
G36*
X142954Y257299D02*
X142086D01*
X141284Y256967D01*
X140671Y256354D01*
X140339Y255552D01*
Y254684D01*
X140671Y253883D01*
X141284Y253269D01*
X142086Y252937D01*
X142954D01*
X143755Y253269D01*
X144369Y253883D01*
X144701Y254684D01*
Y255552D01*
X144369Y256354D01*
X143755Y256967D01*
X142954Y257299D01*
D02*
G37*
G36*
X312830Y253244D02*
X312784D01*
Y249594D01*
X316433D01*
Y249641D01*
X316150Y250696D01*
X315604Y251642D01*
X314831Y252415D01*
X313885Y252961D01*
X312830Y253244D01*
D02*
G37*
G36*
X311784D02*
X311737D01*
X310682Y252961D01*
X309735Y252415D01*
X308963Y251642D01*
X308417Y250696D01*
X308134Y249641D01*
Y249594D01*
X311784D01*
Y253244D01*
D02*
G37*
G36*
X272830D02*
X272783D01*
Y249594D01*
X276433D01*
Y249641D01*
X276150Y250696D01*
X275604Y251642D01*
X274831Y252415D01*
X273885Y252961D01*
X272830Y253244D01*
D02*
G37*
G36*
X271783D02*
X271737D01*
X270682Y252961D01*
X269736Y252415D01*
X268963Y251642D01*
X268417Y250696D01*
X268134Y249641D01*
Y249594D01*
X271783D01*
Y253244D01*
D02*
G37*
G36*
X222830D02*
X222783D01*
Y249594D01*
X226433D01*
Y249641D01*
X226150Y250696D01*
X225604Y251642D01*
X224831Y252415D01*
X223885Y252961D01*
X222830Y253244D01*
D02*
G37*
G36*
X221783D02*
X221737D01*
X220682Y252961D01*
X219736Y252415D01*
X218963Y251642D01*
X218417Y250696D01*
X218134Y249641D01*
Y249594D01*
X221783D01*
Y253244D01*
D02*
G37*
G36*
X138229Y251000D02*
X137361D01*
X136560Y250668D01*
X135946Y250054D01*
X135614Y249253D01*
Y248385D01*
X135946Y247583D01*
X136560Y246970D01*
X137361Y246638D01*
X138229D01*
X139031Y246970D01*
X139644Y247583D01*
X139976Y248385D01*
Y249253D01*
X139644Y250054D01*
X139031Y250668D01*
X138229Y251000D01*
D02*
G37*
G36*
X132324D02*
X131456D01*
X130654Y250668D01*
X130041Y250054D01*
X129709Y249253D01*
Y248385D01*
X130041Y247583D01*
X130654Y246970D01*
X131456Y246638D01*
X132324D01*
X133125Y246970D01*
X133739Y247583D01*
X134071Y248385D01*
Y249253D01*
X133739Y250054D01*
X133125Y250668D01*
X132324Y251000D01*
D02*
G37*
G36*
X126418D02*
X125550D01*
X124749Y250668D01*
X124135Y250054D01*
X123803Y249253D01*
Y248385D01*
X124135Y247583D01*
X124749Y246970D01*
X125550Y246638D01*
X126418D01*
X127220Y246970D01*
X127833Y247583D01*
X128165Y248385D01*
Y249253D01*
X127833Y250054D01*
X127220Y250668D01*
X126418Y251000D01*
D02*
G37*
G36*
X120513D02*
X119645D01*
X118843Y250668D01*
X118230Y250054D01*
X117898Y249253D01*
Y248385D01*
X118230Y247583D01*
X118843Y246970D01*
X119645Y246638D01*
X120513D01*
X121314Y246970D01*
X121928Y247583D01*
X122260Y248385D01*
Y249253D01*
X121928Y250054D01*
X121314Y250668D01*
X120513Y251000D01*
D02*
G37*
G36*
X316433Y248594D02*
X312784D01*
Y244945D01*
X312830D01*
X313885Y245228D01*
X314831Y245774D01*
X315604Y246547D01*
X316150Y247493D01*
X316433Y248548D01*
Y248594D01*
D02*
G37*
G36*
X311784D02*
X308134D01*
Y248548D01*
X308417Y247493D01*
X308963Y246547D01*
X309735Y245774D01*
X310682Y245228D01*
X311737Y244945D01*
X311784D01*
Y248594D01*
D02*
G37*
G36*
X276433D02*
X272783D01*
Y244945D01*
X272830D01*
X273885Y245228D01*
X274831Y245774D01*
X275604Y246547D01*
X276150Y247493D01*
X276433Y248548D01*
Y248594D01*
D02*
G37*
G36*
X271783D02*
X268134D01*
Y248548D01*
X268417Y247493D01*
X268963Y246547D01*
X269736Y245774D01*
X270682Y245228D01*
X271737Y244945D01*
X271783D01*
Y248594D01*
D02*
G37*
G36*
X226433D02*
X222783D01*
Y244945D01*
X222830D01*
X223885Y245228D01*
X224831Y245774D01*
X225604Y246547D01*
X226150Y247493D01*
X226433Y248548D01*
Y248594D01*
D02*
G37*
G36*
X221783D02*
X218134D01*
Y248548D01*
X218417Y247493D01*
X218963Y246547D01*
X219736Y245774D01*
X220682Y245228D01*
X221737Y244945D01*
X221783D01*
Y248594D01*
D02*
G37*
G36*
X302869Y253543D02*
X301698D01*
X300566Y253240D01*
X299552Y252654D01*
X298724Y251826D01*
X298138Y250812D01*
X297835Y249680D01*
Y248509D01*
X298138Y247377D01*
X298724Y246363D01*
X299552Y245534D01*
X300566Y244949D01*
X301698Y244646D01*
X302869D01*
X304001Y244949D01*
X305015Y245534D01*
X305843Y246363D01*
X306429Y247377D01*
X306732Y248509D01*
Y249680D01*
X306429Y250812D01*
X305843Y251826D01*
X305015Y252654D01*
X304001Y253240D01*
X302869Y253543D01*
D02*
G37*
G36*
X292869D02*
X291698D01*
X290566Y253240D01*
X289552Y252654D01*
X288723Y251826D01*
X288138Y250812D01*
X287835Y249680D01*
Y248509D01*
X288138Y247377D01*
X288723Y246363D01*
X289552Y245534D01*
X290566Y244949D01*
X291698Y244646D01*
X292869D01*
X294001Y244949D01*
X295015Y245534D01*
X295843Y246363D01*
X296429Y247377D01*
X296732Y248509D01*
Y249680D01*
X296429Y250812D01*
X295843Y251826D01*
X295015Y252654D01*
X294001Y253240D01*
X292869Y253543D01*
D02*
G37*
G36*
X282869D02*
X281698D01*
X280566Y253240D01*
X279552Y252654D01*
X278724Y251826D01*
X278138Y250812D01*
X277835Y249680D01*
Y248509D01*
X278138Y247377D01*
X278724Y246363D01*
X279552Y245534D01*
X280566Y244949D01*
X281698Y244646D01*
X282869D01*
X284001Y244949D01*
X285015Y245534D01*
X285843Y246363D01*
X286429Y247377D01*
X286732Y248509D01*
Y249680D01*
X286429Y250812D01*
X285843Y251826D01*
X285015Y252654D01*
X284001Y253240D01*
X282869Y253543D01*
D02*
G37*
G36*
X262869D02*
X261698D01*
X260566Y253240D01*
X259552Y252654D01*
X258723Y251826D01*
X258138Y250812D01*
X257835Y249680D01*
Y248509D01*
X258138Y247377D01*
X258723Y246363D01*
X259552Y245534D01*
X260566Y244949D01*
X261698Y244646D01*
X262869D01*
X264001Y244949D01*
X265015Y245534D01*
X265843Y246363D01*
X266429Y247377D01*
X266732Y248509D01*
Y249680D01*
X266429Y250812D01*
X265843Y251826D01*
X265015Y252654D01*
X264001Y253240D01*
X262869Y253543D01*
D02*
G37*
G36*
X252869D02*
X251698D01*
X250566Y253240D01*
X249552Y252654D01*
X248724Y251826D01*
X248138Y250812D01*
X247835Y249680D01*
Y248509D01*
X248138Y247377D01*
X248724Y246363D01*
X249552Y245534D01*
X250566Y244949D01*
X251698Y244646D01*
X252869D01*
X254001Y244949D01*
X255015Y245534D01*
X255843Y246363D01*
X256429Y247377D01*
X256732Y248509D01*
Y249680D01*
X256429Y250812D01*
X255843Y251826D01*
X255015Y252654D01*
X254001Y253240D01*
X252869Y253543D01*
D02*
G37*
G36*
X242869D02*
X241698D01*
X240566Y253240D01*
X239552Y252654D01*
X238723Y251826D01*
X238138Y250812D01*
X237835Y249680D01*
Y248509D01*
X238138Y247377D01*
X238723Y246363D01*
X239552Y245534D01*
X240566Y244949D01*
X241698Y244646D01*
X242869D01*
X244001Y244949D01*
X245015Y245534D01*
X245843Y246363D01*
X246429Y247377D01*
X246732Y248509D01*
Y249680D01*
X246429Y250812D01*
X245843Y251826D01*
X245015Y252654D01*
X244001Y253240D01*
X242869Y253543D01*
D02*
G37*
G36*
X232869D02*
X231698D01*
X230566Y253240D01*
X229552Y252654D01*
X228724Y251826D01*
X228138Y250812D01*
X227835Y249680D01*
Y248509D01*
X228138Y247377D01*
X228724Y246363D01*
X229552Y245534D01*
X230566Y244949D01*
X231698Y244646D01*
X232869D01*
X234001Y244949D01*
X235015Y245534D01*
X235843Y246363D01*
X236429Y247377D01*
X236732Y248509D01*
Y249680D01*
X236429Y250812D01*
X235843Y251826D01*
X235015Y252654D01*
X234001Y253240D01*
X232869Y253543D01*
D02*
G37*
G36*
X212869D02*
X211698D01*
X210566Y253240D01*
X209552Y252654D01*
X208723Y251826D01*
X208138Y250812D01*
X207835Y249680D01*
Y248509D01*
X208138Y247377D01*
X208723Y246363D01*
X209552Y245534D01*
X210566Y244949D01*
X211698Y244646D01*
X212869D01*
X214001Y244949D01*
X215015Y245534D01*
X215843Y246363D01*
X216429Y247377D01*
X216732Y248509D01*
Y249680D01*
X216429Y250812D01*
X215843Y251826D01*
X215015Y252654D01*
X214001Y253240D01*
X212869Y253543D01*
D02*
G37*
G36*
X202869D02*
X201698D01*
X200566Y253240D01*
X199552Y252654D01*
X198723Y251826D01*
X198138Y250812D01*
X197835Y249680D01*
Y248509D01*
X198138Y247377D01*
X198723Y246363D01*
X199552Y245534D01*
X200566Y244949D01*
X201698Y244646D01*
X202869D01*
X204001Y244949D01*
X205015Y245534D01*
X205843Y246363D01*
X206429Y247377D01*
X206732Y248509D01*
Y249680D01*
X206429Y250812D01*
X205843Y251826D01*
X205015Y252654D01*
X204001Y253240D01*
X202869Y253543D01*
D02*
G37*
G36*
X192869D02*
X191698D01*
X190566Y253240D01*
X189552Y252654D01*
X188724Y251826D01*
X188138Y250812D01*
X187835Y249680D01*
Y248509D01*
X188138Y247377D01*
X188724Y246363D01*
X189552Y245534D01*
X190566Y244949D01*
X191698Y244646D01*
X192869D01*
X194001Y244949D01*
X195015Y245534D01*
X195843Y246363D01*
X196429Y247377D01*
X196732Y248509D01*
Y249680D01*
X196429Y250812D01*
X195843Y251826D01*
X195015Y252654D01*
X194001Y253240D01*
X192869Y253543D01*
D02*
G37*
G36*
X182869D02*
X181698D01*
X180566Y253240D01*
X179552Y252654D01*
X178724Y251826D01*
X178138Y250812D01*
X177835Y249680D01*
Y248509D01*
X178138Y247377D01*
X178724Y246363D01*
X179552Y245534D01*
X180566Y244949D01*
X181698Y244646D01*
X182869D01*
X184001Y244949D01*
X185015Y245534D01*
X185843Y246363D01*
X186429Y247377D01*
X186732Y248509D01*
Y249680D01*
X186429Y250812D01*
X185843Y251826D01*
X185015Y252654D01*
X184001Y253240D01*
X182869Y253543D01*
D02*
G37*
G36*
X172869D02*
X171698D01*
X170566Y253240D01*
X169552Y252654D01*
X168723Y251826D01*
X168138Y250812D01*
X167835Y249680D01*
Y248509D01*
X168138Y247377D01*
X168723Y246363D01*
X169552Y245534D01*
X170566Y244949D01*
X171698Y244646D01*
X172869D01*
X174001Y244949D01*
X175015Y245534D01*
X175843Y246363D01*
X176429Y247377D01*
X176732Y248509D01*
Y249680D01*
X176429Y250812D01*
X175843Y251826D01*
X175015Y252654D01*
X174001Y253240D01*
X172869Y253543D01*
D02*
G37*
G36*
X162869D02*
X161698D01*
X160566Y253240D01*
X159552Y252654D01*
X158723Y251826D01*
X158138Y250812D01*
X157835Y249680D01*
Y248509D01*
X158138Y247377D01*
X158723Y246363D01*
X159552Y245534D01*
X160566Y244949D01*
X161698Y244646D01*
X162869D01*
X164001Y244949D01*
X165015Y245534D01*
X165843Y246363D01*
X166429Y247377D01*
X166732Y248509D01*
Y249680D01*
X166429Y250812D01*
X165843Y251826D01*
X165015Y252654D01*
X164001Y253240D01*
X162869Y253543D01*
D02*
G37*
G36*
X153858Y253568D02*
X150709D01*
X149958Y253469D01*
X149259Y253180D01*
X148659Y252719D01*
X148198Y252119D01*
X147909Y251420D01*
X147810Y250669D01*
Y247520D01*
X147909Y246769D01*
X148198Y246070D01*
X148659Y245470D01*
X149259Y245009D01*
X149958Y244720D01*
X150709Y244621D01*
X153858D01*
X154609Y244720D01*
X155308Y245009D01*
X155908Y245470D01*
X156369Y246070D01*
X156658Y246769D01*
X156757Y247520D01*
Y250669D01*
X156658Y251420D01*
X156369Y252119D01*
X155908Y252719D01*
X155308Y253180D01*
X154609Y253469D01*
X153858Y253568D01*
D02*
G37*
G36*
X312830Y243244D02*
X312784D01*
Y239595D01*
X316433D01*
Y239641D01*
X316150Y240696D01*
X315604Y241642D01*
X314831Y242415D01*
X313885Y242961D01*
X312830Y243244D01*
D02*
G37*
G36*
X311784D02*
X311737D01*
X310682Y242961D01*
X309735Y242415D01*
X308963Y241642D01*
X308417Y240696D01*
X308134Y239641D01*
Y239595D01*
X311784D01*
Y243244D01*
D02*
G37*
G36*
X152830D02*
X152784D01*
Y239595D01*
X156433D01*
Y239641D01*
X156150Y240696D01*
X155604Y241642D01*
X154831Y242415D01*
X153885Y242961D01*
X152830Y243244D01*
D02*
G37*
G36*
X151784D02*
X151737D01*
X150682Y242961D01*
X149735Y242415D01*
X148963Y241642D01*
X148417Y240696D01*
X148134Y239641D01*
Y239595D01*
X151784D01*
Y243244D01*
D02*
G37*
G36*
X316433Y238595D02*
X312784D01*
Y234945D01*
X312830D01*
X313885Y235228D01*
X314831Y235774D01*
X315604Y236547D01*
X316150Y237493D01*
X316433Y238548D01*
Y238595D01*
D02*
G37*
G36*
X311784D02*
X308134D01*
Y238548D01*
X308417Y237493D01*
X308963Y236547D01*
X309735Y235774D01*
X310682Y235228D01*
X311737Y234945D01*
X311784D01*
Y238595D01*
D02*
G37*
G36*
X156433D02*
X152784D01*
Y234945D01*
X152830D01*
X153885Y235228D01*
X154831Y235774D01*
X155604Y236547D01*
X156150Y237493D01*
X156433Y238548D01*
Y238595D01*
D02*
G37*
G36*
X151784D02*
X148134D01*
Y238548D01*
X148417Y237493D01*
X148963Y236547D01*
X149735Y235774D01*
X150682Y235228D01*
X151737Y234945D01*
X151784D01*
Y238595D01*
D02*
G37*
G36*
X302869Y243543D02*
X301698D01*
X300566Y243240D01*
X299552Y242654D01*
X298724Y241826D01*
X298138Y240812D01*
X297835Y239680D01*
Y238509D01*
X298138Y237377D01*
X298724Y236363D01*
X299552Y235535D01*
X300566Y234949D01*
X301698Y234646D01*
X302869D01*
X304001Y234949D01*
X305015Y235535D01*
X305843Y236363D01*
X306429Y237377D01*
X306732Y238509D01*
Y239680D01*
X306429Y240812D01*
X305843Y241826D01*
X305015Y242654D01*
X304001Y243240D01*
X302869Y243543D01*
D02*
G37*
G36*
X292869D02*
X291698D01*
X290566Y243240D01*
X289552Y242654D01*
X288723Y241826D01*
X288138Y240812D01*
X287835Y239680D01*
Y238509D01*
X288138Y237377D01*
X288723Y236363D01*
X289552Y235535D01*
X290566Y234949D01*
X291698Y234646D01*
X292869D01*
X294001Y234949D01*
X295015Y235535D01*
X295843Y236363D01*
X296429Y237377D01*
X296732Y238509D01*
Y239680D01*
X296429Y240812D01*
X295843Y241826D01*
X295015Y242654D01*
X294001Y243240D01*
X292869Y243543D01*
D02*
G37*
G36*
X282869D02*
X281698D01*
X280566Y243240D01*
X279552Y242654D01*
X278724Y241826D01*
X278138Y240812D01*
X277835Y239680D01*
Y238509D01*
X278138Y237377D01*
X278724Y236363D01*
X279552Y235535D01*
X280566Y234949D01*
X281698Y234646D01*
X282869D01*
X284001Y234949D01*
X285015Y235535D01*
X285843Y236363D01*
X286429Y237377D01*
X286732Y238509D01*
Y239680D01*
X286429Y240812D01*
X285843Y241826D01*
X285015Y242654D01*
X284001Y243240D01*
X282869Y243543D01*
D02*
G37*
G36*
X272869D02*
X271698D01*
X270566Y243240D01*
X269552Y242654D01*
X268724Y241826D01*
X268138Y240812D01*
X267835Y239680D01*
Y238509D01*
X268138Y237377D01*
X268724Y236363D01*
X269552Y235535D01*
X270566Y234949D01*
X271698Y234646D01*
X272869D01*
X274001Y234949D01*
X275015Y235535D01*
X275843Y236363D01*
X276429Y237377D01*
X276732Y238509D01*
Y239680D01*
X276429Y240812D01*
X275843Y241826D01*
X275015Y242654D01*
X274001Y243240D01*
X272869Y243543D01*
D02*
G37*
G36*
X262869D02*
X261698D01*
X260566Y243240D01*
X259552Y242654D01*
X258723Y241826D01*
X258138Y240812D01*
X257835Y239680D01*
Y238509D01*
X258138Y237377D01*
X258723Y236363D01*
X259552Y235535D01*
X260566Y234949D01*
X261698Y234646D01*
X262869D01*
X264001Y234949D01*
X265015Y235535D01*
X265843Y236363D01*
X266429Y237377D01*
X266732Y238509D01*
Y239680D01*
X266429Y240812D01*
X265843Y241826D01*
X265015Y242654D01*
X264001Y243240D01*
X262869Y243543D01*
D02*
G37*
G36*
X252869D02*
X251698D01*
X250566Y243240D01*
X249552Y242654D01*
X248724Y241826D01*
X248138Y240812D01*
X247835Y239680D01*
Y238509D01*
X248138Y237377D01*
X248724Y236363D01*
X249552Y235535D01*
X250566Y234949D01*
X251698Y234646D01*
X252869D01*
X254001Y234949D01*
X255015Y235535D01*
X255843Y236363D01*
X256429Y237377D01*
X256732Y238509D01*
Y239680D01*
X256429Y240812D01*
X255843Y241826D01*
X255015Y242654D01*
X254001Y243240D01*
X252869Y243543D01*
D02*
G37*
G36*
X242869D02*
X241698D01*
X240566Y243240D01*
X239552Y242654D01*
X238723Y241826D01*
X238138Y240812D01*
X237835Y239680D01*
Y238509D01*
X238138Y237377D01*
X238723Y236363D01*
X239552Y235535D01*
X240566Y234949D01*
X241698Y234646D01*
X242869D01*
X244001Y234949D01*
X245015Y235535D01*
X245843Y236363D01*
X246429Y237377D01*
X246732Y238509D01*
Y239680D01*
X246429Y240812D01*
X245843Y241826D01*
X245015Y242654D01*
X244001Y243240D01*
X242869Y243543D01*
D02*
G37*
G36*
X232869D02*
X231698D01*
X230566Y243240D01*
X229552Y242654D01*
X228724Y241826D01*
X228138Y240812D01*
X227835Y239680D01*
Y238509D01*
X228138Y237377D01*
X228724Y236363D01*
X229552Y235535D01*
X230566Y234949D01*
X231698Y234646D01*
X232869D01*
X234001Y234949D01*
X235015Y235535D01*
X235843Y236363D01*
X236429Y237377D01*
X236732Y238509D01*
Y239680D01*
X236429Y240812D01*
X235843Y241826D01*
X235015Y242654D01*
X234001Y243240D01*
X232869Y243543D01*
D02*
G37*
G36*
X222869D02*
X221698D01*
X220566Y243240D01*
X219552Y242654D01*
X218724Y241826D01*
X218138Y240812D01*
X217835Y239680D01*
Y238509D01*
X218138Y237377D01*
X218724Y236363D01*
X219552Y235535D01*
X220566Y234949D01*
X221698Y234646D01*
X222869D01*
X224001Y234949D01*
X225015Y235535D01*
X225843Y236363D01*
X226429Y237377D01*
X226732Y238509D01*
Y239680D01*
X226429Y240812D01*
X225843Y241826D01*
X225015Y242654D01*
X224001Y243240D01*
X222869Y243543D01*
D02*
G37*
G36*
X212869D02*
X211698D01*
X210566Y243240D01*
X209552Y242654D01*
X208723Y241826D01*
X208138Y240812D01*
X207835Y239680D01*
Y238509D01*
X208138Y237377D01*
X208723Y236363D01*
X209552Y235535D01*
X210566Y234949D01*
X211698Y234646D01*
X212869D01*
X214001Y234949D01*
X215015Y235535D01*
X215843Y236363D01*
X216429Y237377D01*
X216732Y238509D01*
Y239680D01*
X216429Y240812D01*
X215843Y241826D01*
X215015Y242654D01*
X214001Y243240D01*
X212869Y243543D01*
D02*
G37*
G36*
X202869D02*
X201698D01*
X200566Y243240D01*
X199552Y242654D01*
X198723Y241826D01*
X198138Y240812D01*
X197835Y239680D01*
Y238509D01*
X198138Y237377D01*
X198723Y236363D01*
X199552Y235535D01*
X200566Y234949D01*
X201698Y234646D01*
X202869D01*
X204001Y234949D01*
X205015Y235535D01*
X205843Y236363D01*
X206429Y237377D01*
X206732Y238509D01*
Y239680D01*
X206429Y240812D01*
X205843Y241826D01*
X205015Y242654D01*
X204001Y243240D01*
X202869Y243543D01*
D02*
G37*
G36*
X192869D02*
X191698D01*
X190566Y243240D01*
X189552Y242654D01*
X188724Y241826D01*
X188138Y240812D01*
X187835Y239680D01*
Y238509D01*
X188138Y237377D01*
X188724Y236363D01*
X189552Y235535D01*
X190566Y234949D01*
X191698Y234646D01*
X192869D01*
X194001Y234949D01*
X195015Y235535D01*
X195843Y236363D01*
X196429Y237377D01*
X196732Y238509D01*
Y239680D01*
X196429Y240812D01*
X195843Y241826D01*
X195015Y242654D01*
X194001Y243240D01*
X192869Y243543D01*
D02*
G37*
G36*
X182869D02*
X181698D01*
X180566Y243240D01*
X179552Y242654D01*
X178724Y241826D01*
X178138Y240812D01*
X177835Y239680D01*
Y238509D01*
X178138Y237377D01*
X178724Y236363D01*
X179552Y235535D01*
X180566Y234949D01*
X181698Y234646D01*
X182869D01*
X184001Y234949D01*
X185015Y235535D01*
X185843Y236363D01*
X186429Y237377D01*
X186732Y238509D01*
Y239680D01*
X186429Y240812D01*
X185843Y241826D01*
X185015Y242654D01*
X184001Y243240D01*
X182869Y243543D01*
D02*
G37*
G36*
X172869D02*
X171698D01*
X170566Y243240D01*
X169552Y242654D01*
X168723Y241826D01*
X168138Y240812D01*
X167835Y239680D01*
Y238509D01*
X168138Y237377D01*
X168723Y236363D01*
X169552Y235535D01*
X170566Y234949D01*
X171698Y234646D01*
X172869D01*
X174001Y234949D01*
X175015Y235535D01*
X175843Y236363D01*
X176429Y237377D01*
X176732Y238509D01*
Y239680D01*
X176429Y240812D01*
X175843Y241826D01*
X175015Y242654D01*
X174001Y243240D01*
X172869Y243543D01*
D02*
G37*
G36*
X162869D02*
X161698D01*
X160566Y243240D01*
X159552Y242654D01*
X158723Y241826D01*
X158138Y240812D01*
X157835Y239680D01*
Y238509D01*
X158138Y237377D01*
X158723Y236363D01*
X159552Y235535D01*
X160566Y234949D01*
X161698Y234646D01*
X162869D01*
X164001Y234949D01*
X165015Y235535D01*
X165843Y236363D01*
X166429Y237377D01*
X166732Y238509D01*
Y239680D01*
X166429Y240812D01*
X165843Y241826D01*
X165015Y242654D01*
X164001Y243240D01*
X162869Y243543D01*
D02*
G37*
G36*
X222875Y232890D02*
X222007D01*
X221205Y232558D01*
X220592Y231944D01*
X220260Y231142D01*
Y230275D01*
X220592Y229473D01*
X221205Y228860D01*
X222007Y228528D01*
X222875D01*
X223676Y228860D01*
X224290Y229473D01*
X224622Y230275D01*
Y231142D01*
X224290Y231944D01*
X223676Y232558D01*
X222875Y232890D01*
D02*
G37*
G36*
X253190Y230528D02*
X252322D01*
X251520Y230195D01*
X250907Y229582D01*
X250575Y228780D01*
Y227913D01*
X250907Y227111D01*
X251520Y226497D01*
X252322Y226165D01*
X253190D01*
X253991Y226497D01*
X254605Y227111D01*
X254937Y227913D01*
Y228780D01*
X254605Y229582D01*
X253991Y230195D01*
X253190Y230528D01*
D02*
G37*
G36*
X246890D02*
X246023D01*
X245221Y230195D01*
X244608Y229582D01*
X244276Y228780D01*
Y227913D01*
X244608Y227111D01*
X245221Y226497D01*
X246023Y226165D01*
X246890D01*
X247692Y226497D01*
X248306Y227111D01*
X248638Y227913D01*
Y228780D01*
X248306Y229582D01*
X247692Y230195D01*
X246890Y230528D01*
D02*
G37*
G36*
X240591D02*
X239724D01*
X238922Y230195D01*
X238308Y229582D01*
X237976Y228780D01*
Y227913D01*
X238308Y227111D01*
X238922Y226497D01*
X239724Y226165D01*
X240591D01*
X241393Y226497D01*
X242006Y227111D01*
X242339Y227913D01*
Y228780D01*
X242006Y229582D01*
X241393Y230195D01*
X240591Y230528D01*
D02*
G37*
G36*
X322481Y218126D02*
X321613D01*
X320812Y217794D01*
X320198Y217180D01*
X319866Y216379D01*
Y215511D01*
X320198Y214709D01*
X320812Y214096D01*
X321613Y213764D01*
X322481D01*
X323283Y214096D01*
X323896Y214709D01*
X324228Y215511D01*
Y216379D01*
X323896Y217180D01*
X323283Y217794D01*
X322481Y218126D01*
D02*
G37*
G36*
X316182D02*
X315314D01*
X314512Y217794D01*
X313899Y217180D01*
X313567Y216379D01*
Y215511D01*
X313899Y214709D01*
X314512Y214096D01*
X315314Y213764D01*
X316182D01*
X316984Y214096D01*
X317597Y214709D01*
X317929Y215511D01*
Y216379D01*
X317597Y217180D01*
X316984Y217794D01*
X316182Y218126D01*
D02*
G37*
G36*
X309883D02*
X309015D01*
X308213Y217794D01*
X307600Y217180D01*
X307268Y216379D01*
Y215511D01*
X307600Y214709D01*
X308213Y214096D01*
X309015Y213764D01*
X309883D01*
X310684Y214096D01*
X311298Y214709D01*
X311630Y215511D01*
Y216379D01*
X311298Y217180D01*
X310684Y217794D01*
X309883Y218126D01*
D02*
G37*
G36*
X303583D02*
X302716D01*
X301914Y217794D01*
X301301Y217180D01*
X300969Y216379D01*
Y215511D01*
X301301Y214709D01*
X301914Y214096D01*
X302716Y213764D01*
X303583D01*
X304385Y214096D01*
X304999Y214709D01*
X305331Y215511D01*
Y216379D01*
X304999Y217180D01*
X304385Y217794D01*
X303583Y218126D01*
D02*
G37*
G36*
X297284D02*
X296416D01*
X295615Y217794D01*
X295001Y217180D01*
X294669Y216379D01*
Y215511D01*
X295001Y214709D01*
X295615Y214096D01*
X296416Y213764D01*
X297284D01*
X298086Y214096D01*
X298699Y214709D01*
X299031Y215511D01*
Y216379D01*
X298699Y217180D01*
X298086Y217794D01*
X297284Y218126D01*
D02*
G37*
G36*
X290985D02*
X290117D01*
X289316Y217794D01*
X288702Y217180D01*
X288370Y216379D01*
Y215511D01*
X288702Y214709D01*
X289316Y214096D01*
X290117Y213764D01*
X290985D01*
X291787Y214096D01*
X292400Y214709D01*
X292732Y215511D01*
Y216379D01*
X292400Y217180D01*
X291787Y217794D01*
X290985Y218126D01*
D02*
G37*
G36*
X72055Y211209D02*
Y209555D01*
X73709D01*
X73404Y210291D01*
X72791Y210904D01*
X72055Y211209D01*
D02*
G37*
G36*
X71055D02*
X70320Y210904D01*
X69706Y210291D01*
X69401Y209555D01*
X71055D01*
Y211209D01*
D02*
G37*
G36*
X385080Y212024D02*
X384212D01*
X383410Y211692D01*
X382797Y211078D01*
X382465Y210276D01*
Y209409D01*
X382797Y208607D01*
X383410Y207994D01*
X384212Y207661D01*
X385080D01*
X385881Y207994D01*
X386495Y208607D01*
X386827Y209409D01*
Y210276D01*
X386495Y211078D01*
X385881Y211692D01*
X385080Y212024D01*
D02*
G37*
G36*
X339804Y211531D02*
X338936D01*
X338135Y211199D01*
X337521Y210586D01*
X337189Y209784D01*
Y208916D01*
X337521Y208115D01*
X338135Y207501D01*
X338936Y207169D01*
X339804D01*
X340606Y207501D01*
X341219Y208115D01*
X341551Y208916D01*
Y209784D01*
X341219Y210586D01*
X340606Y211199D01*
X339804Y211531D01*
D02*
G37*
G36*
X73709Y208555D02*
X72055D01*
Y206901D01*
X72791Y207206D01*
X73404Y207820D01*
X73709Y208555D01*
D02*
G37*
G36*
X71055D02*
X69401D01*
X69706Y207820D01*
X70320Y207206D01*
X71055Y206901D01*
Y208555D01*
D02*
G37*
G36*
X66674Y211236D02*
X65806D01*
X65005Y210904D01*
X64391Y210291D01*
X64059Y209489D01*
Y208621D01*
X64391Y207820D01*
X65005Y207206D01*
X65806Y206874D01*
X66674D01*
X67476Y207206D01*
X68089Y207820D01*
X68421Y208621D01*
Y209489D01*
X68089Y210291D01*
X67476Y210904D01*
X66674Y211236D01*
D02*
G37*
G36*
X339870Y206189D02*
Y204535D01*
X341524D01*
X341219Y205271D01*
X340606Y205885D01*
X339870Y206189D01*
D02*
G37*
G36*
X338870D02*
X338135Y205885D01*
X337521Y205271D01*
X337216Y204535D01*
X338870D01*
Y206189D01*
D02*
G37*
G36*
X202796Y207299D02*
X201928D01*
X201127Y206967D01*
X200513Y206354D01*
X200181Y205552D01*
Y204684D01*
X200513Y203883D01*
X201127Y203269D01*
X201928Y202937D01*
X202796D01*
X203598Y203269D01*
X204211Y203883D01*
X204543Y204684D01*
Y205552D01*
X204211Y206354D01*
X203598Y206967D01*
X202796Y207299D01*
D02*
G37*
G36*
X196497D02*
X195629D01*
X194827Y206967D01*
X194214Y206354D01*
X193882Y205552D01*
Y204684D01*
X194214Y203883D01*
X194827Y203269D01*
X195629Y202937D01*
X196497D01*
X197299Y203269D01*
X197912Y203883D01*
X198244Y204684D01*
Y205552D01*
X197912Y206354D01*
X197299Y206967D01*
X196497Y207299D01*
D02*
G37*
G36*
X190198D02*
X189330D01*
X188528Y206967D01*
X187915Y206354D01*
X187583Y205552D01*
Y204684D01*
X187915Y203883D01*
X188528Y203269D01*
X189330Y202937D01*
X190198D01*
X190999Y203269D01*
X191613Y203883D01*
X191945Y204684D01*
Y205552D01*
X191613Y206354D01*
X190999Y206967D01*
X190198Y207299D01*
D02*
G37*
G36*
X341524Y203535D02*
X339870D01*
Y201882D01*
X340606Y202186D01*
X341219Y202800D01*
X341524Y203535D01*
D02*
G37*
G36*
X338870D02*
X337216D01*
X337521Y202800D01*
X338135Y202186D01*
X338870Y201882D01*
Y203535D01*
D02*
G37*
G36*
X385080Y205724D02*
X384212D01*
X383410Y205392D01*
X382797Y204779D01*
X382465Y203977D01*
Y203110D01*
X382797Y202308D01*
X383410Y201694D01*
X384212Y201362D01*
X385080D01*
X385881Y201694D01*
X386495Y202308D01*
X386827Y203110D01*
Y203977D01*
X386495Y204779D01*
X385881Y205392D01*
X385080Y205724D01*
D02*
G37*
G36*
X146890Y195095D02*
X146023D01*
X145221Y194762D01*
X144608Y194149D01*
X144276Y193347D01*
Y192480D01*
X144608Y191678D01*
X145221Y191064D01*
X146023Y190732D01*
X146890D01*
X147692Y191064D01*
X148306Y191678D01*
X148638Y192480D01*
Y193347D01*
X148306Y194149D01*
X147692Y194762D01*
X146890Y195095D01*
D02*
G37*
G36*
X127599Y195095D02*
X126732D01*
X125930Y194762D01*
X125316Y194149D01*
X124984Y193347D01*
Y192480D01*
X125316Y191678D01*
X125930Y191064D01*
X126732Y190732D01*
X127599D01*
X128401Y191064D01*
X129014Y191678D01*
X129347Y192480D01*
Y193347D01*
X129014Y194149D01*
X128401Y194762D01*
X127599Y195095D01*
D02*
G37*
G36*
X189804Y195488D02*
X188936D01*
X188135Y195156D01*
X187521Y194543D01*
X187189Y193741D01*
Y192873D01*
X187521Y192072D01*
X188135Y191458D01*
X188936Y191126D01*
X189804D01*
X190606Y191458D01*
X191058Y191910D01*
X191211Y191864D01*
X191520Y191665D01*
Y190905D01*
X191852Y190103D01*
X192465Y189489D01*
X193267Y189157D01*
X194135D01*
X194936Y189489D01*
X195550Y190103D01*
X195882Y190905D01*
Y191772D01*
X195550Y192574D01*
X194936Y193188D01*
X194135Y193520D01*
X193267D01*
X192465Y193188D01*
X192013Y192735D01*
X191860Y192781D01*
X191551Y192981D01*
Y193741D01*
X191219Y194543D01*
X190606Y195156D01*
X189804Y195488D01*
D02*
G37*
G36*
X192281Y188827D02*
X191413D01*
X190612Y188495D01*
X189998Y187881D01*
X189666Y187080D01*
Y186212D01*
X189998Y185410D01*
X190612Y184797D01*
X191413Y184465D01*
X192281D01*
X193082Y184797D01*
X193696Y185410D01*
X194028Y186212D01*
Y187080D01*
X193696Y187881D01*
X193082Y188495D01*
X192281Y188827D01*
D02*
G37*
G36*
X146890Y188795D02*
X146023D01*
X145221Y188463D01*
X144608Y187850D01*
X144276Y187048D01*
Y186180D01*
X144608Y185379D01*
X145221Y184765D01*
X146023Y184433D01*
X146890D01*
X147692Y184765D01*
X148306Y185379D01*
X148638Y186180D01*
Y187048D01*
X148306Y187850D01*
X147692Y188463D01*
X146890Y188795D01*
D02*
G37*
G36*
X127599Y188795D02*
X126732D01*
X125930Y188463D01*
X125316Y187850D01*
X124984Y187048D01*
Y186180D01*
X125316Y185379D01*
X125930Y184765D01*
X126732Y184433D01*
X127599D01*
X128401Y184765D01*
X129014Y185379D01*
X129347Y186180D01*
Y187048D01*
X129014Y187850D01*
X128401Y188463D01*
X127599Y188795D01*
D02*
G37*
G36*
X216527Y183726D02*
X215659D01*
X214857Y183394D01*
X214272Y182809D01*
X213785Y183296D01*
X212983Y183628D01*
X212116D01*
X211314Y183296D01*
X210700Y182683D01*
X210368Y181881D01*
Y181013D01*
X210700Y180212D01*
X211314Y179598D01*
X212116Y179266D01*
X212983D01*
X213785Y179598D01*
X214370Y180183D01*
X214857Y179696D01*
X215659Y179364D01*
X216527D01*
X217328Y179696D01*
X217864Y180232D01*
X218449Y179647D01*
X219251Y179315D01*
X220119D01*
X220920Y179647D01*
X221534Y180261D01*
X221866Y181062D01*
Y181930D01*
X221534Y182731D01*
X220920Y183345D01*
X220119Y183677D01*
X219251D01*
X218449Y183345D01*
X217913Y182809D01*
X217328Y183394D01*
X216527Y183726D01*
D02*
G37*
G36*
X250040Y183677D02*
X249172D01*
X248371Y183345D01*
X247757Y182732D01*
X247425Y181930D01*
Y181062D01*
X247757Y180261D01*
X248371Y179647D01*
X249172Y179315D01*
X250040D01*
X250842Y179647D01*
X251455Y180261D01*
X251787Y181062D01*
Y181930D01*
X251455Y182732D01*
X250842Y183345D01*
X250040Y183677D01*
D02*
G37*
G36*
X146890Y182496D02*
X146023D01*
X145221Y182164D01*
X144608Y181551D01*
X144276Y180749D01*
Y179881D01*
X144608Y179079D01*
X145221Y178466D01*
X146023Y178134D01*
X146890D01*
X147692Y178466D01*
X148306Y179079D01*
X148638Y179881D01*
Y180749D01*
X148306Y181551D01*
X147692Y182164D01*
X146890Y182496D01*
D02*
G37*
G36*
X127599D02*
X126732D01*
X125930Y182164D01*
X125316Y181551D01*
X124984Y180749D01*
Y179881D01*
X125316Y179079D01*
X125930Y178466D01*
X126732Y178134D01*
X127599D01*
X128401Y178466D01*
X129014Y179079D01*
X129347Y179881D01*
Y180749D01*
X129014Y181551D01*
X128401Y182164D01*
X127599Y182496D01*
D02*
G37*
G36*
X310887Y180244D02*
X310019D01*
X309217Y179912D01*
X308604Y179298D01*
X308272Y178497D01*
Y177629D01*
X308540Y176981D01*
X308168Y176610D01*
X307521Y176878D01*
X306653D01*
X305851Y176546D01*
X305238Y175932D01*
X304906Y175131D01*
Y174263D01*
X305238Y173461D01*
X305851Y172848D01*
X306653Y172516D01*
X307521D01*
X308322Y172848D01*
X308936Y173461D01*
X309268Y174263D01*
Y175131D01*
X308999Y175779D01*
X309371Y176150D01*
X310019Y175882D01*
X310887D01*
X311688Y176214D01*
X312302Y176828D01*
X312634Y177629D01*
Y178497D01*
X312302Y179298D01*
X311688Y179912D01*
X310887Y180244D01*
D02*
G37*
G36*
X108308Y179661D02*
X107440D01*
X106639Y179329D01*
X106025Y178716D01*
X105693Y177914D01*
Y177047D01*
X106025Y176245D01*
X106639Y175631D01*
X107440Y175299D01*
X108308D01*
X109109Y175631D01*
X109723Y176245D01*
X110055Y177047D01*
Y177914D01*
X109723Y178716D01*
X109109Y179329D01*
X108308Y179661D01*
D02*
G37*
G36*
X167429Y175973D02*
Y174319D01*
X169083D01*
X168778Y175054D01*
X168165Y175668D01*
X167429Y175973D01*
D02*
G37*
G36*
X166429D02*
X165694Y175668D01*
X165080Y175054D01*
X164775Y174319D01*
X166429D01*
Y175973D01*
D02*
G37*
G36*
X88445Y181220D02*
X87460D01*
X86509Y180966D01*
X85656Y180473D01*
X84960Y179777D01*
X84468Y178924D01*
X84213Y177973D01*
Y176988D01*
X84468Y176037D01*
X84960Y175184D01*
X85656Y174487D01*
X86509Y173995D01*
X87460Y173740D01*
X88445D01*
X89396Y173995D01*
X90249Y174487D01*
X90946Y175184D01*
X91438Y176037D01*
X91693Y176988D01*
Y177973D01*
X91438Y178924D01*
X90946Y179777D01*
X90249Y180473D01*
X89396Y180966D01*
X88445Y181220D01*
D02*
G37*
G36*
X78445D02*
X77460D01*
X76509Y180966D01*
X75656Y180473D01*
X74960Y179777D01*
X74467Y178924D01*
X74213Y177973D01*
Y176988D01*
X74467Y176037D01*
X74960Y175184D01*
X75656Y174487D01*
X76509Y173995D01*
X77460Y173740D01*
X78445D01*
X79396Y173995D01*
X80249Y174487D01*
X80946Y175184D01*
X81438Y176037D01*
X81693Y176988D01*
Y177973D01*
X81438Y178924D01*
X80946Y179777D01*
X80249Y180473D01*
X79396Y180966D01*
X78445Y181220D01*
D02*
G37*
G36*
X268623Y180244D02*
X267755D01*
X266953Y179912D01*
X266340Y179298D01*
X266008Y178497D01*
Y177629D01*
X266340Y176828D01*
X266788Y176380D01*
X266340Y175932D01*
X266008Y175131D01*
Y174263D01*
X266340Y173461D01*
X266953Y172848D01*
X267755Y172516D01*
X268623D01*
X269425Y172848D01*
X270038Y173461D01*
X270370Y174263D01*
Y175131D01*
X270038Y175932D01*
X269590Y176380D01*
X270038Y176828D01*
X270370Y177629D01*
Y178497D01*
X270038Y179298D01*
X269425Y179912D01*
X268623Y180244D01*
D02*
G37*
G36*
X169083Y173319D02*
X167429D01*
Y171665D01*
X168165Y171970D01*
X168778Y172583D01*
X169083Y173319D01*
D02*
G37*
G36*
X166429D02*
X164775D01*
X165080Y172583D01*
X165694Y171970D01*
X166429Y171665D01*
Y173319D01*
D02*
G37*
G36*
X88453Y170909D02*
Y167980D01*
X91381D01*
X91159Y168808D01*
X90706Y169593D01*
X90065Y170234D01*
X89281Y170687D01*
X88453Y170909D01*
D02*
G37*
G36*
X87453D02*
X86625Y170687D01*
X85840Y170234D01*
X85199Y169593D01*
X84746Y168808D01*
X84524Y167980D01*
X87453D01*
Y170909D01*
D02*
G37*
G36*
X167363Y170685D02*
X166495D01*
X165694Y170353D01*
X165080Y169739D01*
X164748Y168938D01*
Y168070D01*
X165080Y167269D01*
X165694Y166655D01*
X166495Y166323D01*
X167363D01*
X168165Y166655D01*
X168778Y167269D01*
X169110Y168070D01*
Y168938D01*
X168778Y169739D01*
X168165Y170353D01*
X167363Y170685D01*
D02*
G37*
G36*
X91381Y166980D02*
X88453D01*
Y164052D01*
X89281Y164274D01*
X90065Y164727D01*
X90706Y165367D01*
X91159Y166152D01*
X91381Y166980D01*
D02*
G37*
G36*
X87453D02*
X84524D01*
X84746Y166152D01*
X85199Y165367D01*
X85840Y164727D01*
X86625Y164274D01*
X87453Y164052D01*
Y166980D01*
D02*
G37*
G36*
X78445Y171221D02*
X77460D01*
X76509Y170966D01*
X75656Y170473D01*
X74960Y169777D01*
X74467Y168924D01*
X74213Y167973D01*
Y166988D01*
X74467Y166037D01*
X74960Y165184D01*
X75656Y164487D01*
X76509Y163995D01*
X77460Y163740D01*
X78445D01*
X79396Y163995D01*
X80249Y164487D01*
X80946Y165184D01*
X81438Y166037D01*
X81693Y166988D01*
Y167973D01*
X81438Y168924D01*
X80946Y169777D01*
X80249Y170473D01*
X79396Y170966D01*
X78445Y171221D01*
D02*
G37*
G36*
X108308Y164279D02*
X107440D01*
X106639Y163947D01*
X106025Y163334D01*
X105693Y162532D01*
Y161665D01*
X106025Y160863D01*
X106639Y160249D01*
X107096Y160060D01*
Y159519D01*
X106639Y159329D01*
X106025Y158716D01*
X105693Y157914D01*
Y157046D01*
X106025Y156245D01*
X106639Y155631D01*
X107440Y155299D01*
X108308D01*
X109109Y155631D01*
X109723Y156245D01*
X110055Y157046D01*
Y157914D01*
X109723Y158716D01*
X109109Y159329D01*
X108652Y159519D01*
Y160060D01*
X109109Y160249D01*
X109723Y160863D01*
X110055Y161665D01*
Y162532D01*
X109723Y163334D01*
X109109Y163947D01*
X108308Y164279D01*
D02*
G37*
G36*
X88445Y161221D02*
X87460D01*
X86509Y160966D01*
X85656Y160473D01*
X84960Y159777D01*
X84468Y158924D01*
X84213Y157973D01*
Y156988D01*
X84468Y156037D01*
X84960Y155184D01*
X85656Y154487D01*
X86509Y153995D01*
X87460Y153740D01*
X88445D01*
X89396Y153995D01*
X90249Y154487D01*
X90946Y155184D01*
X91438Y156037D01*
X91693Y156988D01*
Y157973D01*
X91438Y158924D01*
X90946Y159777D01*
X90249Y160473D01*
X89396Y160966D01*
X88445Y161221D01*
D02*
G37*
G36*
X299646Y156512D02*
X298779D01*
X297977Y156180D01*
X297363Y155566D01*
X297031Y154765D01*
Y153897D01*
X297363Y153095D01*
X297977Y152482D01*
X298779Y152150D01*
X299646D01*
X300448Y152482D01*
X301062Y153095D01*
X301394Y153897D01*
Y154765D01*
X301062Y155566D01*
X300448Y156180D01*
X299646Y156512D01*
D02*
G37*
G36*
X77453Y150909D02*
X76625Y150687D01*
X75840Y150234D01*
X75199Y149593D01*
X74746Y148809D01*
X74524Y147980D01*
X77453D01*
Y150909D01*
D02*
G37*
G36*
X208623Y173996D02*
X207755D01*
X206954Y173664D01*
X206340Y173050D01*
X206008Y172249D01*
Y171381D01*
X206340Y170580D01*
X206839Y170081D01*
X206340Y169582D01*
X206008Y168780D01*
Y167913D01*
X206340Y167111D01*
X206954Y166497D01*
X207755Y166165D01*
X208623D01*
X209424Y166497D01*
X210038Y167111D01*
X210370Y167913D01*
Y168780D01*
X210038Y169582D01*
X209539Y170081D01*
X210038Y170580D01*
X210172Y170904D01*
X217571D01*
X242474Y146001D01*
X242769Y145804D01*
X243118Y145735D01*
X266206D01*
X266340Y145410D01*
X266787Y144963D01*
X266340Y144516D01*
X266233Y144258D01*
X90727D01*
X90519Y144758D01*
X90946Y145184D01*
X91438Y146037D01*
X91693Y146988D01*
Y147973D01*
X91438Y148924D01*
X90946Y149777D01*
X90249Y150473D01*
X89396Y150966D01*
X88445Y151221D01*
X87460D01*
X86509Y150966D01*
X85656Y150473D01*
X84960Y149777D01*
X84468Y148924D01*
X84213Y147973D01*
Y147114D01*
X83770Y146849D01*
X82998Y147622D01*
Y153347D01*
X82929Y153695D01*
X82731Y153991D01*
X81162Y155559D01*
X81438Y156037D01*
X81693Y156988D01*
Y157973D01*
X81438Y158924D01*
X80946Y159777D01*
X80249Y160473D01*
X79396Y160966D01*
X78445Y161221D01*
X77460D01*
X76509Y160966D01*
X75656Y160473D01*
X74960Y159777D01*
X74467Y158924D01*
X74213Y157973D01*
Y156988D01*
X74467Y156037D01*
X74960Y155184D01*
X75656Y154487D01*
X76509Y153995D01*
X77460Y153740D01*
X78445D01*
X79396Y153995D01*
X79874Y154271D01*
X81175Y152969D01*
Y149780D01*
X80813Y149636D01*
X80675Y149624D01*
X80066Y150234D01*
X79281Y150687D01*
X78453Y150909D01*
Y147480D01*
Y144052D01*
X79281Y144274D01*
X80066Y144727D01*
X80706Y145368D01*
X81159Y146152D01*
X81164Y146171D01*
X81722Y146320D01*
X85340Y142702D01*
X85636Y142505D01*
X85984Y142435D01*
X266178D01*
X266340Y142045D01*
X266953Y141431D01*
X267755Y141099D01*
X268623D01*
X269425Y141431D01*
X270038Y142045D01*
X270370Y142847D01*
Y143714D01*
X270038Y144516D01*
X269591Y144963D01*
X270038Y145410D01*
X270370Y146212D01*
Y147080D01*
X270038Y147881D01*
X269592Y148327D01*
X270038Y148772D01*
X270370Y149574D01*
Y150442D01*
X270038Y151243D01*
X269425Y151857D01*
X268623Y152189D01*
X267755D01*
X266953Y151857D01*
X266340Y151243D01*
X266008Y150442D01*
Y149574D01*
X266340Y148772D01*
X266786Y148327D01*
X266340Y147881D01*
X266206Y147557D01*
X243495D01*
X218593Y172459D01*
X218298Y172657D01*
X217949Y172726D01*
X210172D01*
X210038Y173050D01*
X209424Y173664D01*
X208623Y173996D01*
D02*
G37*
G36*
X77453Y146980D02*
X74524D01*
X74746Y146152D01*
X75199Y145368D01*
X75840Y144727D01*
X76625Y144274D01*
X77453Y144052D01*
Y146980D01*
D02*
G37*
G36*
X180749Y140272D02*
X179881D01*
X179079Y139940D01*
X178466Y139326D01*
X178134Y138524D01*
Y137657D01*
X178466Y136855D01*
X179079Y136241D01*
X179881Y135909D01*
X180749D01*
X181551Y136241D01*
X182164Y136855D01*
X182496Y137657D01*
Y138524D01*
X182164Y139326D01*
X181551Y139940D01*
X180749Y140272D01*
D02*
G37*
G36*
X108308Y139661D02*
X107440D01*
X106639Y139329D01*
X106025Y138716D01*
X105693Y137914D01*
Y137047D01*
X106025Y136245D01*
X106639Y135631D01*
X107440Y135299D01*
X108308D01*
X109109Y135631D01*
X109723Y136245D01*
X110055Y137047D01*
Y137914D01*
X109723Y138716D01*
X109109Y139329D01*
X108308Y139661D01*
D02*
G37*
G36*
X91693Y141220D02*
X84213D01*
Y133740D01*
X91693D01*
Y141220D01*
D02*
G37*
G36*
X78445D02*
X77460D01*
X76509Y140966D01*
X75656Y140473D01*
X74960Y139777D01*
X74467Y138924D01*
X74213Y137973D01*
Y136988D01*
X74467Y136037D01*
X74960Y135184D01*
X75656Y134487D01*
X76509Y133995D01*
X77460Y133740D01*
X78445D01*
X79396Y133995D01*
X80249Y134487D01*
X80946Y135184D01*
X81438Y136037D01*
X81693Y136988D01*
Y137973D01*
X81438Y138924D01*
X80946Y139777D01*
X80249Y140473D01*
X79396Y140966D01*
X78445Y141220D01*
D02*
G37*
G36*
X180815Y134929D02*
Y133276D01*
X182469D01*
X182164Y134011D01*
X181551Y134625D01*
X180815Y134929D01*
D02*
G37*
G36*
X179815D02*
X179079Y134625D01*
X178466Y134011D01*
X178161Y133276D01*
X179815D01*
Y134929D01*
D02*
G37*
G36*
X268623Y136061D02*
X267755D01*
X266953Y135729D01*
X266340Y135116D01*
X266008Y134314D01*
Y133447D01*
X266340Y132645D01*
X266953Y132031D01*
X267755Y131699D01*
X268623D01*
X269425Y132031D01*
X270038Y132645D01*
X270370Y133447D01*
Y134314D01*
X270038Y135116D01*
X269425Y135729D01*
X268623Y136061D01*
D02*
G37*
G36*
X182469Y132276D02*
X180815D01*
Y130622D01*
X181551Y130927D01*
X182164Y131540D01*
X182469Y132276D01*
D02*
G37*
G36*
X179815D02*
X178161D01*
X178466Y131540D01*
X179079Y130927D01*
X179815Y130622D01*
Y132276D01*
D02*
G37*
G36*
X300894Y125697D02*
Y124044D01*
X302547D01*
X302243Y124779D01*
X301629Y125393D01*
X300894Y125697D01*
D02*
G37*
G36*
X299894D02*
X299158Y125393D01*
X298545Y124779D01*
X298240Y124044D01*
X299894D01*
Y125697D01*
D02*
G37*
G36*
X166969Y128165D02*
X166102D01*
X165300Y127833D01*
X164686Y127220D01*
X164354Y126418D01*
Y125550D01*
X164686Y124749D01*
X165300Y124135D01*
X166102Y123803D01*
X166969D01*
X167771Y124135D01*
X168385Y124749D01*
X168717Y125550D01*
Y126418D01*
X168385Y127220D01*
X167771Y127833D01*
X166969Y128165D01*
D02*
G37*
G36*
X159883D02*
X159015D01*
X158213Y127833D01*
X157600Y127220D01*
X157268Y126418D01*
Y125550D01*
X157600Y124749D01*
X158213Y124135D01*
X159015Y123803D01*
X159883D01*
X160684Y124135D01*
X161298Y124749D01*
X161630Y125550D01*
Y126418D01*
X161298Y127220D01*
X160684Y127833D01*
X159883Y128165D01*
D02*
G37*
G36*
X152796D02*
X151928D01*
X151127Y127833D01*
X150513Y127220D01*
X150181Y126418D01*
Y125550D01*
X150513Y124749D01*
X151127Y124135D01*
X151928Y123803D01*
X152796D01*
X153598Y124135D01*
X154211Y124749D01*
X154543Y125550D01*
Y126418D01*
X154211Y127220D01*
X153598Y127833D01*
X152796Y128165D01*
D02*
G37*
G36*
X145709D02*
X144842D01*
X144040Y127833D01*
X143427Y127220D01*
X143095Y126418D01*
Y125550D01*
X143427Y124749D01*
X144040Y124135D01*
X144842Y123803D01*
X145709D01*
X146511Y124135D01*
X147125Y124749D01*
X147457Y125550D01*
Y126418D01*
X147125Y127220D01*
X146511Y127833D01*
X145709Y128165D01*
D02*
G37*
G36*
X138623D02*
X137755D01*
X136953Y127833D01*
X136340Y127220D01*
X136008Y126418D01*
Y125550D01*
X136340Y124749D01*
X136953Y124135D01*
X137755Y123803D01*
X138623D01*
X139425Y124135D01*
X140038Y124749D01*
X140370Y125550D01*
Y126418D01*
X140038Y127220D01*
X139425Y127833D01*
X138623Y128165D01*
D02*
G37*
G36*
X131536D02*
X130668D01*
X129867Y127833D01*
X129253Y127220D01*
X128921Y126418D01*
Y125550D01*
X129253Y124749D01*
X129867Y124135D01*
X130668Y123803D01*
X131536D01*
X132338Y124135D01*
X132951Y124749D01*
X133283Y125550D01*
Y126418D01*
X132951Y127220D01*
X132338Y127833D01*
X131536Y128165D01*
D02*
G37*
G36*
X319725Y127575D02*
X318858D01*
X318056Y127243D01*
X317442Y126629D01*
X317110Y125828D01*
Y124960D01*
X317442Y124158D01*
X318056Y123545D01*
X318858Y123213D01*
X319725D01*
X320527Y123545D01*
X321140Y124158D01*
X321472Y124960D01*
Y125828D01*
X321140Y126629D01*
X320527Y127243D01*
X319725Y127575D01*
D02*
G37*
G36*
X247213Y123756D02*
X246346D01*
X245544Y123424D01*
X245098Y122978D01*
X244653Y123424D01*
X243851Y123756D01*
X242984D01*
X242182Y123424D01*
X241734Y122976D01*
X241287Y123424D01*
X240485Y123756D01*
X239617D01*
X238816Y123424D01*
X238370Y122978D01*
X237925Y123424D01*
X237123Y123756D01*
X236255D01*
X235454Y123424D01*
X234840Y122810D01*
X234508Y122009D01*
Y121141D01*
X234840Y120339D01*
X235454Y119726D01*
X236255Y119394D01*
X237123D01*
X237925Y119726D01*
X238370Y120171D01*
X238816Y119726D01*
X239617Y119394D01*
X240485D01*
X241287Y119726D01*
X241734Y120173D01*
X242182Y119726D01*
X242984Y119394D01*
X243851D01*
X244653Y119726D01*
X245098Y120171D01*
X245544Y119726D01*
X246346Y119394D01*
X247213D01*
X248015Y119726D01*
X248629Y120339D01*
X248961Y121141D01*
Y122009D01*
X248629Y122810D01*
X248015Y123424D01*
X247213Y123756D01*
D02*
G37*
G36*
X302547Y123044D02*
X300894D01*
Y121390D01*
X301629Y121695D01*
X302243Y122308D01*
X302547Y123044D01*
D02*
G37*
G36*
X299894D02*
X298240D01*
X298545Y122308D01*
X299158Y121695D01*
X299894Y121390D01*
Y123044D01*
D02*
G37*
G36*
X61064Y112417D02*
X60196D01*
X59394Y112085D01*
X58781Y111472D01*
X58449Y110670D01*
Y109802D01*
X58781Y109001D01*
X59394Y108387D01*
X60196Y108055D01*
X61064D01*
X61865Y108387D01*
X62479Y109001D01*
X62811Y109802D01*
Y110670D01*
X62479Y111472D01*
X61865Y112085D01*
X61064Y112417D01*
D02*
G37*
G36*
X275237Y112024D02*
X274369D01*
X273568Y111692D01*
X272954Y111078D01*
X272622Y110276D01*
Y109409D01*
X272954Y108607D01*
X273568Y107993D01*
X274369Y107661D01*
X275237D01*
X276039Y107993D01*
X276652Y108607D01*
X276984Y109409D01*
Y110276D01*
X276652Y111078D01*
X276039Y111692D01*
X275237Y112024D01*
D02*
G37*
G36*
X256339D02*
X255472D01*
X254670Y111692D01*
X254057Y111078D01*
X253724Y110276D01*
Y109409D01*
X254057Y108607D01*
X254670Y107993D01*
X255472Y107661D01*
X256339D01*
X257141Y107993D01*
X257755Y108607D01*
X258087Y109409D01*
Y110276D01*
X257755Y111078D01*
X257141Y111692D01*
X256339Y112024D01*
D02*
G37*
G36*
X61130Y105303D02*
Y103650D01*
X62784D01*
X62479Y104385D01*
X61865Y104999D01*
X61130Y105303D01*
D02*
G37*
G36*
X60130D02*
X59394Y104999D01*
X58781Y104385D01*
X58476Y103650D01*
X60130D01*
Y105303D01*
D02*
G37*
G36*
X62784Y102650D02*
X61130D01*
Y100996D01*
X61865Y101301D01*
X62479Y101914D01*
X62784Y102650D01*
D02*
G37*
G36*
X60130D02*
X58476D01*
X58781Y101914D01*
X59394Y101301D01*
X60130Y100996D01*
Y102650D01*
D02*
G37*
G36*
X306142Y81217D02*
X305275D01*
X304473Y80884D01*
X303860Y80271D01*
X303528Y79469D01*
Y78602D01*
X303860Y77800D01*
X304473Y77186D01*
X305275Y76854D01*
X306142D01*
X306944Y77186D01*
X307558Y77800D01*
X307890Y78602D01*
Y79469D01*
X307558Y80271D01*
X306944Y80884D01*
X306142Y81217D01*
D02*
G37*
G36*
X378019Y80047D02*
X376887D01*
X375793Y79754D01*
X374813Y79188D01*
X374012Y78388D01*
X373446Y77407D01*
X373246Y76659D01*
X367017D01*
X366669Y76590D01*
X366373Y76392D01*
X336593Y46612D01*
X323084D01*
X322877Y47112D01*
X323519Y47754D01*
X324085Y48734D01*
X324378Y49828D01*
Y50960D01*
X324085Y52053D01*
X323519Y53034D01*
X322719Y53834D01*
X321738Y54400D01*
X320645Y54693D01*
X319513D01*
X318419Y54400D01*
X317439Y53834D01*
X316638Y53034D01*
X316073Y52053D01*
X315779Y50960D01*
Y49828D01*
X316073Y48734D01*
X316638Y47754D01*
X317280Y47112D01*
X317073Y46612D01*
X313338D01*
X312567Y47383D01*
Y54693D01*
X303969D01*
Y47383D01*
X303197Y46612D01*
X280171D01*
X279964Y47112D01*
X280606Y47754D01*
X281172Y48734D01*
X281465Y49828D01*
Y50960D01*
X281172Y52053D01*
X280606Y53034D01*
X279805Y53834D01*
X278825Y54400D01*
X277731Y54693D01*
X276599D01*
X275506Y54400D01*
X274526Y53834D01*
X273725Y53034D01*
X273159Y52053D01*
X272866Y50960D01*
Y49828D01*
X273159Y48734D01*
X273725Y47754D01*
X274367Y47112D01*
X274160Y46612D01*
X270425D01*
X269654Y47383D01*
Y54693D01*
X261055D01*
Y47383D01*
X260284Y46612D01*
X237257D01*
X237050Y47112D01*
X237692Y47754D01*
X238258Y48734D01*
X238551Y49828D01*
Y50960D01*
X238258Y52053D01*
X237692Y53034D01*
X236892Y53834D01*
X235911Y54400D01*
X234818Y54693D01*
X233686D01*
X232593Y54400D01*
X231612Y53834D01*
X230812Y53034D01*
X230246Y52053D01*
X229953Y50960D01*
Y49828D01*
X230246Y48734D01*
X230812Y47754D01*
X231454Y47112D01*
X231246Y46612D01*
X227511D01*
X226740Y47383D01*
Y54693D01*
X218142D01*
Y46095D01*
X225451D01*
X226489Y45057D01*
X226785Y44859D01*
X227134Y44790D01*
X260661D01*
X261010Y44859D01*
X261306Y45057D01*
X262344Y46095D01*
X268365D01*
X269403Y45057D01*
X269699Y44859D01*
X270047Y44790D01*
X303575D01*
X303924Y44859D01*
X304219Y45057D01*
X305257Y46095D01*
X311278D01*
X312316Y45057D01*
X312612Y44859D01*
X312961Y44790D01*
X336970D01*
X337319Y44859D01*
X337614Y45057D01*
X367395Y74837D01*
X373246D01*
X373446Y74089D01*
X374012Y73108D01*
X374813Y72308D01*
X375793Y71742D01*
X376887Y71449D01*
X378019D01*
X379112Y71742D01*
X380093Y72308D01*
X380893Y73108D01*
X381459Y74089D01*
X381752Y75182D01*
Y76314D01*
X381459Y77407D01*
X380893Y78388D01*
X380093Y79188D01*
X379112Y79754D01*
X378019Y80047D01*
D02*
G37*
G36*
X107324Y69898D02*
X106456D01*
X105654Y69566D01*
X105041Y68952D01*
X104709Y68150D01*
Y67283D01*
X105041Y66481D01*
X105654Y65868D01*
X106456Y65535D01*
X107324D01*
X108125Y65868D01*
X108739Y66481D01*
X109071Y67283D01*
Y68150D01*
X108739Y68952D01*
X108125Y69566D01*
X107324Y69898D01*
D02*
G37*
G36*
X101024D02*
X100157D01*
X99355Y69566D01*
X98742Y68952D01*
X98409Y68150D01*
Y67283D01*
X98742Y66481D01*
X99355Y65868D01*
X100157Y65535D01*
X101024D01*
X101826Y65868D01*
X102440Y66481D01*
X102772Y67283D01*
Y68150D01*
X102440Y68952D01*
X101826Y69566D01*
X101024Y69898D01*
D02*
G37*
G36*
X93544D02*
X92676D01*
X91875Y69566D01*
X91261Y68952D01*
X90929Y68150D01*
Y67283D01*
X91261Y66481D01*
X91875Y65868D01*
X92676Y65535D01*
X93544D01*
X94346Y65868D01*
X94959Y66481D01*
X95291Y67283D01*
Y68150D01*
X94959Y68952D01*
X94346Y69566D01*
X93544Y69898D01*
D02*
G37*
G36*
X332325Y69213D02*
X331454D01*
X330613Y68987D01*
X329859Y68552D01*
X329243Y67936D01*
X328808Y67182D01*
X328583Y66341D01*
Y65470D01*
X328808Y64629D01*
X329243Y63875D01*
X329859Y63259D01*
X330613Y62824D01*
X331454Y62598D01*
X332325D01*
X333166Y62824D01*
X333920Y63259D01*
X334536Y63875D01*
X334971Y64629D01*
X335197Y65470D01*
Y66341D01*
X334971Y67182D01*
X334536Y67936D01*
X333920Y68552D01*
X333166Y68987D01*
X332325Y69213D01*
D02*
G37*
G36*
X296892D02*
X296021D01*
X295180Y68987D01*
X294426Y68552D01*
X293810Y67936D01*
X293375Y67182D01*
X293150Y66341D01*
Y65470D01*
X293375Y64629D01*
X293810Y63875D01*
X294426Y63259D01*
X295180Y62824D01*
X296021Y62598D01*
X296892D01*
X297733Y62824D01*
X298487Y63259D01*
X299103Y63875D01*
X299538Y64629D01*
X299764Y65470D01*
Y66341D01*
X299538Y67182D01*
X299103Y67936D01*
X298487Y68552D01*
X297733Y68987D01*
X296892Y69213D01*
D02*
G37*
G36*
X289412D02*
X288541D01*
X287700Y68987D01*
X286946Y68552D01*
X286330Y67936D01*
X285895Y67182D01*
X285669Y66341D01*
Y65470D01*
X285895Y64629D01*
X286330Y63875D01*
X286946Y63259D01*
X287700Y62824D01*
X288541Y62598D01*
X289412D01*
X290253Y62824D01*
X291007Y63259D01*
X291623Y63875D01*
X292058Y64629D01*
X292284Y65470D01*
Y66341D01*
X292058Y67182D01*
X291623Y67936D01*
X291007Y68552D01*
X290253Y68987D01*
X289412Y69213D01*
D02*
G37*
G36*
X253979D02*
X253108D01*
X252267Y68987D01*
X251513Y68552D01*
X250897Y67936D01*
X250462Y67182D01*
X250236Y66341D01*
Y65470D01*
X250462Y64629D01*
X250897Y63875D01*
X251513Y63259D01*
X252267Y62824D01*
X253108Y62598D01*
X253979D01*
X254820Y62824D01*
X255574Y63259D01*
X256190Y63875D01*
X256625Y64629D01*
X256850Y65470D01*
Y66341D01*
X256625Y67182D01*
X256190Y67936D01*
X255574Y68552D01*
X254820Y68987D01*
X253979Y69213D01*
D02*
G37*
G36*
X246498D02*
X245628D01*
X244787Y68987D01*
X244032Y68552D01*
X243417Y67936D01*
X242981Y67182D01*
X242756Y66341D01*
Y65470D01*
X242981Y64629D01*
X243417Y63875D01*
X244032Y63259D01*
X244787Y62824D01*
X245628Y62598D01*
X246498D01*
X247340Y62824D01*
X248094Y63259D01*
X248709Y63875D01*
X249145Y64629D01*
X249370Y65470D01*
Y66341D01*
X249145Y67182D01*
X248709Y67936D01*
X248094Y68552D01*
X247340Y68987D01*
X246498Y69213D01*
D02*
G37*
G36*
X211065D02*
X210194D01*
X209353Y68987D01*
X208599Y68552D01*
X207984Y67936D01*
X207548Y67182D01*
X207323Y66341D01*
Y65470D01*
X207548Y64629D01*
X207984Y63875D01*
X208599Y63259D01*
X209353Y62824D01*
X210194Y62598D01*
X211065D01*
X211906Y62824D01*
X212661Y63259D01*
X213276Y63875D01*
X213712Y64629D01*
X213937Y65470D01*
Y66341D01*
X213712Y67182D01*
X213276Y67936D01*
X212661Y68552D01*
X211906Y68987D01*
X211065Y69213D01*
D02*
G37*
G36*
X203585D02*
X202714D01*
X201873Y68987D01*
X201119Y68552D01*
X200503Y67936D01*
X200068Y67182D01*
X199843Y66341D01*
Y65470D01*
X200068Y64629D01*
X200503Y63875D01*
X201119Y63259D01*
X201873Y62824D01*
X202714Y62598D01*
X203585D01*
X204426Y62824D01*
X205180Y63259D01*
X205796Y63875D01*
X206231Y64629D01*
X206457Y65470D01*
Y66341D01*
X206231Y67182D01*
X205796Y67936D01*
X205180Y68552D01*
X204426Y68987D01*
X203585Y69213D01*
D02*
G37*
G36*
X120908D02*
X120037D01*
X119196Y68987D01*
X118442Y68552D01*
X117826Y67936D01*
X117391Y67182D01*
X117165Y66341D01*
Y65470D01*
X117391Y64629D01*
X117826Y63875D01*
X118442Y63259D01*
X119196Y62824D01*
X120037Y62598D01*
X120908D01*
X121749Y62824D01*
X122503Y63259D01*
X123119Y63875D01*
X123554Y64629D01*
X123779Y65470D01*
Y66341D01*
X123554Y67182D01*
X123119Y67936D01*
X122503Y68552D01*
X121749Y68987D01*
X120908Y69213D01*
D02*
G37*
G36*
X378019Y70047D02*
X376887D01*
X375793Y69754D01*
X374813Y69188D01*
X374012Y68388D01*
X373446Y67407D01*
X373153Y66314D01*
Y65182D01*
X373446Y64089D01*
X374012Y63108D01*
X374813Y62308D01*
X375793Y61742D01*
X376887Y61449D01*
X378019D01*
X379112Y61742D01*
X380093Y62308D01*
X380893Y63108D01*
X381459Y64089D01*
X381752Y65182D01*
Y66314D01*
X381459Y67407D01*
X380893Y68388D01*
X380093Y69188D01*
X379112Y69754D01*
X378019Y70047D01*
D02*
G37*
G36*
X320645Y66504D02*
X319513D01*
X318419Y66211D01*
X317439Y65645D01*
X316638Y64845D01*
X316073Y63864D01*
X315779Y62771D01*
Y61639D01*
X316073Y60545D01*
X316638Y59565D01*
X317439Y58764D01*
X318419Y58198D01*
X319513Y57906D01*
X320645D01*
X321738Y58198D01*
X322719Y58764D01*
X323519Y59565D01*
X324085Y60545D01*
X324378Y61639D01*
Y62771D01*
X324085Y63864D01*
X323519Y64845D01*
X322719Y65645D01*
X321738Y66211D01*
X320645Y66504D01*
D02*
G37*
G36*
X308834D02*
X307702D01*
X306608Y66211D01*
X305628Y65645D01*
X304827Y64845D01*
X304261Y63864D01*
X303969Y62771D01*
Y61639D01*
X304261Y60545D01*
X304827Y59565D01*
X305628Y58764D01*
X306608Y58198D01*
X307702Y57906D01*
X308834D01*
X309927Y58198D01*
X310908Y58764D01*
X311708Y59565D01*
X312274Y60545D01*
X312567Y61639D01*
Y62771D01*
X312274Y63864D01*
X311708Y64845D01*
X310908Y65645D01*
X309927Y66211D01*
X308834Y66504D01*
D02*
G37*
G36*
X277731D02*
X276599D01*
X275506Y66211D01*
X274526Y65645D01*
X273725Y64845D01*
X273159Y63864D01*
X272866Y62771D01*
Y61639D01*
X273159Y60545D01*
X273725Y59565D01*
X274526Y58764D01*
X275506Y58198D01*
X276599Y57906D01*
X277731D01*
X278825Y58198D01*
X279805Y58764D01*
X280606Y59565D01*
X281172Y60545D01*
X281465Y61639D01*
Y62771D01*
X281172Y63864D01*
X280606Y64845D01*
X279805Y65645D01*
X278825Y66211D01*
X277731Y66504D01*
D02*
G37*
G36*
X265920D02*
X264788D01*
X263695Y66211D01*
X262715Y65645D01*
X261914Y64845D01*
X261348Y63864D01*
X261055Y62771D01*
Y61639D01*
X261348Y60545D01*
X261914Y59565D01*
X262715Y58764D01*
X263695Y58198D01*
X264788Y57906D01*
X265920D01*
X267014Y58198D01*
X267994Y58764D01*
X268795Y59565D01*
X269361Y60545D01*
X269654Y61639D01*
Y62771D01*
X269361Y63864D01*
X268795Y64845D01*
X267994Y65645D01*
X267014Y66211D01*
X265920Y66504D01*
D02*
G37*
G36*
X234818D02*
X233686D01*
X232593Y66211D01*
X231612Y65645D01*
X230812Y64845D01*
X230246Y63864D01*
X229953Y62771D01*
Y61639D01*
X230246Y60545D01*
X230812Y59565D01*
X231612Y58764D01*
X232593Y58198D01*
X233686Y57906D01*
X234818D01*
X235911Y58198D01*
X236892Y58764D01*
X237692Y59565D01*
X238258Y60545D01*
X238551Y61639D01*
Y62771D01*
X238258Y63864D01*
X237692Y64845D01*
X236892Y65645D01*
X235911Y66211D01*
X234818Y66504D01*
D02*
G37*
G36*
X223007D02*
X221875D01*
X220781Y66211D01*
X219801Y65645D01*
X219001Y64845D01*
X218435Y63864D01*
X218142Y62771D01*
Y61639D01*
X218435Y60545D01*
X219001Y59565D01*
X219801Y58764D01*
X220781Y58198D01*
X221875Y57906D01*
X223007D01*
X224100Y58198D01*
X225081Y58764D01*
X225881Y59565D01*
X226447Y60545D01*
X226740Y61639D01*
Y62771D01*
X226447Y63864D01*
X225881Y64845D01*
X225081Y65645D01*
X224100Y66211D01*
X223007Y66504D01*
D02*
G37*
G36*
X191905D02*
X190773D01*
X189679Y66211D01*
X188699Y65645D01*
X187898Y64845D01*
X187332Y63864D01*
X187039Y62771D01*
Y61639D01*
X187332Y60545D01*
X187898Y59565D01*
X188699Y58764D01*
X189679Y58198D01*
X190773Y57906D01*
X191905D01*
X192998Y58198D01*
X193978Y58764D01*
X194779Y59565D01*
X195345Y60545D01*
X195638Y61639D01*
Y62771D01*
X195345Y63864D01*
X194779Y64845D01*
X193978Y65645D01*
X192998Y66211D01*
X191905Y66504D01*
D02*
G37*
G36*
X180094D02*
X178962D01*
X177868Y66211D01*
X176888Y65645D01*
X176087Y64845D01*
X175521Y63864D01*
X175228Y62771D01*
Y61639D01*
X175521Y60545D01*
X176087Y59565D01*
X176888Y58764D01*
X177868Y58198D01*
X178962Y57906D01*
X180094D01*
X181187Y58198D01*
X182167Y58764D01*
X182968Y59565D01*
X183534Y60545D01*
X183827Y61639D01*
Y62771D01*
X183534Y63864D01*
X182968Y64845D01*
X182167Y65645D01*
X181187Y66211D01*
X180094Y66504D01*
D02*
G37*
G36*
X168282D02*
X167150D01*
X166057Y66211D01*
X165077Y65645D01*
X164276Y64845D01*
X163710Y63864D01*
X163417Y62771D01*
Y61639D01*
X163710Y60545D01*
X164276Y59565D01*
X165077Y58764D01*
X166057Y58198D01*
X167150Y57906D01*
X168282D01*
X169376Y58198D01*
X170356Y58764D01*
X171157Y59565D01*
X171723Y60545D01*
X172016Y61639D01*
Y62771D01*
X171723Y63864D01*
X171157Y64845D01*
X170356Y65645D01*
X169376Y66211D01*
X168282Y66504D01*
D02*
G37*
G36*
X156472D02*
X155340D01*
X154246Y66211D01*
X153266Y65645D01*
X152465Y64845D01*
X151899Y63864D01*
X151606Y62771D01*
Y61639D01*
X151899Y60545D01*
X152465Y59565D01*
X153266Y58764D01*
X154246Y58198D01*
X155340Y57906D01*
X156472D01*
X157565Y58198D01*
X158545Y58764D01*
X159346Y59565D01*
X159912Y60545D01*
X160205Y61639D01*
Y62771D01*
X159912Y63864D01*
X159346Y64845D01*
X158545Y65645D01*
X157565Y66211D01*
X156472Y66504D01*
D02*
G37*
G36*
X144660D02*
X143528D01*
X142435Y66211D01*
X141455Y65645D01*
X140654Y64845D01*
X140088Y63864D01*
X139795Y62771D01*
Y61639D01*
X140088Y60545D01*
X140654Y59565D01*
X141455Y58764D01*
X142435Y58198D01*
X143528Y57906D01*
X144660D01*
X145754Y58198D01*
X146734Y58764D01*
X147535Y59565D01*
X148101Y60545D01*
X148394Y61639D01*
Y62771D01*
X148101Y63864D01*
X147535Y64845D01*
X146734Y65645D01*
X145754Y66211D01*
X144660Y66504D01*
D02*
G37*
G36*
X132850D02*
X131718D01*
X130624Y66211D01*
X129644Y65645D01*
X128843Y64845D01*
X128277Y63864D01*
X127984Y62771D01*
Y61639D01*
X128277Y60545D01*
X128843Y59565D01*
X129644Y58764D01*
X130624Y58198D01*
X131718Y57906D01*
X132850D01*
X133943Y58198D01*
X134923Y58764D01*
X135724Y59565D01*
X136290Y60545D01*
X136583Y61639D01*
Y62771D01*
X136290Y63864D01*
X135724Y64845D01*
X134923Y65645D01*
X133943Y66211D01*
X132850Y66504D01*
D02*
G37*
G36*
X377979Y59748D02*
X377953D01*
Y56248D01*
X381453D01*
Y56275D01*
X381180Y57292D01*
X380654Y58204D01*
X379909Y58949D01*
X378997Y59475D01*
X377979Y59748D01*
D02*
G37*
G36*
X376953D02*
X376926D01*
X375909Y59475D01*
X374997Y58949D01*
X374252Y58204D01*
X373725Y57292D01*
X373453Y56275D01*
Y56248D01*
X376953D01*
Y59748D01*
D02*
G37*
G36*
X381453Y55248D02*
X377953D01*
Y51748D01*
X377979D01*
X378997Y52021D01*
X379909Y52547D01*
X380654Y53292D01*
X381180Y54204D01*
X381453Y55221D01*
Y55248D01*
D02*
G37*
G36*
X376953D02*
X373453D01*
Y55221D01*
X373725Y54204D01*
X374252Y53292D01*
X374997Y52547D01*
X375909Y52021D01*
X376926Y51748D01*
X376953D01*
Y55248D01*
D02*
G37*
G36*
X168243Y54394D02*
X168217D01*
Y50894D01*
X171716D01*
Y50920D01*
X171444Y51938D01*
X170917Y52850D01*
X170173Y53594D01*
X169261Y54121D01*
X168243Y54394D01*
D02*
G37*
G36*
X156432D02*
X156405D01*
Y50894D01*
X159906D01*
Y50920D01*
X159633Y51938D01*
X159106Y52850D01*
X158362Y53594D01*
X157449Y54121D01*
X156432Y54394D01*
D02*
G37*
G36*
X167217D02*
X167190D01*
X166173Y54121D01*
X165261Y53594D01*
X164516Y52850D01*
X163989Y51938D01*
X163716Y50920D01*
Y50894D01*
X167217D01*
Y54394D01*
D02*
G37*
G36*
X155405D02*
X155379D01*
X154362Y54121D01*
X153449Y53594D01*
X152705Y52850D01*
X152178Y51938D01*
X151906Y50920D01*
Y50894D01*
X155405D01*
Y54394D01*
D02*
G37*
G36*
X171716Y49894D02*
X168217D01*
Y46394D01*
X168243D01*
X169261Y46666D01*
X170173Y47193D01*
X170917Y47938D01*
X171444Y48850D01*
X171716Y49867D01*
Y49894D01*
D02*
G37*
G36*
X167217D02*
X163716D01*
Y49867D01*
X163989Y48850D01*
X164516Y47938D01*
X165261Y47193D01*
X166173Y46666D01*
X167190Y46394D01*
X167217D01*
Y49894D01*
D02*
G37*
G36*
X159906D02*
X156405D01*
Y46394D01*
X156432D01*
X157449Y46666D01*
X158362Y47193D01*
X159106Y47938D01*
X159633Y48850D01*
X159906Y49867D01*
Y49894D01*
D02*
G37*
G36*
X155405D02*
X151906D01*
Y49867D01*
X152178Y48850D01*
X152705Y47938D01*
X153449Y47193D01*
X154362Y46666D01*
X155379Y46394D01*
X155405D01*
Y49894D01*
D02*
G37*
G36*
X191905Y54693D02*
X190773D01*
X189679Y54400D01*
X188699Y53834D01*
X187898Y53034D01*
X187332Y52053D01*
X187039Y50960D01*
Y49828D01*
X187332Y48734D01*
X187898Y47754D01*
X188699Y46953D01*
X189679Y46387D01*
X190773Y46095D01*
X191905D01*
X192998Y46387D01*
X193978Y46953D01*
X194779Y47754D01*
X195345Y48734D01*
X195638Y49828D01*
Y50960D01*
X195345Y52053D01*
X194779Y53034D01*
X193978Y53834D01*
X192998Y54400D01*
X191905Y54693D01*
D02*
G37*
G36*
X180094D02*
X178962D01*
X177868Y54400D01*
X176888Y53834D01*
X176087Y53034D01*
X175521Y52053D01*
X175228Y50960D01*
Y49828D01*
X175521Y48734D01*
X176087Y47754D01*
X176888Y46953D01*
X177868Y46387D01*
X178962Y46095D01*
X180094D01*
X181187Y46387D01*
X182167Y46953D01*
X182968Y47754D01*
X183534Y48734D01*
X183827Y49828D01*
Y50960D01*
X183534Y52053D01*
X182968Y53034D01*
X182167Y53834D01*
X181187Y54400D01*
X180094Y54693D01*
D02*
G37*
G36*
X144660D02*
X143528D01*
X142435Y54400D01*
X141455Y53834D01*
X140654Y53034D01*
X140088Y52053D01*
X139795Y50960D01*
Y49828D01*
X140088Y48734D01*
X140654Y47754D01*
X141455Y46953D01*
X142435Y46387D01*
X143528Y46095D01*
X144660D01*
X145754Y46387D01*
X146734Y46953D01*
X147535Y47754D01*
X148101Y48734D01*
X148394Y49828D01*
Y50960D01*
X148101Y52053D01*
X147535Y53034D01*
X146734Y53834D01*
X145754Y54400D01*
X144660Y54693D01*
D02*
G37*
G36*
X136583D02*
X127984D01*
Y46095D01*
X136583D01*
Y54693D01*
D02*
G37*
G36*
X81986Y51802D02*
X63189D01*
Y44685D01*
X81986D01*
Y51802D01*
D02*
G37*
%LPD*%
D13*
X208189Y171815D02*
X217949D01*
X243118Y146646D01*
X268189D01*
X268123Y143347D02*
X268189Y143280D01*
X85984Y143347D02*
X268123D01*
X303575Y45701D02*
X308268Y50394D01*
X265354D02*
X270047Y45701D01*
X303575D01*
X336970D02*
X367017Y75748D01*
X308268Y50394D02*
X312961Y45701D01*
X336970D01*
X227134D02*
X260661D01*
X222441Y50394D02*
X227134Y45701D01*
X82087Y147244D02*
X85984Y143347D01*
X77953Y157480D02*
X82087Y153347D01*
Y147244D02*
Y153347D01*
X260661Y45701D02*
X265354Y50394D01*
X367017Y75748D02*
X377453D01*
D15*
X73047Y49555D02*
X73703Y50211D01*
X75015D01*
X75671Y49555D01*
Y48899D01*
X75015Y48243D01*
X74359D01*
X75015D01*
X75671Y47587D01*
Y46931D01*
X75015Y46276D01*
X73703D01*
X73047Y46931D01*
D49*
X272284Y249095D02*
D03*
X152284Y239094D02*
D03*
X312283Y249095D02*
D03*
Y239094D02*
D03*
X222284Y249095D02*
D03*
D58*
X88740Y265748D02*
D03*
D59*
X155905Y50394D02*
D03*
X167717D02*
D03*
X377453Y55748D02*
D03*
Y75748D02*
D03*
D60*
X308268Y50394D02*
D03*
X265354D02*
D03*
X222441D02*
D03*
D61*
X77953Y147480D02*
D03*
X87953Y167480D02*
D03*
X77953Y157480D02*
D03*
D63*
X300394Y123544D02*
D03*
X180315Y132776D02*
D03*
X208189Y171815D02*
D03*
X268189Y143280D02*
D03*
X166929Y173819D02*
D03*
X71555Y209055D02*
D03*
X60630Y103150D02*
D03*
X268189Y146646D02*
D03*
X339370Y204035D02*
D03*
M02*
