G04*
G04 #@! TF.GenerationSoftware,Altium Limited,Altium Designer,23.8.1 (32)*
G04*
G04 Layer_Color=12632256*
%FSLAX25Y25*%
%MOIN*%
G70*
G04*
G04 #@! TF.SameCoordinates,BF2EEF1A-6A82-4CD2-B880-65E340770DF0*
G04*
G04*
G04 #@! TF.FilePolarity,Positive*
G04*
G01*
G75*
%ADD49C,0.06299*%
%ADD55C,0.17717*%
G04:AMPARAMS|DCode=56|XSize=62.99mil|YSize=62.99mil|CornerRadius=15.75mil|HoleSize=0mil|Usage=FLASHONLY|Rotation=0.000|XOffset=0mil|YOffset=0mil|HoleType=Round|Shape=RoundedRectangle|*
%AMROUNDEDRECTD56*
21,1,0.06299,0.03150,0,0,0.0*
21,1,0.03150,0.06299,0,0,0.0*
1,1,0.03150,0.01575,-0.01575*
1,1,0.03150,-0.01575,-0.01575*
1,1,0.03150,-0.01575,0.01575*
1,1,0.03150,0.01575,0.01575*
%
%ADD56ROUNDEDRECTD56*%
%ADD57C,0.13780*%
%ADD58C,0.05906*%
%ADD59C,0.06000*%
%ADD60R,0.06000X0.06000*%
%ADD61C,0.04882*%
%ADD62R,0.04882X0.04882*%
D49*
X252284Y249095D02*
D03*
X242284D02*
D03*
X232283D02*
D03*
X302284Y239094D02*
D03*
X292284D02*
D03*
X282283D02*
D03*
X272284D02*
D03*
X292284Y249095D02*
D03*
X282283D02*
D03*
X272284D02*
D03*
X262283Y239094D02*
D03*
Y249095D02*
D03*
X212283Y239094D02*
D03*
Y249095D02*
D03*
X202284Y239094D02*
D03*
X192283D02*
D03*
X202284Y249095D02*
D03*
X192283D02*
D03*
X182283Y239094D02*
D03*
Y249095D02*
D03*
X172283Y239094D02*
D03*
Y249095D02*
D03*
X162284Y239094D02*
D03*
Y249095D02*
D03*
X222284Y239094D02*
D03*
X232283D02*
D03*
X242284D02*
D03*
X252284D02*
D03*
X152284D02*
D03*
X302284Y249095D02*
D03*
X312283D02*
D03*
Y239094D02*
D03*
X222284Y249095D02*
D03*
D55*
X49213Y265748D02*
D03*
X415354Y49213D02*
D03*
Y265748D02*
D03*
X49213Y49213D02*
D03*
D56*
X152284Y249095D02*
D03*
D57*
X49213Y265748D02*
D03*
Y49213D02*
D03*
X415354D02*
D03*
Y265748D02*
D03*
D58*
X98740D02*
D03*
X108740D02*
D03*
X118740D02*
D03*
X128740D02*
D03*
X138740D02*
D03*
X148740D02*
D03*
X158740D02*
D03*
X168740D02*
D03*
X178740D02*
D03*
X188740D02*
D03*
X198740D02*
D03*
X208740D02*
D03*
X218740D02*
D03*
X228740D02*
D03*
X78740D02*
D03*
X88740D02*
D03*
D59*
X191339Y50394D02*
D03*
Y62205D02*
D03*
X179528D02*
D03*
Y50394D02*
D03*
X144095D02*
D03*
X155905D02*
D03*
X167717D02*
D03*
X132283Y62205D02*
D03*
X167717D02*
D03*
X155905D02*
D03*
X144095D02*
D03*
X320079D02*
D03*
X308268D02*
D03*
X320079Y50394D02*
D03*
X277165Y62205D02*
D03*
X265354D02*
D03*
X277165Y50394D02*
D03*
X234252Y62205D02*
D03*
X222441D02*
D03*
X234252Y50394D02*
D03*
X377453Y55748D02*
D03*
Y65748D02*
D03*
Y75748D02*
D03*
D60*
X132283Y50394D02*
D03*
X308268D02*
D03*
X265354D02*
D03*
X222441D02*
D03*
D61*
X77953Y147480D02*
D03*
X87953Y167480D02*
D03*
X77953Y177480D02*
D03*
Y137480D02*
D03*
X87953Y147480D02*
D03*
Y157480D02*
D03*
X77953D02*
D03*
Y167480D02*
D03*
X87953Y177480D02*
D03*
D62*
Y137480D02*
D03*
M02*
