G04*
G04 #@! TF.GenerationSoftware,Altium Limited,Altium Designer,23.8.1 (32)*
G04*
G04 Layer_Color=32768*
%FSLAX25Y25*%
%MOIN*%
G70*
G04*
G04 #@! TF.SameCoordinates,BF2EEF1A-6A82-4CD2-B880-65E340770DF0*
G04*
G04*
G04 #@! TF.FilePolarity,Positive*
G04*
G01*
G75*
%ADD65C,0.00394*%
%ADD67C,0.00197*%
D65*
X134744Y180315D02*
X138484D01*
X136614Y178445D02*
Y182185D01*
X306102Y83071D02*
X311221D01*
X306102Y95079D02*
X311221D01*
X306102Y83071D02*
Y95079D01*
X311221Y83071D02*
Y95079D01*
X308661Y87303D02*
Y90847D01*
X306890Y89075D02*
X310433D01*
X307972Y120472D02*
X311713D01*
X309842Y118602D02*
Y122343D01*
X307874Y154331D02*
X311811D01*
X309842Y152362D02*
Y156299D01*
X297342Y145768D02*
X301083D01*
X299213Y143898D02*
Y147638D01*
X297342Y162894D02*
X301083D01*
X299213Y161024D02*
Y164764D01*
X300689Y102461D02*
X304429D01*
X302559Y100591D02*
Y104331D01*
X300984Y89075D02*
X304528D01*
X302756Y87303D02*
Y90847D01*
X305315Y83071D02*
Y95079D01*
X300197Y83071D02*
Y95079D01*
X305315D01*
X300197Y83071D02*
X305315D01*
X306988Y102461D02*
X310728D01*
X308858Y100591D02*
Y104331D01*
X263484Y109843D02*
X267224D01*
X265354Y107972D02*
Y111713D01*
X110630Y57087D02*
Y61024D01*
X108661Y59055D02*
X112598D01*
X108760Y49606D02*
X112500D01*
X110630Y47736D02*
Y51476D01*
X136614Y191043D02*
Y194783D01*
X134744Y192913D02*
X138484D01*
X136614Y184744D02*
Y188484D01*
X134744Y186614D02*
X138484D01*
X96850Y57087D02*
Y61024D01*
X94882Y59055D02*
X98819D01*
X94980Y49606D02*
X98721D01*
X96850Y47736D02*
Y51476D01*
X157579Y135433D02*
X161319D01*
X159449Y133563D02*
Y137303D01*
X143405Y135433D02*
X147146D01*
X145276Y133563D02*
Y137303D01*
X129232Y135433D02*
X132972D01*
X131102Y133563D02*
Y137303D01*
X164567Y135433D02*
X168504D01*
X166535Y133465D02*
Y137402D01*
X150394Y135433D02*
X154331D01*
X152362Y133465D02*
Y137402D01*
X136221Y135433D02*
X140157D01*
X138189Y133465D02*
Y137402D01*
X296850Y204626D02*
Y208366D01*
X294980Y206496D02*
X298721D01*
X290551Y204626D02*
Y208366D01*
X288681Y206496D02*
X292421D01*
X301279D02*
X305020D01*
X303150Y204626D02*
Y208366D01*
X263484Y213189D02*
X267224D01*
X265354Y211319D02*
Y215059D01*
X313878Y206496D02*
X317618D01*
X315748Y204626D02*
Y208366D01*
X259055Y211319D02*
Y215059D01*
X257185Y213189D02*
X260925D01*
X307579Y206496D02*
X311319D01*
X309449Y204626D02*
Y208366D01*
X252756Y211319D02*
Y215059D01*
X250886Y213189D02*
X254626D01*
X320177Y206496D02*
X323917D01*
X322047Y204626D02*
Y208366D01*
X246457Y211319D02*
Y215059D01*
X244587Y213189D02*
X248327D01*
X366634Y220079D02*
X370374D01*
X368504Y218209D02*
Y221949D01*
X394094Y207972D02*
Y211713D01*
X392224Y209842D02*
X395965D01*
X394094Y195374D02*
Y199114D01*
X392224Y197244D02*
X395965D01*
X394094Y201673D02*
Y205413D01*
X392224Y203543D02*
X395965D01*
X233858Y211319D02*
Y215059D01*
X231988Y213189D02*
X235728D01*
X49705Y103150D02*
X53445D01*
X51575Y101279D02*
Y105020D01*
X238287Y213189D02*
X242028D01*
X240158Y211319D02*
Y215059D01*
X128051Y240158D02*
X131791D01*
X129921Y238287D02*
Y242028D01*
X225689Y213189D02*
X229429D01*
X227559Y211319D02*
Y215059D01*
X219390Y213189D02*
X223130D01*
X221260Y211319D02*
Y215059D01*
X140650Y240158D02*
X144390D01*
X142520Y238287D02*
Y242028D01*
X206791Y213189D02*
X210531D01*
X208661Y211319D02*
Y215059D01*
X134350Y240158D02*
X138091D01*
X136221Y238287D02*
Y242028D01*
X194193Y213189D02*
X197933D01*
X196063Y211319D02*
Y215059D01*
X200492Y213189D02*
X204232D01*
X202362Y211319D02*
Y215059D01*
X123622Y238287D02*
Y242028D01*
X121752Y240158D02*
X125492D01*
X187894Y213189D02*
X191634D01*
X189764Y211319D02*
Y215059D01*
X98425Y238287D02*
Y242028D01*
X96555Y240158D02*
X100295D01*
X104724Y238287D02*
Y242028D01*
X102854Y240158D02*
X106595D01*
X109153D02*
X112894D01*
X111024Y238287D02*
Y242028D01*
X213090Y213189D02*
X216831D01*
X214961Y211319D02*
Y215059D01*
X117323Y238287D02*
Y242028D01*
X115453Y240158D02*
X119193D01*
X269783Y213189D02*
X273524D01*
X271654Y211319D02*
Y215059D01*
X276083Y213189D02*
X279823D01*
X277953Y211319D02*
Y215059D01*
X343406Y206693D02*
X347146D01*
X345276Y204823D02*
Y208563D01*
X349918Y206693D02*
X353659D01*
X351788Y204823D02*
Y208563D01*
X392224Y190945D02*
X395965D01*
X394094Y189075D02*
Y192815D01*
X363878Y58406D02*
X367618D01*
X365748Y56535D02*
Y60276D01*
X363878Y73090D02*
X367618D01*
X365748Y71220D02*
Y74961D01*
X67028Y214961D02*
X70768D01*
X68898Y213090D02*
Y216831D01*
X189862Y135433D02*
X193602D01*
X191732Y133563D02*
Y137303D01*
X183563Y135433D02*
X187303D01*
X185433Y133563D02*
Y137303D01*
X191732Y169291D02*
Y173031D01*
X189862Y171161D02*
X193602D01*
X185433Y169291D02*
Y173031D01*
X183563Y171161D02*
X187303D01*
X179134Y169291D02*
Y173031D01*
X177264Y171161D02*
X181004D01*
X172835Y169291D02*
Y173031D01*
X170965Y171161D02*
X174705D01*
X57579Y107677D02*
Y112795D01*
X45571Y107677D02*
Y112795D01*
Y107677D02*
X57579D01*
X45571Y112795D02*
X57579D01*
X49803Y110236D02*
X53347D01*
X51575Y108465D02*
Y112008D01*
D67*
X131024Y225000D02*
Y262598D01*
X333543D01*
Y225000D02*
Y262598D01*
X131024Y225000D02*
X333543D01*
X230315Y244094D02*
X234252D01*
X232283Y242126D02*
Y246063D01*
X143307Y177362D02*
Y183268D01*
X129921Y177362D02*
Y183268D01*
Y177362D02*
X143307D01*
X129921Y183268D02*
X143307D01*
X304527Y117520D02*
Y123425D01*
X315158Y117520D02*
Y123425D01*
X304527D02*
X315158D01*
X304527Y117520D02*
X315158D01*
X302165Y141142D02*
Y167520D01*
X317520Y141142D02*
Y167520D01*
X302165Y141142D02*
X317520D01*
X302165Y167520D02*
X317520D01*
X296260Y140453D02*
Y151083D01*
X302165Y140453D02*
Y151083D01*
X296260Y140453D02*
X302165D01*
X296260Y151083D02*
X302165D01*
X302165Y157579D02*
Y168209D01*
X296260Y157579D02*
Y168209D01*
X302165D01*
X296260Y157579D02*
X302165D01*
X299606Y95768D02*
Y109153D01*
X305512Y95768D02*
Y109153D01*
X299606Y95768D02*
X305512D01*
X299606Y109153D02*
X305512D01*
X305906Y95768D02*
Y109153D01*
X311811Y95768D02*
Y109153D01*
X305906Y95768D02*
X311811D01*
X305906Y109153D02*
X311811D01*
X272047Y106890D02*
Y112795D01*
X258661Y106890D02*
Y112795D01*
Y106890D02*
X272047D01*
X258661Y112795D02*
X272047D01*
X104488Y65158D02*
X116772D01*
X104488Y52953D02*
X116772D01*
Y65158D01*
X104488Y52953D02*
Y65158D01*
X117323Y46654D02*
Y52559D01*
X103937Y46654D02*
Y52559D01*
Y46654D02*
X117323D01*
X103937Y52559D02*
X117323D01*
X129921Y195866D02*
X143307D01*
X129921Y189961D02*
X143307D01*
X129921D02*
Y195866D01*
X143307Y189961D02*
Y195866D01*
X129921Y183661D02*
X143307D01*
X129921Y189567D02*
X143307D01*
Y183661D02*
Y189567D01*
X129921Y183661D02*
Y189567D01*
X90709Y65158D02*
X102992D01*
X90709Y52953D02*
X102992D01*
Y65158D01*
X90709Y52953D02*
Y65158D01*
X103543Y46654D02*
Y52559D01*
X90158Y46654D02*
Y52559D01*
Y46654D02*
X103543D01*
X90158Y52559D02*
X103543D01*
X162402Y128740D02*
Y142126D01*
X156496Y128740D02*
Y142126D01*
X162402D01*
X156496Y128740D02*
X162402D01*
X148228D02*
Y142126D01*
X142323Y128740D02*
Y142126D01*
X148228D01*
X142323Y128740D02*
X148228D01*
X134055D02*
Y142126D01*
X128150Y128740D02*
Y142126D01*
X134055D01*
X128150Y128740D02*
X134055D01*
X162795Y128150D02*
Y142717D01*
X170276Y128150D02*
Y142717D01*
X162795Y128150D02*
X170276D01*
X162795Y142717D02*
X170276D01*
X148622Y128150D02*
Y142717D01*
X156102Y128150D02*
Y142717D01*
X148622Y128150D02*
X156102D01*
X148622Y142717D02*
X156102D01*
X134449Y128150D02*
Y142717D01*
X141929Y128150D02*
Y142717D01*
X134449Y128150D02*
X141929D01*
X134449Y142717D02*
X141929D01*
X39417Y116496D02*
X91378D01*
X39417D02*
Y198465D01*
X91378D01*
Y116496D02*
Y198465D01*
X64370Y102953D02*
X68701D01*
X64370Y112008D02*
X68701D01*
X64370Y102953D02*
Y112008D01*
X68701Y102953D02*
Y112008D01*
X66535Y105610D02*
Y109350D01*
X64665Y107480D02*
X68405D01*
X293898Y199803D02*
X299803D01*
X293898Y213189D02*
X299803D01*
X293898Y199803D02*
Y213189D01*
X299803Y199803D02*
Y213189D01*
X287598Y199803D02*
X293504D01*
X287598Y213189D02*
X293504D01*
X287598Y199803D02*
Y213189D01*
X293504Y199803D02*
Y213189D01*
X306102Y199803D02*
Y213189D01*
X300197Y199803D02*
Y213189D01*
X306102D01*
X300197Y199803D02*
X306102D01*
X262402Y206496D02*
Y219882D01*
X268307Y206496D02*
Y219882D01*
X262402Y206496D02*
X268307D01*
X262402Y219882D02*
X268307D01*
X318701Y199803D02*
Y213189D01*
X312795Y199803D02*
Y213189D01*
X318701D01*
X312795Y199803D02*
X318701D01*
X256102Y219882D02*
X262008D01*
X256102Y206496D02*
X262008D01*
Y219882D01*
X256102Y206496D02*
Y219882D01*
X306496Y199803D02*
Y213189D01*
X312402Y199803D02*
Y213189D01*
X306496Y199803D02*
X312402D01*
X306496Y213189D02*
X312402D01*
X249803Y219882D02*
X255709D01*
X249803Y206496D02*
X255709D01*
Y219882D01*
X249803Y206496D02*
Y219882D01*
X325000Y199803D02*
Y213189D01*
X319094Y199803D02*
Y213189D01*
X325000D01*
X319094Y199803D02*
X325000D01*
X243504Y219882D02*
X249410D01*
X243504Y206496D02*
X249410D01*
Y219882D01*
X243504Y206496D02*
Y219882D01*
X361811Y217126D02*
Y223031D01*
X375197Y217126D02*
Y223031D01*
X361811D02*
X375197D01*
X361811Y217126D02*
X375197D01*
X387402Y212795D02*
X400787D01*
X387402Y206890D02*
X400787D01*
X387402D02*
Y212795D01*
X400787Y206890D02*
Y212795D01*
X387402Y194291D02*
X400787D01*
X387402Y200197D02*
X400787D01*
Y194291D02*
Y200197D01*
X387402Y194291D02*
Y200197D01*
Y200591D02*
X400787D01*
X387402Y206496D02*
X400787D01*
Y200591D02*
Y206496D01*
X387402Y200591D02*
Y206496D01*
X230906D02*
X236811D01*
X230906Y219882D02*
X236811D01*
X230906Y206496D02*
Y219882D01*
X236811Y206496D02*
Y219882D01*
X58268Y100197D02*
Y106102D01*
X44882Y100197D02*
Y106102D01*
Y100197D02*
X58268D01*
X44882Y106102D02*
X58268D01*
X243110Y206496D02*
Y219882D01*
X237205Y206496D02*
Y219882D01*
X243110D01*
X237205Y206496D02*
X243110D01*
X132874Y233465D02*
Y246850D01*
X126969Y233465D02*
Y246850D01*
X132874D01*
X126969Y233465D02*
X132874D01*
X224606Y206496D02*
Y219882D01*
X230512Y206496D02*
Y219882D01*
X224606Y206496D02*
X230512D01*
X224606Y219882D02*
X230512D01*
X218307Y206496D02*
Y219882D01*
X224213Y206496D02*
Y219882D01*
X218307Y206496D02*
X224213D01*
X218307Y219882D02*
X224213D01*
X139567Y233465D02*
Y246850D01*
X145473Y233465D02*
Y246850D01*
X139567Y233465D02*
X145473D01*
X139567Y246850D02*
X145473D01*
X211614Y206496D02*
Y219882D01*
X205709Y206496D02*
Y219882D01*
X211614D01*
X205709Y206496D02*
X211614D01*
X133268Y233465D02*
Y246850D01*
X139173Y233465D02*
Y246850D01*
X133268Y233465D02*
X139173D01*
X133268Y246850D02*
X139173D01*
X199016Y206496D02*
Y219882D01*
X193110Y206496D02*
Y219882D01*
X199016D01*
X193110Y206496D02*
X199016D01*
X205315D02*
Y219882D01*
X199409Y206496D02*
Y219882D01*
X205315D01*
X199409Y206496D02*
X205315D01*
X120669Y246850D02*
X126575D01*
X120669Y233465D02*
X126575D01*
Y246850D01*
X120669Y233465D02*
Y246850D01*
X192717Y206496D02*
Y219882D01*
X186811Y206496D02*
Y219882D01*
X192717D01*
X186811Y206496D02*
X192717D01*
X95473Y246850D02*
X101378D01*
X95473Y233465D02*
X101378D01*
Y246850D01*
X95473Y233465D02*
Y246850D01*
X101772D02*
X107677D01*
X101772Y233465D02*
X107677D01*
Y246850D01*
X101772Y233465D02*
Y246850D01*
X113976Y233465D02*
Y246850D01*
X108071Y233465D02*
Y246850D01*
X113976D01*
X108071Y233465D02*
X113976D01*
X212008Y206496D02*
Y219882D01*
X217913Y206496D02*
Y219882D01*
X212008Y206496D02*
X217913D01*
X212008Y219882D02*
X217913D01*
X114370Y233465D02*
X120276D01*
X114370Y246850D02*
X120276D01*
X114370Y233465D02*
Y246850D01*
X120276Y233465D02*
Y246850D01*
X268701Y206496D02*
Y219882D01*
X274606Y206496D02*
Y219882D01*
X268701Y206496D02*
X274606D01*
X268701Y219882D02*
X274606D01*
X275000Y206496D02*
Y219882D01*
X280906Y206496D02*
Y219882D01*
X275000Y206496D02*
X280906D01*
X275000Y219882D02*
X280906D01*
X342323Y201378D02*
Y212008D01*
X348228Y201378D02*
Y212008D01*
X342323Y201378D02*
X348228D01*
X342323Y212008D02*
X348228D01*
X348836Y201378D02*
Y212008D01*
X354741Y201378D02*
Y212008D01*
X348836Y201378D02*
X354741D01*
X348836Y212008D02*
X354741D01*
X399410Y187992D02*
Y193898D01*
X388779Y187992D02*
Y193898D01*
Y187992D02*
X399410D01*
X388779Y193898D02*
X399410D01*
X362795Y53091D02*
Y63721D01*
X368701Y53091D02*
Y63721D01*
X362795Y53091D02*
X368701D01*
X362795Y63721D02*
X368701D01*
X368701Y67776D02*
Y78405D01*
X362795Y67776D02*
Y78405D01*
X368701D01*
X362795Y67776D02*
X368701D01*
X74213Y212008D02*
Y217913D01*
X63583Y212008D02*
Y217913D01*
Y212008D02*
X74213D01*
X63583Y217913D02*
X74213D01*
X188779Y130118D02*
Y140748D01*
X194685Y130118D02*
Y140748D01*
X188779Y130118D02*
X194685D01*
X188779Y140748D02*
X194685D01*
X182480Y130118D02*
Y140748D01*
X188386Y130118D02*
Y140748D01*
X182480Y130118D02*
X188386D01*
X182480Y140748D02*
X188386D01*
X188779Y165847D02*
X194685D01*
X188779Y176476D02*
X194685D01*
X188779Y165847D02*
Y176476D01*
X194685Y165847D02*
Y176476D01*
X182480Y165847D02*
X188386D01*
X182480Y176476D02*
X188386D01*
X182480Y165847D02*
Y176476D01*
X188386Y165847D02*
Y176476D01*
X176181Y165847D02*
X182087D01*
X176181Y176476D02*
X182087D01*
X176181Y165847D02*
Y176476D01*
X182087Y165847D02*
Y176476D01*
X169882Y165847D02*
X175787D01*
X169882Y176476D02*
X175787D01*
X169882Y165847D02*
Y176476D01*
X175787Y165847D02*
Y176476D01*
M02*
