G04*
G04 #@! TF.GenerationSoftware,Altium Limited,Altium Designer,23.8.1 (32)*
G04*
G04 Layer_Physical_Order=1*
G04 Layer_Color=255*
%FSLAX25Y25*%
%MOIN*%
G70*
G04*
G04 #@! TF.SameCoordinates,BF2EEF1A-6A82-4CD2-B880-65E340770DF0*
G04*
G04*
G04 #@! TF.FilePolarity,Positive*
G04*
G01*
G75*
%ADD13C,0.00787*%
%ADD15C,0.01000*%
%ADD18R,0.13780X0.06299*%
%ADD19R,0.03937X0.03543*%
%ADD20R,0.03150X0.03150*%
%ADD21R,0.03543X0.03937*%
%ADD22R,0.05000X0.02200*%
%ADD23R,0.07874X0.09449*%
%ADD24R,0.03150X0.03543*%
%ADD25R,0.03543X0.03150*%
%ADD26R,0.03543X0.02756*%
%ADD27R,0.07800X0.02200*%
%ADD28R,0.05800X0.02000*%
%ADD29R,0.02000X0.05800*%
%ADD30R,0.03543X0.06496*%
%ADD31R,0.03150X0.03150*%
%ADD49C,0.06299*%
%ADD55C,0.17717*%
G04:AMPARAMS|DCode=56|XSize=62.99mil|YSize=62.99mil|CornerRadius=15.75mil|HoleSize=0mil|Usage=FLASHONLY|Rotation=0.000|XOffset=0mil|YOffset=0mil|HoleType=Round|Shape=RoundedRectangle|*
%AMROUNDEDRECTD56*
21,1,0.06299,0.03150,0,0,0.0*
21,1,0.03150,0.06299,0,0,0.0*
1,1,0.03150,0.01575,-0.01575*
1,1,0.03150,-0.01575,-0.01575*
1,1,0.03150,-0.01575,0.01575*
1,1,0.03150,0.01575,0.01575*
%
%ADD56ROUNDEDRECTD56*%
%ADD57C,0.13780*%
%ADD58C,0.05906*%
%ADD59C,0.06000*%
%ADD60R,0.06000X0.06000*%
%ADD61C,0.04882*%
%ADD62R,0.04882X0.04882*%
%ADD63C,0.02362*%
G36*
X410391Y274288D02*
X409070Y273406D01*
X407697Y272032D01*
X406618Y270418D01*
X405875Y268624D01*
X405496Y266719D01*
Y266248D01*
X415354D01*
Y265748D01*
X415854D01*
Y255890D01*
X416325D01*
X418230Y256269D01*
X420024Y257012D01*
X421639Y258091D01*
X423012Y259464D01*
X423894Y260784D01*
X424394Y260633D01*
Y54328D01*
X423894Y54176D01*
X423012Y55497D01*
X421639Y56870D01*
X420024Y57949D01*
X418230Y58692D01*
X416325Y59071D01*
X415854D01*
Y49213D01*
X415354D01*
Y48713D01*
X405496D01*
Y48242D01*
X405875Y46337D01*
X406618Y44543D01*
X407697Y42928D01*
X409070Y41555D01*
X410391Y40673D01*
X410239Y40173D01*
X54328D01*
X54176Y40673D01*
X55497Y41555D01*
X56870Y42928D01*
X57949Y44543D01*
X58692Y46337D01*
X59071Y48242D01*
Y48713D01*
X49213D01*
Y49213D01*
X48713D01*
Y59071D01*
X48242D01*
X46337Y58692D01*
X44543Y57949D01*
X42928Y56870D01*
X41555Y55497D01*
X40673Y54176D01*
X40173Y54328D01*
Y260632D01*
X40673Y260784D01*
X41555Y259464D01*
X42928Y258091D01*
X44543Y257012D01*
X46337Y256269D01*
X48242Y255890D01*
X48713D01*
Y265748D01*
X49213D01*
Y266248D01*
X59071D01*
Y266719D01*
X58692Y268624D01*
X57949Y270418D01*
X56870Y272032D01*
X55497Y273406D01*
X54176Y274288D01*
X54328Y274788D01*
X136705D01*
X136857Y274288D01*
X136825Y274266D01*
X132820Y270262D01*
X132623Y269966D01*
X132553Y269618D01*
Y268574D01*
X132053Y268448D01*
X131351Y269150D01*
X130381Y269710D01*
X129300Y270000D01*
X128180D01*
X127099Y269710D01*
X126129Y269150D01*
X125338Y268359D01*
X124778Y267389D01*
X124488Y266308D01*
Y265188D01*
X124778Y264107D01*
X125156Y263452D01*
X121142Y259439D01*
X114373D01*
X114181Y259901D01*
X116444Y262164D01*
X117099Y261786D01*
X118180Y261496D01*
X119300D01*
X120381Y261786D01*
X121351Y262346D01*
X122143Y263137D01*
X122702Y264107D01*
X122992Y265188D01*
Y266308D01*
X122702Y267389D01*
X122143Y268359D01*
X121351Y269150D01*
X120381Y269710D01*
X119300Y270000D01*
X118180D01*
X117099Y269710D01*
X116129Y269150D01*
X115338Y268359D01*
X114778Y267389D01*
X114488Y266308D01*
Y265188D01*
X114778Y264107D01*
X115156Y263452D01*
X112430Y260726D01*
X105660D01*
X105469Y261188D01*
X106444Y262164D01*
X107099Y261786D01*
X108180Y261496D01*
X109300D01*
X110381Y261786D01*
X111351Y262346D01*
X112143Y263137D01*
X112702Y264107D01*
X112992Y265188D01*
Y266308D01*
X112702Y267389D01*
X112143Y268359D01*
X111351Y269150D01*
X110381Y269710D01*
X109300Y270000D01*
X108180D01*
X107099Y269710D01*
X106129Y269150D01*
X105338Y268359D01*
X104778Y267389D01*
X104488Y266308D01*
Y265188D01*
X104778Y264107D01*
X105156Y263452D01*
X103717Y262014D01*
X101726D01*
X101519Y262514D01*
X102143Y263137D01*
X102702Y264107D01*
X102992Y265188D01*
Y266308D01*
X102702Y267389D01*
X102143Y268359D01*
X101351Y269150D01*
X100381Y269710D01*
X99300Y270000D01*
X98180D01*
X97099Y269710D01*
X96129Y269150D01*
X95338Y268359D01*
X94778Y267389D01*
X94488Y266308D01*
Y265188D01*
X94778Y264107D01*
X95338Y263137D01*
X96129Y262346D01*
X97099Y261786D01*
X98180Y261496D01*
X98566D01*
X98758Y261034D01*
X91663Y253939D01*
X91465Y253644D01*
X91396Y253295D01*
Y179897D01*
X91391Y179896D01*
X90896Y179826D01*
X90249Y180473D01*
X89396Y180966D01*
X88445Y181220D01*
X87460D01*
X86509Y180966D01*
X85656Y180473D01*
X84960Y179777D01*
X84468Y178924D01*
X84213Y177973D01*
Y176988D01*
X84468Y176037D01*
X84960Y175184D01*
X85656Y174487D01*
X86509Y173995D01*
X87460Y173740D01*
X88445D01*
X89396Y173995D01*
X90249Y174487D01*
X90896Y175134D01*
X91391Y175064D01*
X91396Y175063D01*
Y169897D01*
X91391Y169896D01*
X90896Y169826D01*
X90249Y170473D01*
X89396Y170966D01*
X88445Y171221D01*
X87460D01*
X86509Y170966D01*
X85656Y170473D01*
X84960Y169777D01*
X84468Y168924D01*
X84213Y167973D01*
Y166988D01*
X84468Y166037D01*
X84960Y165184D01*
X85656Y164487D01*
X86509Y163995D01*
X87460Y163740D01*
X88445D01*
X89396Y163995D01*
X90249Y164487D01*
X90896Y165134D01*
X91391Y165064D01*
X91396Y165063D01*
Y159897D01*
X91391Y159896D01*
X90896Y159827D01*
X90249Y160473D01*
X89396Y160966D01*
X88445Y161221D01*
X87460D01*
X86509Y160966D01*
X85656Y160473D01*
X84960Y159777D01*
X84468Y158924D01*
X84213Y157973D01*
Y156988D01*
X84468Y156037D01*
X84960Y155184D01*
X85656Y154487D01*
X86509Y153995D01*
X87460Y153740D01*
X88445D01*
X89396Y153995D01*
X90249Y154487D01*
X90896Y155134D01*
X91391Y155064D01*
X91396Y155063D01*
Y149898D01*
X91391Y149896D01*
X90896Y149827D01*
X90249Y150473D01*
X89396Y150966D01*
X88445Y151221D01*
X87460D01*
X86509Y150966D01*
X85656Y150473D01*
X84960Y149777D01*
X84468Y148924D01*
X84213Y147973D01*
Y146988D01*
X84468Y146037D01*
X84960Y145184D01*
X85656Y144487D01*
X86509Y143995D01*
X87460Y143740D01*
X88445D01*
X89396Y143995D01*
X90249Y144487D01*
X90896Y145134D01*
X91391Y145064D01*
X91396Y145063D01*
Y141220D01*
X84213D01*
Y133740D01*
X91396D01*
Y102920D01*
X91465Y102572D01*
X91663Y102276D01*
X105075Y88864D01*
X105371Y88666D01*
X105720Y88597D01*
X224655D01*
X225004Y88666D01*
X225299Y88864D01*
X256528Y120092D01*
X256725Y120387D01*
X256795Y120736D01*
Y123793D01*
X257671D01*
Y131168D01*
X206896D01*
Y123793D01*
X210872D01*
Y121952D01*
X192213Y103293D01*
X111430D01*
X106092Y108630D01*
Y135524D01*
X106554Y135716D01*
X106639Y135631D01*
X107440Y135299D01*
X108308D01*
X109109Y135631D01*
X109723Y136245D01*
X109857Y136569D01*
X111811D01*
X112160Y136638D01*
X112455Y136836D01*
X130588Y154969D01*
X198596D01*
Y153691D01*
X140969D01*
X140621Y153622D01*
X140325Y153425D01*
X130458Y143558D01*
X130261Y143262D01*
X130191Y142913D01*
Y141732D01*
X128543D01*
Y136221D01*
X133661D01*
Y141732D01*
X132014D01*
Y142536D01*
X141347Y151869D01*
X145203D01*
X145394Y151407D01*
X137545Y143558D01*
X137347Y143262D01*
X137278Y142913D01*
Y142323D01*
X135630D01*
Y137598D01*
X140748D01*
Y142323D01*
X139594D01*
X139387Y142823D01*
X148433Y151869D01*
X198596D01*
Y150491D01*
X151943D01*
X151594Y150422D01*
X151298Y150225D01*
X144631Y143558D01*
X144434Y143262D01*
X144364Y142913D01*
Y141732D01*
X142717D01*
Y136221D01*
X147835D01*
Y141732D01*
X146187D01*
Y142536D01*
X152320Y148669D01*
X156176D01*
X156367Y148207D01*
X151718Y143558D01*
X151520Y143262D01*
X151451Y142913D01*
Y142323D01*
X149803D01*
Y137598D01*
X154921D01*
Y142323D01*
X153767D01*
X153560Y142823D01*
X159406Y148669D01*
X198596D01*
Y147391D01*
X163016D01*
X162667Y147322D01*
X162371Y147125D01*
X158805Y143558D01*
X158607Y143262D01*
X158538Y142913D01*
Y141732D01*
X156890D01*
Y136221D01*
X162008D01*
Y141732D01*
X160360D01*
Y142536D01*
X163393Y145569D01*
X167249D01*
X167441Y145107D01*
X165891Y143558D01*
X165694Y143262D01*
X165624Y142913D01*
Y142323D01*
X163976D01*
Y137598D01*
X169095D01*
Y142323D01*
X167941D01*
X167734Y142823D01*
X170480Y145569D01*
X198596D01*
Y141493D01*
Y138980D01*
X198383D01*
Y137891D01*
X197157D01*
X196314Y138735D01*
X196018Y138932D01*
X195669Y139002D01*
X194701D01*
Y140862D01*
X192232D01*
Y138091D01*
X191232D01*
Y140862D01*
X188764D01*
Y140862D01*
X188401D01*
Y140862D01*
X185933D01*
Y138091D01*
X184933D01*
Y140862D01*
X182465D01*
Y139733D01*
X181965Y139525D01*
X181551Y139940D01*
X180815Y140244D01*
Y138091D01*
Y135937D01*
X181551Y136241D01*
X181965Y136656D01*
X182465Y136449D01*
Y135319D01*
X182677D01*
Y134079D01*
X182177Y133979D01*
X182164Y134011D01*
X181551Y134625D01*
X180749Y134957D01*
X179881D01*
X179079Y134625D01*
X178466Y134011D01*
X178134Y133209D01*
Y132342D01*
X178466Y131540D01*
X179079Y130927D01*
X179881Y130595D01*
X180749D01*
X181551Y130927D01*
X182164Y131540D01*
X182177Y131572D01*
X182677Y131472D01*
Y130217D01*
X188189D01*
Y131864D01*
X188976D01*
Y130217D01*
X194488D01*
Y131864D01*
X195669D01*
X196018Y131934D01*
X196314Y132131D01*
X197151Y132969D01*
X198596D01*
Y132093D01*
X205971D01*
Y134980D01*
X206184D01*
Y136480D01*
X202284D01*
Y137480D01*
X206184D01*
Y138980D01*
X205971D01*
Y141493D01*
Y144693D01*
Y147793D01*
Y150993D01*
Y154093D01*
Y157293D01*
Y160393D01*
Y163593D01*
Y166480D01*
X206184D01*
Y166560D01*
X206683Y166767D01*
X206954Y166497D01*
X207755Y166165D01*
X208623D01*
X209424Y166497D01*
X210038Y167111D01*
X210370Y167913D01*
Y168780D01*
X210038Y169582D01*
X209539Y170081D01*
X210038Y170580D01*
X210370Y171381D01*
Y172249D01*
X210038Y173050D01*
X209424Y173664D01*
X208623Y173996D01*
X207755D01*
X206954Y173664D01*
X206471Y173181D01*
X205971Y173367D01*
Y176193D01*
Y179293D01*
Y181851D01*
X206433Y182042D01*
X210379Y178096D01*
X210675Y177898D01*
X211024Y177829D01*
X220866D01*
X221215Y177898D01*
X221511Y178096D01*
X225028Y181613D01*
X225225Y181909D01*
X225295Y182257D01*
Y183793D01*
X248165D01*
X248283Y183538D01*
X248319Y183293D01*
X247757Y182732D01*
X247425Y181930D01*
Y181062D01*
X247757Y180261D01*
X248371Y179647D01*
X249172Y179315D01*
X250040D01*
X250842Y179647D01*
X251455Y180261D01*
X251787Y181062D01*
Y181930D01*
X251455Y182732D01*
X250894Y183293D01*
X250930Y183538D01*
X251047Y183793D01*
X257671D01*
Y191168D01*
X257576D01*
X257384Y191630D01*
X259725Y193971D01*
X267126D01*
X267475Y194040D01*
X267770Y194238D01*
X278597Y205064D01*
X278795Y205360D01*
X278864Y205709D01*
Y206890D01*
X280512D01*
Y212402D01*
X275394D01*
Y206890D01*
X277042D01*
Y206086D01*
X266748Y195793D01*
X263680D01*
X263489Y196255D01*
X272298Y205064D01*
X272495Y205360D01*
X272565Y205709D01*
Y206890D01*
X274213D01*
Y212402D01*
X269094D01*
Y206890D01*
X270742D01*
Y206086D01*
X261737Y197081D01*
X257535D01*
X257187Y197011D01*
X256891Y196814D01*
X252139Y192062D01*
X251942Y191766D01*
X251872Y191417D01*
Y191168D01*
X250495D01*
Y193300D01*
X264084Y206890D01*
X267913D01*
Y212402D01*
X262795D01*
Y208178D01*
X262076Y207459D01*
X261614Y207651D01*
Y212402D01*
X256496D01*
Y206890D01*
X256766D01*
Y205003D01*
X245839Y194076D01*
X245642Y193781D01*
X245572Y193432D01*
Y191168D01*
X244195D01*
Y194604D01*
X252022Y202432D01*
X252220Y202727D01*
X252289Y203076D01*
Y206890D01*
X255315D01*
Y212402D01*
X250197D01*
Y206890D01*
X250467D01*
Y203453D01*
X242639Y195626D01*
X242442Y195330D01*
X242372Y194982D01*
Y191168D01*
X241095D01*
Y195212D01*
X247101Y201218D01*
X247299Y201514D01*
X247368Y201862D01*
Y206890D01*
X249016D01*
Y212402D01*
X243898D01*
Y206890D01*
X245546D01*
Y202240D01*
X239539Y196233D01*
X239342Y195938D01*
X239272Y195589D01*
Y191168D01*
X237895D01*
Y196761D01*
X240802Y199668D01*
X240999Y199964D01*
X241069Y200313D01*
Y206890D01*
X242717D01*
Y212402D01*
X237598D01*
Y206890D01*
X239246D01*
Y200690D01*
X236339Y197783D01*
X236142Y197487D01*
X236072Y197139D01*
Y191168D01*
X234795D01*
Y206890D01*
X236417D01*
Y212402D01*
X231299D01*
Y206890D01*
X232972D01*
Y191168D01*
X231595D01*
Y201846D01*
X231525Y202195D01*
X231328Y202490D01*
X228470Y205348D01*
Y206890D01*
X230118D01*
Y212402D01*
X225000D01*
Y206890D01*
X226648D01*
Y204970D01*
X226717Y204622D01*
X226915Y204326D01*
X229772Y201468D01*
Y191168D01*
X228495D01*
Y199582D01*
X228425Y199931D01*
X228228Y200226D01*
X222171Y206283D01*
Y206890D01*
X223819D01*
Y212402D01*
X218701D01*
Y206890D01*
X220349D01*
Y205906D01*
X220418Y205557D01*
X220616Y205261D01*
X226672Y199205D01*
Y191168D01*
X212695D01*
Y205894D01*
X213690Y206890D01*
X217520D01*
Y212402D01*
X212402D01*
Y208178D01*
X211682Y207459D01*
X211221Y207651D01*
Y212402D01*
X206102D01*
Y206890D01*
X207772D01*
Y191168D01*
X206896D01*
Y184810D01*
X206434Y184618D01*
X187132Y203921D01*
Y204467D01*
X187632Y204566D01*
X187915Y203883D01*
X188528Y203269D01*
X189330Y202937D01*
X190198D01*
X190999Y203269D01*
X191613Y203883D01*
X191945Y204684D01*
Y205552D01*
X191613Y206354D01*
X191539Y206428D01*
X191730Y206890D01*
X192323D01*
Y212402D01*
X187205Y212402D01*
X187132Y212871D01*
Y213507D01*
X187205Y213976D01*
X192323D01*
Y219488D01*
X190675D01*
Y220669D01*
X190606Y221018D01*
X190408Y221314D01*
X189366Y222355D01*
X189558Y222817D01*
X192627D01*
X195152Y220292D01*
Y219488D01*
X193504D01*
Y213976D01*
X198622D01*
Y219488D01*
X196974D01*
Y220669D01*
X196905Y221018D01*
X196707Y221314D01*
X194378Y223643D01*
X194570Y224104D01*
X197638D01*
X201451Y220292D01*
Y219488D01*
X199803D01*
Y213976D01*
X204921D01*
Y219488D01*
X203273D01*
Y220669D01*
X203204Y221018D01*
X203007Y221314D01*
X199428Y224892D01*
X199635Y225392D01*
X202650D01*
X207750Y220292D01*
Y219488D01*
X206102D01*
Y213976D01*
X211221D01*
Y219488D01*
X209573D01*
Y220669D01*
X209503Y221018D01*
X209306Y221314D01*
X203672Y226947D01*
X203376Y227145D01*
X203028Y227214D01*
X199547D01*
X193195Y233566D01*
Y234733D01*
X194001Y234949D01*
X195015Y235535D01*
X195843Y236363D01*
X196429Y237377D01*
X196732Y238509D01*
Y239680D01*
X196429Y240812D01*
X195843Y241826D01*
X195015Y242654D01*
X194001Y243240D01*
X192869Y243543D01*
X191698D01*
X190566Y243240D01*
X189552Y242654D01*
X188724Y241826D01*
X188138Y240812D01*
X187835Y239680D01*
Y238509D01*
X188138Y237377D01*
X188724Y236363D01*
X189552Y235535D01*
X190566Y234949D01*
X191372Y234733D01*
Y233189D01*
X191442Y232840D01*
X191639Y232545D01*
X197757Y226427D01*
X197550Y225927D01*
X190834D01*
X183195Y233566D01*
Y234733D01*
X184001Y234949D01*
X185015Y235535D01*
X185843Y236363D01*
X186429Y237377D01*
X186732Y238509D01*
Y239680D01*
X186429Y240812D01*
X185843Y241826D01*
X185015Y242654D01*
X184001Y243240D01*
X182869Y243543D01*
X181698D01*
X180566Y243240D01*
X179552Y242654D01*
X178724Y241826D01*
X178138Y240812D01*
X177835Y239680D01*
Y238509D01*
X178138Y237377D01*
X178724Y236363D01*
X179552Y235535D01*
X180566Y234949D01*
X181372Y234733D01*
Y233189D01*
X181442Y232840D01*
X181639Y232545D01*
X189082Y225101D01*
X188891Y224640D01*
X182122D01*
X173195Y233566D01*
Y234733D01*
X174001Y234949D01*
X175015Y235535D01*
X175843Y236363D01*
X176429Y237377D01*
X176732Y238509D01*
Y239680D01*
X176429Y240812D01*
X175843Y241826D01*
X175015Y242654D01*
X174001Y243240D01*
X172869Y243543D01*
X171698D01*
X170566Y243240D01*
X169552Y242654D01*
X168723Y241826D01*
X168138Y240812D01*
X167835Y239680D01*
Y238509D01*
X168138Y237377D01*
X168723Y236363D01*
X169552Y235535D01*
X170566Y234949D01*
X171372Y234733D01*
Y233189D01*
X171442Y232840D01*
X171639Y232545D01*
X180370Y223814D01*
X180178Y223352D01*
X173409D01*
X163195Y233566D01*
Y234733D01*
X164001Y234949D01*
X165015Y235535D01*
X165843Y236363D01*
X166429Y237377D01*
X166732Y238509D01*
Y239680D01*
X166429Y240812D01*
X165843Y241826D01*
X165015Y242654D01*
X164001Y243240D01*
X162869Y243543D01*
X161698D01*
X160566Y243240D01*
X159552Y242654D01*
X158723Y241826D01*
X158678Y241747D01*
X158195Y241876D01*
Y244094D01*
X158125Y244443D01*
X157928Y244739D01*
X156435Y246231D01*
X156658Y246769D01*
X156757Y247520D01*
Y250669D01*
X156658Y251420D01*
X156369Y252119D01*
X155908Y252719D01*
X155308Y253180D01*
X154609Y253469D01*
X153858Y253568D01*
X150709D01*
X149958Y253469D01*
X149259Y253180D01*
X148659Y252719D01*
X148198Y252119D01*
X147909Y251420D01*
X147810Y250669D01*
Y247520D01*
X147909Y246769D01*
X148198Y246070D01*
X148659Y245470D01*
X149259Y245009D01*
X149958Y244720D01*
X150709Y244621D01*
X153858D01*
X154609Y244720D01*
X155147Y244943D01*
X156372Y243717D01*
Y241876D01*
X155889Y241747D01*
X155843Y241826D01*
X155015Y242654D01*
X154001Y243240D01*
X152869Y243543D01*
X151698D01*
X150566Y243240D01*
X149552Y242654D01*
X148723Y241826D01*
X148138Y240812D01*
X147835Y239680D01*
Y238509D01*
X148138Y237377D01*
X148723Y236363D01*
X149552Y235535D01*
X150566Y234949D01*
X151698Y234646D01*
X152869D01*
X154001Y234949D01*
X155015Y235535D01*
X155843Y236363D01*
X155889Y236442D01*
X156372Y236313D01*
Y235827D01*
X156442Y235478D01*
X156639Y235182D01*
X171312Y220509D01*
X171608Y220312D01*
X171957Y220242D01*
X184768D01*
X185309Y219701D01*
Y203543D01*
X185379Y203195D01*
X185576Y202899D01*
X194612Y193863D01*
X194329Y193439D01*
X194135Y193520D01*
X193267D01*
X192465Y193188D01*
X192013Y192735D01*
X191860Y192781D01*
X191551Y192981D01*
Y193741D01*
X191219Y194543D01*
X190606Y195156D01*
X189804Y195488D01*
X188936D01*
X188135Y195156D01*
X187521Y194543D01*
X187189Y193741D01*
Y192873D01*
X187521Y192072D01*
X188135Y191458D01*
X188459Y191324D01*
Y188039D01*
X188430Y187996D01*
X188361Y187648D01*
Y185514D01*
X188430Y185166D01*
X188459Y185123D01*
Y183858D01*
X188528Y183510D01*
X188726Y183214D01*
X197804Y174136D01*
X198099Y173939D01*
X198448Y173869D01*
X198596D01*
Y172591D01*
X197398D01*
X195526Y174463D01*
X195231Y174661D01*
X194882Y174730D01*
X194488D01*
Y176378D01*
X188976D01*
Y174730D01*
X188189D01*
Y176378D01*
X182677D01*
Y174730D01*
X181890D01*
Y176378D01*
X176378D01*
Y174730D01*
X175591D01*
Y176378D01*
X170079D01*
Y174730D01*
X168912D01*
X168778Y175054D01*
X168165Y175668D01*
X167363Y176000D01*
X166495D01*
X165694Y175668D01*
X165080Y175054D01*
X164748Y174253D01*
Y173385D01*
X165080Y172583D01*
X165694Y171970D01*
X166495Y171638D01*
X167363D01*
X168165Y171970D01*
X168778Y172583D01*
X168912Y172908D01*
X170079D01*
Y171276D01*
X169866D01*
Y169415D01*
X168912D01*
X168778Y169739D01*
X168165Y170353D01*
X167429Y170658D01*
Y168504D01*
X166929D01*
Y168004D01*
X164775D01*
X165080Y167269D01*
X165557Y166791D01*
X165364Y166291D01*
X124288D01*
X112455Y178125D01*
X112160Y178322D01*
X111811Y178392D01*
X109857D01*
X109723Y178716D01*
X109109Y179329D01*
X108308Y179661D01*
X107440D01*
X106639Y179329D01*
X106554Y179245D01*
X106092Y179436D01*
Y194961D01*
X143164Y232033D01*
X143361Y232329D01*
X143431Y232677D01*
Y233858D01*
X145079D01*
Y239370D01*
X139961D01*
Y233858D01*
X141609D01*
Y233055D01*
X105267Y196713D01*
X104805Y196904D01*
Y199973D01*
X136865Y232033D01*
X137062Y232329D01*
X137132Y232677D01*
Y233858D01*
X138779D01*
Y239370D01*
X133661D01*
Y233858D01*
X135309D01*
Y233055D01*
X103979Y201725D01*
X103517Y201916D01*
Y204985D01*
X130566Y232033D01*
X130763Y232329D01*
X130833Y232677D01*
Y233858D01*
X132480D01*
Y239370D01*
X127362D01*
Y233858D01*
X129010D01*
Y233055D01*
X102692Y206737D01*
X102230Y206928D01*
Y209997D01*
X124266Y232033D01*
X124464Y232329D01*
X124533Y232677D01*
Y233858D01*
X126181D01*
Y239370D01*
X121063D01*
Y233858D01*
X122711D01*
Y233055D01*
X101405Y211748D01*
X100943Y211940D01*
Y215008D01*
X117967Y232033D01*
X118165Y232329D01*
X118234Y232677D01*
Y233858D01*
X119882D01*
Y239370D01*
X114764D01*
Y233858D01*
X116412D01*
Y233055D01*
X100117Y216760D01*
X99655Y216952D01*
Y220020D01*
X111668Y232033D01*
X111865Y232329D01*
X111935Y232677D01*
Y233858D01*
X113583D01*
Y239370D01*
X108465D01*
Y233858D01*
X110112D01*
Y233055D01*
X98830Y221772D01*
X98368Y221963D01*
Y225032D01*
X105369Y232033D01*
X105566Y232329D01*
X105636Y232677D01*
Y233858D01*
X107283D01*
Y239370D01*
X102165D01*
Y233858D01*
X103813D01*
Y233055D01*
X97542Y226784D01*
X97080Y226975D01*
Y230044D01*
X99069Y232033D01*
X99267Y232329D01*
X99336Y232677D01*
Y233858D01*
X100984D01*
Y239370D01*
X95866D01*
X95793Y239840D01*
Y240475D01*
X95866Y240945D01*
X100984D01*
Y245168D01*
X101703Y245887D01*
X102165Y245696D01*
Y240945D01*
X107283D01*
Y242790D01*
X107610D01*
X107958Y242859D01*
X107965Y242863D01*
X108465Y242596D01*
Y240945D01*
X113583D01*
Y245168D01*
X114302Y245887D01*
X114764Y245696D01*
Y240945D01*
X119882D01*
Y246221D01*
X119882Y246457D01*
X120307Y246638D01*
X120513D01*
X120664Y246701D01*
X121063Y246325D01*
Y240945D01*
X126181D01*
Y246457D01*
X126579Y246704D01*
X127220Y246970D01*
X127833Y247583D01*
X128165Y248385D01*
Y249253D01*
X127833Y250054D01*
X127330Y250557D01*
X127487Y251057D01*
X130387D01*
X130544Y250557D01*
X130041Y250054D01*
X129709Y249253D01*
Y248385D01*
X129843Y248061D01*
X129277Y247495D01*
X129079Y247199D01*
X129010Y246850D01*
Y246457D01*
X127362D01*
Y240945D01*
X132480D01*
Y246457D01*
X132787Y246830D01*
X133125Y246970D01*
X133739Y247583D01*
X134071Y248385D01*
Y249253D01*
X133739Y250054D01*
X133236Y250557D01*
X133392Y251057D01*
X135483D01*
X135831Y251127D01*
X136127Y251324D01*
X139877Y255074D01*
X140339Y254883D01*
Y254684D01*
X140671Y253883D01*
X141284Y253269D01*
X141609Y253135D01*
Y246457D01*
X139961D01*
Y240945D01*
X145079D01*
Y246457D01*
X143431D01*
Y253135D01*
X143755Y253269D01*
X144369Y253883D01*
X144701Y254684D01*
Y255552D01*
X144369Y256354D01*
X143755Y256967D01*
X142954Y257299D01*
X142755D01*
X142564Y257761D01*
X143340Y258538D01*
X150787D01*
X151136Y258607D01*
X151432Y258804D01*
X154030Y261403D01*
X154030Y261403D01*
X154228Y261699D01*
X154297Y262047D01*
Y263849D01*
X154750Y264088D01*
X154797Y264074D01*
X155338Y263137D01*
X156129Y262346D01*
X157099Y261786D01*
X158180Y261496D01*
X159300D01*
X160381Y261786D01*
X161351Y262346D01*
X162143Y263137D01*
X162702Y264107D01*
X162992Y265188D01*
Y266308D01*
X162702Y267389D01*
X162143Y268359D01*
X161519Y268983D01*
X161726Y269482D01*
X165754D01*
X165961Y268983D01*
X165338Y268359D01*
X164778Y267389D01*
X164488Y266308D01*
Y265188D01*
X164778Y264107D01*
X165338Y263137D01*
X166129Y262346D01*
X167099Y261786D01*
X168180Y261496D01*
X169300D01*
X170381Y261786D01*
X171351Y262346D01*
X172143Y263137D01*
X172702Y264107D01*
X172992Y265188D01*
Y266308D01*
X172702Y267389D01*
X172143Y268359D01*
X171519Y268983D01*
X171726Y269482D01*
X175754D01*
X175961Y268983D01*
X175338Y268359D01*
X174778Y267389D01*
X174488Y266308D01*
Y265188D01*
X174778Y264107D01*
X175338Y263137D01*
X176129Y262346D01*
X177099Y261786D01*
X178180Y261496D01*
X179300D01*
X180381Y261786D01*
X181351Y262346D01*
X182142Y263137D01*
X182702Y264107D01*
X182992Y265188D01*
Y266308D01*
X182702Y267389D01*
X182142Y268359D01*
X181519Y268983D01*
X181726Y269482D01*
X182772D01*
X184810Y267445D01*
X184778Y267389D01*
X184488Y266308D01*
Y265188D01*
X184778Y264107D01*
X185338Y263137D01*
X186129Y262346D01*
X187099Y261786D01*
X188180Y261496D01*
X189300D01*
X190381Y261786D01*
X191351Y262346D01*
X192142Y263137D01*
X192702Y264107D01*
X192992Y265188D01*
Y266308D01*
X192702Y267389D01*
X192142Y268359D01*
X191351Y269150D01*
X190381Y269710D01*
X189300Y270000D01*
X188180D01*
X187099Y269710D01*
X186129Y269150D01*
X185905Y268927D01*
X184196Y270636D01*
X184403Y271136D01*
X192063D01*
X195156Y268044D01*
X194778Y267389D01*
X194488Y266308D01*
Y265188D01*
X194778Y264107D01*
X195338Y263137D01*
X196129Y262346D01*
X197099Y261786D01*
X198180Y261496D01*
X199300D01*
X200381Y261786D01*
X201351Y262346D01*
X202143Y263137D01*
X202702Y264107D01*
X202992Y265188D01*
Y266308D01*
X202702Y267389D01*
X202143Y268359D01*
X201351Y269150D01*
X200381Y269710D01*
X199300Y270000D01*
X198180D01*
X197099Y269710D01*
X196444Y269332D01*
X193566Y272211D01*
X193773Y272711D01*
X200489D01*
X205156Y268044D01*
X204778Y267389D01*
X204488Y266308D01*
Y265188D01*
X204778Y264107D01*
X205338Y263137D01*
X206129Y262346D01*
X207099Y261786D01*
X208180Y261496D01*
X209300D01*
X210381Y261786D01*
X211351Y262346D01*
X212142Y263137D01*
X212702Y264107D01*
X212992Y265188D01*
Y266308D01*
X212702Y267389D01*
X212142Y268359D01*
X211351Y269150D01*
X210381Y269710D01*
X209300Y270000D01*
X208180D01*
X207099Y269710D01*
X206444Y269332D01*
X201510Y274266D01*
X201478Y274288D01*
X201630Y274788D01*
X410239D01*
X410391Y274288D01*
D02*
G37*
%LPC*%
G36*
X79260Y269701D02*
X79240D01*
Y266248D01*
X82693D01*
Y266268D01*
X82424Y267274D01*
X81903Y268175D01*
X81167Y268911D01*
X80266Y269431D01*
X79260Y269701D01*
D02*
G37*
G36*
X78240D02*
X78220D01*
X77214Y269431D01*
X76313Y268911D01*
X75577Y268175D01*
X75057Y267274D01*
X74787Y266268D01*
Y266248D01*
X78240D01*
Y269701D01*
D02*
G37*
G36*
X82693Y265248D02*
X79240D01*
Y261795D01*
X79260D01*
X80266Y262065D01*
X81167Y262585D01*
X81903Y263321D01*
X82424Y264222D01*
X82693Y265228D01*
Y265248D01*
D02*
G37*
G36*
X78240D02*
X74787D01*
Y265228D01*
X75057Y264222D01*
X75375Y263671D01*
X57230Y245526D01*
X57032Y245231D01*
X56963Y244882D01*
Y239583D01*
X49984D01*
Y235933D01*
X65764D01*
Y239583D01*
X58785D01*
Y244504D01*
X76664Y262383D01*
X77214Y262065D01*
X78220Y261795D01*
X78240D01*
Y265248D01*
D02*
G37*
G36*
X229300Y270000D02*
X228180D01*
X227099Y269710D01*
X226129Y269150D01*
X225338Y268359D01*
X224778Y267389D01*
X224488Y266308D01*
Y265188D01*
X224778Y264107D01*
X225338Y263137D01*
X226129Y262346D01*
X227099Y261786D01*
X228180Y261496D01*
X229300D01*
X230381Y261786D01*
X231351Y262346D01*
X232142Y263137D01*
X232702Y264107D01*
X232992Y265188D01*
Y266308D01*
X232702Y267389D01*
X232142Y268359D01*
X231351Y269150D01*
X230381Y269710D01*
X229300Y270000D01*
D02*
G37*
G36*
X219300D02*
X218180D01*
X217099Y269710D01*
X216129Y269150D01*
X215338Y268359D01*
X214778Y267389D01*
X214488Y266308D01*
Y265188D01*
X214778Y264107D01*
X215338Y263137D01*
X216129Y262346D01*
X217099Y261786D01*
X218180Y261496D01*
X219300D01*
X220381Y261786D01*
X221351Y262346D01*
X222143Y263137D01*
X222702Y264107D01*
X222992Y265188D01*
Y266308D01*
X222702Y267389D01*
X222143Y268359D01*
X221351Y269150D01*
X220381Y269710D01*
X219300Y270000D01*
D02*
G37*
G36*
X89300D02*
X88180D01*
X87099Y269710D01*
X86129Y269150D01*
X85338Y268359D01*
X84778Y267389D01*
X84488Y266308D01*
Y265188D01*
X84778Y264107D01*
X85156Y263452D01*
X79277Y257574D01*
X79079Y257278D01*
X79010Y256929D01*
Y239370D01*
X72244D01*
Y231496D01*
X79010D01*
Y219767D01*
X75115Y215872D01*
X74114D01*
Y217717D01*
X69012D01*
Y217929D01*
X66740D01*
Y214961D01*
X65740D01*
Y217929D01*
X63468D01*
Y215872D01*
X62681D01*
X58785Y219767D01*
Y231283D01*
X65764D01*
Y234933D01*
X49984D01*
Y231283D01*
X56963D01*
Y219390D01*
X57032Y219041D01*
X57230Y218745D01*
X61659Y214316D01*
X61954Y214119D01*
X62303Y214049D01*
X63468D01*
Y211992D01*
X65329D01*
Y211038D01*
X65005Y210904D01*
X64391Y210291D01*
X64087Y209555D01*
X68394D01*
X68089Y210291D01*
X67476Y210904D01*
X67151Y211038D01*
Y211992D01*
X69012D01*
Y212205D01*
X70644D01*
Y211038D01*
X70320Y210904D01*
X69706Y210291D01*
X69374Y209489D01*
Y208621D01*
X69706Y207820D01*
X70320Y207206D01*
X71121Y206874D01*
X71989D01*
X72791Y207206D01*
X73404Y207820D01*
X73736Y208621D01*
Y209489D01*
X73404Y210291D01*
X72791Y210904D01*
X72466Y211038D01*
Y212205D01*
X74114D01*
Y214049D01*
X75492D01*
X75841Y214119D01*
X76136Y214316D01*
X80566Y218745D01*
X80763Y219041D01*
X80832Y219390D01*
Y231496D01*
X87598D01*
Y239370D01*
X80832D01*
Y256552D01*
X86444Y262164D01*
X87099Y261786D01*
X88180Y261496D01*
X89300D01*
X90381Y261786D01*
X91351Y262346D01*
X92142Y263137D01*
X92702Y264107D01*
X92992Y265188D01*
Y266308D01*
X92702Y267389D01*
X92142Y268359D01*
X91351Y269150D01*
X90381Y269710D01*
X89300Y270000D01*
D02*
G37*
G36*
X414854Y265248D02*
X405496D01*
Y264777D01*
X405875Y262873D01*
X406618Y261078D01*
X407697Y259464D01*
X409070Y258091D01*
X410685Y257012D01*
X412479Y256269D01*
X414383Y255890D01*
X414854D01*
Y265248D01*
D02*
G37*
G36*
X59071D02*
X49713D01*
Y255890D01*
X50184D01*
X52088Y256269D01*
X53882Y257012D01*
X55497Y258091D01*
X56870Y259464D01*
X57949Y261078D01*
X58692Y262873D01*
X59071Y264777D01*
Y265248D01*
D02*
G37*
G36*
X282321Y256817D02*
X222246D01*
X221897Y256747D01*
X221602Y256550D01*
X216797Y251745D01*
X216620Y251481D01*
X216433Y251437D01*
X216082Y251413D01*
X215843Y251826D01*
X215015Y252654D01*
X214001Y253240D01*
X212869Y253543D01*
X211698D01*
X210566Y253240D01*
X209552Y252654D01*
X208723Y251826D01*
X208138Y250812D01*
X207835Y249680D01*
Y248509D01*
X208138Y247377D01*
X208723Y246363D01*
X209552Y245534D01*
X210566Y244949D01*
X211698Y244646D01*
X212869D01*
X214001Y244949D01*
X215015Y245534D01*
X215843Y246363D01*
X216030Y246686D01*
X216530Y246552D01*
Y244629D01*
X214723Y242823D01*
X214001Y243240D01*
X212869Y243543D01*
X211698D01*
X210566Y243240D01*
X209552Y242654D01*
X208723Y241826D01*
X208138Y240812D01*
X207835Y239680D01*
Y238509D01*
X208138Y237377D01*
X208723Y236363D01*
X209552Y235535D01*
X210566Y234949D01*
X211698Y234646D01*
X212869D01*
X214001Y234949D01*
X215015Y235535D01*
X215843Y236363D01*
X216429Y237377D01*
X216732Y238509D01*
Y239680D01*
X216429Y240812D01*
X216012Y241534D01*
X218085Y243608D01*
X218283Y243903D01*
X218352Y244252D01*
Y246052D01*
X218852Y246234D01*
X219552Y245534D01*
X220566Y244949D01*
X221698Y244646D01*
X222869D01*
X224001Y244949D01*
X225015Y245534D01*
X225715Y246234D01*
X226215Y246052D01*
Y244314D01*
X224723Y242823D01*
X224001Y243240D01*
X222869Y243543D01*
X221698D01*
X220566Y243240D01*
X219552Y242654D01*
X218724Y241826D01*
X218138Y240812D01*
X217835Y239680D01*
Y238509D01*
X218138Y237377D01*
X218724Y236363D01*
X219552Y235535D01*
X220566Y234949D01*
X221698Y234646D01*
X222869D01*
X224001Y234949D01*
X225015Y235535D01*
X225843Y236363D01*
X226030Y236686D01*
X226530Y236552D01*
Y219488D01*
X225000D01*
Y213976D01*
X230118D01*
Y219488D01*
X228352D01*
Y236052D01*
X228852Y236234D01*
X229552Y235535D01*
X230566Y234949D01*
X231698Y234646D01*
X232869D01*
X234001Y234949D01*
X235015Y235535D01*
X235843Y236363D01*
X236429Y237377D01*
X236732Y238509D01*
Y239680D01*
X236429Y240812D01*
X235843Y241826D01*
X235144Y242526D01*
X235326Y243026D01*
X239241D01*
X239423Y242526D01*
X238723Y241826D01*
X238138Y240812D01*
X237835Y239680D01*
Y238509D01*
X238138Y237377D01*
X238723Y236363D01*
X239552Y235535D01*
X240566Y234949D01*
X241698Y234646D01*
X242869D01*
X244001Y234949D01*
X245015Y235535D01*
X245843Y236363D01*
X246429Y237377D01*
X246732Y238509D01*
Y239680D01*
X246429Y240812D01*
X245843Y241826D01*
X245144Y242526D01*
X245326Y243026D01*
X249241D01*
X249423Y242526D01*
X248724Y241826D01*
X248138Y240812D01*
X247835Y239680D01*
Y238509D01*
X248138Y237377D01*
X248724Y236363D01*
X249552Y235535D01*
X250566Y234949D01*
X251698Y234646D01*
X252869D01*
X254001Y234949D01*
X255015Y235535D01*
X255843Y236363D01*
X256429Y237377D01*
X256732Y238509D01*
Y239680D01*
X256429Y240812D01*
X255843Y241826D01*
X255144Y242526D01*
X255326Y243026D01*
X259241D01*
X259423Y242526D01*
X258723Y241826D01*
X258138Y240812D01*
X257835Y239680D01*
Y238509D01*
X258138Y237377D01*
X258555Y236655D01*
X255882Y233982D01*
X240551D01*
X240202Y233913D01*
X239907Y233715D01*
X233214Y227022D01*
X233016Y226727D01*
X232947Y226378D01*
Y219488D01*
X231299D01*
Y213976D01*
X236417D01*
Y219488D01*
X234770D01*
Y226000D01*
X237476Y228707D01*
X237976Y228500D01*
Y227913D01*
X238308Y227111D01*
X238922Y226497D01*
X239246Y226363D01*
Y219488D01*
X237598D01*
Y213976D01*
X242717D01*
Y219488D01*
X241069D01*
Y226363D01*
X241393Y226497D01*
X242006Y227111D01*
X242339Y227913D01*
Y228780D01*
X242006Y229582D01*
X241393Y230195D01*
X240591Y230528D01*
X240004D01*
X239796Y231028D01*
X240929Y232160D01*
X256260D01*
X256609Y232229D01*
X256904Y232427D01*
X259844Y235366D01*
X260566Y234949D01*
X261698Y234646D01*
X262869D01*
X264001Y234949D01*
X265015Y235535D01*
X265843Y236363D01*
X266429Y237377D01*
X266732Y238509D01*
Y239680D01*
X266429Y240812D01*
X265843Y241826D01*
X265144Y242526D01*
X265326Y243026D01*
X267063D01*
X268555Y241534D01*
X268138Y240812D01*
X267835Y239680D01*
Y238509D01*
X268138Y237377D01*
X268724Y236363D01*
X269552Y235535D01*
X270566Y234949D01*
X271698Y234646D01*
X272869D01*
X274001Y234949D01*
X275015Y235535D01*
X275715Y236234D01*
X276215Y236052D01*
Y235377D01*
X260326Y219488D01*
X256496D01*
Y213976D01*
X261614D01*
Y218199D01*
X262333Y218919D01*
X262795Y218727D01*
Y213976D01*
X267913D01*
Y219488D01*
X266956D01*
X266749Y219988D01*
X274335Y227574D01*
X278523D01*
X278871Y227643D01*
X279167Y227841D01*
X287770Y236444D01*
X287947Y236708D01*
X288134Y236752D01*
X288485Y236776D01*
X288723Y236363D01*
X289552Y235535D01*
X290566Y234949D01*
X291372Y234733D01*
Y233566D01*
X283733Y225927D01*
X276000D01*
X275651Y225858D01*
X275356Y225660D01*
X271009Y221314D01*
X270812Y221018D01*
X270742Y220669D01*
Y219488D01*
X269094D01*
Y213976D01*
X274213D01*
Y219488D01*
X272565D01*
Y220292D01*
X276377Y224104D01*
X279446D01*
X279637Y223643D01*
X277308Y221314D01*
X277111Y221018D01*
X277042Y220669D01*
Y219488D01*
X275394D01*
Y213976D01*
X280512D01*
Y219488D01*
X278864D01*
Y220292D01*
X281389Y222817D01*
X292823D01*
X293172Y222886D01*
X293467Y223084D01*
X302928Y232545D01*
X303125Y232840D01*
X303195Y233189D01*
Y234733D01*
X304001Y234949D01*
X305015Y235535D01*
X305843Y236363D01*
X306429Y237377D01*
X306732Y238509D01*
Y239680D01*
X306429Y240812D01*
X305843Y241826D01*
X305015Y242654D01*
X304001Y243240D01*
X302869Y243543D01*
X301698D01*
X300566Y243240D01*
X299552Y242654D01*
X298724Y241826D01*
X298138Y240812D01*
X297835Y239680D01*
Y238509D01*
X298138Y237377D01*
X298724Y236363D01*
X299552Y235535D01*
X300566Y234949D01*
X301372Y234733D01*
Y233566D01*
X292445Y224640D01*
X285676D01*
X285485Y225101D01*
X292928Y232545D01*
X293125Y232840D01*
X293195Y233189D01*
Y234733D01*
X294001Y234949D01*
X295015Y235535D01*
X295843Y236363D01*
X296429Y237377D01*
X296732Y238509D01*
Y239680D01*
X296429Y240812D01*
X295843Y241826D01*
X295015Y242654D01*
X294001Y243240D01*
X292869Y243543D01*
X291698D01*
X290566Y243240D01*
X289552Y242654D01*
X288723Y241826D01*
X288537Y241503D01*
X288037Y241637D01*
Y246552D01*
X288537Y246686D01*
X288723Y246363D01*
X289552Y245534D01*
X290566Y244949D01*
X291698Y244646D01*
X292869D01*
X294001Y244949D01*
X295015Y245534D01*
X295843Y246363D01*
X296429Y247377D01*
X296732Y248509D01*
Y249680D01*
X296429Y250812D01*
X295843Y251826D01*
X295015Y252654D01*
X294001Y253240D01*
X292869Y253543D01*
X291698D01*
X290566Y253240D01*
X289552Y252654D01*
X288723Y251826D01*
X288485Y251413D01*
X288134Y251437D01*
X287947Y251481D01*
X287770Y251745D01*
X282965Y256550D01*
X282669Y256747D01*
X282321Y256817D01*
D02*
G37*
G36*
X138229Y251000D02*
X137361D01*
X136560Y250668D01*
X135946Y250054D01*
X135614Y249253D01*
Y248385D01*
X135804Y247926D01*
X135576Y247697D01*
X135379Y247402D01*
X135309Y247053D01*
Y246457D01*
X133661D01*
Y240945D01*
X138779D01*
Y246457D01*
X138779Y246457D01*
X138779D01*
X138911Y246920D01*
X139031Y246970D01*
X139644Y247583D01*
X139976Y248385D01*
Y249253D01*
X139644Y250054D01*
X139031Y250668D01*
X138229Y251000D01*
D02*
G37*
G36*
X312869Y253543D02*
X311698D01*
X310566Y253240D01*
X309552Y252654D01*
X308723Y251826D01*
X308138Y250812D01*
X307835Y249680D01*
Y248509D01*
X308138Y247377D01*
X308723Y246363D01*
X309552Y245534D01*
X310566Y244949D01*
X311698Y244646D01*
X312869D01*
X314001Y244949D01*
X315015Y245534D01*
X315843Y246363D01*
X316429Y247377D01*
X316732Y248509D01*
Y249680D01*
X316429Y250812D01*
X315843Y251826D01*
X315015Y252654D01*
X314001Y253240D01*
X312869Y253543D01*
D02*
G37*
G36*
X302869D02*
X301698D01*
X300566Y253240D01*
X299552Y252654D01*
X298724Y251826D01*
X298138Y250812D01*
X297835Y249680D01*
Y248509D01*
X298138Y247377D01*
X298724Y246363D01*
X299552Y245534D01*
X300566Y244949D01*
X301698Y244646D01*
X302869D01*
X304001Y244949D01*
X305015Y245534D01*
X305843Y246363D01*
X306429Y247377D01*
X306732Y248509D01*
Y249680D01*
X306429Y250812D01*
X305843Y251826D01*
X305015Y252654D01*
X304001Y253240D01*
X302869Y253543D01*
D02*
G37*
G36*
X202869D02*
X201698D01*
X200566Y253240D01*
X199552Y252654D01*
X198723Y251826D01*
X198138Y250812D01*
X197835Y249680D01*
Y248509D01*
X198138Y247377D01*
X198723Y246363D01*
X199552Y245534D01*
X200566Y244949D01*
X201698Y244646D01*
X202869D01*
X204001Y244949D01*
X205015Y245534D01*
X205843Y246363D01*
X206429Y247377D01*
X206732Y248509D01*
Y249680D01*
X206429Y250812D01*
X205843Y251826D01*
X205015Y252654D01*
X204001Y253240D01*
X202869Y253543D01*
D02*
G37*
G36*
X192869D02*
X191698D01*
X190566Y253240D01*
X189552Y252654D01*
X188724Y251826D01*
X188138Y250812D01*
X187835Y249680D01*
Y248509D01*
X188138Y247377D01*
X188724Y246363D01*
X189552Y245534D01*
X190566Y244949D01*
X191698Y244646D01*
X192869D01*
X194001Y244949D01*
X195015Y245534D01*
X195843Y246363D01*
X196429Y247377D01*
X196732Y248509D01*
Y249680D01*
X196429Y250812D01*
X195843Y251826D01*
X195015Y252654D01*
X194001Y253240D01*
X192869Y253543D01*
D02*
G37*
G36*
X182869D02*
X181698D01*
X180566Y253240D01*
X179552Y252654D01*
X178724Y251826D01*
X178138Y250812D01*
X177835Y249680D01*
Y248509D01*
X178138Y247377D01*
X178724Y246363D01*
X179552Y245534D01*
X180566Y244949D01*
X181698Y244646D01*
X182869D01*
X184001Y244949D01*
X185015Y245534D01*
X185843Y246363D01*
X186429Y247377D01*
X186732Y248509D01*
Y249680D01*
X186429Y250812D01*
X185843Y251826D01*
X185015Y252654D01*
X184001Y253240D01*
X182869Y253543D01*
D02*
G37*
G36*
X172869D02*
X171698D01*
X170566Y253240D01*
X169552Y252654D01*
X168723Y251826D01*
X168138Y250812D01*
X167835Y249680D01*
Y248509D01*
X168138Y247377D01*
X168723Y246363D01*
X169552Y245534D01*
X170566Y244949D01*
X171698Y244646D01*
X172869D01*
X174001Y244949D01*
X175015Y245534D01*
X175843Y246363D01*
X176429Y247377D01*
X176732Y248509D01*
Y249680D01*
X176429Y250812D01*
X175843Y251826D01*
X175015Y252654D01*
X174001Y253240D01*
X172869Y253543D01*
D02*
G37*
G36*
X162869D02*
X161698D01*
X160566Y253240D01*
X159552Y252654D01*
X158723Y251826D01*
X158138Y250812D01*
X157835Y249680D01*
Y248509D01*
X158138Y247377D01*
X158723Y246363D01*
X159552Y245534D01*
X160566Y244949D01*
X161698Y244646D01*
X162869D01*
X164001Y244949D01*
X165015Y245534D01*
X165843Y246363D01*
X166429Y247377D01*
X166732Y248509D01*
Y249680D01*
X166429Y250812D01*
X165843Y251826D01*
X165015Y252654D01*
X164001Y253240D01*
X162869Y253543D01*
D02*
G37*
G36*
X312869Y243543D02*
X311698D01*
X310566Y243240D01*
X309552Y242654D01*
X308723Y241826D01*
X308138Y240812D01*
X307835Y239680D01*
Y238509D01*
X308138Y237377D01*
X308723Y236363D01*
X309552Y235535D01*
X310566Y234949D01*
X311698Y234646D01*
X312869D01*
X314001Y234949D01*
X315015Y235535D01*
X315843Y236363D01*
X316429Y237377D01*
X316732Y238509D01*
Y239680D01*
X316429Y240812D01*
X315843Y241826D01*
X315015Y242654D01*
X314001Y243240D01*
X312869Y243543D01*
D02*
G37*
G36*
X365504Y231413D02*
X363232D01*
Y227665D01*
X365504D01*
Y231413D01*
D02*
G37*
G36*
X253190Y230528D02*
X252322D01*
X251520Y230195D01*
X250907Y229582D01*
X250575Y228780D01*
Y227913D01*
X250907Y227111D01*
X251520Y226497D01*
X251845Y226363D01*
Y219488D01*
X250197D01*
Y213976D01*
X255315D01*
Y219488D01*
X253667D01*
Y226363D01*
X253991Y226497D01*
X254605Y227111D01*
X254937Y227913D01*
Y228780D01*
X254605Y229582D01*
X253991Y230195D01*
X253190Y230528D01*
D02*
G37*
G36*
X246890D02*
X246023D01*
X245221Y230195D01*
X244608Y229582D01*
X244276Y228780D01*
Y227913D01*
X244608Y227111D01*
X245221Y226497D01*
X245546Y226363D01*
Y219488D01*
X243898D01*
Y213976D01*
X249016D01*
Y219488D01*
X247368D01*
Y226363D01*
X247692Y226497D01*
X248306Y227111D01*
X248638Y227913D01*
Y228780D01*
X248306Y229582D01*
X247692Y230195D01*
X246890Y230528D01*
D02*
G37*
G36*
X222875Y232890D02*
X222007D01*
X221205Y232558D01*
X220592Y231944D01*
X220260Y231142D01*
Y230275D01*
X220531Y229620D01*
X220418Y229450D01*
X220349Y229101D01*
Y219488D01*
X218701D01*
Y213976D01*
X223819D01*
Y219488D01*
X222171D01*
Y228528D01*
X222875D01*
X223676Y228860D01*
X224290Y229473D01*
X224622Y230275D01*
Y231142D01*
X224290Y231944D01*
X223676Y232558D01*
X222875Y232890D01*
D02*
G37*
G36*
X202869Y243543D02*
X201698D01*
X200566Y243240D01*
X199552Y242654D01*
X198723Y241826D01*
X198138Y240812D01*
X197835Y239680D01*
Y238509D01*
X198138Y237377D01*
X198723Y236363D01*
X199552Y235535D01*
X200566Y234949D01*
X201372Y234733D01*
Y233347D01*
X201442Y232998D01*
X201639Y232702D01*
X214049Y220292D01*
Y219488D01*
X212402D01*
Y213976D01*
X217520D01*
Y219488D01*
X215872D01*
Y220669D01*
X215803Y221018D01*
X215605Y221314D01*
X203195Y233724D01*
Y234733D01*
X204001Y234949D01*
X205015Y235535D01*
X205843Y236363D01*
X206429Y237377D01*
X206732Y238509D01*
Y239680D01*
X206429Y240812D01*
X205843Y241826D01*
X205015Y242654D01*
X204001Y243240D01*
X202869Y243543D01*
D02*
G37*
G36*
X368776Y231413D02*
X366504D01*
Y227165D01*
X366004D01*
Y226665D01*
X363232D01*
Y222917D01*
X362760Y222850D01*
X361992D01*
Y220579D01*
X367929D01*
Y222850D01*
X368401Y222917D01*
X368776D01*
Y223036D01*
X369059Y223042D01*
X369291Y222549D01*
Y217520D01*
X374803D01*
Y219167D01*
X375607D01*
X376893Y217882D01*
Y216080D01*
X373116D01*
Y212305D01*
X382491D01*
Y216080D01*
X378715D01*
Y218259D01*
X378646Y218608D01*
X378448Y218903D01*
X376629Y220723D01*
X376333Y220921D01*
X375984Y220990D01*
X374803D01*
Y222638D01*
X373582D01*
X373563Y223130D01*
X373563D01*
Y231201D01*
X368776D01*
Y231413D01*
D02*
G37*
G36*
X393307Y212402D02*
X387795D01*
Y210754D01*
X386629D01*
X386495Y211078D01*
X385881Y211692D01*
X385080Y212024D01*
X384212D01*
X383410Y211692D01*
X382935Y211216D01*
X382491Y211080D01*
X382491Y211080D01*
Y211080D01*
X382491Y211080D01*
X373116D01*
Y207306D01*
X382491D01*
Y208282D01*
X383122D01*
X383410Y207994D01*
X384212Y207661D01*
X385080D01*
X385881Y207994D01*
X386495Y208607D01*
X386629Y208931D01*
X387795D01*
Y207283D01*
X393307D01*
Y212402D01*
D02*
G37*
G36*
X322481Y218126D02*
X321613D01*
X320812Y217794D01*
X320198Y217180D01*
X319866Y216379D01*
Y215511D01*
X320198Y214709D01*
X320812Y214096D01*
X321136Y213962D01*
Y212795D01*
X319488D01*
Y207283D01*
X324606D01*
Y212795D01*
X322958D01*
Y213962D01*
X323283Y214096D01*
X323896Y214709D01*
X324228Y215511D01*
Y216379D01*
X323896Y217180D01*
X323283Y217794D01*
X322481Y218126D01*
D02*
G37*
G36*
X316182D02*
X315314D01*
X314512Y217794D01*
X313899Y217180D01*
X313567Y216379D01*
Y215511D01*
X313899Y214709D01*
X314512Y214096D01*
X314837Y213962D01*
Y212795D01*
X313189D01*
Y207283D01*
X318307D01*
Y212795D01*
X316659D01*
Y213962D01*
X316984Y214096D01*
X317597Y214709D01*
X317929Y215511D01*
Y216379D01*
X317597Y217180D01*
X316984Y217794D01*
X316182Y218126D01*
D02*
G37*
G36*
X309883D02*
X309015D01*
X308213Y217794D01*
X307600Y217180D01*
X307268Y216379D01*
Y215511D01*
X307600Y214709D01*
X308213Y214096D01*
X308538Y213962D01*
Y212795D01*
X306890D01*
Y207283D01*
X312008D01*
Y212795D01*
X310360D01*
Y213962D01*
X310684Y214096D01*
X311298Y214709D01*
X311630Y215511D01*
Y216379D01*
X311298Y217180D01*
X310684Y217794D01*
X309883Y218126D01*
D02*
G37*
G36*
X303583D02*
X302716D01*
X301914Y217794D01*
X301301Y217180D01*
X300969Y216379D01*
Y215511D01*
X301301Y214709D01*
X301914Y214096D01*
X302238Y213962D01*
Y212795D01*
X300590D01*
Y207283D01*
X305709D01*
Y212795D01*
X304061D01*
Y213962D01*
X304385Y214096D01*
X304999Y214709D01*
X305331Y215511D01*
Y216379D01*
X304999Y217180D01*
X304385Y217794D01*
X303583Y218126D01*
D02*
G37*
G36*
X297284D02*
X296416D01*
X295615Y217794D01*
X295001Y217180D01*
X294669Y216379D01*
Y215511D01*
X295001Y214709D01*
X295615Y214096D01*
X295939Y213962D01*
Y212795D01*
X294291D01*
Y207283D01*
X299409D01*
Y212795D01*
X297762D01*
Y213962D01*
X298086Y214096D01*
X298699Y214709D01*
X299031Y215511D01*
Y216379D01*
X298699Y217180D01*
X298086Y217794D01*
X297284Y218126D01*
D02*
G37*
G36*
X290985D02*
X290117D01*
X289316Y217794D01*
X288702Y217180D01*
X288370Y216379D01*
Y215511D01*
X288702Y214709D01*
X289316Y214096D01*
X289640Y213962D01*
Y212795D01*
X287992D01*
Y207283D01*
X293110D01*
Y212795D01*
X291462D01*
Y213962D01*
X291787Y214096D01*
X292400Y214709D01*
X292732Y215511D01*
Y216379D01*
X292400Y217180D01*
X291787Y217794D01*
X290985Y218126D01*
D02*
G37*
G36*
X68394Y208555D02*
X66740D01*
Y206901D01*
X67476Y207206D01*
X68089Y207820D01*
X68394Y208555D01*
D02*
G37*
G36*
X65740D02*
X64087D01*
X64391Y207820D01*
X65005Y207206D01*
X65740Y206901D01*
Y208555D01*
D02*
G37*
G36*
X393307Y206102D02*
X387795D01*
Y204454D01*
X386629D01*
X386495Y204779D01*
X385881Y205392D01*
X385080Y205724D01*
X384212D01*
X383410Y205392D01*
X383122Y205104D01*
X382491D01*
Y206080D01*
X373116D01*
Y202306D01*
X382491D01*
X382491Y202306D01*
X382935Y202169D01*
X383410Y201694D01*
X384212Y201362D01*
X385080D01*
X385881Y201694D01*
X386495Y202308D01*
X386629Y202632D01*
X387795D01*
Y200984D01*
X393307D01*
Y206102D01*
D02*
G37*
G36*
X204921Y212402D02*
X199803D01*
Y206890D01*
X200396D01*
X200587Y206428D01*
X200513Y206354D01*
X200181Y205552D01*
Y204684D01*
X200513Y203883D01*
X201127Y203269D01*
X201928Y202937D01*
X202796D01*
X203598Y203269D01*
X204211Y203883D01*
X204543Y204684D01*
Y205552D01*
X204211Y206354D01*
X204137Y206428D01*
X204328Y206890D01*
X204921D01*
Y212402D01*
D02*
G37*
G36*
X198622D02*
X193504D01*
Y206890D01*
X194097D01*
X194288Y206428D01*
X194214Y206354D01*
X193882Y205552D01*
Y204684D01*
X194214Y203883D01*
X194827Y203269D01*
X195629Y202937D01*
X196497D01*
X197299Y203269D01*
X197912Y203883D01*
X198244Y204684D01*
Y205552D01*
X197912Y206354D01*
X197838Y206428D01*
X198029Y206890D01*
X198622D01*
Y212402D01*
D02*
G37*
G36*
X367929Y219579D02*
X361992D01*
Y217307D01*
X364049D01*
Y216515D01*
X363891Y216080D01*
X354517D01*
Y215104D01*
X339618D01*
X339269Y215035D01*
X338974Y214837D01*
X325068Y200932D01*
X324606Y201123D01*
Y205709D01*
X319488D01*
Y200197D01*
X321136D01*
Y199393D01*
X281734Y159992D01*
X265971D01*
Y161269D01*
X278913D01*
X279262Y161338D01*
X279558Y161536D01*
X279559Y161538D01*
X316392Y198371D01*
X316590Y198667D01*
X316659Y199016D01*
Y200197D01*
X318307D01*
Y205709D01*
X313189D01*
Y200197D01*
X314837D01*
Y199393D01*
X278535Y163092D01*
X265971D01*
Y164469D01*
X275815D01*
X276164Y164539D01*
X276459Y164736D01*
X276462Y164741D01*
X310093Y198371D01*
X310291Y198667D01*
X310360Y199016D01*
Y200197D01*
X312008D01*
Y205709D01*
X306890D01*
Y200197D01*
X308538D01*
Y199393D01*
X275436Y166291D01*
X265971D01*
Y167569D01*
X272614D01*
X272963Y167639D01*
X273258Y167836D01*
X303794Y198371D01*
X303991Y198667D01*
X304061Y199016D01*
Y200197D01*
X305709D01*
Y205709D01*
X300590D01*
Y200197D01*
X302238D01*
Y199393D01*
X272237Y169392D01*
X265971D01*
Y170769D01*
X269515D01*
X269864Y170838D01*
X270159Y171036D01*
X297495Y198371D01*
X297692Y198667D01*
X297762Y199016D01*
Y200197D01*
X299409D01*
Y205709D01*
X294291D01*
Y200197D01*
X295939D01*
Y199393D01*
X270870Y174324D01*
X270370Y174531D01*
Y175131D01*
X270038Y175932D01*
X269590Y176380D01*
X270038Y176828D01*
X270370Y177629D01*
Y178497D01*
X270038Y179298D01*
X269667Y179669D01*
X269875Y180169D01*
X272616D01*
X272965Y180238D01*
X273260Y180436D01*
X291196Y198371D01*
X291393Y198667D01*
X291462Y199016D01*
Y200197D01*
X293110D01*
Y205709D01*
X287992D01*
Y200197D01*
X289640D01*
Y199393D01*
X272238Y181992D01*
X265971D01*
Y182868D01*
X258596D01*
Y179293D01*
Y176193D01*
Y172993D01*
Y169893D01*
Y166693D01*
Y163593D01*
Y160393D01*
Y157293D01*
Y154093D01*
Y151580D01*
X258383D01*
Y150080D01*
X262283D01*
Y149080D01*
X258383D01*
Y147580D01*
X258596D01*
Y144693D01*
Y141493D01*
Y138393D01*
Y135193D01*
Y132093D01*
X265971D01*
Y132329D01*
X266471Y132514D01*
X266953Y132031D01*
X267755Y131699D01*
X268623D01*
X269425Y132031D01*
X270038Y132645D01*
X270370Y133447D01*
Y134314D01*
X270038Y135116D01*
X269585Y135569D01*
X269792Y136069D01*
X275437D01*
X301648Y109859D01*
Y108760D01*
X300000D01*
Y103248D01*
X305118D01*
Y108760D01*
X303470D01*
Y110236D01*
X303401Y110585D01*
X303203Y110880D01*
X276459Y137625D01*
X276164Y137822D01*
X275815Y137891D01*
X265971D01*
Y139269D01*
X278536D01*
X307947Y109858D01*
Y108760D01*
X306299D01*
Y103248D01*
X311417D01*
Y108760D01*
X309770D01*
Y110235D01*
X309700Y110584D01*
X309503Y110880D01*
X301141Y119241D01*
X301458Y119631D01*
X301807Y119561D01*
X304626D01*
Y117717D01*
X309728D01*
Y117504D01*
X312000D01*
Y120472D01*
Y123441D01*
X309728D01*
Y123228D01*
X304626D01*
Y121384D01*
X302185D01*
X301751Y121817D01*
X302243Y122308D01*
X302575Y123110D01*
Y123977D01*
X302471Y124227D01*
X302805Y124728D01*
X309030D01*
Y128502D01*
X302455D01*
Y127526D01*
X301807D01*
X301458Y127457D01*
X301163Y127259D01*
X299749Y125846D01*
X299557Y125558D01*
X299158Y125393D01*
X298545Y124779D01*
X298213Y123977D01*
Y123110D01*
X298377Y122712D01*
X297953Y122429D01*
X279558Y140825D01*
X279262Y141022D01*
X278913Y141092D01*
X269792D01*
X269585Y141592D01*
X270038Y142045D01*
X270172Y142369D01*
X281733D01*
X290731Y133371D01*
X291027Y133173D01*
X291376Y133104D01*
X302455D01*
Y132128D01*
X309030D01*
Y135902D01*
X302455D01*
Y134926D01*
X291753D01*
X282755Y143925D01*
X282459Y144122D01*
X282110Y144192D01*
X270172D01*
X270038Y144516D01*
X269591Y144963D01*
X270038Y145410D01*
X270370Y146212D01*
Y147080D01*
X270038Y147881D01*
X269592Y148327D01*
X270038Y148772D01*
X270370Y149574D01*
Y150442D01*
X270038Y151243D01*
X269912Y151369D01*
X270119Y151869D01*
X284930D01*
X294333Y142466D01*
X294629Y142268D01*
X294977Y142199D01*
X296457D01*
Y140551D01*
X301969D01*
Y142199D01*
X305118D01*
Y140945D01*
X314567D01*
Y151969D01*
X305118D01*
Y144021D01*
X301969D01*
Y145653D01*
X302181D01*
Y147925D01*
X296244D01*
Y145653D01*
X296457D01*
Y144021D01*
X295355D01*
X285951Y153425D01*
X285656Y153622D01*
X285307Y153691D01*
X265971D01*
Y154093D01*
Y154969D01*
X285307D01*
X285656Y155038D01*
X285951Y155236D01*
X295355Y164640D01*
X296457D01*
Y163008D01*
X296244D01*
Y160736D01*
X299213D01*
X302181D01*
Y163008D01*
X301969D01*
Y164640D01*
X305118D01*
Y156693D01*
X314567D01*
Y167717D01*
X305118D01*
Y166462D01*
X301969D01*
Y168110D01*
X296457D01*
Y166462D01*
X294978D01*
X294629Y166393D01*
X294334Y166195D01*
X284930Y156791D01*
X265971D01*
Y158169D01*
X282110D01*
X282111Y158169D01*
X282112Y158169D01*
X282460Y158238D01*
X282756Y158436D01*
X304892Y180572D01*
X305392Y180365D01*
Y177583D01*
X305461Y177234D01*
X305631Y176979D01*
X305851Y176546D01*
X305238Y175932D01*
X304906Y175131D01*
Y174263D01*
X305238Y173461D01*
X305851Y172848D01*
X306653Y172516D01*
X307521D01*
X308322Y172848D01*
X308936Y173461D01*
X309268Y174263D01*
Y175131D01*
X308999Y175779D01*
X309371Y176150D01*
X310019Y175882D01*
X310887D01*
X311688Y176214D01*
X312302Y176828D01*
X312634Y177629D01*
Y178497D01*
X312302Y179298D01*
X311688Y179912D01*
X310887Y180244D01*
X310193D01*
X309962Y180720D01*
X334129Y204888D01*
X335884D01*
Y202969D01*
X335953Y202620D01*
X336151Y202325D01*
X339927Y198549D01*
X340223Y198351D01*
X340571Y198282D01*
X354517D01*
Y197306D01*
X363891D01*
X364049Y196871D01*
Y195276D01*
X364119Y194927D01*
X364316Y194631D01*
X368647Y190301D01*
X368943Y190103D01*
X369291Y190034D01*
X369291Y190034D01*
X388665D01*
Y187976D01*
X390937D01*
Y190945D01*
Y193913D01*
X388665D01*
Y191856D01*
X369669D01*
X365872Y195653D01*
Y208268D01*
X365803Y208616D01*
X365605Y208912D01*
X365574Y208943D01*
Y209443D01*
X365605Y209474D01*
X365803Y209769D01*
X365872Y210118D01*
Y217307D01*
X367929D01*
Y219579D01*
D02*
G37*
G36*
X382491Y201080D02*
X373116D01*
Y197306D01*
X382491D01*
Y198282D01*
X383331D01*
X385013Y196600D01*
X385309Y196402D01*
X385658Y196333D01*
X387795D01*
Y194685D01*
X393307D01*
Y199803D01*
X387795D01*
Y198155D01*
X386035D01*
X384353Y199837D01*
X384057Y200035D01*
X383709Y200104D01*
X382491D01*
Y201080D01*
D02*
G37*
G36*
X135827Y195472D02*
X130315D01*
Y193825D01*
X129149D01*
X129014Y194149D01*
X128401Y194762D01*
X127599Y195095D01*
X126732D01*
X125930Y194762D01*
X125316Y194149D01*
X124984Y193347D01*
Y192480D01*
X125316Y191678D01*
X125930Y191064D01*
X126732Y190732D01*
X127599D01*
X128401Y191064D01*
X129014Y191678D01*
X129149Y192002D01*
X130315D01*
Y190354D01*
X135827D01*
Y195472D01*
D02*
G37*
G36*
X400394Y212402D02*
X394882D01*
Y207283D01*
X396727D01*
Y206102D01*
X394882D01*
Y200984D01*
X396727D01*
Y199803D01*
X394882D01*
Y194685D01*
X396727D01*
Y193701D01*
X394209D01*
Y193913D01*
X391937D01*
Y190945D01*
Y187976D01*
X394209D01*
Y188189D01*
X399311D01*
Y193701D01*
X398549D01*
Y194685D01*
X400394D01*
Y199803D01*
X398549D01*
Y200984D01*
X400394D01*
Y206102D01*
X398549D01*
Y207283D01*
X400394D01*
Y212402D01*
D02*
G37*
G36*
X146890Y195095D02*
X146023D01*
X145221Y194762D01*
X144608Y194149D01*
X144276Y193347D01*
Y192480D01*
X144608Y191678D01*
X145221Y191064D01*
X146023Y190732D01*
X146890D01*
X147692Y191064D01*
X148306Y191678D01*
X148638Y192480D01*
Y193347D01*
X148306Y194149D01*
X147692Y194762D01*
X146890Y195095D01*
D02*
G37*
G36*
X142913Y195472D02*
X137402D01*
Y190354D01*
X142913D01*
Y195472D01*
D02*
G37*
G36*
X135827Y189173D02*
X130315D01*
Y187525D01*
X129149D01*
X129014Y187850D01*
X128401Y188463D01*
X127599Y188795D01*
X126732D01*
X125930Y188463D01*
X125316Y187850D01*
X124984Y187048D01*
Y186180D01*
X125316Y185379D01*
X125930Y184765D01*
X126732Y184433D01*
X127599D01*
X128401Y184765D01*
X129014Y185379D01*
X129149Y185703D01*
X130315D01*
Y184055D01*
X135827D01*
Y189173D01*
D02*
G37*
G36*
X146890Y188795D02*
X146023D01*
X145221Y188463D01*
X144608Y187850D01*
X144276Y187048D01*
Y186180D01*
X144608Y185379D01*
X145221Y184765D01*
X146023Y184433D01*
X146890D01*
X147692Y184765D01*
X148306Y185379D01*
X148638Y186180D01*
Y187048D01*
X148306Y187850D01*
X147692Y188463D01*
X146890Y188795D01*
D02*
G37*
G36*
X142913Y189173D02*
X137402D01*
Y184055D01*
X142913D01*
Y189173D01*
D02*
G37*
G36*
X135827Y182874D02*
X130315D01*
Y181226D01*
X129149D01*
X129014Y181551D01*
X128401Y182164D01*
X127599Y182496D01*
X126732D01*
X125930Y182164D01*
X125316Y181551D01*
X124984Y180749D01*
Y179881D01*
X125316Y179079D01*
X125930Y178466D01*
X126732Y178134D01*
X127599D01*
X128401Y178466D01*
X129014Y179079D01*
X129149Y179404D01*
X130315D01*
Y177756D01*
X135827D01*
Y182874D01*
D02*
G37*
G36*
X146890Y182496D02*
X146023D01*
X145221Y182164D01*
X144608Y181551D01*
X144276Y180749D01*
Y179881D01*
X144608Y179079D01*
X145221Y178466D01*
X146023Y178134D01*
X146890D01*
X147692Y178466D01*
X148306Y179079D01*
X148638Y179881D01*
Y180749D01*
X148306Y181551D01*
X147692Y182164D01*
X146890Y182496D01*
D02*
G37*
G36*
X78453Y180909D02*
Y177980D01*
X81381D01*
X81159Y178808D01*
X80706Y179593D01*
X80066Y180234D01*
X79281Y180687D01*
X78453Y180909D01*
D02*
G37*
G36*
X77453D02*
X76625Y180687D01*
X75840Y180234D01*
X75199Y179593D01*
X74746Y178808D01*
X74524Y177980D01*
X77453D01*
Y180909D01*
D02*
G37*
G36*
X142913Y182874D02*
X137402D01*
Y177756D01*
X142913D01*
Y182874D01*
D02*
G37*
G36*
X81381Y176980D02*
X78453D01*
Y174052D01*
X79281Y174274D01*
X80066Y174727D01*
X80706Y175367D01*
X81159Y176152D01*
X81381Y176980D01*
D02*
G37*
G36*
X77453D02*
X74524D01*
X74746Y176152D01*
X75199Y175367D01*
X75840Y174727D01*
X76625Y174274D01*
X77453Y174052D01*
Y176980D01*
D02*
G37*
G36*
X166429Y170658D02*
X165694Y170353D01*
X165080Y169739D01*
X164775Y169004D01*
X166429D01*
Y170658D01*
D02*
G37*
G36*
X78445Y171221D02*
X77460D01*
X76509Y170966D01*
X75656Y170473D01*
X74960Y169777D01*
X74467Y168924D01*
X74213Y167973D01*
Y166988D01*
X74467Y166037D01*
X74960Y165184D01*
X75656Y164487D01*
X76509Y163995D01*
X77460Y163740D01*
X78445D01*
X79396Y163995D01*
X80249Y164487D01*
X80946Y165184D01*
X81438Y166037D01*
X81693Y166988D01*
Y167973D01*
X81438Y168924D01*
X80946Y169777D01*
X80249Y170473D01*
X79396Y170966D01*
X78445Y171221D01*
D02*
G37*
G36*
X302181Y159736D02*
X299213D01*
X296244D01*
Y157465D01*
X298301D01*
Y156314D01*
X297977Y156180D01*
X297363Y155566D01*
X297059Y154831D01*
X301366D01*
X301062Y155566D01*
X300448Y156180D01*
X300124Y156314D01*
Y157465D01*
X302181D01*
Y159736D01*
D02*
G37*
G36*
X78445Y161221D02*
X77460D01*
X76509Y160966D01*
X75656Y160473D01*
X74960Y159777D01*
X74467Y158924D01*
X74213Y157973D01*
Y156988D01*
X74467Y156037D01*
X74960Y155184D01*
X75656Y154487D01*
X76509Y153995D01*
X77460Y153740D01*
X78445D01*
X79396Y153995D01*
X80249Y154487D01*
X80946Y155184D01*
X81438Y156037D01*
X81693Y156988D01*
Y157973D01*
X81438Y158924D01*
X80946Y159777D01*
X80249Y160473D01*
X79396Y160966D01*
X78445Y161221D01*
D02*
G37*
G36*
X301366Y153831D02*
X297059D01*
X297363Y153095D01*
X297977Y152482D01*
X298301Y152347D01*
Y151197D01*
X296244D01*
Y148925D01*
X302181D01*
Y151197D01*
X300124D01*
Y152347D01*
X300448Y152482D01*
X301062Y153095D01*
X301366Y153831D01*
D02*
G37*
G36*
X78445Y151221D02*
X77460D01*
X76509Y150966D01*
X75656Y150473D01*
X74960Y149777D01*
X74467Y148924D01*
X74213Y147973D01*
Y146988D01*
X74467Y146037D01*
X74960Y145184D01*
X75656Y144487D01*
X76509Y143995D01*
X77460Y143740D01*
X78445D01*
X79396Y143995D01*
X80249Y144487D01*
X80946Y145184D01*
X81438Y146037D01*
X81693Y146988D01*
Y147973D01*
X81438Y148924D01*
X80946Y149777D01*
X80249Y150473D01*
X79396Y150966D01*
X78445Y151221D01*
D02*
G37*
G36*
X179815Y140244D02*
X179079Y139940D01*
X178466Y139326D01*
X178161Y138591D01*
X179815D01*
Y140244D01*
D02*
G37*
G36*
X78453Y140909D02*
Y137980D01*
X81381D01*
X81159Y138809D01*
X80706Y139593D01*
X80066Y140234D01*
X79281Y140687D01*
X78453Y140909D01*
D02*
G37*
G36*
X77453D02*
X76625Y140687D01*
X75840Y140234D01*
X75199Y139593D01*
X74746Y138809D01*
X74524Y137980D01*
X77453D01*
Y140909D01*
D02*
G37*
G36*
X179815Y137591D02*
X178161D01*
X178466Y136855D01*
X179079Y136241D01*
X179815Y135937D01*
Y137591D01*
D02*
G37*
G36*
X81381Y136980D02*
X78453D01*
Y134052D01*
X79281Y134274D01*
X80066Y134727D01*
X80706Y135368D01*
X81159Y136152D01*
X81381Y136980D01*
D02*
G37*
G36*
X77453D02*
X74524D01*
X74746Y136152D01*
X75199Y135368D01*
X75840Y134727D01*
X76625Y134274D01*
X77453Y134052D01*
Y136980D01*
D02*
G37*
G36*
X169307Y133480D02*
X167035D01*
Y131405D01*
X169307D01*
Y133480D01*
D02*
G37*
G36*
X166035D02*
X163764D01*
Y131405D01*
X166035D01*
Y133480D01*
D02*
G37*
G36*
X155134D02*
X152862D01*
Y131405D01*
X155134D01*
Y133480D01*
D02*
G37*
G36*
X151862D02*
X149591D01*
Y131405D01*
X151862D01*
Y133480D01*
D02*
G37*
G36*
X140961D02*
X138689D01*
Y131405D01*
X140961D01*
Y133480D01*
D02*
G37*
G36*
X137689D02*
X135417D01*
Y131405D01*
X137689D01*
Y133480D01*
D02*
G37*
G36*
X313442Y132415D02*
X310442D01*
Y130815D01*
X313442D01*
Y132415D01*
D02*
G37*
G36*
Y129815D02*
X310442D01*
Y128215D01*
X313442D01*
Y129815D01*
D02*
G37*
G36*
X169307Y130405D02*
X163764D01*
Y128331D01*
X165194D01*
X165297Y127846D01*
X165297Y127831D01*
X164686Y127220D01*
X164382Y126484D01*
X168689D01*
X168385Y127220D01*
X167773Y127831D01*
X167774Y127846D01*
X167877Y128331D01*
X169307D01*
Y130405D01*
D02*
G37*
G36*
X155134D02*
X149591D01*
Y128331D01*
X151021D01*
X151124Y127846D01*
X151124Y127831D01*
X150513Y127220D01*
X150208Y126484D01*
X154516D01*
X154211Y127220D01*
X153600Y127831D01*
X153600Y127846D01*
X153703Y128331D01*
X155134D01*
Y130405D01*
D02*
G37*
G36*
X140961D02*
X135417D01*
Y128331D01*
X136848D01*
X136951Y127846D01*
X136951Y127831D01*
X136340Y127220D01*
X136035Y126484D01*
X140343D01*
X140038Y127220D01*
X139427Y127831D01*
X139427Y127846D01*
X139530Y128331D01*
X140961D01*
Y130405D01*
D02*
G37*
G36*
X317442Y132415D02*
X314442D01*
Y130315D01*
Y128215D01*
X317442D01*
Y128755D01*
X317943Y128962D01*
X318380Y128524D01*
Y127377D01*
X318056Y127243D01*
X317442Y126629D01*
X317138Y125894D01*
X321445D01*
X321140Y126629D01*
X320527Y127243D01*
X320202Y127377D01*
Y128902D01*
X320133Y129250D01*
X319936Y129546D01*
X318522Y130959D01*
X318227Y131157D01*
X317878Y131226D01*
X317442D01*
Y132415D01*
D02*
G37*
G36*
X168689Y125484D02*
X167035D01*
Y123830D01*
X167771Y124135D01*
X168385Y124749D01*
X168689Y125484D01*
D02*
G37*
G36*
X166035D02*
X164382D01*
X164686Y124749D01*
X165300Y124135D01*
X166035Y123830D01*
Y125484D01*
D02*
G37*
G36*
X154516D02*
X152862D01*
Y123830D01*
X153598Y124135D01*
X154211Y124749D01*
X154516Y125484D01*
D02*
G37*
G36*
X151862D02*
X150208D01*
X150513Y124749D01*
X151127Y124135D01*
X151862Y123830D01*
Y125484D01*
D02*
G37*
G36*
X140343D02*
X138689D01*
Y123830D01*
X139425Y124135D01*
X140038Y124749D01*
X140343Y125484D01*
D02*
G37*
G36*
X137689D02*
X136035D01*
X136340Y124749D01*
X136953Y124135D01*
X137689Y123830D01*
Y125484D01*
D02*
G37*
G36*
X162008Y134646D02*
X156890D01*
Y129134D01*
X158538D01*
Y127968D01*
X158213Y127833D01*
X157600Y127220D01*
X157268Y126418D01*
Y125550D01*
X157600Y124749D01*
X158213Y124135D01*
X159015Y123803D01*
X159883D01*
X160684Y124135D01*
X161298Y124749D01*
X161630Y125550D01*
Y126418D01*
X161298Y127220D01*
X160684Y127833D01*
X160360Y127968D01*
Y129134D01*
X162008D01*
Y134646D01*
D02*
G37*
G36*
X147835D02*
X142717D01*
Y129134D01*
X144364D01*
Y127968D01*
X144040Y127833D01*
X143427Y127220D01*
X143095Y126418D01*
Y125550D01*
X143427Y124749D01*
X144040Y124135D01*
X144842Y123803D01*
X145709D01*
X146511Y124135D01*
X147125Y124749D01*
X147457Y125550D01*
Y126418D01*
X147125Y127220D01*
X146511Y127833D01*
X146187Y127968D01*
Y129134D01*
X147835D01*
Y134646D01*
D02*
G37*
G36*
X133661D02*
X128543D01*
Y129134D01*
X130191D01*
Y127968D01*
X129867Y127833D01*
X129253Y127220D01*
X128921Y126418D01*
Y125550D01*
X129253Y124749D01*
X129867Y124135D01*
X130668Y123803D01*
X131536D01*
X132338Y124135D01*
X132951Y124749D01*
X133283Y125550D01*
Y126418D01*
X132951Y127220D01*
X132338Y127833D01*
X132014Y127968D01*
Y129134D01*
X133661D01*
Y134646D01*
D02*
G37*
G36*
X321445Y124894D02*
X317138D01*
X317442Y124158D01*
X318056Y123545D01*
X318380Y123410D01*
Y122263D01*
X317500Y121384D01*
X315272D01*
Y123441D01*
X313000D01*
Y120472D01*
Y117504D01*
X315272D01*
Y119561D01*
X317878D01*
X318227Y119631D01*
X318522Y119828D01*
X319936Y121241D01*
X320133Y121537D01*
X320202Y121886D01*
Y123410D01*
X320527Y123545D01*
X321140Y124158D01*
X321445Y124894D01*
D02*
G37*
G36*
X66035Y112614D02*
X63764D01*
Y111147D01*
X62613D01*
X62479Y111472D01*
X61865Y112085D01*
X61130Y112390D01*
Y110236D01*
Y108082D01*
X61865Y108387D01*
X62479Y109001D01*
X62613Y109325D01*
X63764D01*
Y107858D01*
X66035D01*
Y110236D01*
X66535D01*
D01*
X66035D01*
Y112614D01*
D02*
G37*
G36*
X264567Y112402D02*
X259055D01*
Y110754D01*
X257889D01*
X257755Y111078D01*
X257141Y111692D01*
X256339Y112024D01*
X255472D01*
X254670Y111692D01*
X254057Y111078D01*
X253724Y110276D01*
Y109409D01*
X254057Y108607D01*
X254670Y107993D01*
X255472Y107661D01*
X256339D01*
X257141Y107993D01*
X257755Y108607D01*
X257889Y108931D01*
X259055D01*
Y107283D01*
X264567D01*
Y112402D01*
D02*
G37*
G36*
X54224Y112811D02*
X52150D01*
Y110736D01*
X54224D01*
Y112811D01*
D02*
G37*
G36*
X69307Y112614D02*
X67035D01*
Y110736D01*
X69307D01*
Y112614D01*
D02*
G37*
G36*
X275303Y111996D02*
Y110343D01*
X276957D01*
X276652Y111078D01*
X276039Y111692D01*
X275303Y111996D01*
D02*
G37*
G36*
X268398Y112614D02*
X265929D01*
Y110343D01*
X268398D01*
Y112614D01*
D02*
G37*
G36*
X57299Y112811D02*
X55224D01*
Y110236D01*
Y107661D01*
X57299D01*
Y109325D01*
X58647D01*
X58781Y109001D01*
X59394Y108387D01*
X60130Y108082D01*
Y110236D01*
Y112390D01*
X59394Y112085D01*
X58781Y111472D01*
X58647Y111147D01*
X57299D01*
Y112811D01*
D02*
G37*
G36*
X69307Y109736D02*
X67035D01*
Y107858D01*
X69307D01*
Y109736D01*
D02*
G37*
G36*
X276957Y109343D02*
X275303D01*
Y107689D01*
X276039Y107993D01*
X276652Y108607D01*
X276957Y109343D01*
D02*
G37*
G36*
X271866Y112614D02*
X269398D01*
Y109843D01*
Y107071D01*
X271866D01*
Y108931D01*
X272820D01*
X272954Y108607D01*
X273568Y107993D01*
X274303Y107689D01*
Y109843D01*
Y111996D01*
X273568Y111692D01*
X272954Y111078D01*
X272820Y110754D01*
X271866D01*
Y112614D01*
D02*
G37*
G36*
X54224Y109736D02*
X52150D01*
Y107661D01*
X54224D01*
Y109736D01*
D02*
G37*
G36*
X268398Y109343D02*
X265929D01*
Y107071D01*
X268398D01*
Y109343D01*
D02*
G37*
G36*
X69095Y106890D02*
X63976D01*
Y104061D01*
X62613D01*
X62479Y104385D01*
X61865Y104999D01*
X61064Y105331D01*
X60196D01*
X59394Y104999D01*
X58781Y104385D01*
X58647Y104061D01*
X57874D01*
Y105709D01*
X52362D01*
Y100591D01*
X57874D01*
Y102238D01*
X58647D01*
X58781Y101914D01*
X59394Y101301D01*
X60196Y100969D01*
X61064D01*
X61865Y101301D01*
X62479Y101914D01*
X62613Y102238D01*
X64567D01*
X64916Y102308D01*
X65211Y102505D01*
X65265Y102559D01*
X69095D01*
Y106890D01*
D02*
G37*
G36*
X50787Y112598D02*
X46063D01*
Y107874D01*
X47514D01*
Y105709D01*
X45276D01*
Y100591D01*
X50787D01*
Y105709D01*
X49336D01*
Y107874D01*
X50787D01*
Y112598D01*
D02*
G37*
G36*
X311417Y101673D02*
X306299D01*
Y96161D01*
X307750D01*
Y94587D01*
X306299D01*
Y89862D01*
X311024D01*
Y94587D01*
X309573D01*
Y96161D01*
X311417D01*
Y101673D01*
D02*
G37*
G36*
X305118Y101673D02*
X300000D01*
Y96161D01*
X301845D01*
Y94587D01*
X300394D01*
Y89862D01*
X305118D01*
Y94587D01*
X303667D01*
Y96161D01*
X305118D01*
Y101673D01*
D02*
G37*
G36*
X311236Y88500D02*
X309161D01*
Y86425D01*
X311236D01*
Y88500D01*
D02*
G37*
G36*
X305331D02*
X303256D01*
Y86425D01*
X305331D01*
Y88500D01*
D02*
G37*
G36*
X302256D02*
X300181D01*
Y86425D01*
X302256D01*
Y88500D01*
D02*
G37*
G36*
X308161D02*
X306087D01*
Y86425D01*
X308161D01*
Y88500D01*
D02*
G37*
G36*
X311236Y85425D02*
X308661D01*
X306087D01*
Y83350D01*
X307750D01*
Y82366D01*
X306467Y81082D01*
X306209Y81189D01*
Y79535D01*
X307862D01*
X307755Y79794D01*
X309306Y81344D01*
X309503Y81639D01*
X309573Y81988D01*
Y83350D01*
X311236D01*
Y85425D01*
D02*
G37*
G36*
X305331D02*
X302756D01*
X300181D01*
Y83350D01*
X301845D01*
Y81988D01*
X301914Y81639D01*
X302112Y81344D01*
X303662Y79794D01*
X303555Y79535D01*
X305209D01*
Y81189D01*
X304950Y81082D01*
X303667Y82366D01*
Y83350D01*
X305331D01*
Y85425D01*
D02*
G37*
G36*
X307862Y78535D02*
X306209D01*
Y76882D01*
X306944Y77186D01*
X307558Y77800D01*
X307862Y78535D01*
D02*
G37*
G36*
X305209D02*
X303555D01*
X303860Y77800D01*
X304473Y77186D01*
X305209Y76882D01*
Y78535D01*
D02*
G37*
G36*
X378019Y80047D02*
X376887D01*
X375793Y79754D01*
X374813Y79188D01*
X374012Y78388D01*
X373446Y77407D01*
X373246Y76659D01*
X368504D01*
Y78307D01*
X362992D01*
Y73205D01*
X362779D01*
Y70933D01*
X365748D01*
Y70433D01*
X366248D01*
Y67661D01*
X368717D01*
Y69522D01*
X372390D01*
X374053Y67859D01*
X373725Y67292D01*
X373453Y66275D01*
Y66248D01*
X376953D01*
Y69748D01*
X376926D01*
X375909Y69475D01*
X375342Y69148D01*
X373412Y71077D01*
X373116Y71275D01*
X372768Y71344D01*
X368717D01*
Y73205D01*
X368504D01*
Y74837D01*
X373246D01*
X373446Y74089D01*
X374012Y73108D01*
X374813Y72308D01*
X375793Y71742D01*
X376887Y71449D01*
X378019D01*
X379112Y71742D01*
X380093Y72308D01*
X380893Y73108D01*
X381459Y74089D01*
X381752Y75182D01*
Y76314D01*
X381459Y77407D01*
X380893Y78388D01*
X380093Y79188D01*
X379112Y79754D01*
X378019Y80047D01*
D02*
G37*
G36*
X107390Y69870D02*
Y68217D01*
X109044D01*
X108739Y68952D01*
X108125Y69566D01*
X107390Y69870D01*
D02*
G37*
G36*
X106390D02*
X105654Y69566D01*
X105041Y68952D01*
X104736Y68217D01*
X106390D01*
Y69870D01*
D02*
G37*
G36*
X93610D02*
Y68217D01*
X95264D01*
X94959Y68952D01*
X94346Y69566D01*
X93610Y69870D01*
D02*
G37*
G36*
X92610D02*
X91875Y69566D01*
X91261Y68952D01*
X90956Y68217D01*
X92610D01*
Y69870D01*
D02*
G37*
G36*
X365248Y69933D02*
X362779D01*
Y67661D01*
X365248D01*
Y69933D01*
D02*
G37*
G36*
X377979Y69748D02*
X377953D01*
Y66248D01*
X381453D01*
Y66275D01*
X381180Y67292D01*
X380654Y68204D01*
X379909Y68949D01*
X378997Y69475D01*
X377979Y69748D01*
D02*
G37*
G36*
X109044Y67216D02*
X104736D01*
X105041Y66481D01*
X105258Y66264D01*
X105051Y65764D01*
X104315D01*
Y63492D01*
X109465D01*
Y65764D01*
X108729D01*
X108522Y66264D01*
X108739Y66481D01*
X109044Y67216D01*
D02*
G37*
G36*
X95264D02*
X90956D01*
X91261Y66481D01*
X91479Y66264D01*
X91271Y65764D01*
X90535D01*
Y63492D01*
X95685D01*
Y65764D01*
X94949D01*
X94742Y66264D01*
X94959Y66481D01*
X95264Y67216D01*
D02*
G37*
G36*
X332325Y69213D02*
X331454D01*
X330613Y68987D01*
X329859Y68552D01*
X329243Y67936D01*
X328808Y67182D01*
X328583Y66341D01*
Y65470D01*
X328808Y64629D01*
X329243Y63875D01*
X329859Y63259D01*
X330613Y62824D01*
X331454Y62598D01*
X332325D01*
X333166Y62824D01*
X333920Y63259D01*
X334536Y63875D01*
X334971Y64629D01*
X335197Y65470D01*
Y66341D01*
X334971Y67182D01*
X334536Y67936D01*
X333920Y68552D01*
X333166Y68987D01*
X332325Y69213D01*
D02*
G37*
G36*
X253979D02*
X253108D01*
X252267Y68987D01*
X251513Y68552D01*
X250897Y67936D01*
X250462Y67182D01*
X250236Y66341D01*
Y65470D01*
X250462Y64629D01*
X250897Y63875D01*
X251513Y63259D01*
X252267Y62824D01*
X253108Y62598D01*
X253979D01*
X254820Y62824D01*
X255574Y63259D01*
X256190Y63875D01*
X256625Y64629D01*
X256850Y65470D01*
Y66341D01*
X256625Y67182D01*
X256190Y67936D01*
X255574Y68552D01*
X254820Y68987D01*
X253979Y69213D01*
D02*
G37*
G36*
X246498D02*
X245628D01*
X244787Y68987D01*
X244032Y68552D01*
X243417Y67936D01*
X242981Y67182D01*
X242756Y66341D01*
Y65470D01*
X242981Y64629D01*
X243417Y63875D01*
X244032Y63259D01*
X244787Y62824D01*
X245628Y62598D01*
X246498D01*
X247340Y62824D01*
X248094Y63259D01*
X248709Y63875D01*
X249145Y64629D01*
X249370Y65470D01*
Y66341D01*
X249145Y67182D01*
X248709Y67936D01*
X248094Y68552D01*
X247340Y68987D01*
X246498Y69213D01*
D02*
G37*
G36*
X211065D02*
X210194D01*
X209353Y68987D01*
X208599Y68552D01*
X207984Y67936D01*
X207548Y67182D01*
X207323Y66341D01*
Y65470D01*
X207548Y64629D01*
X207984Y63875D01*
X208599Y63259D01*
X209353Y62824D01*
X210194Y62598D01*
X211065D01*
X211906Y62824D01*
X212661Y63259D01*
X213276Y63875D01*
X213712Y64629D01*
X213937Y65470D01*
Y66341D01*
X213712Y67182D01*
X213276Y67936D01*
X212661Y68552D01*
X211906Y68987D01*
X211065Y69213D01*
D02*
G37*
G36*
X203585D02*
X202714D01*
X201873Y68987D01*
X201119Y68552D01*
X200503Y67936D01*
X200068Y67182D01*
X199843Y66341D01*
Y65470D01*
X200068Y64629D01*
X200503Y63875D01*
X201119Y63259D01*
X201873Y62824D01*
X202714Y62598D01*
X203585D01*
X204426Y62824D01*
X205180Y63259D01*
X205796Y63875D01*
X206231Y64629D01*
X206457Y65470D01*
Y66341D01*
X206231Y67182D01*
X205796Y67936D01*
X205180Y68552D01*
X204426Y68987D01*
X203585Y69213D01*
D02*
G37*
G36*
X376953Y65248D02*
X373453D01*
Y65221D01*
X373725Y64204D01*
X374053Y63637D01*
X372390Y61974D01*
X368717D01*
Y63835D01*
X366248D01*
Y61063D01*
X365748D01*
Y60563D01*
X362779D01*
Y58291D01*
X362992D01*
Y53189D01*
X368504D01*
Y54837D01*
X373246D01*
X373446Y54089D01*
X374012Y53108D01*
X374813Y52308D01*
X375793Y51742D01*
X376887Y51449D01*
X378019D01*
X379112Y51742D01*
X380093Y52308D01*
X380893Y53108D01*
X381459Y54089D01*
X381752Y55182D01*
Y56314D01*
X381459Y57407D01*
X380893Y58388D01*
X380093Y59188D01*
X379112Y59754D01*
X378019Y60047D01*
X376887D01*
X375793Y59754D01*
X374813Y59188D01*
X374012Y58388D01*
X373446Y57407D01*
X373246Y56659D01*
X368504D01*
Y58291D01*
X368717D01*
Y60152D01*
X372768D01*
X373116Y60221D01*
X373412Y60419D01*
X375342Y62348D01*
X375909Y62021D01*
X376926Y61748D01*
X376953D01*
Y65248D01*
D02*
G37*
G36*
X381453D02*
X377953D01*
Y61748D01*
X377979D01*
X378997Y62021D01*
X379909Y62547D01*
X380654Y63292D01*
X381180Y64204D01*
X381453Y65221D01*
Y65248D01*
D02*
G37*
G36*
X365248Y63835D02*
X362779D01*
Y61563D01*
X365248D01*
Y63835D01*
D02*
G37*
G36*
X101024Y69898D02*
X100157D01*
X99355Y69566D01*
X98742Y68952D01*
X98409Y68150D01*
Y67283D01*
X98742Y66481D01*
X99171Y66051D01*
X98964Y65551D01*
X98228D01*
Y60433D01*
X102953D01*
Y65551D01*
X102217D01*
X102010Y66051D01*
X102440Y66481D01*
X102772Y67283D01*
Y68150D01*
X102440Y68952D01*
X101826Y69566D01*
X101024Y69898D01*
D02*
G37*
G36*
X109465Y62492D02*
X107390D01*
Y60220D01*
X109465D01*
Y62492D01*
D02*
G37*
G36*
X106390D02*
X104315D01*
Y60220D01*
X106390D01*
Y62492D01*
D02*
G37*
G36*
X95685D02*
X93610D01*
Y60220D01*
X95685D01*
Y62492D01*
D02*
G37*
G36*
X92610D02*
X90535D01*
Y60220D01*
X92610D01*
Y62492D01*
D02*
G37*
G36*
X312677Y70517D02*
X284567D01*
X284218Y70448D01*
X283923Y70251D01*
X279496Y65824D01*
X278825Y66211D01*
X277731Y66504D01*
X276599D01*
X275506Y66211D01*
X274526Y65645D01*
X273725Y64845D01*
X273159Y63864D01*
X272866Y62771D01*
Y61639D01*
X273159Y60545D01*
X273725Y59565D01*
X274526Y58764D01*
X275506Y58198D01*
X276599Y57906D01*
X277731D01*
X278825Y58198D01*
X279805Y58764D01*
X280606Y59565D01*
X281172Y60545D01*
X281465Y61639D01*
Y62771D01*
X281172Y63864D01*
X280784Y64535D01*
X284944Y68695D01*
X286382D01*
X286589Y68195D01*
X286330Y67936D01*
X285895Y67182D01*
X285669Y66341D01*
Y65470D01*
X285895Y64629D01*
X286330Y63875D01*
X286946Y63259D01*
X287700Y62824D01*
X288541Y62598D01*
X289412D01*
X290253Y62824D01*
X291007Y63259D01*
X291623Y63875D01*
X292058Y64629D01*
X292284Y65470D01*
Y66341D01*
X292058Y67182D01*
X291623Y67936D01*
X291364Y68195D01*
X291571Y68695D01*
X293862D01*
X294069Y68195D01*
X293810Y67936D01*
X293375Y67182D01*
X293150Y66341D01*
Y65470D01*
X293375Y64629D01*
X293810Y63875D01*
X294426Y63259D01*
X295180Y62824D01*
X296021Y62598D01*
X296892D01*
X297733Y62824D01*
X298487Y63259D01*
X299103Y63875D01*
X299538Y64629D01*
X299764Y65470D01*
Y66341D01*
X299538Y67182D01*
X299103Y67936D01*
X298844Y68195D01*
X299051Y68695D01*
X312300D01*
X316460Y64535D01*
X316073Y63864D01*
X315779Y62771D01*
Y61639D01*
X316073Y60545D01*
X316638Y59565D01*
X317439Y58764D01*
X318419Y58198D01*
X319513Y57906D01*
X320645D01*
X321738Y58198D01*
X322719Y58764D01*
X323519Y59565D01*
X324085Y60545D01*
X324378Y61639D01*
Y62771D01*
X324085Y63864D01*
X323519Y64845D01*
X322719Y65645D01*
X321738Y66211D01*
X320645Y66504D01*
X319513D01*
X318419Y66211D01*
X317748Y65824D01*
X313321Y70251D01*
X313026Y70448D01*
X312677Y70517D01*
D02*
G37*
G36*
X234818Y66504D02*
X233686D01*
X232593Y66211D01*
X231612Y65645D01*
X230812Y64845D01*
X230246Y63864D01*
X229953Y62771D01*
Y61639D01*
X230246Y60545D01*
X230812Y59565D01*
X231612Y58764D01*
X232593Y58198D01*
X233686Y57906D01*
X234818D01*
X235911Y58198D01*
X236892Y58764D01*
X237692Y59565D01*
X238258Y60545D01*
X238551Y61639D01*
Y62771D01*
X238258Y63864D01*
X237692Y64845D01*
X236892Y65645D01*
X235911Y66211D01*
X234818Y66504D01*
D02*
G37*
G36*
X223007D02*
X221875D01*
X220781Y66211D01*
X219801Y65645D01*
X219001Y64845D01*
X218435Y63864D01*
X218142Y62771D01*
Y61639D01*
X218435Y60545D01*
X219001Y59565D01*
X219801Y58764D01*
X220781Y58198D01*
X221875Y57906D01*
X223007D01*
X224100Y58198D01*
X225081Y58764D01*
X225881Y59565D01*
X226447Y60545D01*
X226740Y61639D01*
Y62771D01*
X226447Y63864D01*
X225881Y64845D01*
X225081Y65645D01*
X224100Y66211D01*
X223007Y66504D01*
D02*
G37*
G36*
X191905D02*
X190773D01*
X189679Y66211D01*
X188699Y65645D01*
X187898Y64845D01*
X187332Y63864D01*
X187039Y62771D01*
Y61639D01*
X187332Y60545D01*
X187898Y59565D01*
X188699Y58764D01*
X189679Y58198D01*
X190773Y57906D01*
X191905D01*
X192998Y58198D01*
X193978Y58764D01*
X194779Y59565D01*
X195345Y60545D01*
X195638Y61639D01*
Y62771D01*
X195345Y63864D01*
X194779Y64845D01*
X193978Y65645D01*
X192998Y66211D01*
X191905Y66504D01*
D02*
G37*
G36*
X180094D02*
X178962D01*
X177868Y66211D01*
X176888Y65645D01*
X176087Y64845D01*
X175521Y63864D01*
X175228Y62771D01*
Y61639D01*
X175521Y60545D01*
X176087Y59565D01*
X176888Y58764D01*
X177868Y58198D01*
X178962Y57906D01*
X180094D01*
X181187Y58198D01*
X182167Y58764D01*
X182968Y59565D01*
X183534Y60545D01*
X183827Y61639D01*
Y62771D01*
X183534Y63864D01*
X182968Y64845D01*
X182167Y65645D01*
X181187Y66211D01*
X180094Y66504D01*
D02*
G37*
G36*
X168282D02*
X167150D01*
X166057Y66211D01*
X165077Y65645D01*
X164276Y64845D01*
X163710Y63864D01*
X163417Y62771D01*
Y61639D01*
X163710Y60545D01*
X164276Y59565D01*
X165077Y58764D01*
X166057Y58198D01*
X167150Y57906D01*
X168282D01*
X169376Y58198D01*
X170356Y58764D01*
X171157Y59565D01*
X171723Y60545D01*
X172016Y61639D01*
Y62771D01*
X171723Y63864D01*
X171157Y64845D01*
X170356Y65645D01*
X169376Y66211D01*
X168282Y66504D01*
D02*
G37*
G36*
X156472D02*
X155340D01*
X154246Y66211D01*
X153266Y65645D01*
X152465Y64845D01*
X151899Y63864D01*
X151606Y62771D01*
Y61639D01*
X151899Y60545D01*
X152465Y59565D01*
X153266Y58764D01*
X154246Y58198D01*
X155340Y57906D01*
X156472D01*
X157565Y58198D01*
X158545Y58764D01*
X159346Y59565D01*
X159912Y60545D01*
X160205Y61639D01*
Y62771D01*
X159912Y63864D01*
X159346Y64845D01*
X158545Y65645D01*
X157565Y66211D01*
X156472Y66504D01*
D02*
G37*
G36*
X144660D02*
X143528D01*
X142435Y66211D01*
X141455Y65645D01*
X140654Y64845D01*
X140088Y63864D01*
X139795Y62771D01*
Y61639D01*
X140088Y60545D01*
X140654Y59565D01*
X141455Y58764D01*
X142435Y58198D01*
X143528Y57906D01*
X144660D01*
X145754Y58198D01*
X146734Y58764D01*
X147535Y59565D01*
X148101Y60545D01*
X148394Y61639D01*
Y62771D01*
X148101Y63864D01*
X147535Y64845D01*
X146734Y65645D01*
X145754Y66211D01*
X144660Y66504D01*
D02*
G37*
G36*
X120908Y69213D02*
X120037D01*
X119196Y68987D01*
X118442Y68552D01*
X117826Y67936D01*
X117391Y67182D01*
X117165Y66341D01*
Y65713D01*
X116732Y65551D01*
X116483Y65551D01*
D01*
X112008Y65551D01*
Y60433D01*
X116732D01*
Y61294D01*
X128077D01*
X128277Y60545D01*
X128843Y59565D01*
X129644Y58764D01*
X130624Y58198D01*
X131718Y57906D01*
X132850D01*
X133943Y58198D01*
X134923Y58764D01*
X135724Y59565D01*
X136290Y60545D01*
X136583Y61639D01*
Y62771D01*
X136290Y63864D01*
X135724Y64845D01*
X134923Y65645D01*
X133943Y66211D01*
X132850Y66504D01*
X131718D01*
X130624Y66211D01*
X129644Y65645D01*
X128843Y64845D01*
X128277Y63864D01*
X128077Y63116D01*
X123067D01*
X122860Y63616D01*
X123119Y63875D01*
X123554Y64629D01*
X123779Y65470D01*
Y66341D01*
X123554Y67182D01*
X123119Y67936D01*
X122503Y68552D01*
X121749Y68987D01*
X120908Y69213D01*
D02*
G37*
G36*
X277692Y54394D02*
X277665D01*
Y50894D01*
X281165D01*
Y50920D01*
X280893Y51938D01*
X280366Y52850D01*
X279621Y53594D01*
X278709Y54121D01*
X277692Y54394D01*
D02*
G37*
G36*
X320605D02*
X320579D01*
Y50894D01*
X324079D01*
Y50920D01*
X323806Y51938D01*
X323280Y52850D01*
X322535Y53594D01*
X321623Y54121D01*
X320605Y54394D01*
D02*
G37*
G36*
X180054D02*
X180028D01*
Y50894D01*
X183528D01*
Y50920D01*
X183255Y51938D01*
X182728Y52850D01*
X181984Y53594D01*
X181071Y54121D01*
X180054Y54394D01*
D02*
G37*
G36*
X234779D02*
X234752D01*
Y50894D01*
X238252D01*
Y50920D01*
X237979Y51938D01*
X237453Y52850D01*
X236708Y53594D01*
X235796Y54121D01*
X234779Y54394D01*
D02*
G37*
G36*
X191865D02*
X191839D01*
Y50894D01*
X195339D01*
Y50920D01*
X195066Y51938D01*
X194539Y52850D01*
X193795Y53594D01*
X192883Y54121D01*
X191865Y54394D01*
D02*
G37*
G36*
X233752D02*
X233725D01*
X232708Y54121D01*
X231796Y53594D01*
X231051Y52850D01*
X230525Y51938D01*
X230252Y50920D01*
Y50894D01*
X233752D01*
Y54394D01*
D02*
G37*
G36*
X190839D02*
X190812D01*
X189795Y54121D01*
X188883Y53594D01*
X188138Y52850D01*
X187611Y51938D01*
X187339Y50920D01*
Y50894D01*
X190839D01*
Y54394D01*
D02*
G37*
G36*
X319579D02*
X319552D01*
X318535Y54121D01*
X317623Y53594D01*
X316878Y52850D01*
X316351Y51938D01*
X316079Y50920D01*
Y50894D01*
X319579D01*
Y54394D01*
D02*
G37*
G36*
X179028D02*
X179001D01*
X177984Y54121D01*
X177071Y53594D01*
X176327Y52850D01*
X175800Y51938D01*
X175528Y50920D01*
Y50894D01*
X179028D01*
Y54394D01*
D02*
G37*
G36*
X276665D02*
X276639D01*
X275621Y54121D01*
X274709Y53594D01*
X273965Y52850D01*
X273438Y51938D01*
X273165Y50920D01*
Y50894D01*
X276665D01*
Y54394D01*
D02*
G37*
G36*
X414854Y59071D02*
X414383D01*
X412479Y58692D01*
X410685Y57949D01*
X409070Y56870D01*
X407697Y55497D01*
X406618Y53882D01*
X405875Y52088D01*
X405496Y50184D01*
Y49713D01*
X414854D01*
Y59071D01*
D02*
G37*
G36*
X50184D02*
X49713D01*
Y49713D01*
X59071D01*
Y50184D01*
X58692Y52088D01*
X57949Y53882D01*
X56870Y55497D01*
X55497Y56870D01*
X53882Y57949D01*
X52088Y58692D01*
X50184Y59071D01*
D02*
G37*
G36*
X308834Y66504D02*
X307702D01*
X306608Y66211D01*
X305628Y65645D01*
X304827Y64845D01*
X304261Y63864D01*
X303969Y62771D01*
Y61639D01*
X304261Y60545D01*
X304827Y59565D01*
X305628Y58764D01*
X306608Y58198D01*
X307702Y57906D01*
X308834D01*
X309927Y58198D01*
X310598Y58586D01*
X312049Y57134D01*
Y54693D01*
X303969D01*
Y46612D01*
X279615D01*
X279481Y47112D01*
X279621Y47193D01*
X280366Y47938D01*
X280893Y48850D01*
X281165Y49867D01*
Y49894D01*
X277165D01*
X273165D01*
Y49867D01*
X273203Y49726D01*
X272755Y49467D01*
X271698Y50524D01*
Y56772D01*
X271629Y57121D01*
X271431Y57417D01*
X268973Y59874D01*
X269361Y60545D01*
X269654Y61639D01*
Y62771D01*
X269361Y63864D01*
X268795Y64845D01*
X267994Y65645D01*
X267014Y66211D01*
X265920Y66504D01*
X264788D01*
X263695Y66211D01*
X262715Y65645D01*
X261914Y64845D01*
X261348Y63864D01*
X261055Y62771D01*
Y61639D01*
X261348Y60545D01*
X261914Y59565D01*
X262715Y58764D01*
X263695Y58198D01*
X264788Y57906D01*
X265920D01*
X267014Y58198D01*
X267685Y58586D01*
X269876Y56395D01*
Y55101D01*
X269654Y54693D01*
X269375Y54693D01*
X261055D01*
Y46095D01*
X269654D01*
Y49334D01*
X270106Y49490D01*
X270153Y49491D01*
X271806Y47839D01*
X271828Y47806D01*
X274577Y45057D01*
X274873Y44859D01*
X275221Y44790D01*
X311969D01*
X312318Y44859D01*
X312613Y45057D01*
X313605Y46048D01*
X313803Y46344D01*
X313872Y46692D01*
Y57512D01*
X313803Y57860D01*
X313605Y58156D01*
X311887Y59874D01*
X312274Y60545D01*
X312567Y61639D01*
Y62771D01*
X312274Y63864D01*
X311708Y64845D01*
X310908Y65645D01*
X309927Y66211D01*
X308834Y66504D01*
D02*
G37*
G36*
X112992Y57677D02*
X108268D01*
Y56029D01*
X107677D01*
X107328Y55960D01*
X107033Y55762D01*
X106442Y55172D01*
X106245Y54876D01*
X106175Y54528D01*
Y52165D01*
X104331D01*
Y47112D01*
X104331Y47047D01*
X104174Y46612D01*
X103306D01*
X103150Y47047D01*
X103150D01*
Y52165D01*
X99469D01*
X99213Y52559D01*
X99213Y52665D01*
Y57677D01*
X94488D01*
Y56029D01*
X93898D01*
X93549Y55960D01*
X93253Y55762D01*
X92663Y55172D01*
X92465Y54876D01*
X92396Y54528D01*
Y52165D01*
X90551D01*
Y47047D01*
X96063D01*
Y52165D01*
X96320Y52559D01*
X97381D01*
X97638Y52165D01*
X97638Y52059D01*
Y47047D01*
X99534D01*
X99552Y46958D01*
X99749Y46663D01*
X101356Y45057D01*
X101651Y44859D01*
X102000Y44790D01*
X139402D01*
X139750Y44859D01*
X140046Y45057D01*
X141764Y46775D01*
X142435Y46387D01*
X143528Y46095D01*
X144660D01*
X145754Y46387D01*
X146734Y46953D01*
X147535Y47754D01*
X148101Y48734D01*
X148394Y49828D01*
Y50960D01*
X148101Y52053D01*
X147535Y53034D01*
X146734Y53834D01*
X145754Y54400D01*
X144660Y54693D01*
X143528D01*
X142435Y54400D01*
X141455Y53834D01*
X140654Y53034D01*
X140088Y52053D01*
X139795Y50960D01*
Y49828D01*
X140088Y48734D01*
X140476Y48063D01*
X139024Y46612D01*
X136583D01*
Y54693D01*
X127984D01*
Y51305D01*
X116929D01*
Y52165D01*
X113249D01*
X112992Y52559D01*
X112992Y52665D01*
Y57677D01*
D02*
G37*
G36*
X324079Y49894D02*
X320579D01*
Y46394D01*
X320605D01*
X321623Y46666D01*
X322535Y47193D01*
X323280Y47938D01*
X323806Y48850D01*
X324079Y49867D01*
Y49894D01*
D02*
G37*
G36*
X319579D02*
X316079D01*
Y49867D01*
X316351Y48850D01*
X316878Y47938D01*
X317623Y47193D01*
X318535Y46666D01*
X319552Y46394D01*
X319579D01*
Y49894D01*
D02*
G37*
G36*
X238252D02*
X234752D01*
Y46394D01*
X234779D01*
X235796Y46666D01*
X236708Y47193D01*
X237453Y47938D01*
X237979Y48850D01*
X238252Y49867D01*
Y49894D01*
D02*
G37*
G36*
X233752D02*
X230252D01*
Y49867D01*
X230525Y48850D01*
X231051Y47938D01*
X231796Y47193D01*
X232708Y46666D01*
X233725Y46394D01*
X233752D01*
Y49894D01*
D02*
G37*
G36*
X195339D02*
X191839D01*
Y46394D01*
X191865D01*
X192883Y46666D01*
X193795Y47193D01*
X194539Y47938D01*
X195066Y48850D01*
X195339Y49867D01*
Y49894D01*
D02*
G37*
G36*
X190839D02*
X187339D01*
Y49867D01*
X187611Y48850D01*
X188138Y47938D01*
X188883Y47193D01*
X189795Y46666D01*
X190812Y46394D01*
X190839D01*
Y49894D01*
D02*
G37*
G36*
X183528D02*
X180028D01*
Y46394D01*
X180054D01*
X181071Y46666D01*
X181984Y47193D01*
X182728Y47938D01*
X183255Y48850D01*
X183528Y49867D01*
Y49894D01*
D02*
G37*
G36*
X179028D02*
X175528D01*
Y49867D01*
X175800Y48850D01*
X176327Y47938D01*
X177071Y47193D01*
X177984Y46666D01*
X179001Y46394D01*
X179028D01*
Y49894D01*
D02*
G37*
G36*
X226740Y54693D02*
X218142D01*
Y46095D01*
X226740D01*
Y54693D01*
D02*
G37*
G36*
X168282D02*
X167150D01*
X166057Y54400D01*
X165077Y53834D01*
X164276Y53034D01*
X163710Y52053D01*
X163417Y50960D01*
Y49828D01*
X163710Y48734D01*
X164276Y47754D01*
X165077Y46953D01*
X166057Y46387D01*
X167150Y46095D01*
X168282D01*
X169376Y46387D01*
X170356Y46953D01*
X171157Y47754D01*
X171723Y48734D01*
X172016Y49828D01*
Y50960D01*
X171723Y52053D01*
X171157Y53034D01*
X170356Y53834D01*
X169376Y54400D01*
X168282Y54693D01*
D02*
G37*
G36*
X156472D02*
X155340D01*
X154246Y54400D01*
X153266Y53834D01*
X152465Y53034D01*
X151899Y52053D01*
X151606Y50960D01*
Y49828D01*
X151899Y48734D01*
X152465Y47754D01*
X153266Y46953D01*
X154246Y46387D01*
X155340Y46095D01*
X156472D01*
X157565Y46387D01*
X158545Y46953D01*
X159346Y47754D01*
X159912Y48734D01*
X160205Y49828D01*
Y50960D01*
X159912Y52053D01*
X159346Y53034D01*
X158545Y53834D01*
X157565Y54400D01*
X156472Y54693D01*
D02*
G37*
G36*
X81986Y51803D02*
X63189D01*
Y44685D01*
X67682D01*
Y44686D01*
X81986D01*
Y51803D01*
D02*
G37*
%LPD*%
G36*
X249927Y252526D02*
X249735Y252415D01*
X248963Y251642D01*
X248417Y250696D01*
X248134Y249641D01*
Y249594D01*
X252284D01*
Y248594D01*
X248134D01*
Y248548D01*
X248417Y247493D01*
X248963Y246547D01*
X249735Y245774D01*
X250473Y245348D01*
X250339Y244848D01*
X244228D01*
X244094Y245348D01*
X244831Y245774D01*
X245604Y246547D01*
X246150Y247493D01*
X246433Y248548D01*
Y248594D01*
X238134D01*
Y248548D01*
X238417Y247493D01*
X238963Y246547D01*
X239736Y245774D01*
X240473Y245348D01*
X240339Y244848D01*
X234228D01*
X234094Y245348D01*
X234831Y245774D01*
X235604Y246547D01*
X236150Y247493D01*
X236433Y248548D01*
Y248594D01*
X232283D01*
Y249594D01*
X236433D01*
Y249641D01*
X236150Y250696D01*
X235604Y251642D01*
X234831Y252415D01*
X234640Y252526D01*
X234773Y253026D01*
X239793D01*
X239927Y252526D01*
X239736Y252415D01*
X238963Y251642D01*
X238417Y250696D01*
X238134Y249641D01*
Y249594D01*
X246433D01*
Y249641D01*
X246150Y250696D01*
X245604Y251642D01*
X244831Y252415D01*
X244639Y252526D01*
X244774Y253026D01*
X249794D01*
X249927Y252526D01*
D02*
G37*
D13*
X221260Y229101D02*
X222441Y230282D01*
X221260Y216732D02*
Y229101D01*
X222441Y230282D02*
Y230709D01*
X240158Y216732D02*
Y228346D01*
X246457Y216732D02*
Y228346D01*
X252756Y216732D02*
Y228346D01*
X240551Y233071D02*
X256260D01*
X233858Y226378D02*
X240551Y233071D01*
X233858Y216732D02*
Y226378D01*
X282321Y255906D02*
X287126Y251100D01*
X222246Y255906D02*
X282321D01*
X217441Y251100D02*
X222246Y255906D01*
X227126Y250785D02*
X230278Y253937D01*
X274289D02*
X277126Y251100D01*
X227126Y243937D02*
Y250785D01*
X230278Y253937D02*
X274289D01*
X277126Y235000D02*
Y251100D01*
X259055Y216929D02*
X277126Y235000D01*
X217441Y244252D02*
Y251100D01*
X212283Y239094D02*
X217441Y244252D01*
X278523Y228485D02*
X287126Y237089D01*
X265354Y219882D02*
X273958Y228485D01*
X278523D01*
X287126Y237089D02*
Y251100D01*
X265354Y216732D02*
Y219882D01*
X222284Y239094D02*
X227126Y243937D01*
X259055Y216732D02*
Y216929D01*
X267441Y243937D02*
X272284Y239094D01*
X230278Y243937D02*
X267441D01*
X227441Y216850D02*
X227559Y216732D01*
X227441Y216850D02*
Y241100D01*
X230278Y243937D01*
X256260Y233071D02*
X262283Y239094D01*
X227584Y187480D02*
Y199582D01*
X221260Y205906D02*
Y209646D01*
Y205906D02*
X227584Y199582D01*
X227559Y204970D02*
Y209646D01*
X230683Y187480D02*
Y201846D01*
X227559Y204970D02*
X230683Y201846D01*
X265354Y209449D02*
Y209646D01*
X249584Y187480D02*
Y193678D01*
X265354Y209449D01*
X252783Y187480D02*
Y191417D01*
X257535Y196169D01*
X257677Y208268D02*
X259055Y209646D01*
X246483Y187480D02*
Y193432D01*
X257677Y204626D01*
Y208268D01*
X251378Y203076D02*
Y208268D01*
X252756Y209646D01*
X243284Y187480D02*
Y194982D01*
X251378Y203076D01*
X240183Y195589D02*
X246457Y201862D01*
Y209646D01*
X240183Y187480D02*
Y195589D01*
X236983Y197139D02*
X240158Y200313D01*
Y209646D01*
X236983Y187480D02*
Y197139D01*
X233858Y209646D02*
X233884Y209620D01*
Y187480D02*
Y209620D01*
X142520Y243701D02*
Y255118D01*
X136221Y247053D02*
X137795Y248628D01*
Y248819D01*
X123622Y246457D02*
X125984Y248819D01*
X119095Y251969D02*
X135483D01*
X132824Y253262D02*
X143386Y263824D01*
X135483Y251969D02*
X142963Y259449D01*
X118701Y245079D02*
Y247015D01*
X120079Y248393D01*
Y248819D01*
X117323Y243701D02*
X118701Y245079D01*
X123622Y243701D02*
Y246457D01*
X129921Y246850D02*
X131890Y248819D01*
X129921Y243701D02*
Y246850D01*
X136221Y243701D02*
Y247053D01*
X111024Y243898D02*
X119095Y251969D01*
X142963Y259449D02*
X150787D01*
X153386Y262047D01*
X153386D01*
Y266964D01*
X98425Y243898D02*
X109077Y254550D01*
X115175Y253262D02*
X132824D01*
X108071Y246159D02*
X115175Y253262D01*
X153386Y266964D02*
X156816Y270394D01*
X133465Y263902D02*
Y269618D01*
X143386Y263824D02*
Y266964D01*
X124112Y254550D02*
X133465Y263902D01*
X109077Y254550D02*
X124112D01*
X156816Y270394D02*
X183150D01*
X187795Y265748D02*
X188740D01*
X183150Y270394D02*
X187795Y265748D01*
X192441Y272047D02*
X198740Y265748D01*
X148469Y272047D02*
X192441D01*
X143386Y266964D02*
X148469Y272047D01*
X137469Y273622D02*
X200866D01*
X111024Y243701D02*
Y243898D01*
X108071Y244162D02*
Y246159D01*
X107610Y243701D02*
X108071Y244162D01*
X104724Y243701D02*
X107610D01*
X133465Y269618D02*
X137469Y273622D01*
X200866D02*
X208740Y265748D01*
X98425Y243701D02*
Y243898D01*
X233884Y121575D02*
Y127480D01*
X230683Y121575D02*
Y127480D01*
X227584Y121575D02*
Y127480D01*
X224383Y121575D02*
Y127480D01*
X221284Y121575D02*
Y127480D01*
X218084Y121575D02*
Y127480D01*
X214984Y121575D02*
Y127480D01*
X211784Y121575D02*
Y127480D01*
X194503Y101094D02*
X214984Y121575D01*
X201954Y95945D02*
X227584Y121575D01*
X192590Y102382D02*
X211784Y121575D01*
X196316Y99807D02*
X218084Y121575D01*
X198228Y98520D02*
X221284Y121575D01*
X203766Y94657D02*
X230683Y121575D01*
X200041Y97232D02*
X224383Y121575D01*
X111052Y102382D02*
X192590D01*
X110519Y101094D02*
X194503D01*
X108386Y95945D02*
X201954D01*
X106253Y90795D02*
X222843D01*
X109452Y98520D02*
X198228D01*
X105720Y89508D02*
X224655D01*
X109986Y99807D02*
X196316D01*
X107319Y93370D02*
X205679D01*
X106786Y92083D02*
X220929D01*
X108919Y97232D02*
X200041D01*
X249584Y120736D02*
Y127480D01*
X107853Y94657D02*
X203766D01*
X105181Y108253D02*
Y195339D01*
Y108253D02*
X111052Y102382D01*
X102606Y107186D02*
Y205362D01*
X103894Y107720D02*
X110519Y101094D01*
X107874Y177480D02*
X111811D01*
X136221Y232677D02*
Y236614D01*
X107874Y162098D02*
X107915Y162139D01*
X107874Y137480D02*
X111811D01*
X103894Y107720D02*
Y200350D01*
X107915Y162139D02*
X202242D01*
X107874Y157480D02*
X111811D01*
X103894Y200350D02*
X136221Y232677D01*
X219685Y181496D02*
Y181640D01*
X221284Y183238D02*
Y187480D01*
X219685Y181640D02*
X221284Y183238D01*
X218084Y183536D02*
Y187480D01*
X216093Y181545D02*
X218084Y183536D01*
X214377Y186874D02*
X214984Y187480D01*
X214377Y183471D02*
Y186874D01*
X212549Y181643D02*
X214377Y183471D01*
X212549Y181447D02*
Y181643D01*
X193701Y191339D02*
X194002Y191037D01*
Y189036D02*
Y191037D01*
Y189036D02*
X194422Y188617D01*
X191847Y186220D02*
Y186646D01*
X194422Y187042D02*
Y188617D01*
X191847Y186220D02*
X193164Y184902D01*
Y184001D02*
Y184902D01*
X189272Y185514D02*
Y187648D01*
X194422Y187042D02*
X200383Y181080D01*
X189370Y183858D02*
Y185417D01*
X193164Y184001D02*
X198579Y178587D01*
X189370Y187745D02*
Y193307D01*
X189272Y185514D02*
X189370Y185417D01*
X189272Y187648D02*
X189370Y187745D01*
X211024Y178740D02*
X220866D01*
X186221Y203543D02*
X211024Y178740D01*
X220866D02*
X224383Y182257D01*
Y187480D01*
X198579Y178587D02*
X201677D01*
X189370Y183858D02*
X198448Y174780D01*
X202284D01*
X201677Y178587D02*
X202284Y177980D01*
X186221Y203543D02*
Y220079D01*
X200383Y181080D02*
X202284D01*
X202362Y209646D02*
X202362Y209646D01*
X202362Y205118D02*
Y209646D01*
X196063Y205118D02*
Y209646D01*
X194882Y173819D02*
X197020Y171680D01*
X202284D01*
X185433Y173819D02*
X194882D01*
X189764Y205118D02*
Y209646D01*
X211784Y206272D02*
X214961Y209449D01*
Y209646D01*
X211784Y187480D02*
Y206272D01*
X208683Y187480D02*
Y209624D01*
X208661Y209646D02*
X208683Y209624D01*
X302559Y106004D02*
Y110236D01*
X275815Y136980D02*
X302559Y110236D01*
X308858Y106004D02*
Y110235D01*
X278913Y140180D02*
X308858Y110235D01*
X308661Y98721D02*
X308858Y98917D01*
X308661Y92224D02*
Y98721D01*
X302756Y92224D02*
Y98720D01*
X302559Y98917D02*
X302756Y98720D01*
X262283Y140180D02*
X278913D01*
X291376Y134015D02*
X305743D01*
X317878Y130315D02*
X319291Y128902D01*
Y125394D02*
Y128902D01*
X313943Y130315D02*
X317878D01*
Y120472D02*
X319291Y121886D01*
Y125394D01*
X312500Y120472D02*
X317878D01*
X301807Y126615D02*
X305743D01*
X300394Y121886D02*
X301807Y120472D01*
X300394Y123544D02*
Y125202D01*
X301807Y126615D01*
Y120472D02*
X307185D01*
X300394Y121886D02*
Y123544D01*
X282110Y143280D02*
X291376Y134015D01*
X299213Y143110D02*
X306496D01*
X309842Y146457D01*
X306496Y165551D02*
X309842Y162205D01*
X299213Y165551D02*
X306496D01*
X268189Y143280D02*
X282110D01*
X262283Y152780D02*
X285307D01*
X262283Y155880D02*
X285307D01*
X294978Y165551D01*
X282112Y159080D02*
X322047Y199016D01*
X262283Y159080D02*
X282110D01*
X262283Y162180D02*
X278913D01*
X278913D02*
X315748Y199016D01*
Y202953D01*
X262283Y174780D02*
X268106D01*
X275813Y165380D02*
X309449Y199016D01*
X262283Y181080D02*
X272616D01*
X272614Y168480D02*
X303150Y199016D01*
X272616Y181080D02*
X290551Y199016D01*
X262283Y165380D02*
X275815D01*
X262283Y168480D02*
X272614D01*
X262283Y171680D02*
X269515D01*
X296850Y199016D01*
X268106Y177980D02*
X268189Y178063D01*
X268106Y174780D02*
X268189Y174697D01*
X296850Y199016D02*
Y202953D01*
X262283Y177980D02*
X268106D01*
X290551Y199016D02*
Y202953D01*
X303150Y199016D02*
Y202953D01*
X309449Y199016D02*
Y202953D01*
X285307Y152780D02*
X294977Y143110D01*
X299213D01*
X294978Y165551D02*
X299213D01*
Y154331D02*
Y160236D01*
Y148425D02*
Y154331D01*
X262283Y136980D02*
X275815D01*
X262283Y143280D02*
X268189D01*
X305709Y79035D02*
X308661Y81988D01*
Y85925D01*
X309055Y104921D02*
X309078Y104944D01*
X302756Y81988D02*
X305709Y79035D01*
X302756Y81988D02*
Y85925D01*
X268898Y109843D02*
X274803D01*
X255906D02*
X261811D01*
X236836Y121722D02*
Y127333D01*
X236983Y127480D01*
X236689Y121575D02*
X236836Y121722D01*
X114173Y49606D02*
X114961Y50394D01*
X132283D01*
X114370Y62992D02*
X115157Y62205D01*
X132283D01*
X100394Y47307D02*
X102000Y45701D01*
X100394Y47307D02*
Y49606D01*
X102000Y45701D02*
X139402D01*
X144095Y50394D01*
X106890Y62992D02*
Y67716D01*
X100591Y62992D02*
Y67716D01*
X93110Y62992D02*
Y67716D01*
X93307Y54528D02*
X93898Y55118D01*
X96850D01*
X93307Y49606D02*
Y54528D01*
X107087D02*
X107677Y55118D01*
X110630D01*
X107087Y49606D02*
Y54528D01*
X171957Y221153D02*
X185146D01*
X186221Y220079D01*
X157283Y235827D02*
X171957Y221153D01*
X173031Y222441D02*
X187992D01*
X162284Y233189D02*
X173031Y222441D01*
X162284Y233189D02*
Y239094D01*
X152284Y249095D02*
X157283Y244094D01*
Y235827D02*
Y244094D01*
X262283Y133880D02*
X268189D01*
X127165Y180315D02*
X133071D01*
X179889Y138091D02*
X180315D01*
X185433D01*
X191732D01*
X180315Y132776D02*
X185433D01*
X202284Y168480D02*
X202350Y168413D01*
X208122D01*
X208189Y168347D01*
X202351Y171748D02*
X208122D01*
X208189Y171815D01*
X202284Y171680D02*
X202351Y171748D01*
X191732Y168504D02*
X191756Y168480D01*
X185433Y168504D02*
X191732D01*
X191756Y168480D02*
X202284D01*
X79921Y235433D02*
Y256929D01*
X57874Y244882D02*
X78740Y265748D01*
X57874Y235433D02*
Y244882D01*
X75492Y214961D02*
X79921Y219390D01*
Y235433D01*
X57874Y219390D02*
X62303Y214961D01*
X57874Y219390D02*
Y235433D01*
X308268Y62205D02*
X312961Y57512D01*
Y46692D02*
Y57512D01*
X275221Y45701D02*
X311969D01*
X312961Y46692D01*
X272472Y48450D02*
X275221Y45701D01*
X270787Y50147D02*
X272472Y48461D01*
Y48450D02*
Y48461D01*
X152362Y125984D02*
Y130905D01*
X224655Y89508D02*
X255884Y120736D01*
X222843Y90795D02*
X252783Y120736D01*
X220929Y92083D02*
X249584Y120737D01*
X92307Y102920D02*
X105720Y89508D01*
X97457Y105053D02*
X107853Y94657D01*
X205679Y93370D02*
X233884Y121575D01*
X96169Y104520D02*
X107319Y93370D01*
X100031Y106120D02*
X108919Y97232D01*
X94882Y103987D02*
X106786Y92083D01*
X93594Y103454D02*
X106253Y90795D01*
X102606Y107186D02*
X109986Y99807D01*
X101319Y106653D02*
X109452Y98520D01*
X98744Y105587D02*
X108386Y95945D01*
X255884Y120736D02*
Y127480D01*
X252783Y120736D02*
Y127480D01*
X97457Y105053D02*
Y225410D01*
X98744Y105587D02*
Y220398D01*
X93594Y103454D02*
Y252762D01*
X100031Y106120D02*
Y215386D01*
X96169Y104520D02*
Y230421D01*
X101319Y106653D02*
Y210374D01*
X92307Y102920D02*
Y253295D01*
X94882Y103987D02*
Y252228D01*
X148056Y152780D02*
X202284D01*
X140969D02*
X148056D01*
X131102Y142913D02*
X140969Y152780D01*
X138189Y142913D02*
X148056Y152780D01*
X151943Y149580D02*
X159029D01*
X145276Y142913D02*
X151943Y149580D01*
X145276Y138976D02*
Y142913D01*
X159029Y149580D02*
X202284D01*
X152362Y142913D02*
X159029Y149580D01*
X170102Y146480D02*
X202284D01*
X163016D02*
X170102D01*
X159449Y142913D02*
X163016Y146480D01*
X166535Y142913D02*
X170102Y146480D01*
X196780Y136980D02*
X202284D01*
X196774Y133880D02*
X202284D01*
X179134Y168504D02*
X185433D01*
X127165Y192913D02*
X133071D01*
X127165Y186614D02*
X133071D01*
X159449Y125984D02*
Y131890D01*
X145276Y125984D02*
Y131890D01*
X131102Y125984D02*
Y131890D01*
X166535Y125984D02*
Y130905D01*
X138189Y125984D02*
Y130905D01*
X159449Y138976D02*
Y142913D01*
X166535Y139961D02*
Y142913D01*
X152362Y139961D02*
Y142913D01*
X138189Y139961D02*
Y142913D01*
X131102Y138976D02*
Y142913D01*
X111811Y137480D02*
X130211Y155880D01*
X202284D01*
X113411Y159080D02*
X202284D01*
X111811Y157480D02*
X113411Y159080D01*
X123911Y165380D02*
X202284D01*
X111811Y177480D02*
X123911Y165380D01*
X202242Y162139D02*
X202284Y162180D01*
X105181Y195339D02*
X142520Y232677D01*
X93594Y252762D02*
X100648Y259815D01*
X101319Y210374D02*
X123622Y232677D01*
X94882Y252228D02*
X101181Y258528D01*
X98744Y220398D02*
X111024Y232677D01*
X102606Y205362D02*
X129921Y232677D01*
X96169Y230421D02*
X98425Y232677D01*
X97457Y225410D02*
X104724Y232677D01*
X100031Y215386D02*
X117323Y232677D01*
X92307Y253295D02*
X100115Y261102D01*
X117323Y232677D02*
Y236614D01*
X129921Y232677D02*
Y236614D01*
X195669Y132776D02*
X196774Y133880D01*
X195669Y138091D02*
X196780Y136980D01*
X191732Y132776D02*
X195669D01*
X191732Y138091D02*
X195669D01*
X185433Y132776D02*
X191732D01*
X166929Y173819D02*
X172835D01*
Y168504D02*
X179134D01*
Y173819D02*
X185433D01*
X172835D02*
X179134D01*
X166929Y168504D02*
X172835D01*
X54724Y110236D02*
X60630D01*
X54724Y110236D02*
X54724Y110236D01*
X55118Y103150D02*
X55118Y103150D01*
X60630D01*
X384646Y203543D02*
X390551D01*
X377804Y204193D02*
X383570D01*
X384220Y203543D02*
X384646D01*
X383570Y204193D02*
X384220Y203543D01*
X265354Y62205D02*
X270787Y56772D01*
Y50147D02*
Y56772D01*
X384220Y209842D02*
X384646D01*
X390551D01*
X383570Y209193D02*
X384220Y209842D01*
X377804Y209193D02*
X383570D01*
X284567Y69606D02*
X312677D01*
X320079Y62205D01*
X277165D02*
X284567Y69606D01*
X365748Y75748D02*
X365748Y75748D01*
X377453D01*
X71555Y214961D02*
X75492D01*
X71555Y209055D02*
Y214961D01*
X79921Y256929D02*
X88740Y265748D01*
X60630Y103150D02*
X64567D01*
X66142Y104724D01*
X54528Y103150D02*
X54528Y103150D01*
X66142Y104724D02*
X66535D01*
X268106Y146563D02*
X268189Y146646D01*
X262366Y146563D02*
X268106D01*
X262283Y146480D02*
X262366Y146563D01*
X339370Y204035D02*
X345276D01*
X351788D01*
X351946Y204193D01*
X359204D01*
X365748Y55748D02*
X377453D01*
X365748Y55748D02*
X365748Y55748D01*
X365354Y55748D02*
X365354Y55748D01*
X62303Y214961D02*
X66240D01*
X364961Y220079D02*
Y226122D01*
X366004Y227165D01*
X364961Y210118D02*
Y220079D01*
X351946Y209193D02*
X359204D01*
X351788Y209350D02*
X351946Y209193D01*
X66240Y209055D02*
Y214961D01*
X60630Y110236D02*
X66535D01*
X365748Y70433D02*
X372768D01*
X377453Y65748D01*
X372768Y61063D02*
X377453Y65748D01*
X365748Y61063D02*
X372768D01*
X369291Y190945D02*
X391437D01*
X364035Y209193D02*
X364961Y210118D01*
X359204Y209193D02*
X364035D01*
X369291Y190945D02*
X369291Y190945D01*
X364035Y209193D02*
X364961Y208268D01*
Y195276D02*
Y208268D01*
Y195276D02*
X369291Y190945D01*
X339370Y209350D02*
X345276D01*
X351788D01*
X267975Y149794D02*
X268189Y150008D01*
X262283Y149580D02*
X262497Y149794D01*
X267975D01*
X308552Y177862D02*
X310251D01*
X310453Y178063D01*
X339618Y214193D02*
X359204D01*
X306303Y180878D02*
X339618Y214193D01*
X336795Y202969D02*
X340571Y199193D01*
X359204D01*
X336795Y202969D02*
Y205338D01*
X333752Y205799D02*
X336334D01*
X308090Y180138D02*
X333752Y205799D01*
X336334D02*
X336795Y205338D01*
X306303Y177583D02*
X307288Y176598D01*
X307087Y174697D02*
X307288Y174898D01*
Y176598D01*
X308090Y178323D02*
X308552Y177862D01*
X306303Y177583D02*
Y180878D01*
X308090Y178323D02*
Y180138D01*
X322047Y199016D02*
Y202953D01*
X383709Y199193D02*
X385658Y197244D01*
X390551D01*
X397638Y203543D02*
Y209842D01*
Y197244D02*
Y203543D01*
X396752Y190945D02*
X397638Y191831D01*
Y197244D01*
X377804Y199193D02*
X383709D01*
X101181Y258528D02*
X121520D01*
X128740Y265748D01*
X100648Y259815D02*
X112807D01*
X118740Y265748D01*
X104094Y261102D02*
X108740Y265748D01*
X100115Y261102D02*
X104094D01*
X104724Y232677D02*
Y236614D01*
X98425Y232677D02*
Y236614D01*
X123622Y232677D02*
Y236614D01*
X111024Y232677D02*
Y236614D01*
X142520Y232677D02*
Y236614D01*
X48425Y103347D02*
Y110236D01*
Y103347D02*
X48622Y103150D01*
X240183Y121707D02*
Y127480D01*
X240051Y121575D02*
X240183Y121707D01*
X246483Y121871D02*
Y127480D01*
Y121871D02*
X246779Y121575D01*
X243284Y121709D02*
Y127480D01*
Y121709D02*
X243417Y121575D01*
X322047Y210039D02*
Y215945D01*
X309449Y210039D02*
Y215945D01*
X315748Y210039D02*
Y215945D01*
X303150Y210039D02*
Y215945D01*
X296850Y210039D02*
Y215945D01*
X290551Y210039D02*
Y215945D01*
X281012Y223728D02*
X292823D01*
X302284Y233189D01*
X277953Y220669D02*
X281012Y223728D01*
X276000Y225016D02*
X284110D01*
X292284Y233189D01*
X271654Y220669D02*
X276000Y225016D01*
X302284Y233189D02*
Y239094D01*
X292284Y233189D02*
Y239094D01*
X277953Y216732D02*
Y220669D01*
X202284Y233347D02*
Y239094D01*
Y233347D02*
X214961Y220669D01*
X208661Y216732D02*
Y220669D01*
X203028Y226303D02*
X208661Y220669D01*
X199169Y226303D02*
X203028D01*
X214961Y216732D02*
Y220669D01*
X192283Y233189D02*
X199169Y226303D01*
X198016Y225016D02*
X202362Y220669D01*
X190457Y225016D02*
X198016D01*
X202362Y216732D02*
Y220669D01*
X181744Y223728D02*
X193004D01*
X196063Y220669D01*
Y216732D02*
Y220669D01*
X182283Y233189D02*
X190457Y225016D01*
X189764Y216732D02*
Y220669D01*
X187992Y222441D02*
X189764Y220669D01*
X172283Y233189D02*
X181744Y223728D01*
X271654Y216732D02*
Y220669D01*
X172283Y233189D02*
Y239094D01*
X182283Y233189D02*
Y239094D01*
X192283Y233189D02*
Y239094D01*
X259348Y194882D02*
X267126D01*
X277953Y205709D01*
X255884Y191417D02*
X259348Y194882D01*
X262114Y196169D02*
X271654Y205709D01*
X257535Y196169D02*
X262114D01*
X255884Y187480D02*
Y191417D01*
X277953Y205709D02*
Y209646D01*
X271654Y205709D02*
Y209646D01*
X377804Y214193D02*
Y218259D01*
X375984Y220079D02*
X377804Y218259D01*
X372047Y220079D02*
X375984D01*
X372047D02*
Y226122D01*
X371004Y227165D02*
X372047Y226122D01*
D15*
X64780Y46276D02*
X66091D01*
X65435D01*
Y50211D01*
X64780Y49555D01*
D18*
X57874Y235433D02*
D03*
X79921D02*
D03*
D19*
X133071Y180315D02*
D03*
X140157D02*
D03*
X299213Y143110D02*
D03*
Y148425D02*
D03*
Y165551D02*
D03*
Y160236D02*
D03*
X268898Y109843D02*
D03*
X261811D02*
D03*
X114173Y49606D02*
D03*
X107087D02*
D03*
X133071Y192913D02*
D03*
X140157D02*
D03*
Y186614D02*
D03*
X133071D02*
D03*
X100394Y49606D02*
D03*
X93307D02*
D03*
X364961Y220079D02*
D03*
X372047D02*
D03*
X390551Y209842D02*
D03*
X397638D02*
D03*
Y197244D02*
D03*
X390551D02*
D03*
X397638Y203543D02*
D03*
X390551D02*
D03*
X55118Y103150D02*
D03*
X48031D02*
D03*
X345276Y204035D02*
D03*
Y209350D02*
D03*
X351788Y204035D02*
D03*
Y209350D02*
D03*
X365748Y55748D02*
D03*
Y61063D02*
D03*
Y70433D02*
D03*
Y75748D02*
D03*
X191732Y132776D02*
D03*
Y138091D02*
D03*
X185433Y132776D02*
D03*
Y138091D02*
D03*
X191732Y168504D02*
D03*
Y173819D02*
D03*
X185433Y168504D02*
D03*
Y173819D02*
D03*
X179134Y168504D02*
D03*
Y173819D02*
D03*
X172835Y168504D02*
D03*
Y173819D02*
D03*
D20*
X308661Y92224D02*
D03*
Y85925D02*
D03*
X302756Y92224D02*
D03*
Y85925D02*
D03*
D21*
X312500Y120472D02*
D03*
X307185D02*
D03*
X302559Y98917D02*
D03*
Y106004D02*
D03*
X308858Y98917D02*
D03*
Y106004D02*
D03*
X159449Y138976D02*
D03*
Y131890D02*
D03*
X145276Y138976D02*
D03*
Y131890D02*
D03*
X131102Y138976D02*
D03*
Y131890D02*
D03*
X296850Y210039D02*
D03*
Y202953D02*
D03*
X290551D02*
D03*
Y210039D02*
D03*
X303150Y202953D02*
D03*
Y210039D02*
D03*
X265354Y209646D02*
D03*
Y216732D02*
D03*
X315748Y202953D02*
D03*
Y210039D02*
D03*
X259055Y216732D02*
D03*
Y209646D02*
D03*
X309449Y202953D02*
D03*
Y210039D02*
D03*
X252756Y216732D02*
D03*
Y209646D02*
D03*
X322047Y210039D02*
D03*
Y202953D02*
D03*
X246457Y216732D02*
D03*
Y209646D02*
D03*
X233858D02*
D03*
Y216732D02*
D03*
X240158D02*
D03*
Y209646D02*
D03*
X129921Y243701D02*
D03*
Y236614D02*
D03*
X227559Y209646D02*
D03*
Y216732D02*
D03*
X221260Y209646D02*
D03*
Y216732D02*
D03*
X142520Y243701D02*
D03*
Y236614D02*
D03*
X208661Y216732D02*
D03*
Y209646D02*
D03*
X136221Y243701D02*
D03*
Y236614D02*
D03*
X196063Y216732D02*
D03*
Y209646D02*
D03*
X202362Y216732D02*
D03*
Y209646D02*
D03*
X123622Y243701D02*
D03*
Y236614D02*
D03*
X189764Y216732D02*
D03*
Y209646D02*
D03*
X98425Y243701D02*
D03*
Y236614D02*
D03*
X104724Y243701D02*
D03*
Y236614D02*
D03*
X111024Y243701D02*
D03*
Y236614D02*
D03*
X214961Y209646D02*
D03*
Y216732D02*
D03*
X117323Y236614D02*
D03*
Y243701D02*
D03*
X271654Y209646D02*
D03*
Y216732D02*
D03*
X277953Y209646D02*
D03*
Y216732D02*
D03*
X391437Y190945D02*
D03*
X396752D02*
D03*
X71555Y214961D02*
D03*
X66240D02*
D03*
D22*
X305743Y134015D02*
D03*
X313943Y130315D02*
D03*
X305743Y126615D02*
D03*
D23*
X309842Y146457D02*
D03*
Y162205D02*
D03*
D24*
X114370Y62992D02*
D03*
X106890D02*
D03*
X110630Y55118D02*
D03*
X100591Y62992D02*
D03*
X93110D02*
D03*
X96850Y55118D02*
D03*
D25*
X166535Y130905D02*
D03*
Y139961D02*
D03*
X152362Y130905D02*
D03*
Y139961D02*
D03*
X138189Y130905D02*
D03*
Y139961D02*
D03*
D26*
X66535Y104724D02*
D03*
Y110236D02*
D03*
D27*
X359204Y204193D02*
D03*
Y209193D02*
D03*
X377804Y214193D02*
D03*
Y209193D02*
D03*
Y204193D02*
D03*
Y199193D02*
D03*
X359204D02*
D03*
Y214193D02*
D03*
D28*
X262283Y146480D02*
D03*
X202284Y171680D02*
D03*
Y133880D02*
D03*
X262283Y149580D02*
D03*
X202284Y168480D02*
D03*
Y136980D02*
D03*
Y143280D02*
D03*
Y146480D02*
D03*
Y149580D02*
D03*
Y152780D02*
D03*
Y155880D02*
D03*
Y159080D02*
D03*
Y162180D02*
D03*
Y165380D02*
D03*
Y174780D02*
D03*
Y177980D02*
D03*
Y181080D02*
D03*
X262283D02*
D03*
Y177980D02*
D03*
Y174780D02*
D03*
Y171680D02*
D03*
Y168480D02*
D03*
Y165380D02*
D03*
Y162180D02*
D03*
Y159080D02*
D03*
Y155880D02*
D03*
Y152780D02*
D03*
Y143280D02*
D03*
Y140180D02*
D03*
Y136980D02*
D03*
X202284Y140180D02*
D03*
X262283Y133880D02*
D03*
D29*
X208683Y187480D02*
D03*
X211784D02*
D03*
X214984D02*
D03*
X218084D02*
D03*
X221284D02*
D03*
X224383D02*
D03*
X227584D02*
D03*
X230683D02*
D03*
X233884D02*
D03*
X236983D02*
D03*
X240183D02*
D03*
X243284D02*
D03*
X246483D02*
D03*
X249584D02*
D03*
X252783D02*
D03*
X255884D02*
D03*
X249584Y127480D02*
D03*
X246483D02*
D03*
X243284D02*
D03*
X240183D02*
D03*
X236983D02*
D03*
X224383D02*
D03*
X221284D02*
D03*
X218084D02*
D03*
X214984D02*
D03*
X211784D02*
D03*
X208683D02*
D03*
X233884D02*
D03*
X227584D02*
D03*
X230683D02*
D03*
X255884D02*
D03*
X252783D02*
D03*
D30*
X366004Y227165D02*
D03*
X371004D02*
D03*
D31*
X54724Y110236D02*
D03*
X48425D02*
D03*
D49*
X252284Y249095D02*
D03*
X242284D02*
D03*
X232283D02*
D03*
X302284Y239094D02*
D03*
X292284D02*
D03*
X282283D02*
D03*
X272284D02*
D03*
X292284Y249095D02*
D03*
X282283D02*
D03*
X272284D02*
D03*
X262283Y239094D02*
D03*
Y249095D02*
D03*
X212283Y239094D02*
D03*
Y249095D02*
D03*
X202284Y239094D02*
D03*
X192283D02*
D03*
X202284Y249095D02*
D03*
X192283D02*
D03*
X182283Y239094D02*
D03*
Y249095D02*
D03*
X172283Y239094D02*
D03*
Y249095D02*
D03*
X162284Y239094D02*
D03*
Y249095D02*
D03*
X222284Y239094D02*
D03*
X232283D02*
D03*
X242284D02*
D03*
X252284D02*
D03*
X152284D02*
D03*
X302284Y249095D02*
D03*
X312283D02*
D03*
Y239094D02*
D03*
X222284Y249095D02*
D03*
D55*
X49213Y265748D02*
D03*
X415354Y49213D02*
D03*
Y265748D02*
D03*
X49213Y49213D02*
D03*
D56*
X152284Y249095D02*
D03*
D57*
X49213Y265748D02*
D03*
Y49213D02*
D03*
X415354D02*
D03*
Y265748D02*
D03*
D58*
X98740D02*
D03*
X108740D02*
D03*
X118740D02*
D03*
X128740D02*
D03*
X138740D02*
D03*
X148740D02*
D03*
X158740D02*
D03*
X168740D02*
D03*
X178740D02*
D03*
X188740D02*
D03*
X198740D02*
D03*
X208740D02*
D03*
X218740D02*
D03*
X228740D02*
D03*
X78740D02*
D03*
X88740D02*
D03*
D59*
X191339Y50394D02*
D03*
Y62205D02*
D03*
X179528D02*
D03*
Y50394D02*
D03*
X144095D02*
D03*
X155905D02*
D03*
X167717D02*
D03*
X132283Y62205D02*
D03*
X167717D02*
D03*
X155905D02*
D03*
X144095D02*
D03*
X320079D02*
D03*
X308268D02*
D03*
X320079Y50394D02*
D03*
X277165Y62205D02*
D03*
X265354D02*
D03*
X277165Y50394D02*
D03*
X234252Y62205D02*
D03*
X222441D02*
D03*
X234252Y50394D02*
D03*
X377453Y55748D02*
D03*
Y65748D02*
D03*
Y75748D02*
D03*
D60*
X132283Y50394D02*
D03*
X308268D02*
D03*
X265354D02*
D03*
X222441D02*
D03*
D61*
X77953Y147480D02*
D03*
X87953Y167480D02*
D03*
X77953Y177480D02*
D03*
Y137480D02*
D03*
X87953Y147480D02*
D03*
Y157480D02*
D03*
X77953D02*
D03*
Y167480D02*
D03*
X87953Y177480D02*
D03*
D62*
Y137480D02*
D03*
D63*
X222441Y230709D02*
D03*
X249606Y181496D02*
D03*
X252756Y228346D02*
D03*
X246457D02*
D03*
X240158D02*
D03*
X142520Y255118D02*
D03*
X137795Y248819D02*
D03*
X125984D02*
D03*
X120079D02*
D03*
X131890D02*
D03*
X107874Y157480D02*
D03*
Y137480D02*
D03*
Y162098D02*
D03*
Y177480D02*
D03*
X216093Y181545D02*
D03*
X212549Y181447D02*
D03*
X193701Y191339D02*
D03*
X191847Y186646D02*
D03*
X146457Y192913D02*
D03*
X219685Y181496D02*
D03*
X146457Y180315D02*
D03*
Y186614D02*
D03*
X189370Y193307D02*
D03*
X196063Y205118D02*
D03*
X189764D02*
D03*
X202362D02*
D03*
X319291Y125394D02*
D03*
X300394Y123544D02*
D03*
X268189Y178063D02*
D03*
Y174697D02*
D03*
X299213Y154331D02*
D03*
X305709Y79035D02*
D03*
X274803Y109843D02*
D03*
X255906D02*
D03*
X236689Y121575D02*
D03*
X93110Y67716D02*
D03*
X100591D02*
D03*
X106890D02*
D03*
X268189Y133880D02*
D03*
X127165Y180315D02*
D03*
X180315Y132776D02*
D03*
X208189Y168347D02*
D03*
Y171815D02*
D03*
X268189Y143280D02*
D03*
X152362Y125984D02*
D03*
X127165Y192913D02*
D03*
Y186614D02*
D03*
X159449Y125984D02*
D03*
X145276D02*
D03*
X131102D02*
D03*
X166535D02*
D03*
X138189D02*
D03*
X166929Y168504D02*
D03*
Y173819D02*
D03*
X180315Y138091D02*
D03*
X384646Y203543D02*
D03*
Y209842D02*
D03*
X71555Y209055D02*
D03*
X60630Y103150D02*
D03*
X268189Y146646D02*
D03*
X339370Y204035D02*
D03*
X66240Y209055D02*
D03*
X60630Y110236D02*
D03*
X339370Y209350D02*
D03*
X268189Y150008D02*
D03*
X310453Y178063D02*
D03*
X307087Y174697D02*
D03*
X240051Y121575D02*
D03*
X246779D02*
D03*
X243417D02*
D03*
X322047Y215945D02*
D03*
X315748D02*
D03*
X309449D02*
D03*
X303150D02*
D03*
X296850D02*
D03*
X290551D02*
D03*
M02*
