G04*
G04 #@! TF.GenerationSoftware,Altium Limited,Altium Designer,23.8.1 (32)*
G04*
G04 Layer_Color=32896*
%FSLAX25Y25*%
%MOIN*%
G70*
G04*
G04 #@! TF.SameCoordinates,BF2EEF1A-6A82-4CD2-B880-65E340770DF0*
G04*
G04*
G04 #@! TF.FilePolarity,Positive*
G04*
G01*
G75*
%ADD13C,0.00787*%
%ADD15C,0.01000*%
%ADD16C,0.00600*%
%ADD64R,0.17717X0.03150*%
D13*
X115748Y50394D02*
X114961D01*
X115748D01*
X291732D02*
X290945D01*
X291732D01*
X248819D02*
X248031D01*
X248819D01*
X205906D02*
X205118D01*
X205906D01*
X131811Y226378D02*
Y261811D01*
X332756D01*
X131811Y226378D02*
X332756D01*
Y261811D01*
X205906Y40157D02*
Y70197D01*
X117717D02*
X205906D01*
X117717Y40157D02*
X205906D01*
X117717D02*
Y70197D01*
X334646Y40157D02*
Y70197D01*
X293701D02*
X334646D01*
X293701Y40157D02*
X334646D01*
X293701D02*
Y70197D01*
X291732Y40157D02*
Y70197D01*
X250787D02*
X291732D01*
X250787Y40157D02*
X291732D01*
X250787D02*
Y70197D01*
X248819Y40157D02*
Y70197D01*
X207874D02*
X248819D01*
X207874Y40157D02*
X248819D01*
X207874D02*
Y70197D01*
D15*
X330574Y80739D02*
X331573Y81739D01*
X333573D01*
X334572Y80739D01*
Y79740D01*
X333573Y78740D01*
X331573D01*
X330574Y77741D01*
Y76741D01*
X331573Y75741D01*
X333573D01*
X334572Y76741D01*
X328574Y81739D02*
Y75741D01*
X326575Y77741D01*
X324575Y75741D01*
Y81739D01*
X318577Y80739D02*
X319577Y81739D01*
X321576D01*
X322576Y80739D01*
Y76741D01*
X321576Y75741D01*
X319577D01*
X318577Y76741D01*
X201729Y81239D02*
X202729Y82239D01*
X204728D01*
X205728Y81239D01*
Y80240D01*
X204728Y79240D01*
X202729D01*
X201729Y78240D01*
Y77241D01*
X202729Y76241D01*
X204728D01*
X205728Y77241D01*
X199730Y82239D02*
Y76241D01*
X196731D01*
X195731Y77241D01*
Y81239D01*
X196731Y82239D01*
X199730D01*
X193732Y75241D02*
X189733D01*
X187734Y82239D02*
X183735D01*
X185734D01*
Y76241D01*
X177737Y81239D02*
X178736Y82239D01*
X180736D01*
X181736Y81239D01*
Y80240D01*
X180736Y79240D01*
X178736D01*
X177737Y78240D01*
Y77241D01*
X178736Y76241D01*
X180736D01*
X181736Y77241D01*
X291631Y81739D02*
Y75741D01*
X288632D01*
X287633Y76741D01*
Y80739D01*
X288632Y81739D01*
X291631D01*
X285633D02*
X283634D01*
X284634D01*
Y75741D01*
X285633D01*
X283634D01*
X276636Y80739D02*
X277636Y81739D01*
X279635D01*
X280635Y80739D01*
Y76741D01*
X279635Y75741D01*
X277636D01*
X276636Y76741D01*
X244721Y81239D02*
X245721Y82239D01*
X247720D01*
X248720Y81239D01*
Y77241D01*
X247720Y76241D01*
X245721D01*
X244721Y77241D01*
X242722Y76241D02*
Y80240D01*
X240722Y82239D01*
X238723Y80240D01*
Y76241D01*
Y79240D01*
X242722D01*
X236724Y76241D02*
Y82239D01*
X232725Y76241D01*
Y82239D01*
X230726Y75241D02*
X226727D01*
X224728Y81239D02*
X223728Y82239D01*
X221729D01*
X220729Y81239D01*
Y80240D01*
X221729Y79240D01*
X222728D01*
X221729D01*
X220729Y78240D01*
Y77241D01*
X221729Y76241D01*
X223728D01*
X224728Y77241D01*
X332600Y272396D02*
Y266399D01*
X328601D01*
X322603Y272396D02*
X326602D01*
Y266399D01*
X322603D01*
X326602Y269397D02*
X324603D01*
X320604Y272396D02*
Y266399D01*
X317605D01*
X316605Y267398D01*
Y271397D01*
X317605Y272396D01*
X320604D01*
X314606Y265399D02*
X310607D01*
X308608Y272396D02*
Y266399D01*
Y269397D01*
X304609D01*
Y272396D01*
Y266399D01*
X299611D02*
X301610D01*
X302610Y267398D01*
Y269397D01*
X301610Y270397D01*
X299611D01*
X298611Y269397D01*
Y268398D01*
X302610D01*
X295612Y270397D02*
X293613D01*
X292613Y269397D01*
Y266399D01*
X295612D01*
X296612Y267398D01*
X295612Y268398D01*
X292613D01*
X286615Y272396D02*
Y266399D01*
X289614D01*
X290614Y267398D01*
Y269397D01*
X289614Y270397D01*
X286615D01*
X281616Y266399D02*
X283616D01*
X284615Y267398D01*
Y269397D01*
X283616Y270397D01*
X281616D01*
X280617Y269397D01*
Y268398D01*
X284615D01*
X278618Y270397D02*
Y266399D01*
Y268398D01*
X277618Y269397D01*
X276618Y270397D01*
X275618D01*
D16*
X317244Y247613D02*
X317911Y246946D01*
X319243D01*
X319910Y247613D01*
Y248279D01*
X319243Y248945D01*
X318577D01*
X319243D01*
X319910Y249612D01*
Y250278D01*
X319243Y250945D01*
X317911D01*
X317244Y250278D01*
X321243Y247613D02*
X321909Y246946D01*
X323242D01*
X323909Y247613D01*
Y248279D01*
X323242Y248945D01*
X322576D01*
X323242D01*
X323909Y249612D01*
Y250278D01*
X323242Y250945D01*
X321909D01*
X321243Y250278D01*
X317244Y237613D02*
X317911Y236946D01*
X319243D01*
X319910Y237613D01*
Y238279D01*
X319243Y238946D01*
X318577D01*
X319243D01*
X319910Y239612D01*
Y240278D01*
X319243Y240945D01*
X317911D01*
X317244Y240278D01*
X323242Y240945D02*
Y236946D01*
X321243Y238946D01*
X323909D01*
X147626Y241181D02*
X144961D01*
X147626Y238515D01*
Y237849D01*
X146960Y237182D01*
X145627D01*
X144961Y237849D01*
X146142Y251181D02*
X147475D01*
X146808D01*
Y247182D01*
X146142Y247849D01*
D64*
X232284Y260236D02*
D03*
M02*
